%TF.GenerationSoftware,KiCad,Pcbnew,10.0.3*%
%TF.CreationDate,2026-05-31T00:14:14+02:00*%
%TF.ProjectId,Power Stage,506f7765-7220-4537-9461-67652e6b6963,rev?*%
%TF.SameCoordinates,Original*%
%TF.FileFunction,Copper,L4,Bot*%
%TF.FilePolarity,Positive*%
%FSLAX46Y46*%
G04 Gerber Fmt 4.6, Leading zero omitted, Abs format (unit mm)*
G04 Created by KiCad (PCBNEW 10.0.3) date 2026-05-31 00:14:14*
%MOMM*%
%LPD*%
G01*
G04 APERTURE LIST*
G04 Aperture macros list*
%AMRoundRect*
0 Rectangle with rounded corners*
0 $1 Rounding radius*
0 $2 $3 $4 $5 $6 $7 $8 $9 X,Y pos of 4 corners*
0 Add a 4 corners polygon primitive as box body*
4,1,4,$2,$3,$4,$5,$6,$7,$8,$9,$2,$3,0*
0 Add four circle primitives for the rounded corners*
1,1,$1+$1,$2,$3*
1,1,$1+$1,$4,$5*
1,1,$1+$1,$6,$7*
1,1,$1+$1,$8,$9*
0 Add four rect primitives between the rounded corners*
20,1,$1+$1,$2,$3,$4,$5,0*
20,1,$1+$1,$4,$5,$6,$7,0*
20,1,$1+$1,$6,$7,$8,$9,0*
20,1,$1+$1,$8,$9,$2,$3,0*%
G04 Aperture macros list end*
%TA.AperFunction,ComponentPad*%
%ADD10R,1.700000X1.700000*%
%TD*%
%TA.AperFunction,ComponentPad*%
%ADD11C,1.700000*%
%TD*%
%TA.AperFunction,ComponentPad*%
%ADD12C,2.400000*%
%TD*%
%TA.AperFunction,ComponentPad*%
%ADD13RoundRect,0.250000X-1.000000X-1.000000X1.000000X-1.000000X1.000000X1.000000X-1.000000X1.000000X0*%
%TD*%
%TA.AperFunction,ComponentPad*%
%ADD14C,2.500000*%
%TD*%
%TA.AperFunction,ComponentPad*%
%ADD15RoundRect,0.250001X-0.899999X-0.899999X0.899999X-0.899999X0.899999X0.899999X-0.899999X0.899999X0*%
%TD*%
%TA.AperFunction,ComponentPad*%
%ADD16C,2.300000*%
%TD*%
%TA.AperFunction,SMDPad,CuDef*%
%ADD17RoundRect,0.225000X-0.250000X0.225000X-0.250000X-0.225000X0.250000X-0.225000X0.250000X0.225000X0*%
%TD*%
%TA.AperFunction,SMDPad,CuDef*%
%ADD18RoundRect,0.250000X1.425000X-0.362500X1.425000X0.362500X-1.425000X0.362500X-1.425000X-0.362500X0*%
%TD*%
%TA.AperFunction,SMDPad,CuDef*%
%ADD19RoundRect,0.250000X1.100000X-0.325000X1.100000X0.325000X-1.100000X0.325000X-1.100000X-0.325000X0*%
%TD*%
%TA.AperFunction,SMDPad,CuDef*%
%ADD20RoundRect,0.249998X-4.550002X3.650002X-4.550002X-3.650002X4.550002X-3.650002X4.550002X3.650002X0*%
%TD*%
%TA.AperFunction,SMDPad,CuDef*%
%ADD21C,1.000000*%
%TD*%
%TA.AperFunction,ViaPad*%
%ADD22C,0.400000*%
%TD*%
%TA.AperFunction,ViaPad*%
%ADD23C,0.600000*%
%TD*%
%TA.AperFunction,Conductor*%
%ADD24C,0.300000*%
%TD*%
G04 APERTURE END LIST*
D10*
%TO.P,J2,1,Pin_1_1*%
%TO.N,+5V*%
X104625000Y-52400000D03*
D11*
%TO.P,J2,2,Pin_2_2*%
%TO.N,GND*%
X102085000Y-52400000D03*
%TD*%
D12*
%TO.P,,2*%
%TO.N,GND*%
X109900000Y-80850000D03*
%TD*%
%TO.P,C89,1*%
%TO.N,Net-(J6-Pin_4)*%
X140000000Y-95850000D03*
%TO.P,C89,2*%
%TO.N,GND*%
X140000000Y-73350000D03*
%TD*%
D10*
%TO.P,J3,1,Pin_1_1*%
%TO.N,Net-(J3-Pin_1)*%
X112225000Y-52400000D03*
D11*
%TO.P,J3,2,Pin_2_2*%
%TO.N,GND*%
X109685000Y-52400000D03*
%TD*%
D13*
%TO.P,J6,1,Pin_1_1*%
%TO.N,Net-(J5-Pin_1)*%
X117500000Y-95167500D03*
D14*
%TO.P,J6,2,Pin_2_2*%
%TO.N,GND*%
X122500000Y-95167500D03*
%TO.P,J6,3,Pin_3_3*%
X127500000Y-95167500D03*
%TO.P,J6,4,Pin_4_4*%
%TO.N,Net-(J6-Pin_4)*%
X132500000Y-95167500D03*
%TD*%
D12*
%TO.P,,2*%
%TO.N,GND*%
X140000000Y-80850000D03*
%TD*%
%TO.P,C88,1*%
%TO.N,Net-(J5-Pin_1)*%
X109900000Y-95850000D03*
%TO.P,C88,2*%
%TO.N,GND*%
X109900000Y-73350000D03*
%TD*%
D15*
%TO.P,J1,1,Pin_1_1*%
%TO.N,VCC*%
X123250000Y-53317500D03*
D16*
%TO.P,J1,2,Pin_2_2*%
%TO.N,GND*%
X126750000Y-53317500D03*
%TD*%
D10*
%TO.P,J7,1,Pin_1_1*%
%TO.N,Net-(J6-Pin_4)*%
X146500000Y-98000000D03*
%TD*%
%TO.P,J4,1,Pin_1_1*%
%TO.N,Net-(J4-Pin_1)*%
X140145000Y-52400000D03*
D11*
%TO.P,J4,2,Pin_2_2*%
%TO.N,GND*%
X137605000Y-52400000D03*
%TD*%
D10*
%TO.P,J5,1,Pin_1_1*%
%TO.N,Net-(J5-Pin_1)*%
X103500000Y-98000000D03*
%TD*%
D17*
%TO.P,C64,1*%
%TO.N,VCC*%
X138150000Y-67275000D03*
%TO.P,C64,2*%
%TO.N,GND*%
X138150000Y-68825000D03*
%TD*%
%TO.P,C20,1*%
%TO.N,VCC*%
X107200000Y-67225000D03*
%TO.P,C20,2*%
%TO.N,GND*%
X107200000Y-68775000D03*
%TD*%
%TO.P,C25,1*%
%TO.N,VCC*%
X114700000Y-67225000D03*
%TO.P,C25,2*%
%TO.N,GND*%
X114700000Y-68775000D03*
%TD*%
D18*
%TO.P,R10,1*%
%TO.N,Net-(C76-Pad2)*%
X135700000Y-61012500D03*
%TO.P,R10,2*%
%TO.N,GND*%
X135700000Y-55087500D03*
%TD*%
D19*
%TO.P,C79,1*%
%TO.N,VCC*%
X143700000Y-65725000D03*
%TO.P,C79,2*%
%TO.N,Net-(C78-Pad2)*%
X143700000Y-62775000D03*
%TD*%
D17*
%TO.P,C28,1*%
%TO.N,VCC*%
X119200000Y-67225000D03*
%TO.P,C28,2*%
%TO.N,GND*%
X119200000Y-68775000D03*
%TD*%
D18*
%TO.P,R1,1*%
%TO.N,Net-(C32-Pad2)*%
X102500000Y-60962500D03*
%TO.P,R1,2*%
%TO.N,GND*%
X102500000Y-55037500D03*
%TD*%
D17*
%TO.P,C65,1*%
%TO.N,VCC*%
X139650000Y-67275000D03*
%TO.P,C65,2*%
%TO.N,GND*%
X139650000Y-68825000D03*
%TD*%
D19*
%TO.P,C34,1*%
%TO.N,VCC*%
X109350000Y-65675000D03*
%TO.P,C34,2*%
%TO.N,Net-(C34-Pad2)*%
X109350000Y-62725000D03*
%TD*%
D17*
%TO.P,C26,1*%
%TO.N,VCC*%
X116200000Y-67225000D03*
%TO.P,C26,2*%
%TO.N,GND*%
X116200000Y-68775000D03*
%TD*%
D19*
%TO.P,C75,1*%
%TO.N,VCC*%
X130900000Y-65725000D03*
%TO.P,C75,2*%
%TO.N,Net-(C74-Pad2)*%
X130900000Y-62775000D03*
%TD*%
D20*
%TO.P,C1,1*%
%TO.N,VCC*%
X133500000Y-76900000D03*
%TO.P,C1,2*%
%TO.N,GND*%
X133500000Y-89400000D03*
%TD*%
D19*
%TO.P,C38,1*%
%TO.N,VCC*%
X118950000Y-65675000D03*
%TO.P,C38,2*%
%TO.N,Net-(C38-Pad2)*%
X118950000Y-62725000D03*
%TD*%
D17*
%TO.P,C16,1*%
%TO.N,VCC*%
X101200000Y-67225000D03*
%TO.P,C16,2*%
%TO.N,GND*%
X101200000Y-68775000D03*
%TD*%
%TO.P,C59,1*%
%TO.N,VCC*%
X130650000Y-67275000D03*
%TO.P,C59,2*%
%TO.N,GND*%
X130650000Y-68825000D03*
%TD*%
%TO.P,C70,1*%
%TO.N,VCC*%
X147150000Y-67275000D03*
%TO.P,C70,2*%
%TO.N,GND*%
X147150000Y-68825000D03*
%TD*%
D18*
%TO.P,R12,1*%
%TO.N,Net-(C80-Pad2)*%
X147450000Y-61012500D03*
%TO.P,R12,2*%
%TO.N,GND*%
X147450000Y-55087500D03*
%TD*%
D17*
%TO.P,C69,1*%
%TO.N,VCC*%
X145650000Y-67275000D03*
%TO.P,C69,2*%
%TO.N,GND*%
X145650000Y-68825000D03*
%TD*%
D18*
%TO.P,R11,1*%
%TO.N,Net-(C78-Pad2)*%
X142100000Y-61012500D03*
%TO.P,R11,2*%
%TO.N,GND*%
X142100000Y-55087500D03*
%TD*%
D17*
%TO.P,C19,1*%
%TO.N,VCC*%
X105700000Y-67225000D03*
%TO.P,C19,2*%
%TO.N,GND*%
X105700000Y-68775000D03*
%TD*%
D18*
%TO.P,R4,1*%
%TO.N,Net-(C38-Pad2)*%
X119500000Y-61012500D03*
%TO.P,R4,2*%
%TO.N,GND*%
X119500000Y-55087500D03*
%TD*%
D17*
%TO.P,C71,1*%
%TO.N,VCC*%
X148650000Y-67275000D03*
%TO.P,C71,2*%
%TO.N,GND*%
X148650000Y-68825000D03*
%TD*%
%TO.P,C61,1*%
%TO.N,VCC*%
X133650000Y-67275000D03*
%TO.P,C61,2*%
%TO.N,GND*%
X133650000Y-68825000D03*
%TD*%
%TO.P,C63,1*%
%TO.N,VCC*%
X136650000Y-67275000D03*
%TO.P,C63,2*%
%TO.N,GND*%
X136650000Y-68825000D03*
%TD*%
%TO.P,C58,1*%
%TO.N,VCC*%
X129150000Y-67275000D03*
%TO.P,C58,2*%
%TO.N,GND*%
X129150000Y-68825000D03*
%TD*%
D19*
%TO.P,C36,1*%
%TO.N,VCC*%
X115750000Y-65675000D03*
%TO.P,C36,2*%
%TO.N,Net-(C36-Pad2)*%
X115750000Y-62725000D03*
%TD*%
%TO.P,C33,1*%
%TO.N,VCC*%
X102950000Y-65675000D03*
%TO.P,C33,2*%
%TO.N,Net-(C32-Pad2)*%
X102950000Y-62725000D03*
%TD*%
D17*
%TO.P,C24,1*%
%TO.N,VCC*%
X113200000Y-67225000D03*
%TO.P,C24,2*%
%TO.N,GND*%
X113200000Y-68775000D03*
%TD*%
%TO.P,C29,1*%
%TO.N,VCC*%
X120700000Y-67225000D03*
%TO.P,C29,2*%
%TO.N,GND*%
X120700000Y-68775000D03*
%TD*%
D19*
%TO.P,C80,1*%
%TO.N,VCC*%
X146900000Y-65725000D03*
%TO.P,C80,2*%
%TO.N,Net-(C80-Pad2)*%
X146900000Y-62775000D03*
%TD*%
D20*
%TO.P,C2,1*%
%TO.N,VCC*%
X116400000Y-76900000D03*
%TO.P,C2,2*%
%TO.N,GND*%
X116400000Y-89400000D03*
%TD*%
D21*
%TO.P,REF\u002A\u002A,*%
%TO.N,*%
X148000000Y-52800000D03*
%TD*%
D17*
%TO.P,C22,1*%
%TO.N,VCC*%
X110200000Y-67225000D03*
%TO.P,C22,2*%
%TO.N,GND*%
X110200000Y-68775000D03*
%TD*%
%TO.P,C67,1*%
%TO.N,VCC*%
X142650000Y-67275000D03*
%TO.P,C67,2*%
%TO.N,GND*%
X142650000Y-68825000D03*
%TD*%
%TO.P,C18,1*%
%TO.N,VCC*%
X104200000Y-67225000D03*
%TO.P,C18,2*%
%TO.N,GND*%
X104200000Y-68775000D03*
%TD*%
%TO.P,C68,1*%
%TO.N,VCC*%
X144150000Y-67275000D03*
%TO.P,C68,2*%
%TO.N,GND*%
X144150000Y-68825000D03*
%TD*%
%TO.P,C27,1*%
%TO.N,VCC*%
X117700000Y-67225000D03*
%TO.P,C27,2*%
%TO.N,GND*%
X117700000Y-68775000D03*
%TD*%
D19*
%TO.P,C35,1*%
%TO.N,VCC*%
X106150000Y-65675000D03*
%TO.P,C35,2*%
%TO.N,Net-(C34-Pad2)*%
X106150000Y-62725000D03*
%TD*%
D17*
%TO.P,C21,1*%
%TO.N,VCC*%
X108700000Y-67225000D03*
%TO.P,C21,2*%
%TO.N,GND*%
X108700000Y-68775000D03*
%TD*%
%TO.P,C62,1*%
%TO.N,VCC*%
X135150000Y-67275000D03*
%TO.P,C62,2*%
%TO.N,GND*%
X135150000Y-68825000D03*
%TD*%
D18*
%TO.P,R2,1*%
%TO.N,Net-(C34-Pad2)*%
X107750000Y-61012500D03*
%TO.P,R2,2*%
%TO.N,GND*%
X107750000Y-55087500D03*
%TD*%
D19*
%TO.P,C37,1*%
%TO.N,VCC*%
X112550000Y-65675000D03*
%TO.P,C37,2*%
%TO.N,Net-(C36-Pad2)*%
X112550000Y-62725000D03*
%TD*%
D17*
%TO.P,C23,1*%
%TO.N,VCC*%
X111700000Y-67225000D03*
%TO.P,C23,2*%
%TO.N,GND*%
X111700000Y-68775000D03*
%TD*%
%TO.P,C66,1*%
%TO.N,VCC*%
X141150000Y-67275000D03*
%TO.P,C66,2*%
%TO.N,GND*%
X141150000Y-68825000D03*
%TD*%
D21*
%TO.P,REF\u002A\u002A,*%
%TO.N,*%
X102700000Y-94900000D03*
%TD*%
D17*
%TO.P,C60,1*%
%TO.N,VCC*%
X132150000Y-67275000D03*
%TO.P,C60,2*%
%TO.N,GND*%
X132150000Y-68825000D03*
%TD*%
D19*
%TO.P,C77,1*%
%TO.N,VCC*%
X137300000Y-65725000D03*
%TO.P,C77,2*%
%TO.N,Net-(C76-Pad2)*%
X137300000Y-62775000D03*
%TD*%
D18*
%TO.P,R3,1*%
%TO.N,Net-(C36-Pad2)*%
X114150000Y-61012500D03*
%TO.P,R3,2*%
%TO.N,GND*%
X114150000Y-55087500D03*
%TD*%
D17*
%TO.P,C17,1*%
%TO.N,VCC*%
X102700000Y-67225000D03*
%TO.P,C17,2*%
%TO.N,GND*%
X102700000Y-68775000D03*
%TD*%
D18*
%TO.P,R9,1*%
%TO.N,Net-(C74-Pad2)*%
X130450000Y-61012500D03*
%TO.P,R9,2*%
%TO.N,GND*%
X130450000Y-55087500D03*
%TD*%
D19*
%TO.P,C78,1*%
%TO.N,VCC*%
X140500000Y-65725000D03*
%TO.P,C78,2*%
%TO.N,Net-(C78-Pad2)*%
X140500000Y-62775000D03*
%TD*%
%TO.P,C76,1*%
%TO.N,VCC*%
X134100000Y-65725000D03*
%TO.P,C76,2*%
%TO.N,Net-(C76-Pad2)*%
X134100000Y-62775000D03*
%TD*%
D22*
%TO.N,VCC*%
X139900000Y-65000000D03*
X113200000Y-67225000D03*
X102875000Y-70250000D03*
X136650000Y-67275000D03*
X133650000Y-67275000D03*
X114700000Y-67225000D03*
X129300000Y-65725000D03*
D23*
X127000000Y-61500000D03*
D22*
X145450000Y-65825000D03*
D23*
X125000000Y-61500000D03*
X123000000Y-61500000D03*
D22*
X137900000Y-66400000D03*
X120700000Y-67225000D03*
X139650000Y-67275000D03*
X137400000Y-67600000D03*
X147025000Y-70300000D03*
X111946156Y-66405128D03*
X112446156Y-66900000D03*
X111700000Y-67225000D03*
X137400000Y-66999997D03*
X108746156Y-66605128D03*
D23*
X123000000Y-67500000D03*
D22*
X110946156Y-65705128D03*
X119200000Y-67225000D03*
X110946156Y-66900000D03*
X110200000Y-67225000D03*
X139900000Y-65688302D03*
X120554090Y-65656439D03*
X142650000Y-67275000D03*
X104200000Y-67225000D03*
X137900000Y-65000000D03*
X112446156Y-67500000D03*
D23*
X127000000Y-63500000D03*
D22*
X132450000Y-65825000D03*
D23*
X127000000Y-55500000D03*
X123000000Y-63500000D03*
X123000000Y-59500000D03*
D22*
X118950000Y-65675000D03*
X144150000Y-67275000D03*
X109446156Y-67500003D03*
X138900000Y-67600000D03*
X146900000Y-65725000D03*
X102950000Y-65675000D03*
D23*
X125000000Y-59500000D03*
D22*
X111946156Y-65005128D03*
X138900000Y-66400000D03*
X108700000Y-67225000D03*
D23*
X127000000Y-65500000D03*
D22*
X105700000Y-67225000D03*
X113046156Y-66605128D03*
X138900000Y-65000000D03*
X135150000Y-67275000D03*
X138150000Y-67275000D03*
X101359767Y-65677789D03*
X140400000Y-67000000D03*
X110946156Y-66305131D03*
X136700000Y-66600000D03*
X148650000Y-67275000D03*
D23*
X125000000Y-63500000D03*
D22*
X141150000Y-67275000D03*
X107200000Y-67225000D03*
X148500000Y-65725000D03*
X117700000Y-67225000D03*
D23*
X125000000Y-57500000D03*
D22*
X138900000Y-65700000D03*
X117500000Y-65800000D03*
X147150000Y-67275000D03*
X109946156Y-65005128D03*
D23*
X123000000Y-55500000D03*
D22*
X111946156Y-65693430D03*
X137900000Y-65700000D03*
X138900000Y-67000000D03*
X130650000Y-67275000D03*
D23*
X127000000Y-59500000D03*
D22*
X141000000Y-66600000D03*
X116200000Y-67225000D03*
D23*
X125000000Y-65500000D03*
D22*
X102700000Y-67225000D03*
X110946156Y-65005128D03*
X129150000Y-67275000D03*
D23*
X125000000Y-55500000D03*
X125000000Y-67500000D03*
X127000000Y-57500000D03*
X123000000Y-65500000D03*
D22*
X132150000Y-67275000D03*
X130900000Y-65725000D03*
X145650000Y-67275000D03*
X139900000Y-66400000D03*
X101200000Y-67225000D03*
X140400000Y-67600000D03*
X109946156Y-66405128D03*
D23*
X123000000Y-57500000D03*
D22*
X109446156Y-66900000D03*
D23*
X127000000Y-67500000D03*
D22*
X104500000Y-65775000D03*
X109946156Y-65705128D03*
X110946156Y-67500003D03*
D23*
%TO.N,GND*%
X103300000Y-54850000D03*
X102000000Y-87000000D03*
D22*
X130650000Y-68825000D03*
D23*
X149000000Y-64000000D03*
D22*
X141250000Y-68250000D03*
X142650000Y-68825000D03*
X113300000Y-68800000D03*
X119200000Y-68775000D03*
X119075000Y-70250000D03*
X132450000Y-64275000D03*
X110950000Y-68800000D03*
D23*
X120000000Y-51000000D03*
D22*
X148650000Y-68825000D03*
D23*
X138150000Y-57325000D03*
X138000000Y-51000000D03*
X145125000Y-86600000D03*
X141000000Y-55000000D03*
X144000000Y-78000000D03*
X116400000Y-89400000D03*
X117400000Y-53500000D03*
X118500000Y-55000000D03*
X148000000Y-88000000D03*
D22*
X143650000Y-57325000D03*
X110200000Y-68800000D03*
D23*
X147000000Y-64000000D03*
X136000000Y-53000000D03*
D22*
X111700000Y-68200000D03*
D23*
X131500000Y-55000000D03*
X106000000Y-84000000D03*
X135000000Y-55000000D03*
D22*
X147000000Y-88850000D03*
D23*
X144000000Y-84000000D03*
X131000000Y-64000000D03*
X120000000Y-59000000D03*
D22*
X108700000Y-68775000D03*
X141000001Y-57058600D03*
X133650000Y-68825000D03*
D23*
X119000000Y-64000000D03*
X106000000Y-72000000D03*
D22*
X104500000Y-64225000D03*
X129150000Y-68825000D03*
X133950000Y-64275000D03*
D23*
X106000000Y-91000000D03*
D22*
X115700000Y-57325000D03*
D23*
X102000000Y-58000000D03*
D22*
X140400000Y-68250000D03*
X139650000Y-68250000D03*
D23*
X148000000Y-57000000D03*
X136825000Y-64175000D03*
D22*
X136650000Y-68825000D03*
X102700000Y-68775000D03*
X145450000Y-64275000D03*
D23*
X139000000Y-55000000D03*
X102000000Y-54800000D03*
X130000000Y-59000000D03*
X113725000Y-59775000D03*
X141675000Y-59850000D03*
D22*
X109450000Y-68200000D03*
X138900000Y-68250000D03*
D23*
X133000000Y-57000000D03*
D22*
X137400000Y-68850000D03*
X103000000Y-59450000D03*
X130875000Y-70300000D03*
X144150000Y-68825000D03*
X107200000Y-68775000D03*
D23*
X115500000Y-55000000D03*
X148500000Y-55000000D03*
D22*
X114700000Y-68775000D03*
X110950000Y-68200000D03*
D23*
X106000000Y-51000000D03*
D22*
X101200000Y-68775000D03*
X145650000Y-68825000D03*
X108875000Y-64125000D03*
X102150000Y-59450000D03*
X103000000Y-88850000D03*
D23*
X111000000Y-55000000D03*
X105625000Y-59800000D03*
X146300000Y-52500000D03*
X108500000Y-55000000D03*
D22*
X103850000Y-59450000D03*
D23*
X115000000Y-51000000D03*
D22*
X136650000Y-68250000D03*
X117500000Y-64250000D03*
X109450000Y-68800000D03*
D23*
X146000000Y-59000000D03*
X113000000Y-55000000D03*
X139500000Y-59500000D03*
X148100000Y-83500000D03*
X146500000Y-55000000D03*
D22*
X108700000Y-68200000D03*
D23*
X129000000Y-64000000D03*
D22*
X135500001Y-57058600D03*
X138900000Y-68850000D03*
X113700000Y-57058600D03*
D23*
X104775000Y-86600000D03*
X115000000Y-87000000D03*
D22*
X105700000Y-68775000D03*
D23*
X148000000Y-51000000D03*
D22*
X110200000Y-68200000D03*
D23*
X133500000Y-89400000D03*
D22*
X104200000Y-68775000D03*
D23*
X101500000Y-98000000D03*
X111500000Y-59500000D03*
X118000000Y-87000000D03*
D22*
X147150000Y-68825000D03*
X110200000Y-57325000D03*
X139650000Y-68850000D03*
X111700000Y-68800000D03*
X117700000Y-68775000D03*
D23*
X132000000Y-87000000D03*
X133025000Y-53025000D03*
D22*
X120700000Y-68775000D03*
D23*
X102000000Y-81000000D03*
X130450000Y-55087500D03*
X101000000Y-64000000D03*
X125000000Y-69000000D03*
D22*
X143950000Y-64275000D03*
X138150000Y-68250000D03*
D23*
X103000000Y-64000000D03*
D22*
X116200000Y-68775000D03*
D23*
X136500000Y-55000000D03*
X117000000Y-57000000D03*
D22*
X140400000Y-68850000D03*
X141650000Y-57058600D03*
X112450000Y-68800000D03*
D23*
X135000000Y-87000000D03*
X119500000Y-55000000D03*
D22*
X112450000Y-68200000D03*
D23*
X148000000Y-72400000D03*
D22*
X138150000Y-68850000D03*
D23*
X106000000Y-78000000D03*
X144000000Y-92000000D03*
X102000000Y-75000000D03*
X110000000Y-51000000D03*
X133000000Y-51000000D03*
D22*
X113300000Y-68200000D03*
D23*
X144000000Y-72000000D03*
D22*
X141250000Y-68850000D03*
D23*
X148500000Y-98000000D03*
D22*
X113050001Y-57058600D03*
D23*
X121000000Y-64000000D03*
X143000000Y-51000000D03*
X106800000Y-55050000D03*
D22*
X116000000Y-64250000D03*
D23*
X133675000Y-59825000D03*
D22*
X137400000Y-68250000D03*
X107550001Y-57058600D03*
X135150000Y-68825000D03*
X106000000Y-64225000D03*
D23*
X102000000Y-51000000D03*
D22*
X132150000Y-68825000D03*
D23*
X143000000Y-55000000D03*
%TO.N,Net-(C80-Pad2)*%
X148500000Y-62750000D03*
X146250000Y-62750000D03*
X147500000Y-62750000D03*
%TO.N,Net-(C74-Pad2)*%
X131500000Y-62750000D03*
X130500000Y-62750000D03*
X129500000Y-62750000D03*
%TO.N,Net-(C32-Pad2)*%
X101500000Y-62750000D03*
X102500000Y-62750000D03*
X103500000Y-62750000D03*
%TO.N,Net-(C38-Pad2)*%
X119250000Y-62750000D03*
X118250000Y-62750000D03*
X120500000Y-62750000D03*
%TD*%
%TO.N,VCC*%
D24*
X111850000Y-70250000D02*
X111900000Y-70300000D01*
%TD*%
%TA.AperFunction,Conductor*%
%TO.N,VCC*%
G36*
X128470462Y-50505576D02*
G01*
X128485950Y-50509726D01*
X128485951Y-50509727D01*
X128519195Y-50528920D01*
X128552703Y-50548248D01*
X128552718Y-50548275D01*
X128552746Y-50548291D01*
X128591008Y-50614532D01*
X128591294Y-50615027D01*
X128595436Y-50630460D01*
X128600529Y-50668965D01*
X128600745Y-50940705D01*
X128603378Y-54262744D01*
X128598331Y-54301313D01*
X128590285Y-54331436D01*
X128564543Y-54383689D01*
X128524417Y-54435983D01*
X128524416Y-54435984D01*
X128524411Y-54435993D01*
X128466669Y-54575395D01*
X128466667Y-54575401D01*
X128451920Y-54687425D01*
X128451920Y-54687432D01*
X128451920Y-54687433D01*
X128451920Y-55487559D01*
X128451921Y-55487567D01*
X128466669Y-55599597D01*
X128466670Y-55599604D01*
X128466672Y-55599609D01*
X128524413Y-55739009D01*
X128524414Y-55739012D01*
X128524415Y-55739013D01*
X128555565Y-55779608D01*
X128561940Y-55787915D01*
X128581389Y-55821603D01*
X128593341Y-55850458D01*
X128604683Y-55907359D01*
X128607867Y-59923760D01*
X128587964Y-59998276D01*
X128533469Y-60052857D01*
X128509830Y-60063892D01*
X128485847Y-60072621D01*
X128485842Y-60072624D01*
X128392513Y-60137972D01*
X128337973Y-60192512D01*
X128301213Y-60236322D01*
X128301213Y-60236323D01*
X128253063Y-60339583D01*
X128253060Y-60339590D01*
X128233098Y-60414090D01*
X128233096Y-60414103D01*
X128221920Y-60498994D01*
X128221920Y-63201005D01*
X128233096Y-63285896D01*
X128233100Y-63285917D01*
X128253057Y-63360403D01*
X128272619Y-63414149D01*
X128272620Y-63414151D01*
X128272621Y-63414153D01*
X128272624Y-63414157D01*
X128337972Y-63507486D01*
X128392512Y-63562026D01*
X128393781Y-63563091D01*
X128393973Y-63563366D01*
X128394912Y-63564226D01*
X128394721Y-63564434D01*
X128438018Y-63626272D01*
X128444738Y-63703107D01*
X128435659Y-63734250D01*
X128400868Y-63818239D01*
X128400862Y-63818261D01*
X128378871Y-63928817D01*
X128378871Y-63928821D01*
X128376920Y-63938632D01*
X128376920Y-64061368D01*
X128400864Y-64181746D01*
X128447834Y-64295139D01*
X128516022Y-64397190D01*
X128516025Y-64397193D01*
X128554026Y-64435194D01*
X128577704Y-64466051D01*
X128591584Y-64490091D01*
X128611547Y-64564475D01*
X128611673Y-64724870D01*
X128611674Y-64724872D01*
X128611675Y-64724873D01*
X132128536Y-64727675D01*
X132167035Y-64732767D01*
X132203583Y-64742576D01*
X132239445Y-64757437D01*
X132243927Y-64760024D01*
X132247022Y-64761946D01*
X132248094Y-64762431D01*
X132248097Y-64762431D01*
X132248099Y-64762433D01*
X132381135Y-64798080D01*
X132518865Y-64798080D01*
X132651901Y-64762433D01*
X132659678Y-64757942D01*
X132695606Y-64743058D01*
X132732158Y-64733262D01*
X132770833Y-64728186D01*
X133630609Y-64728872D01*
X133669106Y-64733963D01*
X133705652Y-64743771D01*
X133741529Y-64758640D01*
X133748095Y-64762431D01*
X133748099Y-64762433D01*
X133881135Y-64798080D01*
X134018865Y-64798080D01*
X134151901Y-64762433D01*
X134157613Y-64759135D01*
X134193539Y-64744251D01*
X134230084Y-64734457D01*
X134268759Y-64729380D01*
X136495360Y-64731155D01*
X136524364Y-64734029D01*
X136552538Y-64739646D01*
X136580423Y-64748110D01*
X136643254Y-64774136D01*
X136763632Y-64798080D01*
X136886368Y-64798080D01*
X137006746Y-64774136D01*
X137068307Y-64748635D01*
X137096304Y-64740147D01*
X137124602Y-64734530D01*
X137153717Y-64731679D01*
X143644430Y-64736852D01*
X143682931Y-64741945D01*
X143689146Y-64743613D01*
X143719477Y-64751753D01*
X143740021Y-64760268D01*
X143748097Y-64762432D01*
X143748099Y-64762433D01*
X143881135Y-64798080D01*
X144018865Y-64798080D01*
X144151901Y-64762433D01*
X144151903Y-64762432D01*
X144160925Y-64758695D01*
X144161393Y-64759826D01*
X144179752Y-64752212D01*
X144209462Y-64744249D01*
X144216294Y-64742417D01*
X144254981Y-64737338D01*
X145146505Y-64738049D01*
X145184997Y-64743140D01*
X145223384Y-64753442D01*
X145240931Y-64760106D01*
X145241062Y-64759762D01*
X145248094Y-64762430D01*
X145248095Y-64762431D01*
X145248099Y-64762433D01*
X145381135Y-64798080D01*
X145518865Y-64798080D01*
X145651901Y-64762433D01*
X145651906Y-64762430D01*
X145657351Y-64760175D01*
X145675790Y-64753913D01*
X145714221Y-64743612D01*
X145752906Y-64738532D01*
X149233087Y-64741306D01*
X149271641Y-64746412D01*
X149287161Y-64750584D01*
X149353925Y-64789200D01*
X149392396Y-64855874D01*
X149396521Y-64871252D01*
X149401609Y-64909656D01*
X149405365Y-67716410D01*
X149400338Y-67754984D01*
X149396213Y-67770460D01*
X149357737Y-67837305D01*
X149291001Y-67875955D01*
X149275638Y-67880094D01*
X149236871Y-67885224D01*
X141705978Y-67884902D01*
X141667417Y-67879824D01*
X141640619Y-67872643D01*
X141579116Y-67837133D01*
X141578929Y-67837378D01*
X141577074Y-67835954D01*
X141573827Y-67834080D01*
X141571181Y-67831434D01*
X141571179Y-67831432D01*
X141548707Y-67818458D01*
X141535013Y-67810552D01*
X141484576Y-67781432D01*
X141451901Y-67762567D01*
X141318865Y-67726920D01*
X141181131Y-67726920D01*
X141076482Y-67754961D01*
X141076476Y-67754963D01*
X141048099Y-67762567D01*
X141048097Y-67762567D01*
X141048097Y-67762568D01*
X141022650Y-67777259D01*
X141022644Y-67777262D01*
X140969336Y-67808039D01*
X140967259Y-67808595D01*
X140899485Y-67847717D01*
X140824984Y-67867673D01*
X140750493Y-67847708D01*
X140685900Y-67810412D01*
X140680640Y-67808026D01*
X140601904Y-67762568D01*
X140601901Y-67762567D01*
X140468865Y-67726920D01*
X140331131Y-67726920D01*
X140226479Y-67754962D01*
X140226475Y-67754963D01*
X140198099Y-67762567D01*
X140198097Y-67762567D01*
X140198097Y-67762568D01*
X140172657Y-67777255D01*
X140172649Y-67777259D01*
X140116487Y-67809685D01*
X140080546Y-67824571D01*
X140063559Y-67829122D01*
X139986443Y-67829123D01*
X139969455Y-67824572D01*
X139933512Y-67809685D01*
X139930661Y-67808039D01*
X139851901Y-67762567D01*
X139718865Y-67726920D01*
X139581131Y-67726920D01*
X139476479Y-67754962D01*
X139476475Y-67754963D01*
X139448099Y-67762567D01*
X139448097Y-67762567D01*
X139448097Y-67762568D01*
X139422657Y-67777255D01*
X139422649Y-67777259D01*
X139366487Y-67809685D01*
X139330546Y-67824571D01*
X139313559Y-67829122D01*
X139236443Y-67829123D01*
X139219455Y-67824572D01*
X139183512Y-67809685D01*
X139180661Y-67808039D01*
X139101901Y-67762567D01*
X138968865Y-67726920D01*
X138831131Y-67726920D01*
X138726479Y-67754962D01*
X138726475Y-67754963D01*
X138698099Y-67762567D01*
X138698097Y-67762567D01*
X138698097Y-67762568D01*
X138672657Y-67777255D01*
X138672649Y-67777259D01*
X138616487Y-67809685D01*
X138580546Y-67824571D01*
X138563559Y-67829122D01*
X138486443Y-67829123D01*
X138469455Y-67824572D01*
X138433512Y-67809685D01*
X138430661Y-67808039D01*
X138351901Y-67762567D01*
X138218865Y-67726920D01*
X138081131Y-67726920D01*
X137976479Y-67754962D01*
X137976475Y-67754963D01*
X137948099Y-67762567D01*
X137948097Y-67762567D01*
X137948097Y-67762568D01*
X137922657Y-67777255D01*
X137922649Y-67777259D01*
X137866487Y-67809685D01*
X137830546Y-67824571D01*
X137813559Y-67829122D01*
X137736443Y-67829123D01*
X137719455Y-67824572D01*
X137683512Y-67809685D01*
X137680661Y-67808039D01*
X137601901Y-67762567D01*
X137468865Y-67726920D01*
X137331131Y-67726920D01*
X137226479Y-67754962D01*
X137226475Y-67754963D01*
X137198099Y-67762567D01*
X137198097Y-67762567D01*
X137198097Y-67762568D01*
X137172657Y-67777255D01*
X137172649Y-67777259D01*
X137116487Y-67809685D01*
X137080546Y-67824571D01*
X137063559Y-67829122D01*
X136986443Y-67829123D01*
X136969455Y-67824572D01*
X136933512Y-67809685D01*
X136930661Y-67808039D01*
X136851901Y-67762567D01*
X136718865Y-67726920D01*
X136581131Y-67726920D01*
X136476482Y-67754961D01*
X136476476Y-67754963D01*
X136448099Y-67762567D01*
X136448097Y-67762567D01*
X136448097Y-67762568D01*
X136422651Y-67777258D01*
X136422646Y-67777261D01*
X136328818Y-67831433D01*
X136321073Y-67837376D01*
X136320594Y-67836752D01*
X136302229Y-67850841D01*
X136278207Y-67864709D01*
X136203706Y-67884669D01*
X136203705Y-67884669D01*
X128572707Y-67884344D01*
X128571561Y-67884344D01*
X128571560Y-67884344D01*
X128571559Y-67884344D01*
X128571556Y-67884344D01*
X128559293Y-67885965D01*
X128539895Y-67887249D01*
X128500115Y-67887281D01*
X128500000Y-67887282D01*
X128499998Y-67887282D01*
X121526801Y-67892812D01*
X121517747Y-67890393D01*
X113812497Y-67891394D01*
X113773932Y-67886322D01*
X113747137Y-67879146D01*
X113680338Y-67840590D01*
X113680324Y-67840577D01*
X113621179Y-67781432D01*
X113589375Y-67763070D01*
X113501901Y-67712567D01*
X113368865Y-67676920D01*
X113231135Y-67676920D01*
X113098095Y-67712568D01*
X113019342Y-67758037D01*
X113018433Y-67758557D01*
X112970045Y-67786041D01*
X112969942Y-67785907D01*
X112949233Y-67797863D01*
X112948590Y-67798229D01*
X112911810Y-67807807D01*
X112874999Y-67817671D01*
X112874475Y-67817530D01*
X112873952Y-67817667D01*
X112837301Y-67807569D01*
X112800499Y-67797709D01*
X112735898Y-67760411D01*
X112730642Y-67758027D01*
X112651904Y-67712568D01*
X112651901Y-67712567D01*
X112518865Y-67676920D01*
X112381131Y-67676920D01*
X112276479Y-67704962D01*
X112276475Y-67704963D01*
X112248099Y-67712567D01*
X112248097Y-67712567D01*
X112248097Y-67712568D01*
X112222657Y-67727255D01*
X112222649Y-67727259D01*
X112166487Y-67759685D01*
X112130546Y-67774571D01*
X112113559Y-67779122D01*
X112036443Y-67779123D01*
X112019455Y-67774572D01*
X111983514Y-67759686D01*
X111901901Y-67712567D01*
X111768865Y-67676920D01*
X111631131Y-67676920D01*
X111526479Y-67704962D01*
X111526475Y-67704963D01*
X111498099Y-67712567D01*
X111498097Y-67712567D01*
X111498097Y-67712568D01*
X111472657Y-67727255D01*
X111472649Y-67727259D01*
X111416487Y-67759685D01*
X111380546Y-67774571D01*
X111363559Y-67779122D01*
X111286443Y-67779123D01*
X111269455Y-67774572D01*
X111233514Y-67759686D01*
X111151901Y-67712567D01*
X111018865Y-67676920D01*
X110881131Y-67676920D01*
X110776479Y-67704962D01*
X110776475Y-67704963D01*
X110748099Y-67712567D01*
X110748097Y-67712567D01*
X110748097Y-67712568D01*
X110722657Y-67727255D01*
X110722649Y-67727259D01*
X110666487Y-67759685D01*
X110630546Y-67774571D01*
X110613559Y-67779122D01*
X110536443Y-67779123D01*
X110519455Y-67774572D01*
X110483514Y-67759686D01*
X110401901Y-67712567D01*
X110268865Y-67676920D01*
X110131131Y-67676920D01*
X110026479Y-67704962D01*
X110026475Y-67704963D01*
X109998099Y-67712567D01*
X109998097Y-67712567D01*
X109998097Y-67712568D01*
X109972657Y-67727255D01*
X109972649Y-67727259D01*
X109916487Y-67759685D01*
X109880546Y-67774571D01*
X109863559Y-67779122D01*
X109786443Y-67779123D01*
X109769455Y-67774572D01*
X109733514Y-67759686D01*
X109651901Y-67712567D01*
X109518865Y-67676920D01*
X109381131Y-67676920D01*
X109276479Y-67704962D01*
X109276475Y-67704963D01*
X109248099Y-67712567D01*
X109248097Y-67712567D01*
X109248097Y-67712568D01*
X109222657Y-67727255D01*
X109222649Y-67727259D01*
X109166487Y-67759685D01*
X109130546Y-67774571D01*
X109113559Y-67779122D01*
X109036443Y-67779123D01*
X109019455Y-67774572D01*
X108983514Y-67759686D01*
X108901901Y-67712567D01*
X108768865Y-67676920D01*
X108631131Y-67676920D01*
X108526482Y-67704961D01*
X108526476Y-67704963D01*
X108498099Y-67712567D01*
X108498097Y-67712567D01*
X108498097Y-67712568D01*
X108472651Y-67727258D01*
X108472646Y-67727261D01*
X108378818Y-67781432D01*
X108378817Y-67781433D01*
X108325640Y-67834611D01*
X108294779Y-67858291D01*
X108270753Y-67872162D01*
X108196274Y-67892123D01*
X100669136Y-67893100D01*
X100630570Y-67888028D01*
X100615097Y-67883884D01*
X100548298Y-67845327D01*
X100509726Y-67778537D01*
X100505580Y-67763070D01*
X100500500Y-67724495D01*
X100500500Y-64968788D01*
X100505575Y-64930230D01*
X100509726Y-64914739D01*
X100548285Y-64847947D01*
X100549092Y-64847481D01*
X100615033Y-64809392D01*
X100630482Y-64805247D01*
X100668983Y-64800158D01*
X121454403Y-64786072D01*
X121454358Y-64769106D01*
X121453396Y-64508015D01*
X121458331Y-64469435D01*
X121466375Y-64438966D01*
X121487769Y-64392427D01*
X121510220Y-64359864D01*
X121514021Y-64352226D01*
X121552166Y-64295139D01*
X121599136Y-64181746D01*
X121623080Y-64061368D01*
X121623080Y-63938632D01*
X121599136Y-63818254D01*
X121552166Y-63704861D01*
X121543895Y-63692482D01*
X121519103Y-63619448D01*
X121534150Y-63543801D01*
X121557993Y-63512025D01*
X121556806Y-63511029D01*
X121636325Y-63416271D01*
X121636327Y-63416269D01*
X121674894Y-63349476D01*
X121707674Y-63270347D01*
X121711820Y-63254876D01*
X121720195Y-63212777D01*
X121725273Y-63174208D01*
X121728080Y-63131383D01*
X121728080Y-60468616D01*
X121725273Y-60425791D01*
X121723734Y-60414103D01*
X121720197Y-60387234D01*
X121720195Y-60387222D01*
X121711820Y-60345123D01*
X121707674Y-60329652D01*
X121674898Y-60250530D01*
X121674899Y-60250530D01*
X121660785Y-60226086D01*
X121636334Y-60183738D01*
X121603533Y-60136896D01*
X121603530Y-60136892D01*
X121537688Y-60081646D01*
X121516248Y-60063657D01*
X121516244Y-60063655D01*
X121516242Y-60063653D01*
X121511049Y-60060655D01*
X121456513Y-60006115D01*
X121436555Y-59932168D01*
X121421621Y-55874734D01*
X121421325Y-55794417D01*
X121424134Y-55765074D01*
X121429750Y-55736571D01*
X121438276Y-55708370D01*
X121483329Y-55599604D01*
X121498080Y-55487561D01*
X121498079Y-54687440D01*
X121498078Y-54687432D01*
X121497449Y-54682657D01*
X121490870Y-54632678D01*
X121483330Y-54575402D01*
X121483329Y-54575397D01*
X121462618Y-54525396D01*
X121433035Y-54453977D01*
X121424612Y-54426299D01*
X121418997Y-54398339D01*
X121416081Y-54369550D01*
X121416034Y-54356878D01*
X121411782Y-53201566D01*
X125276920Y-53201566D01*
X125276920Y-53433434D01*
X125313192Y-53662446D01*
X125313192Y-53662447D01*
X125313192Y-53662449D01*
X125384833Y-53882938D01*
X125384841Y-53882962D01*
X125384843Y-53882966D01*
X125384845Y-53882971D01*
X125392090Y-53897190D01*
X125490109Y-54089562D01*
X125626398Y-54277147D01*
X125790353Y-54441102D01*
X125977938Y-54577391D01*
X126184534Y-54682657D01*
X126405053Y-54754308D01*
X126634066Y-54790580D01*
X126634070Y-54790580D01*
X126865930Y-54790580D01*
X126865934Y-54790580D01*
X127094947Y-54754308D01*
X127315466Y-54682657D01*
X127522062Y-54577391D01*
X127709647Y-54441102D01*
X127873602Y-54277147D01*
X128009891Y-54089562D01*
X128115157Y-53882966D01*
X128186808Y-53662447D01*
X128223080Y-53433434D01*
X128223080Y-53201566D01*
X128186808Y-52972553D01*
X128115157Y-52752034D01*
X128009891Y-52545438D01*
X127873602Y-52357853D01*
X127709647Y-52193898D01*
X127522062Y-52057609D01*
X127458315Y-52025128D01*
X127410349Y-52000688D01*
X127410334Y-52000681D01*
X127408998Y-52000000D01*
X127315471Y-51952345D01*
X127315467Y-51952343D01*
X127315466Y-51952343D01*
X127094947Y-51880692D01*
X127094943Y-51880691D01*
X127094942Y-51880691D01*
X127038321Y-51871723D01*
X126865934Y-51844420D01*
X126865930Y-51844420D01*
X126634070Y-51844420D01*
X126634066Y-51844420D01*
X126469908Y-51870420D01*
X126428868Y-51876920D01*
X126428867Y-51876919D01*
X126405058Y-51880690D01*
X126405047Y-51880693D01*
X126184535Y-51952342D01*
X126184530Y-51952344D01*
X125977934Y-52057610D01*
X125977934Y-52057611D01*
X125790385Y-52193873D01*
X125790348Y-52193902D01*
X125626402Y-52357848D01*
X125626373Y-52357885D01*
X125490111Y-52545434D01*
X125490110Y-52545434D01*
X125384844Y-52752028D01*
X125330380Y-52919652D01*
X125313192Y-52972553D01*
X125276920Y-53201566D01*
X121411782Y-53201566D01*
X121402464Y-50669661D01*
X121407398Y-50631085D01*
X121407563Y-50630460D01*
X121411487Y-50615597D01*
X121449802Y-50548661D01*
X121516450Y-50509852D01*
X121531661Y-50505716D01*
X121570741Y-50500500D01*
X128431899Y-50500500D01*
X128470462Y-50505576D01*
G37*
%TD.AperFunction*%
%TD*%
%TA.AperFunction,Conductor*%
%TO.N,GND*%
G36*
X108744611Y-68010074D02*
G01*
X108756315Y-68013210D01*
X108792255Y-68028096D01*
X108819475Y-68043812D01*
X108830503Y-68049250D01*
X108857966Y-68062793D01*
X108857978Y-68062799D01*
X108871234Y-68068289D01*
X108893913Y-68077682D01*
X108910622Y-68083353D01*
X108934548Y-68091474D01*
X108934553Y-68091475D01*
X108934558Y-68091477D01*
X108951546Y-68096028D01*
X109036447Y-68107203D01*
X109113563Y-68107202D01*
X109198461Y-68096026D01*
X109215448Y-68091475D01*
X109256088Y-68077681D01*
X109292029Y-68062795D01*
X109330530Y-68043809D01*
X109357739Y-68028098D01*
X109393683Y-68013210D01*
X109405394Y-68010072D01*
X109443941Y-68005000D01*
X109456056Y-68005000D01*
X109494611Y-68010074D01*
X109506315Y-68013210D01*
X109542255Y-68028096D01*
X109569475Y-68043812D01*
X109580503Y-68049250D01*
X109607966Y-68062793D01*
X109607978Y-68062799D01*
X109621234Y-68068289D01*
X109643913Y-68077682D01*
X109660622Y-68083353D01*
X109684548Y-68091474D01*
X109684553Y-68091475D01*
X109684558Y-68091477D01*
X109701546Y-68096028D01*
X109786447Y-68107203D01*
X109863563Y-68107202D01*
X109948461Y-68096026D01*
X109965448Y-68091475D01*
X110006088Y-68077681D01*
X110042029Y-68062795D01*
X110080530Y-68043809D01*
X110107739Y-68028098D01*
X110143683Y-68013210D01*
X110155394Y-68010072D01*
X110193941Y-68005000D01*
X110206056Y-68005000D01*
X110244611Y-68010074D01*
X110256315Y-68013210D01*
X110292255Y-68028096D01*
X110319475Y-68043812D01*
X110330503Y-68049250D01*
X110357966Y-68062793D01*
X110357978Y-68062799D01*
X110371234Y-68068289D01*
X110393913Y-68077682D01*
X110410622Y-68083353D01*
X110434548Y-68091474D01*
X110434553Y-68091475D01*
X110434558Y-68091477D01*
X110451546Y-68096028D01*
X110536447Y-68107203D01*
X110613563Y-68107202D01*
X110698461Y-68096026D01*
X110715448Y-68091475D01*
X110756088Y-68077681D01*
X110792029Y-68062795D01*
X110830530Y-68043809D01*
X110857739Y-68028098D01*
X110893683Y-68013210D01*
X110905394Y-68010072D01*
X110943941Y-68005000D01*
X110956056Y-68005000D01*
X110994611Y-68010074D01*
X111006315Y-68013210D01*
X111042255Y-68028096D01*
X111069475Y-68043812D01*
X111080503Y-68049250D01*
X111107966Y-68062793D01*
X111107978Y-68062799D01*
X111121234Y-68068289D01*
X111143913Y-68077682D01*
X111160622Y-68083353D01*
X111184548Y-68091474D01*
X111184553Y-68091475D01*
X111184558Y-68091477D01*
X111201546Y-68096028D01*
X111286447Y-68107203D01*
X111363563Y-68107202D01*
X111448461Y-68096026D01*
X111465448Y-68091475D01*
X111506088Y-68077681D01*
X111542029Y-68062795D01*
X111580530Y-68043809D01*
X111607739Y-68028098D01*
X111643683Y-68013210D01*
X111655394Y-68010072D01*
X111693941Y-68005000D01*
X111706056Y-68005000D01*
X111744611Y-68010074D01*
X111756315Y-68013210D01*
X111792255Y-68028096D01*
X111819475Y-68043812D01*
X111830503Y-68049250D01*
X111857966Y-68062793D01*
X111857978Y-68062799D01*
X111871234Y-68068289D01*
X111893913Y-68077682D01*
X111910622Y-68083353D01*
X111934548Y-68091474D01*
X111934553Y-68091475D01*
X111934558Y-68091477D01*
X111951546Y-68096028D01*
X112036447Y-68107203D01*
X112113563Y-68107202D01*
X112198461Y-68096026D01*
X112215448Y-68091475D01*
X112256088Y-68077681D01*
X112292029Y-68062795D01*
X112330530Y-68043809D01*
X112357739Y-68028098D01*
X112393683Y-68013210D01*
X112405394Y-68010072D01*
X112443941Y-68005000D01*
X112456055Y-68005000D01*
X112494618Y-68010077D01*
X112506322Y-68013213D01*
X112542252Y-68028094D01*
X112566605Y-68042154D01*
X112566632Y-68042168D01*
X112566643Y-68042174D01*
X112573618Y-68045758D01*
X112580023Y-68049250D01*
X112636453Y-68081831D01*
X112636463Y-68081836D01*
X112688170Y-68103253D01*
X112715594Y-68114612D01*
X112751190Y-68124148D01*
X112786807Y-68133962D01*
X112843526Y-68144333D01*
X112844839Y-68144225D01*
X112846409Y-68144503D01*
X112918135Y-68138226D01*
X112957088Y-68135039D01*
X112957611Y-68134902D01*
X112957577Y-68134775D01*
X112957794Y-68134756D01*
X112959917Y-68134571D01*
X112995143Y-68125130D01*
X112996152Y-68124865D01*
X113014433Y-68120104D01*
X113031269Y-68115720D01*
X113110885Y-68083355D01*
X113111528Y-68082989D01*
X113111645Y-68082921D01*
X113111724Y-68082877D01*
X113112368Y-68082507D01*
X113113269Y-68081991D01*
X113124734Y-68075370D01*
X113125516Y-68074924D01*
X113131576Y-68071494D01*
X113132079Y-68071316D01*
X113180467Y-68043832D01*
X113181341Y-68043333D01*
X113182250Y-68042813D01*
X113183385Y-68042161D01*
X113207747Y-68028094D01*
X113243682Y-68013211D01*
X113255383Y-68010076D01*
X113293942Y-68005000D01*
X113306055Y-68005000D01*
X113344607Y-68010074D01*
X113351669Y-68011965D01*
X113356309Y-68013208D01*
X113392252Y-68028095D01*
X113402748Y-68034155D01*
X113433603Y-68057831D01*
X113448353Y-68072581D01*
X113515565Y-68124148D01*
X113516331Y-68124735D01*
X113583130Y-68163291D01*
X113583132Y-68163292D01*
X113583131Y-68163292D01*
X113662258Y-68196056D01*
X113662261Y-68196056D01*
X113662264Y-68196058D01*
X113689059Y-68203234D01*
X113731152Y-68211601D01*
X113769717Y-68216673D01*
X113812540Y-68219474D01*
X120988683Y-68218540D01*
X121012475Y-68224912D01*
X121037056Y-68226605D01*
X121049129Y-68234729D01*
X121063182Y-68238493D01*
X121080602Y-68255908D01*
X121101045Y-68269665D01*
X121106063Y-68281363D01*
X121117727Y-68293023D01*
X121134931Y-68338951D01*
X121136350Y-68346209D01*
X121140384Y-68389042D01*
X121150772Y-68443701D01*
X121165067Y-68493097D01*
X121166335Y-68499581D01*
X121166209Y-68501400D01*
X121168038Y-68510389D01*
X121168936Y-68517869D01*
X121170000Y-68535635D01*
X121170000Y-69013491D01*
X121161160Y-69060039D01*
X121162337Y-69060419D01*
X121160883Y-69064926D01*
X121157378Y-69078750D01*
X121119715Y-69146057D01*
X121095026Y-69166481D01*
X121091426Y-69168856D01*
X121075150Y-69181198D01*
X121039793Y-69201077D01*
X121018160Y-69209609D01*
X120963493Y-69220000D01*
X120436505Y-69220000D01*
X120381843Y-69209611D01*
X120365241Y-69203064D01*
X120360209Y-69201079D01*
X120324840Y-69181192D01*
X120308584Y-69168864D01*
X120291846Y-69156978D01*
X120291839Y-69156973D01*
X120276308Y-69146659D01*
X120276305Y-69146657D01*
X120179729Y-69103064D01*
X120179720Y-69103060D01*
X120105223Y-69083099D01*
X120105206Y-69083096D01*
X120020315Y-69071920D01*
X120020310Y-69071920D01*
X119879690Y-69071920D01*
X119879688Y-69071920D01*
X119859164Y-69072562D01*
X119840563Y-69073727D01*
X119738058Y-69097167D01*
X119738055Y-69097168D01*
X119737260Y-69097350D01*
X119728950Y-69100736D01*
X119720276Y-69103061D01*
X119666560Y-69122610D01*
X119640210Y-69141057D01*
X119628655Y-69147641D01*
X119628648Y-69147645D01*
X119591421Y-69168860D01*
X119575149Y-69181198D01*
X119539793Y-69201077D01*
X119518160Y-69209609D01*
X119466324Y-69219461D01*
X119466339Y-69219681D01*
X119464556Y-69219797D01*
X119463493Y-69220000D01*
X119461472Y-69220000D01*
X119376563Y-69231179D01*
X119376551Y-69231181D01*
X119302051Y-69251144D01*
X119302049Y-69251145D01*
X119248316Y-69270703D01*
X119248313Y-69270705D01*
X119208088Y-69298871D01*
X119203287Y-69300618D01*
X119199750Y-69304303D01*
X119167331Y-69313704D01*
X119135611Y-69325249D01*
X119130580Y-69324361D01*
X119125674Y-69325785D01*
X119109596Y-69320661D01*
X119059655Y-69311855D01*
X119050781Y-69307350D01*
X119042005Y-69302519D01*
X118990787Y-69264590D01*
X118915896Y-69223040D01*
X118851364Y-69197591D01*
X118843027Y-69193003D01*
X118839040Y-69189175D01*
X118824841Y-69181192D01*
X118808583Y-69168863D01*
X118791850Y-69156980D01*
X118776305Y-69146657D01*
X118679729Y-69103064D01*
X118679720Y-69103060D01*
X118605223Y-69083099D01*
X118605206Y-69083096D01*
X118520315Y-69071920D01*
X118520310Y-69071920D01*
X118379690Y-69071920D01*
X118379688Y-69071920D01*
X118359164Y-69072562D01*
X118340563Y-69073727D01*
X118238058Y-69097167D01*
X118238055Y-69097168D01*
X118237260Y-69097350D01*
X118228950Y-69100736D01*
X118220276Y-69103061D01*
X118166560Y-69122610D01*
X118140210Y-69141057D01*
X118128655Y-69147641D01*
X118128648Y-69147645D01*
X118091421Y-69168860D01*
X118075149Y-69181198D01*
X118039793Y-69201077D01*
X118018160Y-69209609D01*
X117963493Y-69220000D01*
X117436505Y-69220000D01*
X117381843Y-69209611D01*
X117365241Y-69203064D01*
X117360209Y-69201079D01*
X117324840Y-69181192D01*
X117308584Y-69168864D01*
X117291846Y-69156978D01*
X117291839Y-69156973D01*
X117276308Y-69146659D01*
X117276305Y-69146657D01*
X117179729Y-69103064D01*
X117179720Y-69103060D01*
X117105223Y-69083099D01*
X117105206Y-69083096D01*
X117020315Y-69071920D01*
X117020310Y-69071920D01*
X116879690Y-69071920D01*
X116879688Y-69071920D01*
X116859164Y-69072562D01*
X116840563Y-69073727D01*
X116738058Y-69097167D01*
X116738055Y-69097168D01*
X116737260Y-69097350D01*
X116728950Y-69100736D01*
X116720276Y-69103061D01*
X116666560Y-69122610D01*
X116640210Y-69141057D01*
X116628655Y-69147641D01*
X116628648Y-69147645D01*
X116591421Y-69168860D01*
X116575149Y-69181198D01*
X116539793Y-69201077D01*
X116518160Y-69209609D01*
X116463493Y-69220000D01*
X115936505Y-69220000D01*
X115881843Y-69209611D01*
X115865241Y-69203064D01*
X115860209Y-69201079D01*
X115824840Y-69181192D01*
X115808584Y-69168864D01*
X115791846Y-69156978D01*
X115791839Y-69156973D01*
X115776308Y-69146659D01*
X115776305Y-69146657D01*
X115679729Y-69103064D01*
X115679720Y-69103060D01*
X115605223Y-69083099D01*
X115605206Y-69083096D01*
X115520315Y-69071920D01*
X115520310Y-69071920D01*
X115379690Y-69071920D01*
X115379688Y-69071920D01*
X115359164Y-69072562D01*
X115340563Y-69073727D01*
X115238058Y-69097167D01*
X115238055Y-69097168D01*
X115237260Y-69097350D01*
X115228950Y-69100736D01*
X115220276Y-69103061D01*
X115166560Y-69122610D01*
X115140210Y-69141057D01*
X115128655Y-69147641D01*
X115128648Y-69147645D01*
X115091421Y-69168860D01*
X115075149Y-69181198D01*
X115039793Y-69201077D01*
X115018160Y-69209609D01*
X114963493Y-69220000D01*
X114436505Y-69220000D01*
X114381843Y-69209611D01*
X114365241Y-69203064D01*
X114360209Y-69201079D01*
X114324840Y-69181192D01*
X114308584Y-69168864D01*
X114291846Y-69156978D01*
X114291839Y-69156973D01*
X114276308Y-69146659D01*
X114276305Y-69146657D01*
X114179729Y-69103064D01*
X114179720Y-69103060D01*
X114105223Y-69083099D01*
X114105206Y-69083096D01*
X114020315Y-69071920D01*
X114020310Y-69071920D01*
X113879690Y-69071920D01*
X113879688Y-69071920D01*
X113859164Y-69072562D01*
X113840563Y-69073727D01*
X113738058Y-69097167D01*
X113738055Y-69097168D01*
X113737260Y-69097350D01*
X113728950Y-69100736D01*
X113720276Y-69103061D01*
X113666560Y-69122610D01*
X113640210Y-69141057D01*
X113628655Y-69147641D01*
X113628648Y-69147645D01*
X113591421Y-69168860D01*
X113575149Y-69181198D01*
X113539793Y-69201077D01*
X113518160Y-69209609D01*
X113463493Y-69220000D01*
X112936505Y-69220000D01*
X112881843Y-69209611D01*
X112865241Y-69203064D01*
X112860209Y-69201079D01*
X112824840Y-69181192D01*
X112808584Y-69168864D01*
X112791846Y-69156978D01*
X112791839Y-69156973D01*
X112776308Y-69146659D01*
X112776305Y-69146657D01*
X112679729Y-69103064D01*
X112679720Y-69103060D01*
X112605223Y-69083099D01*
X112605206Y-69083096D01*
X112520315Y-69071920D01*
X112520310Y-69071920D01*
X112379690Y-69071920D01*
X112379688Y-69071920D01*
X112359164Y-69072562D01*
X112340563Y-69073727D01*
X112238058Y-69097167D01*
X112238055Y-69097168D01*
X112237260Y-69097350D01*
X112228950Y-69100736D01*
X112220276Y-69103061D01*
X112166560Y-69122610D01*
X112140210Y-69141057D01*
X112128655Y-69147641D01*
X112128648Y-69147645D01*
X112091421Y-69168860D01*
X112075149Y-69181198D01*
X112039793Y-69201077D01*
X112018160Y-69209609D01*
X111963493Y-69220000D01*
X111748994Y-69220000D01*
X111664103Y-69231176D01*
X111664082Y-69231180D01*
X111589596Y-69251137D01*
X111535850Y-69270699D01*
X111535842Y-69270704D01*
X111442513Y-69336052D01*
X111387973Y-69390592D01*
X111351213Y-69434402D01*
X111351213Y-69434403D01*
X111303063Y-69537663D01*
X111303060Y-69537670D01*
X111283098Y-69612170D01*
X111283096Y-69612183D01*
X111271920Y-69697074D01*
X111271920Y-80651005D01*
X111283096Y-80735896D01*
X111283100Y-80735917D01*
X111303057Y-80810403D01*
X111322619Y-80864149D01*
X111322620Y-80864151D01*
X111322621Y-80864153D01*
X111322624Y-80864157D01*
X111387972Y-80957486D01*
X111387973Y-80957487D01*
X111387974Y-80957488D01*
X111442512Y-81012026D01*
X111486322Y-81048786D01*
X111589588Y-81096939D01*
X111664088Y-81116901D01*
X111748995Y-81128079D01*
X111748998Y-81128080D01*
X138151000Y-81128080D01*
X138151002Y-81128080D01*
X138151003Y-81128079D01*
X138235912Y-81116901D01*
X138275300Y-81106346D01*
X138310403Y-81096942D01*
X138310409Y-81096939D01*
X138310412Y-81096939D01*
X138364153Y-81077379D01*
X138457488Y-81012026D01*
X138512026Y-80957488D01*
X138548786Y-80913678D01*
X138596939Y-80810412D01*
X138616901Y-80735912D01*
X138628080Y-80651000D01*
X138628080Y-70247272D01*
X146624500Y-70247272D01*
X146624500Y-70352730D01*
X146651792Y-70454587D01*
X146669366Y-70485027D01*
X146704517Y-70545910D01*
X146704518Y-70545911D01*
X146779088Y-70620481D01*
X146789706Y-70626611D01*
X146789709Y-70626614D01*
X146789710Y-70626614D01*
X146870409Y-70673205D01*
X146870413Y-70673207D01*
X146972273Y-70700500D01*
X147077727Y-70700500D01*
X147179587Y-70673207D01*
X147270913Y-70620480D01*
X147345480Y-70545913D01*
X147398207Y-70454587D01*
X147425500Y-70352727D01*
X147425500Y-70247273D01*
X147398207Y-70145413D01*
X147347802Y-70058108D01*
X147345481Y-70054088D01*
X147270911Y-69979518D01*
X147184309Y-69929519D01*
X147184307Y-69929518D01*
X147179588Y-69926793D01*
X147077730Y-69899500D01*
X147077727Y-69899500D01*
X146972273Y-69899500D01*
X146972269Y-69899500D01*
X146898791Y-69919189D01*
X146898789Y-69919189D01*
X146870413Y-69926793D01*
X146870411Y-69926793D01*
X146870411Y-69926794D01*
X146844976Y-69941478D01*
X146844965Y-69941483D01*
X146779090Y-69979516D01*
X146779088Y-69979517D01*
X146704517Y-70054088D01*
X146704513Y-70054093D01*
X146651794Y-70145409D01*
X146624500Y-70247272D01*
X138628080Y-70247272D01*
X138628080Y-69747080D01*
X138616901Y-69662168D01*
X138603508Y-69612183D01*
X138596942Y-69587676D01*
X138577380Y-69533930D01*
X138577379Y-69533927D01*
X138512026Y-69440592D01*
X138457488Y-69386054D01*
X138415011Y-69350412D01*
X138413677Y-69349293D01*
X138310416Y-69301143D01*
X138310412Y-69301141D01*
X138310410Y-69301140D01*
X138310409Y-69301140D01*
X138235909Y-69281178D01*
X138235896Y-69281176D01*
X138151005Y-69270000D01*
X138151000Y-69270000D01*
X137886504Y-69270000D01*
X137831843Y-69259611D01*
X137749213Y-69227026D01*
X137748929Y-69226914D01*
X137742293Y-69224110D01*
X137695657Y-69203060D01*
X137695650Y-69203058D01*
X137621163Y-69183100D01*
X137621142Y-69183096D01*
X137536251Y-69171920D01*
X137536246Y-69171920D01*
X137263754Y-69171920D01*
X137263751Y-69171920D01*
X137243227Y-69172562D01*
X137224633Y-69173727D01*
X137224626Y-69173728D01*
X137121359Y-69197339D01*
X137121357Y-69197339D01*
X137121343Y-69197343D01*
X137113015Y-69200736D01*
X137104330Y-69203064D01*
X137050624Y-69222610D01*
X137036949Y-69232182D01*
X137021788Y-69238441D01*
X137021067Y-69238535D01*
X137019598Y-69239324D01*
X136968155Y-69259611D01*
X136913494Y-69270000D01*
X136386504Y-69270000D01*
X136331843Y-69259611D01*
X136249213Y-69227026D01*
X136248929Y-69226914D01*
X136242293Y-69224110D01*
X136195657Y-69203060D01*
X136195650Y-69203058D01*
X136121163Y-69183100D01*
X136121142Y-69183096D01*
X136036251Y-69171920D01*
X136036246Y-69171920D01*
X135763754Y-69171920D01*
X135763751Y-69171920D01*
X135743227Y-69172562D01*
X135724633Y-69173727D01*
X135724626Y-69173728D01*
X135621359Y-69197339D01*
X135621357Y-69197339D01*
X135621343Y-69197343D01*
X135613015Y-69200736D01*
X135604330Y-69203064D01*
X135550624Y-69222610D01*
X135536949Y-69232182D01*
X135521788Y-69238441D01*
X135521067Y-69238535D01*
X135519598Y-69239324D01*
X135468155Y-69259611D01*
X135413494Y-69270000D01*
X134886504Y-69270000D01*
X134831843Y-69259611D01*
X134749213Y-69227026D01*
X134748929Y-69226914D01*
X134742293Y-69224110D01*
X134695657Y-69203060D01*
X134695650Y-69203058D01*
X134621163Y-69183100D01*
X134621142Y-69183096D01*
X134536251Y-69171920D01*
X134536246Y-69171920D01*
X134263754Y-69171920D01*
X134263751Y-69171920D01*
X134243227Y-69172562D01*
X134224633Y-69173727D01*
X134224626Y-69173728D01*
X134121359Y-69197339D01*
X134121357Y-69197339D01*
X134121343Y-69197343D01*
X134113015Y-69200736D01*
X134104330Y-69203064D01*
X134050624Y-69222610D01*
X134036949Y-69232182D01*
X134021788Y-69238441D01*
X134021067Y-69238535D01*
X134019598Y-69239324D01*
X133968155Y-69259611D01*
X133913494Y-69270000D01*
X133386504Y-69270000D01*
X133331843Y-69259611D01*
X133249213Y-69227026D01*
X133248929Y-69226914D01*
X133242293Y-69224110D01*
X133195657Y-69203060D01*
X133195650Y-69203058D01*
X133121163Y-69183100D01*
X133121142Y-69183096D01*
X133036251Y-69171920D01*
X133036246Y-69171920D01*
X132763754Y-69171920D01*
X132763751Y-69171920D01*
X132743227Y-69172562D01*
X132724633Y-69173727D01*
X132724626Y-69173728D01*
X132621359Y-69197339D01*
X132621357Y-69197339D01*
X132621343Y-69197343D01*
X132613015Y-69200736D01*
X132604330Y-69203064D01*
X132550624Y-69222610D01*
X132536949Y-69232182D01*
X132521788Y-69238441D01*
X132521067Y-69238535D01*
X132519598Y-69239324D01*
X132468155Y-69259611D01*
X132413494Y-69270000D01*
X131886504Y-69270000D01*
X131831843Y-69259611D01*
X131749213Y-69227026D01*
X131748929Y-69226914D01*
X131742293Y-69224110D01*
X131695657Y-69203060D01*
X131695650Y-69203058D01*
X131621163Y-69183100D01*
X131621142Y-69183096D01*
X131536251Y-69171920D01*
X131536246Y-69171920D01*
X131263754Y-69171920D01*
X131263751Y-69171920D01*
X131243229Y-69172562D01*
X131224638Y-69173727D01*
X131224627Y-69173728D01*
X131194075Y-69180713D01*
X131173024Y-69185525D01*
X131166598Y-69186994D01*
X131166575Y-69186854D01*
X131143698Y-69190894D01*
X131128321Y-69195745D01*
X131122442Y-69197090D01*
X131122438Y-69197092D01*
X131121340Y-69197343D01*
X131121328Y-69197346D01*
X131120346Y-69197747D01*
X131108975Y-69201850D01*
X131062036Y-69216662D01*
X131047665Y-69223367D01*
X131047635Y-69223383D01*
X131034914Y-69231055D01*
X131012638Y-69242069D01*
X130989284Y-69251279D01*
X130970916Y-69259178D01*
X130966776Y-69261110D01*
X130954017Y-69267406D01*
X130942531Y-69273386D01*
X130942531Y-69273387D01*
X130876009Y-69322164D01*
X130804125Y-69350118D01*
X130727895Y-69338386D01*
X130724987Y-69337069D01*
X130647938Y-69301141D01*
X130582709Y-69283663D01*
X130573435Y-69281178D01*
X130573422Y-69281176D01*
X130488531Y-69270000D01*
X130488526Y-69270000D01*
X130386504Y-69270000D01*
X130331843Y-69259611D01*
X130249213Y-69227026D01*
X130248929Y-69226914D01*
X130242293Y-69224110D01*
X130195657Y-69203060D01*
X130195650Y-69203058D01*
X130121163Y-69183100D01*
X130121142Y-69183096D01*
X130036251Y-69171920D01*
X130036246Y-69171920D01*
X129763754Y-69171920D01*
X129763751Y-69171920D01*
X129743227Y-69172562D01*
X129724633Y-69173727D01*
X129724626Y-69173728D01*
X129621359Y-69197339D01*
X129621357Y-69197339D01*
X129621343Y-69197343D01*
X129613015Y-69200736D01*
X129604330Y-69203064D01*
X129550624Y-69222610D01*
X129536949Y-69232182D01*
X129521788Y-69238441D01*
X129521067Y-69238535D01*
X129519598Y-69239324D01*
X129468155Y-69259611D01*
X129413494Y-69270000D01*
X128886505Y-69270000D01*
X128831843Y-69259611D01*
X128807861Y-69250153D01*
X128789205Y-69241255D01*
X128784912Y-69238828D01*
X128784590Y-69238584D01*
X128781534Y-69236918D01*
X128780519Y-69236345D01*
X128775440Y-69231357D01*
X128735118Y-69196667D01*
X128732768Y-69193568D01*
X128718803Y-69175152D01*
X128698917Y-69139782D01*
X128690386Y-69118148D01*
X128680000Y-69063493D01*
X128680000Y-68586503D01*
X128690386Y-68531847D01*
X128695902Y-68517859D01*
X128698917Y-68510213D01*
X128718807Y-68474841D01*
X128731142Y-68458576D01*
X128743031Y-68441833D01*
X128753344Y-68426303D01*
X128796939Y-68329721D01*
X128798774Y-68322872D01*
X128837336Y-68256081D01*
X128904130Y-68217516D01*
X128942700Y-68212438D01*
X136203691Y-68212749D01*
X136288607Y-68201573D01*
X136363109Y-68181613D01*
X136442237Y-68148840D01*
X136466259Y-68134972D01*
X136501925Y-68111145D01*
X136501930Y-68111140D01*
X136503957Y-68109787D01*
X136503980Y-68109822D01*
X136514161Y-68103257D01*
X136557744Y-68078095D01*
X136593683Y-68063210D01*
X136605023Y-68060171D01*
X136605389Y-68060074D01*
X136643941Y-68055000D01*
X136656055Y-68055000D01*
X136694607Y-68060074D01*
X136701669Y-68061965D01*
X136706309Y-68063208D01*
X136742255Y-68078097D01*
X136769472Y-68093811D01*
X136807969Y-68112795D01*
X136843912Y-68127682D01*
X136884558Y-68141477D01*
X136901546Y-68146028D01*
X136986447Y-68157203D01*
X137063563Y-68157202D01*
X137148461Y-68146026D01*
X137165448Y-68141475D01*
X137206088Y-68127681D01*
X137242029Y-68112795D01*
X137280530Y-68093809D01*
X137307739Y-68078098D01*
X137343683Y-68063210D01*
X137355394Y-68060072D01*
X137393941Y-68055000D01*
X137406055Y-68055000D01*
X137444607Y-68060074D01*
X137451669Y-68061965D01*
X137456309Y-68063208D01*
X137492255Y-68078097D01*
X137519472Y-68093811D01*
X137557969Y-68112795D01*
X137593912Y-68127682D01*
X137634558Y-68141477D01*
X137651546Y-68146028D01*
X137736447Y-68157203D01*
X137813563Y-68157202D01*
X137898461Y-68146026D01*
X137915448Y-68141475D01*
X137956088Y-68127681D01*
X137992029Y-68112795D01*
X138030530Y-68093809D01*
X138057739Y-68078098D01*
X138093683Y-68063210D01*
X138105394Y-68060072D01*
X138143941Y-68055000D01*
X138156055Y-68055000D01*
X138194607Y-68060074D01*
X138201669Y-68061965D01*
X138206309Y-68063208D01*
X138242255Y-68078097D01*
X138269472Y-68093811D01*
X138307969Y-68112795D01*
X138343912Y-68127682D01*
X138384558Y-68141477D01*
X138401546Y-68146028D01*
X138486447Y-68157203D01*
X138563563Y-68157202D01*
X138648461Y-68146026D01*
X138665448Y-68141475D01*
X138706088Y-68127681D01*
X138742029Y-68112795D01*
X138780530Y-68093809D01*
X138807739Y-68078098D01*
X138843683Y-68063210D01*
X138855394Y-68060072D01*
X138893941Y-68055000D01*
X138906055Y-68055000D01*
X138944607Y-68060074D01*
X138951669Y-68061965D01*
X138956309Y-68063208D01*
X138992255Y-68078097D01*
X139019472Y-68093811D01*
X139057969Y-68112795D01*
X139093912Y-68127682D01*
X139134558Y-68141477D01*
X139151546Y-68146028D01*
X139236447Y-68157203D01*
X139313563Y-68157202D01*
X139398461Y-68146026D01*
X139415448Y-68141475D01*
X139456088Y-68127681D01*
X139492029Y-68112795D01*
X139530530Y-68093809D01*
X139557739Y-68078098D01*
X139593683Y-68063210D01*
X139605394Y-68060072D01*
X139643941Y-68055000D01*
X139656055Y-68055000D01*
X139694607Y-68060074D01*
X139701669Y-68061965D01*
X139706309Y-68063208D01*
X139742255Y-68078097D01*
X139769472Y-68093811D01*
X139807969Y-68112795D01*
X139843912Y-68127682D01*
X139884558Y-68141477D01*
X139901546Y-68146028D01*
X139986447Y-68157203D01*
X140063563Y-68157202D01*
X140148461Y-68146026D01*
X140165448Y-68141475D01*
X140206088Y-68127681D01*
X140242029Y-68112795D01*
X140280530Y-68093809D01*
X140307739Y-68078098D01*
X140343683Y-68063210D01*
X140355394Y-68060072D01*
X140393941Y-68055000D01*
X140406055Y-68055000D01*
X140444615Y-68060076D01*
X140456320Y-68063212D01*
X140492254Y-68078095D01*
X140516603Y-68092153D01*
X140523648Y-68095773D01*
X140529970Y-68099220D01*
X140586442Y-68131827D01*
X140586445Y-68131828D01*
X140586450Y-68131831D01*
X140586449Y-68131831D01*
X140665551Y-68164600D01*
X140665553Y-68164600D01*
X140665559Y-68164603D01*
X140740050Y-68184568D01*
X140740057Y-68184569D01*
X140740060Y-68184570D01*
X140740067Y-68184571D01*
X140796356Y-68194501D01*
X140796357Y-68194501D01*
X140796363Y-68194502D01*
X140909872Y-68184581D01*
X140984373Y-68164625D01*
X141063502Y-68131856D01*
X141121601Y-68098317D01*
X141123243Y-68097384D01*
X141130282Y-68093444D01*
X141133371Y-68092167D01*
X141158685Y-68077551D01*
X141159482Y-68077106D01*
X141161161Y-68076680D01*
X141193683Y-68063210D01*
X141205023Y-68060171D01*
X141205389Y-68060074D01*
X141243941Y-68055000D01*
X141256055Y-68055000D01*
X141294616Y-68060076D01*
X141306317Y-68063211D01*
X141342259Y-68078099D01*
X141361314Y-68089101D01*
X141363955Y-68091742D01*
X141405601Y-68115788D01*
X141405602Y-68115788D01*
X141409823Y-68118224D01*
X141409830Y-68118230D01*
X141413077Y-68120104D01*
X141415072Y-68121255D01*
X141415072Y-68121256D01*
X141420081Y-68124148D01*
X141476574Y-68156766D01*
X141555695Y-68189540D01*
X141555700Y-68189542D01*
X141582498Y-68196723D01*
X141602965Y-68200795D01*
X141624561Y-68205092D01*
X141624568Y-68205093D01*
X141624583Y-68205096D01*
X141657740Y-68209462D01*
X141663128Y-68210172D01*
X141663129Y-68210172D01*
X141663144Y-68210174D01*
X141705964Y-68212982D01*
X149236857Y-68213304D01*
X149279910Y-68210469D01*
X149291454Y-68208941D01*
X149318658Y-68205342D01*
X149318665Y-68205340D01*
X149318677Y-68205339D01*
X149321281Y-68204818D01*
X149398247Y-68209782D01*
X149462421Y-68252565D01*
X149496607Y-68321704D01*
X149499500Y-68350925D01*
X149499500Y-97992017D01*
X149499404Y-97997355D01*
X149499213Y-98002683D01*
X149498929Y-98007975D01*
X149485377Y-98197455D01*
X149484240Y-98208030D01*
X149482728Y-98218546D01*
X149480840Y-98229013D01*
X149442155Y-98406845D01*
X149439525Y-98417148D01*
X149436537Y-98427325D01*
X149433178Y-98437420D01*
X149369571Y-98607958D01*
X149365500Y-98617783D01*
X149361098Y-98627424D01*
X149361096Y-98627428D01*
X149356338Y-98636933D01*
X149269121Y-98796661D01*
X149263694Y-98805807D01*
X149257954Y-98814739D01*
X149251886Y-98823479D01*
X149142814Y-98969181D01*
X149136139Y-98977465D01*
X149129198Y-98985475D01*
X149121952Y-98993257D01*
X148993257Y-99121952D01*
X148985473Y-99129199D01*
X148977457Y-99136145D01*
X148969174Y-99142820D01*
X148823476Y-99251887D01*
X148814747Y-99257948D01*
X148805815Y-99263689D01*
X148796659Y-99269122D01*
X148636933Y-99356338D01*
X148627434Y-99361093D01*
X148617783Y-99365500D01*
X148607958Y-99369571D01*
X148437420Y-99433178D01*
X148427325Y-99436537D01*
X148417148Y-99439525D01*
X148406845Y-99442155D01*
X148229013Y-99480840D01*
X148218546Y-99482728D01*
X148208030Y-99484240D01*
X148197455Y-99485377D01*
X148007976Y-99498929D01*
X148002684Y-99499213D01*
X147997356Y-99499404D01*
X147992018Y-99499500D01*
X102007982Y-99499500D01*
X102002645Y-99499404D01*
X101997316Y-99499213D01*
X101992023Y-99498929D01*
X101802543Y-99485377D01*
X101791968Y-99484240D01*
X101781452Y-99482728D01*
X101770985Y-99480840D01*
X101593153Y-99442155D01*
X101582850Y-99439525D01*
X101572673Y-99436537D01*
X101562578Y-99433178D01*
X101392040Y-99369571D01*
X101382213Y-99365499D01*
X101374787Y-99362107D01*
X101372565Y-99361093D01*
X101363065Y-99356337D01*
X101251547Y-99295444D01*
X101203329Y-99269115D01*
X101194180Y-99263687D01*
X101185261Y-99257955D01*
X101176526Y-99251890D01*
X101030826Y-99142822D01*
X101022537Y-99136141D01*
X101014515Y-99129189D01*
X101006737Y-99121948D01*
X100878044Y-98993255D01*
X100870803Y-98985477D01*
X100863864Y-98977470D01*
X100857190Y-98969190D01*
X100748101Y-98823464D01*
X100742038Y-98814730D01*
X100736310Y-98805816D01*
X100730887Y-98796675D01*
X100643658Y-98636927D01*
X100638914Y-98627453D01*
X100634487Y-98617759D01*
X100630427Y-98607958D01*
X100566820Y-98437420D01*
X100563461Y-98427325D01*
X100560473Y-98417148D01*
X100557843Y-98406845D01*
X100519156Y-98229004D01*
X100517269Y-98218546D01*
X100515756Y-98208020D01*
X100514622Y-98197461D01*
X100514622Y-98197455D01*
X100501068Y-98007943D01*
X100500785Y-98002654D01*
X100500595Y-97997322D01*
X100500500Y-97992016D01*
X100500500Y-97130250D01*
X102449500Y-97130250D01*
X102449500Y-97130251D01*
X102449500Y-98869748D01*
X102458805Y-98916533D01*
X102461132Y-98928231D01*
X102464606Y-98934729D01*
X102469283Y-98940429D01*
X102505448Y-98994552D01*
X102571769Y-99038867D01*
X102630252Y-99050500D01*
X104369748Y-99050500D01*
X104428231Y-99038867D01*
X104494552Y-98994552D01*
X104538867Y-98928231D01*
X104550500Y-98869748D01*
X104550500Y-97130252D01*
X104538867Y-97071769D01*
X104494552Y-97005448D01*
X104440429Y-96969283D01*
X104434729Y-96964606D01*
X104428231Y-96961132D01*
X104413609Y-96958224D01*
X104369748Y-96949500D01*
X104369745Y-96949500D01*
X102630251Y-96949500D01*
X102571768Y-96961132D01*
X102571766Y-96961132D01*
X102505450Y-97005445D01*
X102505447Y-97005448D01*
X102461131Y-97071769D01*
X102449500Y-97130250D01*
X100500500Y-97130250D01*
X100500500Y-94813389D01*
X101599500Y-94813389D01*
X101599500Y-94986611D01*
X101610069Y-95053343D01*
X101626596Y-95157698D01*
X101626597Y-95157700D01*
X101663876Y-95272432D01*
X101663883Y-95272451D01*
X101664653Y-95274821D01*
X101680127Y-95322445D01*
X101680130Y-95322450D01*
X101758771Y-95476793D01*
X101791652Y-95522049D01*
X101860586Y-95616928D01*
X101983072Y-95739414D01*
X102123212Y-95841232D01*
X102277555Y-95919873D01*
X102442299Y-95973402D01*
X102613389Y-96000500D01*
X102613393Y-96000500D01*
X102786607Y-96000500D01*
X102786611Y-96000500D01*
X102957701Y-95973402D01*
X103122445Y-95919873D01*
X103276788Y-95841232D01*
X103416427Y-95739778D01*
X108499500Y-95739778D01*
X108499500Y-95960222D01*
X108514826Y-96056989D01*
X108533985Y-96177956D01*
X108602103Y-96387600D01*
X108602107Y-96387612D01*
X108700411Y-96580543D01*
X108702185Y-96584023D01*
X108702186Y-96584024D01*
X108726871Y-96618000D01*
X108831758Y-96762365D01*
X108987635Y-96918242D01*
X109130625Y-97022129D01*
X109156489Y-97040921D01*
X109156903Y-97041274D01*
X109165959Y-97047801D01*
X109165975Y-97047813D01*
X109165976Y-97047814D01*
X109165977Y-97047814D01*
X109165989Y-97047823D01*
X109166500Y-97048081D01*
X109362391Y-97147894D01*
X109449506Y-97176200D01*
X109449511Y-97176200D01*
X109449512Y-97176201D01*
X109560896Y-97212392D01*
X109560899Y-97212393D01*
X109568153Y-97215397D01*
X109572037Y-97216012D01*
X109572043Y-97216014D01*
X109572048Y-97216014D01*
X109572049Y-97216015D01*
X109789778Y-97250500D01*
X109789782Y-97250500D01*
X110010218Y-97250500D01*
X110010222Y-97250500D01*
X110227951Y-97216015D01*
X110227951Y-97216014D01*
X110227955Y-97216014D01*
X110227956Y-97216014D01*
X110227957Y-97216013D01*
X110231844Y-97215398D01*
X110239097Y-97212393D01*
X110308556Y-97189825D01*
X110437606Y-97147895D01*
X110634022Y-97047815D01*
X110812365Y-96918242D01*
X110968242Y-96762365D01*
X111097815Y-96584022D01*
X111197895Y-96387606D01*
X111251781Y-96221759D01*
X111266014Y-96177956D01*
X111276392Y-96112437D01*
X111276392Y-96112434D01*
X111285173Y-96056990D01*
X111300500Y-95960222D01*
X111300500Y-95739778D01*
X111266015Y-95522049D01*
X111266014Y-95522048D01*
X111266014Y-95522043D01*
X111266012Y-95522037D01*
X111265397Y-95518153D01*
X111262393Y-95510899D01*
X111201162Y-95322450D01*
X111201158Y-95322439D01*
X111197895Y-95312395D01*
X111197895Y-95312394D01*
X111097815Y-95115978D01*
X111090919Y-95106487D01*
X111052308Y-95053343D01*
X110968242Y-94937635D01*
X110812365Y-94781758D01*
X110723193Y-94716971D01*
X110634024Y-94652186D01*
X110634024Y-94652185D01*
X110437612Y-94552107D01*
X110437600Y-94552103D01*
X110227956Y-94483985D01*
X110187358Y-94477555D01*
X110106990Y-94464826D01*
X110106989Y-94464825D01*
X110045137Y-94455029D01*
X110010222Y-94449500D01*
X110010219Y-94449500D01*
X109789782Y-94449500D01*
X109789778Y-94449500D01*
X109720104Y-94460535D01*
X109702685Y-94463294D01*
X109572045Y-94483984D01*
X109572039Y-94483986D01*
X109362398Y-94552103D01*
X109362386Y-94552107D01*
X109165974Y-94652186D01*
X109156487Y-94659079D01*
X109156486Y-94659078D01*
X109156486Y-94659079D01*
X109156485Y-94659080D01*
X108990063Y-94779993D01*
X108988235Y-94781265D01*
X108987635Y-94781757D01*
X108831757Y-94937635D01*
X108831265Y-94938235D01*
X108829993Y-94940063D01*
X108709080Y-95106485D01*
X108709078Y-95106486D01*
X108709079Y-95106487D01*
X108702186Y-95115974D01*
X108602107Y-95312386D01*
X108602103Y-95312398D01*
X108533986Y-95522039D01*
X108533984Y-95522045D01*
X108518959Y-95616918D01*
X108518957Y-95616929D01*
X108499500Y-95739778D01*
X103416427Y-95739778D01*
X103416928Y-95739414D01*
X103539414Y-95616928D01*
X103641232Y-95476788D01*
X103719873Y-95322445D01*
X103773402Y-95157701D01*
X103800500Y-94986611D01*
X103800500Y-94813389D01*
X103773402Y-94642299D01*
X103719873Y-94477555D01*
X103641232Y-94323212D01*
X103641225Y-94323203D01*
X103568106Y-94222563D01*
X103539414Y-94183072D01*
X103469568Y-94113226D01*
X116049500Y-94113226D01*
X116049500Y-96221772D01*
X116052353Y-96252193D01*
X116052354Y-96252199D01*
X116097207Y-96380383D01*
X116097209Y-96380386D01*
X116177844Y-96489644D01*
X116177854Y-96489654D01*
X116278133Y-96563663D01*
X116278134Y-96563663D01*
X116287116Y-96570292D01*
X116287117Y-96570292D01*
X116287152Y-96570318D01*
X116288415Y-96570747D01*
X116415301Y-96615146D01*
X116445734Y-96618000D01*
X116445741Y-96618000D01*
X118554259Y-96618000D01*
X118554266Y-96618000D01*
X118584699Y-96615146D01*
X118712882Y-96570293D01*
X118822150Y-96489650D01*
X118902793Y-96380382D01*
X118947646Y-96252199D01*
X118950500Y-96221766D01*
X118950500Y-95053343D01*
X131049500Y-95053343D01*
X131049500Y-95281657D01*
X131085216Y-95507160D01*
X131155769Y-95724299D01*
X131259421Y-95927728D01*
X131393621Y-96112437D01*
X131555063Y-96273879D01*
X131739772Y-96408079D01*
X131943201Y-96511731D01*
X132160340Y-96582284D01*
X132385843Y-96618000D01*
X132385847Y-96618000D01*
X132614153Y-96618000D01*
X132614157Y-96618000D01*
X132839660Y-96582284D01*
X133056799Y-96511731D01*
X133260228Y-96408079D01*
X133444937Y-96273879D01*
X133606379Y-96112437D01*
X133740579Y-95927728D01*
X133836344Y-95739778D01*
X138599500Y-95739778D01*
X138599500Y-95960222D01*
X138614826Y-96056989D01*
X138633985Y-96177956D01*
X138702103Y-96387600D01*
X138702107Y-96387612D01*
X138800411Y-96580543D01*
X138802185Y-96584023D01*
X138802186Y-96584024D01*
X138826871Y-96618000D01*
X138931758Y-96762365D01*
X139087635Y-96918242D01*
X139230625Y-97022129D01*
X139256489Y-97040921D01*
X139256903Y-97041274D01*
X139265959Y-97047801D01*
X139265975Y-97047813D01*
X139265976Y-97047814D01*
X139265977Y-97047814D01*
X139265989Y-97047823D01*
X139266500Y-97048081D01*
X139462391Y-97147894D01*
X139549506Y-97176200D01*
X139549511Y-97176200D01*
X139549512Y-97176201D01*
X139660896Y-97212392D01*
X139660899Y-97212393D01*
X139668153Y-97215397D01*
X139672037Y-97216012D01*
X139672043Y-97216014D01*
X139672048Y-97216014D01*
X139672049Y-97216015D01*
X139889778Y-97250500D01*
X139889782Y-97250500D01*
X140110218Y-97250500D01*
X140110222Y-97250500D01*
X140327951Y-97216015D01*
X140327951Y-97216014D01*
X140327955Y-97216014D01*
X140327956Y-97216014D01*
X140327957Y-97216013D01*
X140331844Y-97215398D01*
X140339097Y-97212393D01*
X140408556Y-97189825D01*
X140537606Y-97147895D01*
X140572236Y-97130250D01*
X145449500Y-97130250D01*
X145449500Y-97130251D01*
X145449500Y-98869748D01*
X145458805Y-98916533D01*
X145461132Y-98928231D01*
X145464606Y-98934729D01*
X145469283Y-98940429D01*
X145505448Y-98994552D01*
X145571769Y-99038867D01*
X145630252Y-99050500D01*
X147369748Y-99050500D01*
X147428231Y-99038867D01*
X147494552Y-98994552D01*
X147538867Y-98928231D01*
X147550500Y-98869748D01*
X147550500Y-97130252D01*
X147538867Y-97071769D01*
X147494552Y-97005448D01*
X147440429Y-96969283D01*
X147434729Y-96964606D01*
X147428231Y-96961132D01*
X147413609Y-96958224D01*
X147369748Y-96949500D01*
X147369745Y-96949500D01*
X145630251Y-96949500D01*
X145571768Y-96961132D01*
X145571766Y-96961132D01*
X145505450Y-97005445D01*
X145505447Y-97005448D01*
X145461131Y-97071769D01*
X145449500Y-97130250D01*
X140572236Y-97130250D01*
X140734022Y-97047815D01*
X140912365Y-96918242D01*
X141068242Y-96762365D01*
X141197815Y-96584022D01*
X141297895Y-96387606D01*
X141351781Y-96221759D01*
X141366014Y-96177956D01*
X141376392Y-96112437D01*
X141376392Y-96112434D01*
X141385173Y-96056990D01*
X141400500Y-95960222D01*
X141400500Y-95739778D01*
X141366015Y-95522049D01*
X141366014Y-95522048D01*
X141366014Y-95522043D01*
X141366012Y-95522037D01*
X141365397Y-95518153D01*
X141362393Y-95510899D01*
X141301162Y-95322450D01*
X141301158Y-95322439D01*
X141297895Y-95312395D01*
X141297895Y-95312394D01*
X141197815Y-95115978D01*
X141190919Y-95106487D01*
X141152308Y-95053343D01*
X141068242Y-94937635D01*
X140912365Y-94781758D01*
X140823193Y-94716971D01*
X140734024Y-94652186D01*
X140734024Y-94652185D01*
X140537612Y-94552107D01*
X140537600Y-94552103D01*
X140327956Y-94483985D01*
X140287358Y-94477555D01*
X140206990Y-94464826D01*
X140206989Y-94464825D01*
X140145137Y-94455029D01*
X140110222Y-94449500D01*
X140110219Y-94449500D01*
X139889782Y-94449500D01*
X139889778Y-94449500D01*
X139820104Y-94460535D01*
X139802685Y-94463294D01*
X139672045Y-94483984D01*
X139672039Y-94483986D01*
X139462398Y-94552103D01*
X139462386Y-94552107D01*
X139265974Y-94652186D01*
X139256487Y-94659079D01*
X139256486Y-94659078D01*
X139256486Y-94659079D01*
X139256485Y-94659080D01*
X139090063Y-94779993D01*
X139088235Y-94781265D01*
X139087635Y-94781757D01*
X138931757Y-94937635D01*
X138931265Y-94938235D01*
X138929993Y-94940063D01*
X138809080Y-95106485D01*
X138809078Y-95106486D01*
X138809079Y-95106487D01*
X138802186Y-95115974D01*
X138702107Y-95312386D01*
X138702103Y-95312398D01*
X138633986Y-95522039D01*
X138633984Y-95522045D01*
X138618959Y-95616918D01*
X138618957Y-95616929D01*
X138599500Y-95739778D01*
X133836344Y-95739778D01*
X133844231Y-95724299D01*
X133914784Y-95507160D01*
X133950500Y-95281657D01*
X133950500Y-95053343D01*
X133914784Y-94827840D01*
X133844231Y-94610701D01*
X133740579Y-94407272D01*
X133606379Y-94222563D01*
X133444937Y-94061121D01*
X133444203Y-94060588D01*
X133413251Y-94038099D01*
X133260228Y-93926921D01*
X133056799Y-93823269D01*
X132839660Y-93752716D01*
X132614157Y-93717000D01*
X132614153Y-93717000D01*
X132385847Y-93717000D01*
X132385843Y-93717000D01*
X132216836Y-93743768D01*
X132160339Y-93752716D01*
X132160337Y-93752716D01*
X131943336Y-93823224D01*
X131921861Y-93830382D01*
X131911054Y-93839648D01*
X131739771Y-93926921D01*
X131739768Y-93926922D01*
X131555069Y-94061115D01*
X131393615Y-94222569D01*
X131259421Y-94407270D01*
X131230876Y-94463294D01*
X131223613Y-94477549D01*
X131155769Y-94610701D01*
X131085216Y-94827840D01*
X131049500Y-95053343D01*
X118950500Y-95053343D01*
X118950500Y-94113234D01*
X118947646Y-94082801D01*
X118902793Y-93954618D01*
X118847816Y-93880127D01*
X118836396Y-93864653D01*
X118822154Y-93845354D01*
X118822144Y-93845344D01*
X118712884Y-93764707D01*
X118653042Y-93743768D01*
X118593643Y-93722983D01*
X118588193Y-93720678D01*
X118582973Y-93719446D01*
X118577754Y-93719202D01*
X118554277Y-93717000D01*
X118554275Y-93717000D01*
X118554266Y-93717000D01*
X116445734Y-93717000D01*
X116445724Y-93717000D01*
X116415304Y-93719853D01*
X116415303Y-93719853D01*
X116415299Y-93719854D01*
X116287115Y-93764707D01*
X116287112Y-93764709D01*
X116177854Y-93845344D01*
X116177854Y-93845345D01*
X116177845Y-93845354D01*
X116177844Y-93845354D01*
X116097209Y-93954612D01*
X116097207Y-93954615D01*
X116052354Y-94082799D01*
X116052353Y-94082805D01*
X116049500Y-94113226D01*
X103469568Y-94113226D01*
X103416928Y-94060586D01*
X103416924Y-94060583D01*
X103276793Y-93958771D01*
X103276790Y-93958769D01*
X103276788Y-93958768D01*
X103122445Y-93880127D01*
X103074821Y-93864653D01*
X102957700Y-93826597D01*
X102957698Y-93826596D01*
X102860086Y-93811137D01*
X102860086Y-93811136D01*
X102810275Y-93803247D01*
X102786611Y-93799500D01*
X102786608Y-93799500D01*
X102613392Y-93799500D01*
X102613389Y-93799500D01*
X102594090Y-93802556D01*
X102547036Y-93810008D01*
X102547037Y-93810009D01*
X102442301Y-93826596D01*
X102442299Y-93826597D01*
X102277561Y-93880125D01*
X102277555Y-93880127D01*
X102277549Y-93880129D01*
X102256215Y-93887240D01*
X102245408Y-93896506D01*
X102123204Y-93958772D01*
X102123203Y-93958772D01*
X101983081Y-94060577D01*
X101860577Y-94183081D01*
X101758772Y-94323203D01*
X101758769Y-94323209D01*
X101680138Y-94477531D01*
X101680124Y-94477562D01*
X101626598Y-94642295D01*
X101626596Y-94642301D01*
X101608228Y-94758282D01*
X101599500Y-94813389D01*
X100500500Y-94813389D01*
X100500500Y-70197271D01*
X102474500Y-70197271D01*
X102474500Y-70197273D01*
X102474500Y-70302727D01*
X102501793Y-70404587D01*
X102501794Y-70404588D01*
X102515461Y-70428261D01*
X102515462Y-70428264D01*
X102554515Y-70495908D01*
X102554518Y-70495911D01*
X102629088Y-70570481D01*
X102646388Y-70580469D01*
X102646389Y-70580470D01*
X102720409Y-70623205D01*
X102720413Y-70623207D01*
X102822273Y-70650500D01*
X102927727Y-70650500D01*
X103029587Y-70623207D01*
X103120913Y-70570480D01*
X103195480Y-70495913D01*
X103248207Y-70404587D01*
X103275500Y-70302727D01*
X103275500Y-70197273D01*
X103248207Y-70095413D01*
X103195480Y-70004087D01*
X103120913Y-69929520D01*
X103120911Y-69929518D01*
X103120910Y-69929517D01*
X103060030Y-69894368D01*
X103029587Y-69876792D01*
X102927730Y-69849500D01*
X102927727Y-69849500D01*
X102822273Y-69849500D01*
X102822269Y-69849500D01*
X102748791Y-69869189D01*
X102748789Y-69869189D01*
X102720413Y-69876793D01*
X102720411Y-69876793D01*
X102720411Y-69876794D01*
X102694976Y-69891478D01*
X102694965Y-69891483D01*
X102629090Y-69929516D01*
X102629088Y-69929517D01*
X102554517Y-70004088D01*
X102518131Y-70067114D01*
X102507928Y-70084787D01*
X102501793Y-70095413D01*
X102489126Y-70142685D01*
X102474500Y-70197271D01*
X100500500Y-70197271D01*
X100500500Y-68369210D01*
X100520462Y-68294710D01*
X100575000Y-68240172D01*
X100649500Y-68220210D01*
X100659188Y-68220526D01*
X100669179Y-68221180D01*
X108196317Y-68220203D01*
X108281205Y-68209019D01*
X108355684Y-68189058D01*
X108417888Y-68163291D01*
X108434780Y-68156294D01*
X108434783Y-68156292D01*
X108434789Y-68156290D01*
X108441807Y-68152238D01*
X108458804Y-68142426D01*
X108458804Y-68142425D01*
X108458815Y-68142419D01*
X108494499Y-68118576D01*
X108525360Y-68094896D01*
X108557630Y-68066596D01*
X108566387Y-68057837D01*
X108597252Y-68034153D01*
X108607750Y-68028092D01*
X108643681Y-68013211D01*
X108655382Y-68010076D01*
X108693941Y-68005000D01*
X108706056Y-68005000D01*
X108744611Y-68010074D01*
G37*
%TD.AperFunction*%
%TA.AperFunction,Conductor*%
G36*
X117565712Y-63446753D02*
G01*
X117571193Y-63449650D01*
X117583089Y-63455937D01*
X117587408Y-63458312D01*
X117615072Y-63474125D01*
X117615078Y-63474127D01*
X117620789Y-63475862D01*
X117625847Y-63478536D01*
X117657497Y-63487016D01*
X117688837Y-63496540D01*
X117703781Y-63500474D01*
X117703782Y-63500473D01*
X117703783Y-63500474D01*
X117704879Y-63500469D01*
X117725043Y-63501744D01*
X117753534Y-63505500D01*
X121046843Y-63505500D01*
X121065099Y-63510391D01*
X121083997Y-63510207D01*
X121101702Y-63520199D01*
X121121343Y-63525462D01*
X121134707Y-63538826D01*
X121151166Y-63548115D01*
X121158717Y-63562836D01*
X121175881Y-63580000D01*
X121190382Y-63614530D01*
X121192759Y-63623069D01*
X121208435Y-63724907D01*
X121233227Y-63797941D01*
X121249210Y-63830352D01*
X121249061Y-63830414D01*
X121253441Y-63840990D01*
X121253444Y-63840998D01*
X121278046Y-63900392D01*
X121286524Y-63928337D01*
X121292136Y-63956545D01*
X121295000Y-63985619D01*
X121295000Y-64014379D01*
X121292137Y-64043450D01*
X121286525Y-64071661D01*
X121278047Y-64099606D01*
X121278046Y-64099610D01*
X121267044Y-64126171D01*
X121253277Y-64151929D01*
X121241217Y-64169978D01*
X121236632Y-64177886D01*
X121230408Y-64187716D01*
X121217661Y-64206205D01*
X121189676Y-64255395D01*
X121168284Y-64301932D01*
X121148077Y-64358250D01*
X121146967Y-64357852D01*
X121108487Y-64418765D01*
X121040209Y-64454639D01*
X121007508Y-64458294D01*
X100866895Y-64471943D01*
X100668761Y-64472078D01*
X100668757Y-64472078D01*
X100668728Y-64472079D01*
X100659331Y-64472701D01*
X100583676Y-64457698D01*
X100525659Y-64406877D01*
X100500825Y-64333857D01*
X100500500Y-64324026D01*
X100500500Y-63640344D01*
X100520462Y-63565844D01*
X100575000Y-63511306D01*
X100649500Y-63491344D01*
X100688069Y-63496423D01*
X100695813Y-63498498D01*
X100695816Y-63498498D01*
X100695825Y-63498500D01*
X100748992Y-63505499D01*
X100749000Y-63505500D01*
X104351000Y-63505500D01*
X104364369Y-63503740D01*
X104404174Y-63498500D01*
X104404179Y-63498499D01*
X104404187Y-63498498D01*
X104478687Y-63478536D01*
X104493372Y-63474006D01*
X104523265Y-63455222D01*
X104596962Y-63432488D01*
X104672154Y-63449648D01*
X104726813Y-63478536D01*
X104801313Y-63498498D01*
X104801317Y-63498498D01*
X104801325Y-63498500D01*
X104854492Y-63505499D01*
X104854500Y-63505500D01*
X110785524Y-63505500D01*
X110785528Y-63505500D01*
X110785535Y-63505499D01*
X110785547Y-63505499D01*
X110812320Y-63503745D01*
X110812320Y-63503744D01*
X110812335Y-63503744D01*
X110850876Y-63498673D01*
X110877224Y-63493435D01*
X110892681Y-63489296D01*
X110942231Y-63468784D01*
X110975766Y-63449433D01*
X111050270Y-63429489D01*
X111119856Y-63446755D01*
X111179988Y-63478535D01*
X111179990Y-63478536D01*
X111235598Y-63493436D01*
X111247182Y-63496540D01*
X111254490Y-63498498D01*
X111254494Y-63498498D01*
X111254502Y-63498500D01*
X111307669Y-63505499D01*
X111307677Y-63505500D01*
X117231374Y-63505500D01*
X117231384Y-63505500D01*
X117258212Y-63503741D01*
X117296783Y-63498662D01*
X117323152Y-63493416D01*
X117338622Y-63489270D01*
X117388177Y-63468742D01*
X117421592Y-63449449D01*
X117496088Y-63429487D01*
X117565712Y-63446753D01*
G37*
%TD.AperFunction*%
%TA.AperFunction,Conductor*%
G36*
X145515712Y-63496753D02*
G01*
X145531740Y-63505224D01*
X145533089Y-63505937D01*
X145537408Y-63508312D01*
X145565072Y-63524125D01*
X145565078Y-63524127D01*
X145570789Y-63525862D01*
X145575847Y-63528536D01*
X145607497Y-63537016D01*
X145638837Y-63546540D01*
X145653781Y-63550474D01*
X145653782Y-63550473D01*
X145653783Y-63550474D01*
X145654879Y-63550469D01*
X145675043Y-63551744D01*
X145703534Y-63555500D01*
X149181374Y-63555500D01*
X149181384Y-63555500D01*
X149208212Y-63553741D01*
X149246783Y-63548662D01*
X149273152Y-63543416D01*
X149288622Y-63539270D01*
X149293469Y-63537261D01*
X149369935Y-63527188D01*
X149441195Y-63556697D01*
X149488153Y-63617883D01*
X149499500Y-63674915D01*
X149499500Y-64276376D01*
X149479538Y-64350876D01*
X149425000Y-64405414D01*
X149350500Y-64425376D01*
X149321316Y-64422490D01*
X149314718Y-64421172D01*
X149276166Y-64416066D01*
X149276146Y-64416064D01*
X149233358Y-64413226D01*
X145753162Y-64410451D01*
X145710209Y-64413243D01*
X145710197Y-64413244D01*
X145710190Y-64413245D01*
X145671505Y-64418325D01*
X145671500Y-64418326D01*
X145671491Y-64418327D01*
X145629273Y-64426719D01*
X145629268Y-64426720D01*
X145590878Y-64437011D01*
X145590864Y-64437015D01*
X145590850Y-64437019D01*
X145570290Y-64443259D01*
X145555551Y-64448264D01*
X145546212Y-64451098D01*
X145494618Y-64464923D01*
X145456053Y-64470000D01*
X145443945Y-64470000D01*
X145405379Y-64464922D01*
X145352797Y-64450832D01*
X145341672Y-64447246D01*
X145341651Y-64447313D01*
X145341637Y-64447308D01*
X145341622Y-64447353D01*
X145339868Y-64446736D01*
X145308428Y-64436577D01*
X145308429Y-64436577D01*
X145308422Y-64436575D01*
X145293466Y-64432561D01*
X145270041Y-64426274D01*
X145270034Y-64426272D01*
X145228035Y-64417896D01*
X145228015Y-64417892D01*
X145227995Y-64417889D01*
X145227987Y-64417888D01*
X145189531Y-64412801D01*
X145189534Y-64412801D01*
X145146769Y-64409969D01*
X144255252Y-64409257D01*
X144219959Y-64411549D01*
X144212276Y-64412049D01*
X144212274Y-64412049D01*
X144212262Y-64412050D01*
X144173597Y-64417126D01*
X144131354Y-64425523D01*
X144094815Y-64435317D01*
X144094809Y-64435319D01*
X144061036Y-64446792D01*
X144051679Y-64449632D01*
X144037532Y-64453423D01*
X143994618Y-64464922D01*
X143956054Y-64470000D01*
X143943946Y-64470000D01*
X143905380Y-64464922D01*
X143851130Y-64450385D01*
X143841759Y-64447541D01*
X143804503Y-64434881D01*
X143804495Y-64434879D01*
X143767982Y-64425081D01*
X143767959Y-64425075D01*
X143725962Y-64416699D01*
X143725942Y-64416696D01*
X143687474Y-64411607D01*
X143687451Y-64411604D01*
X143644707Y-64408773D01*
X143644705Y-64408772D01*
X143644691Y-64408772D01*
X137153978Y-64403599D01*
X137153977Y-64403599D01*
X137153966Y-64403599D01*
X137153954Y-64403599D01*
X137121772Y-64405158D01*
X137121771Y-64405158D01*
X137092617Y-64408013D01*
X137064786Y-64412127D01*
X137060726Y-64412728D01*
X137060723Y-64412728D01*
X137060720Y-64412729D01*
X137060717Y-64412729D01*
X137032470Y-64418335D01*
X137032412Y-64418348D01*
X137001127Y-64426175D01*
X137001126Y-64426175D01*
X136973132Y-64434663D01*
X136973095Y-64434675D01*
X136942765Y-64445525D01*
X136942752Y-64445530D01*
X136936157Y-64448262D01*
X136925188Y-64452806D01*
X136924601Y-64453049D01*
X136896651Y-64461527D01*
X136868449Y-64467137D01*
X136839383Y-64470000D01*
X136810619Y-64470000D01*
X136781546Y-64467136D01*
X136753337Y-64461524D01*
X136725392Y-64453047D01*
X136705979Y-64445006D01*
X136705978Y-64445005D01*
X136675728Y-64434178D01*
X136675718Y-64434174D01*
X136675713Y-64434173D01*
X136647828Y-64425709D01*
X136647821Y-64425707D01*
X136647817Y-64425706D01*
X136634993Y-64422490D01*
X136616684Y-64417898D01*
X136616676Y-64417896D01*
X136616672Y-64417895D01*
X136591118Y-64412801D01*
X136588510Y-64412281D01*
X136556715Y-64407548D01*
X136556412Y-64407518D01*
X136527718Y-64404674D01*
X136527668Y-64404670D01*
X136495662Y-64403076D01*
X136495626Y-64403075D01*
X136495622Y-64403075D01*
X136486833Y-64403067D01*
X134269029Y-64401299D01*
X134226049Y-64404091D01*
X134226038Y-64404092D01*
X134187388Y-64409166D01*
X134153514Y-64415899D01*
X134145156Y-64417560D01*
X134142216Y-64418348D01*
X134108604Y-64427355D01*
X134067980Y-64441148D01*
X134067954Y-64441157D01*
X134048859Y-64449068D01*
X134030404Y-64455333D01*
X133994620Y-64464922D01*
X133956053Y-64470000D01*
X133943947Y-64470000D01*
X133905379Y-64464922D01*
X133870559Y-64455591D01*
X133852084Y-64449318D01*
X133832391Y-64441157D01*
X133831262Y-64440689D01*
X133831260Y-64440688D01*
X133831252Y-64440685D01*
X133790694Y-64426904D01*
X133758799Y-64418345D01*
X133754145Y-64417096D01*
X133754141Y-64417095D01*
X133754133Y-64417093D01*
X133712128Y-64408716D01*
X133712102Y-64408712D01*
X133673642Y-64403626D01*
X133673626Y-64403624D01*
X133673621Y-64403624D01*
X133652246Y-64402208D01*
X133630887Y-64400793D01*
X133630885Y-64400792D01*
X133630871Y-64400792D01*
X133620751Y-64400783D01*
X132771103Y-64400105D01*
X132728135Y-64402896D01*
X132728126Y-64402897D01*
X132689470Y-64407970D01*
X132647248Y-64416361D01*
X132647228Y-64416365D01*
X132610679Y-64426160D01*
X132570037Y-64439959D01*
X132546558Y-64449685D01*
X132528105Y-64455949D01*
X132494621Y-64464922D01*
X132456053Y-64470000D01*
X132443947Y-64470000D01*
X132405382Y-64464923D01*
X132372873Y-64456212D01*
X132354403Y-64449941D01*
X132329180Y-64439489D01*
X132288626Y-64425710D01*
X132288628Y-64425710D01*
X132252084Y-64415902D01*
X132252068Y-64415899D01*
X132210079Y-64407524D01*
X132210044Y-64407518D01*
X132171573Y-64402430D01*
X132171552Y-64402427D01*
X132128797Y-64399595D01*
X129002637Y-64397103D01*
X128973761Y-64389341D01*
X128944161Y-64385098D01*
X128938154Y-64379769D01*
X128928153Y-64377081D01*
X128883514Y-64337447D01*
X128876616Y-64328241D01*
X128875707Y-64326047D01*
X128861827Y-64302007D01*
X128837985Y-64266325D01*
X128814307Y-64235468D01*
X128786014Y-64203206D01*
X128773721Y-64190913D01*
X128767350Y-64182410D01*
X128766644Y-64180649D01*
X128762707Y-64175852D01*
X128746719Y-64151924D01*
X128732957Y-64126177D01*
X128721949Y-64099601D01*
X128713473Y-64071659D01*
X128707861Y-64043444D01*
X128705000Y-64014383D01*
X128705000Y-63985610D01*
X128707861Y-63956553D01*
X128713474Y-63928331D01*
X128721954Y-63900382D01*
X128738761Y-63859811D01*
X128745378Y-63840998D01*
X128750628Y-63826072D01*
X128759707Y-63794929D01*
X128761637Y-63788029D01*
X128770083Y-63691509D01*
X128796464Y-63619034D01*
X128855549Y-63569459D01*
X128918516Y-63555500D01*
X132301000Y-63555500D01*
X132314369Y-63553740D01*
X132354174Y-63548500D01*
X132354179Y-63548499D01*
X132354187Y-63548498D01*
X132428687Y-63528536D01*
X132443372Y-63524006D01*
X132473265Y-63505222D01*
X132546962Y-63482488D01*
X132622154Y-63499648D01*
X132676813Y-63528536D01*
X132743987Y-63546535D01*
X132749883Y-63548115D01*
X132751313Y-63548498D01*
X132751317Y-63548498D01*
X132751325Y-63548500D01*
X132804067Y-63555443D01*
X132804500Y-63555500D01*
X138735524Y-63555500D01*
X138735528Y-63555500D01*
X138735535Y-63555499D01*
X138735547Y-63555499D01*
X138762320Y-63553745D01*
X138762320Y-63553744D01*
X138762335Y-63553744D01*
X138800876Y-63548673D01*
X138827224Y-63543435D01*
X138842681Y-63539296D01*
X138892231Y-63518784D01*
X138925766Y-63499433D01*
X139000270Y-63479489D01*
X139069856Y-63496755D01*
X139129988Y-63528535D01*
X139129990Y-63528536D01*
X139185598Y-63543436D01*
X139203060Y-63548115D01*
X139204490Y-63548498D01*
X139204494Y-63548498D01*
X139204502Y-63548500D01*
X139257244Y-63555443D01*
X139257677Y-63555500D01*
X145181374Y-63555500D01*
X145181384Y-63555500D01*
X145208212Y-63553741D01*
X145246783Y-63548662D01*
X145273152Y-63543416D01*
X145288622Y-63539270D01*
X145338177Y-63518742D01*
X145371592Y-63499449D01*
X145446088Y-63479487D01*
X145515712Y-63496753D01*
G37*
%TD.AperFunction*%
%TA.AperFunction,Conductor*%
G36*
X147997312Y-50500594D02*
G01*
X148002680Y-50500785D01*
X148007910Y-50501065D01*
X148030112Y-50502653D01*
X148197467Y-50514622D01*
X148208031Y-50515758D01*
X148218530Y-50517267D01*
X148228993Y-50519154D01*
X148406852Y-50557844D01*
X148417135Y-50560469D01*
X148427343Y-50563466D01*
X148437409Y-50566816D01*
X148607968Y-50630431D01*
X148617754Y-50634484D01*
X148627453Y-50638914D01*
X148636927Y-50643658D01*
X148796675Y-50730887D01*
X148805816Y-50736310D01*
X148814730Y-50742038D01*
X148823459Y-50748098D01*
X148969188Y-50857189D01*
X148977470Y-50863864D01*
X148985477Y-50870803D01*
X148993255Y-50878044D01*
X149121948Y-51006737D01*
X149129189Y-51014515D01*
X149136141Y-51022537D01*
X149142822Y-51030826D01*
X149251889Y-51176524D01*
X149257957Y-51185264D01*
X149263695Y-51194193D01*
X149269120Y-51203337D01*
X149356337Y-51363064D01*
X149361089Y-51372556D01*
X149365499Y-51382211D01*
X149369571Y-51392040D01*
X149433178Y-51562578D01*
X149436537Y-51572673D01*
X149439525Y-51582850D01*
X149442155Y-51593153D01*
X149480840Y-51770985D01*
X149482728Y-51781452D01*
X149484240Y-51791968D01*
X149485377Y-51802543D01*
X149498929Y-51992022D01*
X149499213Y-51997315D01*
X149499404Y-52002644D01*
X149499500Y-52007981D01*
X149499500Y-60025086D01*
X149479538Y-60099586D01*
X149425000Y-60154124D01*
X149350500Y-60174086D01*
X149293488Y-60162747D01*
X149288608Y-60160726D01*
X149288602Y-60160724D01*
X149273147Y-60156583D01*
X149273145Y-60156582D01*
X149273132Y-60156579D01*
X149246771Y-60151335D01*
X149246762Y-60151333D01*
X149246758Y-60151333D01*
X149208205Y-60146257D01*
X149181395Y-60144500D01*
X149181384Y-60144500D01*
X145703531Y-60144500D01*
X145703527Y-60144500D01*
X145696804Y-60144609D01*
X145687035Y-60144930D01*
X145627691Y-60155733D01*
X145554644Y-60180539D01*
X145540308Y-60186013D01*
X145540297Y-60186019D01*
X145535308Y-60189631D01*
X145476289Y-60212777D01*
X145476677Y-60214717D01*
X145471845Y-60215683D01*
X145469298Y-60215518D01*
X145465932Y-60216839D01*
X145460619Y-60217485D01*
X145427873Y-60212843D01*
X145394877Y-60210713D01*
X145386677Y-60207004D01*
X145384254Y-60206661D01*
X145381980Y-60204880D01*
X145368190Y-60198643D01*
X145338050Y-60181257D01*
X145314384Y-60171464D01*
X145288487Y-60160748D01*
X145288485Y-60160747D01*
X145288484Y-60160747D01*
X145273011Y-60156607D01*
X145273008Y-60156606D01*
X145273003Y-60156605D01*
X145272999Y-60156604D01*
X145246635Y-60151370D01*
X145246630Y-60151369D01*
X145208101Y-60146311D01*
X145208082Y-60146309D01*
X145198020Y-60145653D01*
X145181255Y-60144561D01*
X145181250Y-60144561D01*
X145181242Y-60144560D01*
X139258466Y-60146726D01*
X139251787Y-60146838D01*
X139242185Y-60147153D01*
X139182958Y-60157923D01*
X139120926Y-60178956D01*
X139109910Y-60182691D01*
X139095549Y-60188167D01*
X139095548Y-60188168D01*
X139087518Y-60193975D01*
X139015451Y-60221454D01*
X138939300Y-60209219D01*
X138925659Y-60202246D01*
X138893409Y-60183610D01*
X138893407Y-60183609D01*
X138893405Y-60183608D01*
X138843848Y-60163059D01*
X138843842Y-60163057D01*
X138843839Y-60163056D01*
X138828392Y-60158911D01*
X138828379Y-60158908D01*
X138828376Y-60158907D01*
X138828371Y-60158906D01*
X138802011Y-60153653D01*
X138802006Y-60153652D01*
X138801997Y-60153651D01*
X138763453Y-60148562D01*
X138736646Y-60146795D01*
X132804573Y-60144627D01*
X132751308Y-60151630D01*
X132676802Y-60171594D01*
X132662130Y-60176120D01*
X132662121Y-60176124D01*
X132632342Y-60194836D01*
X132558640Y-60217569D01*
X132483451Y-60200407D01*
X132428688Y-60171464D01*
X132354190Y-60151502D01*
X132354174Y-60151499D01*
X132301007Y-60144500D01*
X132301000Y-60144500D01*
X129076796Y-60144500D01*
X129002296Y-60124538D01*
X128947758Y-60070000D01*
X128927796Y-59995500D01*
X128929055Y-59976169D01*
X128931216Y-59959655D01*
X128935947Y-59923500D01*
X128932763Y-55907099D01*
X128926433Y-55843225D01*
X128915091Y-55786324D01*
X128908061Y-55763166D01*
X128896454Y-55724927D01*
X128896452Y-55724921D01*
X128896448Y-55724908D01*
X128884496Y-55696053D01*
X128882267Y-55691533D01*
X128865528Y-55657588D01*
X128865515Y-55657564D01*
X128846070Y-55623884D01*
X128846068Y-55623880D01*
X128822220Y-55588189D01*
X128822214Y-55588181D01*
X128820798Y-55586204D01*
X128821116Y-55585975D01*
X128803484Y-55555433D01*
X128793812Y-55532083D01*
X128783745Y-55494510D01*
X128781273Y-55475725D01*
X128780000Y-55456287D01*
X128780000Y-54718694D01*
X128781274Y-54699250D01*
X128783743Y-54680492D01*
X128793811Y-54642917D01*
X128803485Y-54619562D01*
X128822938Y-54585872D01*
X128824822Y-54583416D01*
X128824827Y-54583410D01*
X128858848Y-54528676D01*
X128884590Y-54476423D01*
X128907253Y-54416100D01*
X128915299Y-54385977D01*
X128923638Y-54343881D01*
X128928685Y-54305312D01*
X128931458Y-54262484D01*
X128929292Y-51530251D01*
X139094500Y-51530251D01*
X139094500Y-53269748D01*
X139103805Y-53316533D01*
X139106132Y-53328231D01*
X139109606Y-53334729D01*
X139114283Y-53340429D01*
X139150448Y-53394552D01*
X139216769Y-53438867D01*
X139275252Y-53450500D01*
X141014748Y-53450500D01*
X141073231Y-53438867D01*
X141139552Y-53394552D01*
X141183867Y-53328231D01*
X141195500Y-53269748D01*
X141195500Y-52713389D01*
X146899500Y-52713389D01*
X146899500Y-52886611D01*
X146899898Y-52889123D01*
X146911137Y-52960086D01*
X146926596Y-53057698D01*
X146926597Y-53057700D01*
X146964653Y-53174821D01*
X146973735Y-53202774D01*
X146980128Y-53222448D01*
X146988621Y-53239116D01*
X147034028Y-53328231D01*
X147058771Y-53376793D01*
X147071674Y-53394552D01*
X147160586Y-53516928D01*
X147283072Y-53639414D01*
X147423212Y-53741232D01*
X147577555Y-53819873D01*
X147742299Y-53873402D01*
X147913389Y-53900500D01*
X147913393Y-53900500D01*
X148086607Y-53900500D01*
X148086611Y-53900500D01*
X148257701Y-53873402D01*
X148422445Y-53819873D01*
X148576788Y-53741232D01*
X148716928Y-53639414D01*
X148839414Y-53516928D01*
X148941232Y-53376788D01*
X149019873Y-53222445D01*
X149073402Y-53057701D01*
X149100500Y-52886611D01*
X149100500Y-52713389D01*
X149073402Y-52542299D01*
X149019873Y-52377555D01*
X148941232Y-52223212D01*
X148941225Y-52223203D01*
X148873353Y-52129785D01*
X148839414Y-52083072D01*
X148716928Y-51960586D01*
X148716924Y-51960583D01*
X148576793Y-51858771D01*
X148576790Y-51858769D01*
X148576788Y-51858768D01*
X148422445Y-51780127D01*
X148374821Y-51764653D01*
X148257700Y-51726597D01*
X148257698Y-51726596D01*
X148160086Y-51711137D01*
X148160086Y-51711136D01*
X148110275Y-51703247D01*
X148086611Y-51699500D01*
X148086608Y-51699500D01*
X147913392Y-51699500D01*
X147913389Y-51699500D01*
X147894090Y-51702556D01*
X147847036Y-51710008D01*
X147847037Y-51710009D01*
X147742301Y-51726596D01*
X147742296Y-51726598D01*
X147597048Y-51773792D01*
X147597037Y-51773796D01*
X147589678Y-51776188D01*
X147577555Y-51780127D01*
X147577549Y-51780129D01*
X147577549Y-51780130D01*
X147541908Y-51798289D01*
X147541885Y-51798300D01*
X147423204Y-51858772D01*
X147423203Y-51858772D01*
X147283081Y-51960577D01*
X147160577Y-52083081D01*
X147058772Y-52223203D01*
X147058769Y-52223209D01*
X146980138Y-52377531D01*
X146980124Y-52377562D01*
X146926598Y-52542295D01*
X146926596Y-52542301D01*
X146908228Y-52658282D01*
X146899500Y-52713389D01*
X141195500Y-52713389D01*
X141195500Y-51530252D01*
X141194067Y-51523050D01*
X141183867Y-51471769D01*
X141183258Y-51470858D01*
X141139552Y-51405448D01*
X141085429Y-51369283D01*
X141079729Y-51364606D01*
X141073231Y-51361132D01*
X141058609Y-51358224D01*
X141014748Y-51349500D01*
X141014745Y-51349500D01*
X139275251Y-51349500D01*
X139216768Y-51361132D01*
X139216766Y-51361132D01*
X139150450Y-51405445D01*
X139150447Y-51405448D01*
X139106131Y-51471769D01*
X139095932Y-51523050D01*
X139094500Y-51530251D01*
X128929292Y-51530251D01*
X128928609Y-50668705D01*
X128927989Y-50659351D01*
X128942981Y-50583696D01*
X128993793Y-50525671D01*
X129066810Y-50500826D01*
X129076663Y-50500500D01*
X147992016Y-50500500D01*
X147997312Y-50500594D01*
G37*
%TD.AperFunction*%
%TA.AperFunction,Conductor*%
G36*
X121000923Y-50520462D02*
G01*
X121055461Y-50575000D01*
X121075423Y-50649500D01*
X121075139Y-50658695D01*
X121074386Y-50670866D01*
X121074386Y-50670879D01*
X121083704Y-53202770D01*
X121083795Y-53227387D01*
X121083795Y-53227390D01*
X121088003Y-54370766D01*
X121088800Y-54385977D01*
X121089671Y-54402612D01*
X121091037Y-54416097D01*
X121092587Y-54431402D01*
X121097339Y-54462939D01*
X121102948Y-54490873D01*
X121102958Y-54490914D01*
X121110741Y-54521806D01*
X121119163Y-54549483D01*
X121129929Y-54579528D01*
X121156185Y-54642917D01*
X121166251Y-54680483D01*
X121168724Y-54699265D01*
X121169999Y-54718709D01*
X121169999Y-55456293D01*
X121168724Y-55475737D01*
X121166254Y-55494504D01*
X121166253Y-55494511D01*
X121156188Y-55532073D01*
X121135170Y-55582817D01*
X121124233Y-55613428D01*
X121115706Y-55641633D01*
X121107860Y-55673140D01*
X121104471Y-55690339D01*
X121103351Y-55696031D01*
X121102242Y-55701658D01*
X121097545Y-55733821D01*
X121094736Y-55763166D01*
X121093247Y-55795606D01*
X121093246Y-55795635D01*
X121108477Y-59933374D01*
X121108608Y-59935277D01*
X121108486Y-59935898D01*
X121108495Y-59938220D01*
X121108032Y-59938221D01*
X121093804Y-60010971D01*
X121043137Y-60069122D01*
X120970182Y-60094149D01*
X120959959Y-60094500D01*
X117753527Y-60094500D01*
X117746804Y-60094609D01*
X117737035Y-60094930D01*
X117677691Y-60105733D01*
X117604644Y-60130539D01*
X117590308Y-60136013D01*
X117590297Y-60136019D01*
X117585308Y-60139631D01*
X117526289Y-60162777D01*
X117526677Y-60164717D01*
X117521845Y-60165683D01*
X117519298Y-60165518D01*
X117515932Y-60166839D01*
X117510619Y-60167485D01*
X117477873Y-60162843D01*
X117444877Y-60160713D01*
X117436677Y-60157004D01*
X117434254Y-60156661D01*
X117431980Y-60154880D01*
X117418190Y-60148643D01*
X117388050Y-60131257D01*
X117364384Y-60121464D01*
X117338487Y-60110748D01*
X117338485Y-60110747D01*
X117338484Y-60110747D01*
X117323011Y-60106607D01*
X117323008Y-60106606D01*
X117323003Y-60106605D01*
X117322999Y-60106604D01*
X117296635Y-60101370D01*
X117296630Y-60101369D01*
X117258101Y-60096311D01*
X117258082Y-60096309D01*
X117248020Y-60095653D01*
X117231255Y-60094561D01*
X117231250Y-60094561D01*
X117231242Y-60094560D01*
X111308466Y-60096726D01*
X111301787Y-60096838D01*
X111292185Y-60097153D01*
X111232958Y-60107923D01*
X111179290Y-60126120D01*
X111159910Y-60132691D01*
X111145549Y-60138167D01*
X111145548Y-60138168D01*
X111137518Y-60143975D01*
X111065451Y-60171454D01*
X110989300Y-60159219D01*
X110975659Y-60152246D01*
X110974371Y-60151502D01*
X110965295Y-60146257D01*
X110943409Y-60133610D01*
X110943407Y-60133609D01*
X110943405Y-60133608D01*
X110893848Y-60113059D01*
X110893842Y-60113057D01*
X110893839Y-60113056D01*
X110878392Y-60108911D01*
X110878379Y-60108908D01*
X110878376Y-60108907D01*
X110878371Y-60108906D01*
X110852011Y-60103653D01*
X110852006Y-60103652D01*
X110851997Y-60103651D01*
X110813453Y-60098562D01*
X110786646Y-60096795D01*
X105687328Y-60094932D01*
X105685283Y-60095000D01*
X105565387Y-60095000D01*
X105561961Y-60094887D01*
X104854573Y-60094627D01*
X104801308Y-60101630D01*
X104726802Y-60121594D01*
X104712130Y-60126120D01*
X104712121Y-60126124D01*
X104682342Y-60144836D01*
X104608640Y-60167569D01*
X104533451Y-60150407D01*
X104478688Y-60121464D01*
X104404190Y-60101502D01*
X104404174Y-60101499D01*
X104351007Y-60094500D01*
X104351000Y-60094500D01*
X100749000Y-60094500D01*
X100748992Y-60094500D01*
X100695825Y-60101499D01*
X100695809Y-60101502D01*
X100688065Y-60103578D01*
X100610937Y-60103578D01*
X100544142Y-60065015D01*
X100505577Y-59998220D01*
X100500500Y-59959655D01*
X100500500Y-52007982D01*
X100500595Y-52002674D01*
X100500785Y-51997344D01*
X100501068Y-51992055D01*
X100511318Y-51848748D01*
X100514623Y-51802527D01*
X100515758Y-51791968D01*
X100517270Y-51781452D01*
X100519156Y-51770999D01*
X100532423Y-51710009D01*
X100557845Y-51593143D01*
X100560466Y-51582872D01*
X100563471Y-51572639D01*
X100566813Y-51562598D01*
X100578878Y-51530251D01*
X103574500Y-51530251D01*
X103574500Y-53269748D01*
X103583805Y-53316533D01*
X103586132Y-53328231D01*
X103589606Y-53334729D01*
X103594283Y-53340429D01*
X103630448Y-53394552D01*
X103696769Y-53438867D01*
X103755252Y-53450500D01*
X105494748Y-53450500D01*
X105553231Y-53438867D01*
X105619552Y-53394552D01*
X105663867Y-53328231D01*
X105675500Y-53269748D01*
X105675500Y-51530252D01*
X105675500Y-51530251D01*
X111174500Y-51530251D01*
X111174500Y-53269748D01*
X111183805Y-53316533D01*
X111186132Y-53328231D01*
X111189606Y-53334729D01*
X111194283Y-53340429D01*
X111230448Y-53394552D01*
X111296769Y-53438867D01*
X111355252Y-53450500D01*
X113094748Y-53450500D01*
X113153231Y-53438867D01*
X113219552Y-53394552D01*
X113263867Y-53328231D01*
X113275500Y-53269748D01*
X113275500Y-51530252D01*
X113274067Y-51523050D01*
X113263867Y-51471769D01*
X113263258Y-51470858D01*
X113219552Y-51405448D01*
X113165429Y-51369283D01*
X113159729Y-51364606D01*
X113153231Y-51361132D01*
X113138609Y-51358224D01*
X113094748Y-51349500D01*
X113094745Y-51349500D01*
X111355251Y-51349500D01*
X111296768Y-51361132D01*
X111296766Y-51361132D01*
X111230450Y-51405445D01*
X111230447Y-51405448D01*
X111186131Y-51471769D01*
X111175932Y-51523050D01*
X111174500Y-51530251D01*
X105675500Y-51530251D01*
X105674067Y-51523050D01*
X105663867Y-51471769D01*
X105663258Y-51470858D01*
X105619552Y-51405448D01*
X105565429Y-51369283D01*
X105559729Y-51364606D01*
X105553231Y-51361132D01*
X105538609Y-51358224D01*
X105494748Y-51349500D01*
X105494745Y-51349500D01*
X103755251Y-51349500D01*
X103696768Y-51361132D01*
X103696766Y-51361132D01*
X103630450Y-51405445D01*
X103630447Y-51405448D01*
X103586131Y-51471769D01*
X103575932Y-51523050D01*
X103574500Y-51530251D01*
X100578878Y-51530251D01*
X100601029Y-51470862D01*
X100601030Y-51470860D01*
X100601031Y-51470858D01*
X100630427Y-51392042D01*
X100630428Y-51392040D01*
X100634485Y-51382243D01*
X100638914Y-51372545D01*
X100643668Y-51363052D01*
X100644717Y-51361132D01*
X100730909Y-51203281D01*
X100736302Y-51194193D01*
X100742043Y-51185258D01*
X100748098Y-51176539D01*
X100748109Y-51176524D01*
X100857196Y-51030801D01*
X100863856Y-51022537D01*
X100870810Y-51014511D01*
X100878023Y-51006764D01*
X101006764Y-50878023D01*
X101014511Y-50870810D01*
X101022545Y-50863849D01*
X101030801Y-50857196D01*
X101176543Y-50748094D01*
X101185267Y-50742038D01*
X101194194Y-50736301D01*
X101203302Y-50730897D01*
X101363072Y-50643656D01*
X101372563Y-50638906D01*
X101372576Y-50638900D01*
X101382219Y-50634495D01*
X101392029Y-50630431D01*
X101562602Y-50566811D01*
X101572649Y-50563467D01*
X101582869Y-50560467D01*
X101593135Y-50557847D01*
X101771015Y-50519152D01*
X101781441Y-50517271D01*
X101791990Y-50515755D01*
X101802506Y-50514625D01*
X101972644Y-50502456D01*
X101992069Y-50501067D01*
X101997319Y-50500785D01*
X102002450Y-50500602D01*
X102002689Y-50500594D01*
X102007984Y-50500500D01*
X120926423Y-50500500D01*
X121000923Y-50520462D01*
G37*
%TD.AperFunction*%
%TA.AperFunction,Conductor*%
G36*
X126851689Y-52174334D02*
G01*
X126903086Y-52182473D01*
X127006541Y-52198858D01*
X127029268Y-52204315D01*
X127178379Y-52252764D01*
X127199969Y-52261706D01*
X127339661Y-52332883D01*
X127359592Y-52345098D01*
X127486428Y-52437250D01*
X127504207Y-52452434D01*
X127615064Y-52563291D01*
X127630248Y-52581070D01*
X127722400Y-52707906D01*
X127734617Y-52727841D01*
X127805788Y-52867522D01*
X127814735Y-52889123D01*
X127863180Y-53038220D01*
X127868638Y-53060954D01*
X127893165Y-53215806D01*
X127895000Y-53239116D01*
X127895000Y-53395882D01*
X127893165Y-53419192D01*
X127868638Y-53574044D01*
X127863180Y-53596777D01*
X127863180Y-53596778D01*
X127814735Y-53745875D01*
X127805788Y-53767476D01*
X127734617Y-53907157D01*
X127722400Y-53927092D01*
X127630248Y-54053928D01*
X127615064Y-54071707D01*
X127504207Y-54182564D01*
X127486428Y-54197748D01*
X127359592Y-54289900D01*
X127339657Y-54302117D01*
X127199976Y-54373288D01*
X127178375Y-54382235D01*
X127029278Y-54430680D01*
X127006544Y-54436138D01*
X126851692Y-54460665D01*
X126828382Y-54462500D01*
X126671620Y-54462500D01*
X126648311Y-54460666D01*
X126493456Y-54436139D01*
X126470721Y-54430680D01*
X126321623Y-54382235D01*
X126300022Y-54373288D01*
X126160341Y-54302117D01*
X126140406Y-54289900D01*
X126013570Y-54197748D01*
X125995791Y-54182564D01*
X125884934Y-54071707D01*
X125869750Y-54053928D01*
X125777598Y-53927092D01*
X125765381Y-53907157D01*
X125761989Y-53900500D01*
X125694207Y-53767471D01*
X125685261Y-53745870D01*
X125636818Y-53596777D01*
X125631359Y-53574042D01*
X125606834Y-53419192D01*
X125605000Y-53395884D01*
X125605000Y-53239116D01*
X125606834Y-53215808D01*
X125609108Y-53201446D01*
X125631361Y-53060947D01*
X125636813Y-53038234D01*
X125685267Y-52889107D01*
X125694209Y-52867522D01*
X125765385Y-52727830D01*
X125777590Y-52707914D01*
X125869754Y-52581061D01*
X125884921Y-52563303D01*
X125995799Y-52452425D01*
X126013572Y-52437247D01*
X126095721Y-52377562D01*
X126140412Y-52345092D01*
X126160332Y-52332884D01*
X126300019Y-52261711D01*
X126321613Y-52252766D01*
X126470721Y-52204317D01*
X126493454Y-52198859D01*
X126648308Y-52174333D01*
X126671616Y-52172500D01*
X126828382Y-52172500D01*
X126851689Y-52174334D01*
G37*
%TD.AperFunction*%
%TD*%
%TA.AperFunction,Conductor*%
%TO.N,Net-(C74-Pad2)*%
G36*
X132375500Y-60369962D02*
G01*
X132430038Y-60424500D01*
X132450000Y-60499000D01*
X132450000Y-63201000D01*
X132430038Y-63275500D01*
X132375500Y-63330038D01*
X132301000Y-63350000D01*
X128699000Y-63350000D01*
X128624500Y-63330038D01*
X128569962Y-63275500D01*
X128550000Y-63201000D01*
X128550000Y-60499000D01*
X128569962Y-60424500D01*
X128624500Y-60369962D01*
X128699000Y-60350000D01*
X132301000Y-60350000D01*
X132375500Y-60369962D01*
G37*
%TD.AperFunction*%
%TD*%
%TA.AperFunction,Conductor*%
%TO.N,Net-(C34-Pad2)*%
G36*
X105558683Y-60300386D02*
G01*
X105559108Y-60300500D01*
X105690892Y-60300500D01*
X105691135Y-60300434D01*
X110786561Y-60302295D01*
X110825112Y-60307385D01*
X110840589Y-60311538D01*
X110907368Y-60350126D01*
X110945907Y-60416935D01*
X110945909Y-60416943D01*
X110950048Y-60432416D01*
X110955109Y-60470973D01*
X110954138Y-63131437D01*
X110949048Y-63169996D01*
X110944895Y-63185474D01*
X110906308Y-63252256D01*
X110839526Y-63290790D01*
X110824069Y-63294929D01*
X110785528Y-63300000D01*
X104854500Y-63300000D01*
X104780000Y-63280038D01*
X104725462Y-63225500D01*
X104705500Y-63151000D01*
X104705500Y-60449128D01*
X104725462Y-60374628D01*
X104780000Y-60320090D01*
X104854498Y-60300128D01*
X105558683Y-60300386D01*
G37*
%TD.AperFunction*%
%TD*%
%TA.AperFunction,Conductor*%
%TO.N,Net-(C32-Pad2)*%
G36*
X104425500Y-60319962D02*
G01*
X104480038Y-60374500D01*
X104500000Y-60449000D01*
X104500000Y-63151000D01*
X104480038Y-63225500D01*
X104425500Y-63280038D01*
X104351000Y-63300000D01*
X100749000Y-63300000D01*
X100674500Y-63280038D01*
X100619962Y-63225500D01*
X100600000Y-63151000D01*
X100600000Y-60449000D01*
X100619962Y-60374500D01*
X100674500Y-60319962D01*
X100749000Y-60300000D01*
X104351000Y-60300000D01*
X104425500Y-60319962D01*
G37*
%TD.AperFunction*%
%TD*%
%TA.AperFunction,Conductor*%
%TO.N,Net-(C36-Pad2)*%
G36*
X117269895Y-60305124D02*
G01*
X117285368Y-60309264D01*
X117316649Y-60327309D01*
X117352173Y-60347800D01*
X117352174Y-60347802D01*
X117352177Y-60347804D01*
X117390764Y-60414580D01*
X117394908Y-60430024D01*
X117400000Y-60468642D01*
X117400000Y-62329947D01*
X117399836Y-62336930D01*
X117397690Y-62382653D01*
X117399500Y-62399612D01*
X117399500Y-63104260D01*
X117399663Y-63107741D01*
X117399587Y-63107744D01*
X117399974Y-63116031D01*
X117399996Y-63118991D01*
X117399976Y-63119064D01*
X117400000Y-63120052D01*
X117400000Y-63131383D01*
X117394922Y-63169952D01*
X117390776Y-63185423D01*
X117352209Y-63252216D01*
X117285425Y-63290775D01*
X117269955Y-63294921D01*
X117231384Y-63300000D01*
X111307677Y-63300000D01*
X111233177Y-63280038D01*
X111178639Y-63225500D01*
X111158677Y-63151000D01*
X111159000Y-63141202D01*
X111159636Y-63131538D01*
X111159638Y-63131512D01*
X111160609Y-60471048D01*
X111159949Y-60460920D01*
X111175022Y-60385279D01*
X111225896Y-60327309D01*
X111298940Y-60302543D01*
X111308550Y-60302227D01*
X117231330Y-60300061D01*
X117269895Y-60305124D01*
G37*
%TD.AperFunction*%
%TD*%
%TA.AperFunction,Conductor*%
%TO.N,Net-(C38-Pad2)*%
G36*
X121269947Y-60305077D02*
G01*
X121285417Y-60309222D01*
X121352212Y-60347785D01*
X121390776Y-60414576D01*
X121394922Y-60430047D01*
X121400000Y-60468616D01*
X121400000Y-63131383D01*
X121394922Y-63169952D01*
X121390776Y-63185423D01*
X121352209Y-63252216D01*
X121285425Y-63290775D01*
X121269955Y-63294921D01*
X121231384Y-63300000D01*
X117753534Y-63300000D01*
X117751070Y-63299339D01*
X117748586Y-63299918D01*
X117713970Y-63289399D01*
X117679034Y-63280038D01*
X117677230Y-63278234D01*
X117674790Y-63277493D01*
X117650071Y-63251075D01*
X117624496Y-63225500D01*
X117623835Y-63223036D01*
X117622093Y-63221174D01*
X117616953Y-63197349D01*
X117604534Y-63151000D01*
X117604616Y-63146052D01*
X117604695Y-63143659D01*
X117605500Y-63131383D01*
X117605500Y-63120052D01*
X117605494Y-63119597D01*
X117605503Y-63119339D01*
X117605489Y-63117471D01*
X117605490Y-63117464D01*
X117605468Y-63114504D01*
X117605250Y-63106445D01*
X117605162Y-63104557D01*
X117605000Y-63097612D01*
X117605000Y-62399617D01*
X117604999Y-62399585D01*
X117604132Y-62383299D01*
X117604085Y-62368388D01*
X117605110Y-62346564D01*
X117605279Y-62341755D01*
X117605443Y-62334772D01*
X117605500Y-62329947D01*
X117605500Y-60468642D01*
X117604851Y-60458759D01*
X117619889Y-60383115D01*
X117670737Y-60325121D01*
X117743769Y-60300320D01*
X117753531Y-60300000D01*
X121231384Y-60300000D01*
X121269947Y-60305077D01*
G37*
%TD.AperFunction*%
%TD*%
%TA.AperFunction,Conductor*%
%TO.N,Net-(C76-Pad2)*%
G36*
X138736561Y-60352295D02*
G01*
X138775112Y-60357385D01*
X138790589Y-60361538D01*
X138857368Y-60400126D01*
X138895907Y-60466935D01*
X138895909Y-60466943D01*
X138900048Y-60482416D01*
X138905109Y-60520973D01*
X138904138Y-63181437D01*
X138899048Y-63219996D01*
X138894895Y-63235474D01*
X138875613Y-63268845D01*
X138856327Y-63302237D01*
X138856314Y-63302243D01*
X138856308Y-63302256D01*
X138789526Y-63340790D01*
X138774069Y-63344929D01*
X138735528Y-63350000D01*
X132804500Y-63350000D01*
X132730000Y-63330038D01*
X132675462Y-63275500D01*
X132655500Y-63201000D01*
X132655500Y-60499128D01*
X132675462Y-60424628D01*
X132730000Y-60370090D01*
X132804498Y-60350128D01*
X138736561Y-60352295D01*
G37*
%TD.AperFunction*%
%TD*%
%TA.AperFunction,Conductor*%
%TO.N,Net-(C80-Pad2)*%
G36*
X149219947Y-60355077D02*
G01*
X149235417Y-60359222D01*
X149302212Y-60397785D01*
X149340776Y-60464576D01*
X149344922Y-60480047D01*
X149350000Y-60518616D01*
X149350000Y-63181383D01*
X149344922Y-63219952D01*
X149340776Y-63235423D01*
X149302209Y-63302216D01*
X149235425Y-63340775D01*
X149219955Y-63344921D01*
X149181384Y-63350000D01*
X145703534Y-63350000D01*
X145701070Y-63349339D01*
X145698586Y-63349918D01*
X145663970Y-63339399D01*
X145629034Y-63330038D01*
X145627230Y-63328234D01*
X145624790Y-63327493D01*
X145600071Y-63301075D01*
X145574496Y-63275500D01*
X145573835Y-63273036D01*
X145572093Y-63271174D01*
X145566953Y-63247349D01*
X145554534Y-63201000D01*
X145554616Y-63196052D01*
X145554695Y-63193659D01*
X145555500Y-63181383D01*
X145555500Y-63170052D01*
X145555494Y-63169597D01*
X145555503Y-63169339D01*
X145555489Y-63167471D01*
X145555490Y-63167464D01*
X145555468Y-63164504D01*
X145555250Y-63156445D01*
X145555162Y-63154557D01*
X145555000Y-63147612D01*
X145555000Y-62449617D01*
X145554999Y-62449585D01*
X145554132Y-62433299D01*
X145554085Y-62418388D01*
X145555110Y-62396564D01*
X145555279Y-62391755D01*
X145555443Y-62384772D01*
X145555500Y-62379947D01*
X145555500Y-60518642D01*
X145554851Y-60508759D01*
X145569889Y-60433115D01*
X145620737Y-60375121D01*
X145693769Y-60350320D01*
X145703531Y-60350000D01*
X149181384Y-60350000D01*
X149219947Y-60355077D01*
G37*
%TD.AperFunction*%
%TD*%
%TA.AperFunction,Conductor*%
%TO.N,VCC*%
G36*
X128500000Y-68170309D02*
G01*
X128480038Y-68244809D01*
X128469725Y-68260339D01*
X128417770Y-68328852D01*
X128417769Y-68328854D01*
X128362497Y-68469012D01*
X128351920Y-68557089D01*
X128351920Y-69092910D01*
X128362497Y-69180987D01*
X128417767Y-69321142D01*
X128417768Y-69321144D01*
X128417769Y-69321145D01*
X128500000Y-69429583D01*
X128500000Y-69500000D01*
X128586352Y-69500000D01*
X128628855Y-69532231D01*
X128769014Y-69587503D01*
X128857090Y-69598080D01*
X128857091Y-69598080D01*
X129442909Y-69598080D01*
X129442910Y-69598080D01*
X129530986Y-69587503D01*
X129671145Y-69532231D01*
X129673726Y-69530273D01*
X129676995Y-69528941D01*
X129680028Y-69527236D01*
X129680242Y-69527617D01*
X129682530Y-69526685D01*
X129689254Y-69519962D01*
X129717789Y-69512315D01*
X129745149Y-69501166D01*
X129763754Y-69500000D01*
X130036246Y-69500000D01*
X130110746Y-69519962D01*
X130126269Y-69530270D01*
X130128855Y-69532231D01*
X130269014Y-69587503D01*
X130357090Y-69598080D01*
X130357091Y-69598080D01*
X130488526Y-69598080D01*
X130563026Y-69618042D01*
X130617564Y-69672580D01*
X130637526Y-69747080D01*
X130617564Y-69821580D01*
X130563027Y-69876116D01*
X130563025Y-69876118D01*
X130553821Y-69881431D01*
X130456432Y-69978820D01*
X130387568Y-70098097D01*
X130351920Y-70231133D01*
X130351920Y-70231135D01*
X130351920Y-70368865D01*
X130387567Y-70501901D01*
X130456432Y-70621179D01*
X130553821Y-70718568D01*
X130673099Y-70787433D01*
X130806135Y-70823080D01*
X130943865Y-70823080D01*
X131076901Y-70787433D01*
X131196179Y-70718568D01*
X131293568Y-70621179D01*
X131362433Y-70501901D01*
X131398080Y-70368865D01*
X131398080Y-70231135D01*
X131362433Y-70098099D01*
X131293568Y-69978821D01*
X131196179Y-69881432D01*
X131094040Y-69822462D01*
X131089345Y-69817767D01*
X131083106Y-69815498D01*
X131062343Y-69790765D01*
X131039503Y-69767925D01*
X131037784Y-69761510D01*
X131033516Y-69756426D01*
X131027900Y-69724624D01*
X131019541Y-69693425D01*
X131021259Y-69687011D01*
X131020105Y-69680473D01*
X131031143Y-69650123D01*
X131039503Y-69618925D01*
X131044198Y-69614229D01*
X131046468Y-69607990D01*
X131065268Y-69593159D01*
X131094041Y-69564387D01*
X131105540Y-69558400D01*
X131109658Y-69556478D01*
X131171145Y-69532231D01*
X131186369Y-69520686D01*
X131200753Y-69513975D01*
X131223630Y-69509935D01*
X131245149Y-69501166D01*
X131263754Y-69500000D01*
X131536246Y-69500000D01*
X131610746Y-69519962D01*
X131626269Y-69530270D01*
X131628855Y-69532231D01*
X131769014Y-69587503D01*
X131857090Y-69598080D01*
X131857091Y-69598080D01*
X132442909Y-69598080D01*
X132442910Y-69598080D01*
X132530986Y-69587503D01*
X132671145Y-69532231D01*
X132673726Y-69530273D01*
X132676995Y-69528941D01*
X132680028Y-69527236D01*
X132680242Y-69527617D01*
X132682530Y-69526685D01*
X132689254Y-69519962D01*
X132717789Y-69512315D01*
X132745149Y-69501166D01*
X132763754Y-69500000D01*
X133036246Y-69500000D01*
X133110746Y-69519962D01*
X133126269Y-69530270D01*
X133128855Y-69532231D01*
X133269014Y-69587503D01*
X133357090Y-69598080D01*
X133357091Y-69598080D01*
X133942909Y-69598080D01*
X133942910Y-69598080D01*
X134030986Y-69587503D01*
X134171145Y-69532231D01*
X134173726Y-69530273D01*
X134176995Y-69528941D01*
X134180028Y-69527236D01*
X134180242Y-69527617D01*
X134182530Y-69526685D01*
X134189254Y-69519962D01*
X134217789Y-69512315D01*
X134245149Y-69501166D01*
X134263754Y-69500000D01*
X134536246Y-69500000D01*
X134610746Y-69519962D01*
X134626269Y-69530270D01*
X134628855Y-69532231D01*
X134769014Y-69587503D01*
X134857090Y-69598080D01*
X134857091Y-69598080D01*
X135442909Y-69598080D01*
X135442910Y-69598080D01*
X135530986Y-69587503D01*
X135671145Y-69532231D01*
X135673726Y-69530273D01*
X135676995Y-69528941D01*
X135680028Y-69527236D01*
X135680242Y-69527617D01*
X135682530Y-69526685D01*
X135689254Y-69519962D01*
X135717789Y-69512315D01*
X135745149Y-69501166D01*
X135763754Y-69500000D01*
X136036246Y-69500000D01*
X136110746Y-69519962D01*
X136126269Y-69530270D01*
X136128855Y-69532231D01*
X136269014Y-69587503D01*
X136357090Y-69598080D01*
X136357091Y-69598080D01*
X136942909Y-69598080D01*
X136942910Y-69598080D01*
X137030986Y-69587503D01*
X137171145Y-69532231D01*
X137173726Y-69530273D01*
X137176995Y-69528941D01*
X137180028Y-69527236D01*
X137180242Y-69527617D01*
X137182530Y-69526685D01*
X137189254Y-69519962D01*
X137217789Y-69512315D01*
X137245149Y-69501166D01*
X137263754Y-69500000D01*
X137536246Y-69500000D01*
X137610746Y-69519962D01*
X137626269Y-69530270D01*
X137628855Y-69532231D01*
X137769014Y-69587503D01*
X137857090Y-69598080D01*
X137857091Y-69598080D01*
X138151000Y-69598080D01*
X138225500Y-69618042D01*
X138280038Y-69672580D01*
X138300000Y-69747080D01*
X138300000Y-80651000D01*
X138280038Y-80725500D01*
X138225500Y-80780038D01*
X138151000Y-80800000D01*
X111749000Y-80800000D01*
X111674500Y-80780038D01*
X111619962Y-80725500D01*
X111600000Y-80651000D01*
X111600000Y-69697080D01*
X111619962Y-69622580D01*
X111674500Y-69568042D01*
X111749000Y-69548080D01*
X111992909Y-69548080D01*
X111992910Y-69548080D01*
X112080986Y-69537503D01*
X112221145Y-69482231D01*
X112289659Y-69430276D01*
X112298465Y-69426686D01*
X112305190Y-69419962D01*
X112333725Y-69412316D01*
X112361083Y-69401166D01*
X112379690Y-69400000D01*
X112520310Y-69400000D01*
X112594810Y-69419962D01*
X112610341Y-69430276D01*
X112678851Y-69482229D01*
X112678853Y-69482229D01*
X112678855Y-69482231D01*
X112819014Y-69537503D01*
X112907090Y-69548080D01*
X112907091Y-69548080D01*
X113492909Y-69548080D01*
X113492910Y-69548080D01*
X113580986Y-69537503D01*
X113721145Y-69482231D01*
X113789659Y-69430276D01*
X113798465Y-69426686D01*
X113805190Y-69419962D01*
X113833725Y-69412316D01*
X113861083Y-69401166D01*
X113879690Y-69400000D01*
X114020310Y-69400000D01*
X114094810Y-69419962D01*
X114110341Y-69430276D01*
X114178851Y-69482229D01*
X114178853Y-69482229D01*
X114178855Y-69482231D01*
X114319014Y-69537503D01*
X114407090Y-69548080D01*
X114407091Y-69548080D01*
X114992909Y-69548080D01*
X114992910Y-69548080D01*
X115080986Y-69537503D01*
X115221145Y-69482231D01*
X115289659Y-69430276D01*
X115298465Y-69426686D01*
X115305190Y-69419962D01*
X115333725Y-69412316D01*
X115361083Y-69401166D01*
X115379690Y-69400000D01*
X115520310Y-69400000D01*
X115594810Y-69419962D01*
X115610341Y-69430276D01*
X115678851Y-69482229D01*
X115678853Y-69482229D01*
X115678855Y-69482231D01*
X115819014Y-69537503D01*
X115907090Y-69548080D01*
X115907091Y-69548080D01*
X116492909Y-69548080D01*
X116492910Y-69548080D01*
X116580986Y-69537503D01*
X116721145Y-69482231D01*
X116789659Y-69430276D01*
X116798465Y-69426686D01*
X116805190Y-69419962D01*
X116833725Y-69412316D01*
X116861083Y-69401166D01*
X116879690Y-69400000D01*
X117020310Y-69400000D01*
X117094810Y-69419962D01*
X117110341Y-69430276D01*
X117178851Y-69482229D01*
X117178853Y-69482229D01*
X117178855Y-69482231D01*
X117319014Y-69537503D01*
X117407090Y-69548080D01*
X117407091Y-69548080D01*
X117992909Y-69548080D01*
X117992910Y-69548080D01*
X118080986Y-69537503D01*
X118221145Y-69482231D01*
X118289659Y-69430276D01*
X118298465Y-69426686D01*
X118305190Y-69419962D01*
X118333725Y-69412316D01*
X118361083Y-69401166D01*
X118379690Y-69400000D01*
X118520310Y-69400000D01*
X118594810Y-69419962D01*
X118610341Y-69430276D01*
X118678851Y-69482229D01*
X118678853Y-69482229D01*
X118678855Y-69482231D01*
X118749107Y-69509935D01*
X118795537Y-69528245D01*
X118857519Y-69574146D01*
X118888247Y-69644889D01*
X118879486Y-69721518D01*
X118833585Y-69783500D01*
X118815375Y-69795894D01*
X118753820Y-69831432D01*
X118656432Y-69928820D01*
X118587568Y-70048097D01*
X118587567Y-70048099D01*
X118571023Y-70109839D01*
X118551920Y-70181133D01*
X118551920Y-70181135D01*
X118551920Y-70318865D01*
X118587567Y-70451901D01*
X118656432Y-70571179D01*
X118753821Y-70668568D01*
X118873099Y-70737433D01*
X119006135Y-70773080D01*
X119143865Y-70773080D01*
X119276901Y-70737433D01*
X119396179Y-70668568D01*
X119493568Y-70571179D01*
X119562433Y-70451901D01*
X119598080Y-70318865D01*
X119598080Y-70181135D01*
X119562433Y-70048099D01*
X119493568Y-69928821D01*
X119396179Y-69831432D01*
X119396178Y-69831431D01*
X119386975Y-69826118D01*
X119332437Y-69771581D01*
X119312474Y-69697081D01*
X119332436Y-69622581D01*
X119386973Y-69568043D01*
X119461473Y-69548080D01*
X119492909Y-69548080D01*
X119492910Y-69548080D01*
X119580986Y-69537503D01*
X119721145Y-69482231D01*
X119789659Y-69430276D01*
X119798465Y-69426686D01*
X119805190Y-69419962D01*
X119833725Y-69412316D01*
X119861083Y-69401166D01*
X119879690Y-69400000D01*
X120020310Y-69400000D01*
X120094810Y-69419962D01*
X120110341Y-69430276D01*
X120178851Y-69482229D01*
X120178853Y-69482229D01*
X120178855Y-69482231D01*
X120319014Y-69537503D01*
X120407090Y-69548080D01*
X120407091Y-69548080D01*
X120992909Y-69548080D01*
X120992910Y-69548080D01*
X121080986Y-69537503D01*
X121221145Y-69482231D01*
X121289659Y-69430276D01*
X121361083Y-69401166D01*
X121379690Y-69400000D01*
X121462695Y-69400000D01*
X121462695Y-69222211D01*
X121463785Y-69204219D01*
X121466087Y-69185292D01*
X121487503Y-69130986D01*
X121498080Y-69042910D01*
X121498080Y-68938631D01*
X124376920Y-68938631D01*
X124376920Y-69061368D01*
X124400863Y-69181741D01*
X124400866Y-69181752D01*
X124419231Y-69226086D01*
X124447834Y-69295139D01*
X124516022Y-69397190D01*
X124602810Y-69483978D01*
X124704861Y-69552166D01*
X124818254Y-69599136D01*
X124938632Y-69623080D01*
X125061368Y-69623080D01*
X125181746Y-69599136D01*
X125295139Y-69552166D01*
X125397190Y-69483978D01*
X125483978Y-69397190D01*
X125552166Y-69295139D01*
X125599136Y-69181746D01*
X125623080Y-69061368D01*
X125623080Y-68938632D01*
X125619827Y-68922280D01*
X125618291Y-68914556D01*
X125599136Y-68818254D01*
X125552166Y-68704861D01*
X125483978Y-68602810D01*
X125397190Y-68516022D01*
X125295139Y-68447834D01*
X125242926Y-68426206D01*
X125181752Y-68400866D01*
X125181748Y-68400865D01*
X125181746Y-68400864D01*
X125061368Y-68376920D01*
X124938632Y-68376920D01*
X124818258Y-68400863D01*
X124818247Y-68400866D01*
X124704861Y-68447834D01*
X124704854Y-68447838D01*
X124602811Y-68516021D01*
X124602806Y-68516025D01*
X124516025Y-68602806D01*
X124516021Y-68602811D01*
X124447838Y-68704854D01*
X124447834Y-68704861D01*
X124400866Y-68818247D01*
X124400863Y-68818258D01*
X124376920Y-68938631D01*
X121498080Y-68938631D01*
X121498080Y-68507090D01*
X121487503Y-68419014D01*
X121487501Y-68419008D01*
X121473083Y-68382445D01*
X121462695Y-68327786D01*
X121462695Y-67892863D01*
X128500000Y-67887282D01*
X128500000Y-68170309D01*
G37*
%TD.AperFunction*%
%TD*%
%TA.AperFunction,Conductor*%
%TO.N,Net-(C78-Pad2)*%
G36*
X145219895Y-60355124D02*
G01*
X145235368Y-60359264D01*
X145266649Y-60377309D01*
X145302173Y-60397800D01*
X145302174Y-60397802D01*
X145302177Y-60397804D01*
X145340764Y-60464580D01*
X145344908Y-60480024D01*
X145350000Y-60518642D01*
X145350000Y-62379947D01*
X145349836Y-62386930D01*
X145347690Y-62432653D01*
X145349500Y-62449612D01*
X145349500Y-63154260D01*
X145349663Y-63157741D01*
X145349587Y-63157744D01*
X145349974Y-63166031D01*
X145349996Y-63168991D01*
X145349976Y-63169064D01*
X145350000Y-63170052D01*
X145350000Y-63181383D01*
X145344922Y-63219952D01*
X145340776Y-63235423D01*
X145302209Y-63302216D01*
X145235425Y-63340775D01*
X145219955Y-63344921D01*
X145181384Y-63350000D01*
X139257677Y-63350000D01*
X139183177Y-63330038D01*
X139128639Y-63275500D01*
X139108677Y-63201000D01*
X139109000Y-63191202D01*
X139109636Y-63181538D01*
X139109638Y-63181512D01*
X139110609Y-60521048D01*
X139109949Y-60510920D01*
X139125022Y-60435279D01*
X139175896Y-60377309D01*
X139248940Y-60352543D01*
X139258550Y-60352227D01*
X145181330Y-60350061D01*
X145219895Y-60355124D01*
G37*
%TD.AperFunction*%
%TD*%
M02*
