%TF.GenerationSoftware,KiCad,Pcbnew,10.0.3*%
%TF.CreationDate,2026-05-31T00:14:14+02:00*%
%TF.ProjectId,Power Stage,506f7765-7220-4537-9461-67652e6b6963,rev?*%
%TF.SameCoordinates,Original*%
%TF.FileFunction,Legend,Top*%
%TF.FilePolarity,Positive*%
%FSLAX46Y46*%
G04 Gerber Fmt 4.6, Leading zero omitted, Abs format (unit mm)*
G04 Created by KiCad (PCBNEW 10.0.3) date 2026-05-31 00:14:14*
%MOMM*%
%LPD*%
G01*
G04 APERTURE LIST*
%ADD10C,0.200000*%
%ADD11C,0.120000*%
%ADD12C,0.152400*%
%ADD13C,0.100000*%
G04 APERTURE END LIST*
D10*
G36*
X104336627Y-60597024D02*
G01*
X104361296Y-60621692D01*
X104391101Y-60681302D01*
X104391101Y-60776945D01*
X104361296Y-60836554D01*
X104336627Y-60861222D01*
X104277018Y-60891028D01*
X104019673Y-60891028D01*
X104019673Y-60567219D01*
X104277018Y-60567219D01*
X104336627Y-60597024D01*
G37*
G36*
X109128863Y-61678330D02*
G01*
X103708562Y-61678330D01*
X103708562Y-60467219D01*
X103819673Y-60467219D01*
X103819673Y-61467219D01*
X103821594Y-61486728D01*
X103836526Y-61522776D01*
X103864116Y-61550366D01*
X103900164Y-61565298D01*
X103939182Y-61565298D01*
X103975230Y-61550366D01*
X104002820Y-61522776D01*
X104017752Y-61486728D01*
X104019673Y-61467219D01*
X104019673Y-61091028D01*
X104300625Y-61091028D01*
X104320134Y-61089107D01*
X104323454Y-61087731D01*
X104327038Y-61087477D01*
X104345346Y-61080471D01*
X104440584Y-61032852D01*
X104448980Y-61027566D01*
X104451420Y-61026556D01*
X104454166Y-61024302D01*
X104457174Y-61022409D01*
X104458903Y-61020414D01*
X104466574Y-61014120D01*
X104514192Y-60966501D01*
X104520484Y-60958834D01*
X104522482Y-60957102D01*
X104524375Y-60954093D01*
X104526629Y-60951348D01*
X104527639Y-60948907D01*
X104532925Y-60940511D01*
X104580544Y-60845274D01*
X104587550Y-60826965D01*
X104587804Y-60823381D01*
X104589180Y-60820061D01*
X104591101Y-60800552D01*
X104591101Y-60657695D01*
X104589180Y-60638186D01*
X104587804Y-60634865D01*
X104587550Y-60631282D01*
X104580544Y-60612973D01*
X104532925Y-60517736D01*
X104527639Y-60509339D01*
X104526629Y-60506899D01*
X104524375Y-60504153D01*
X104522482Y-60501145D01*
X104520484Y-60499412D01*
X104514192Y-60491746D01*
X104493404Y-60470958D01*
X104724504Y-60470958D01*
X104727154Y-60490381D01*
X104965249Y-61490381D01*
X104967557Y-61497078D01*
X104967876Y-61499476D01*
X104969130Y-61501643D01*
X104971637Y-61508915D01*
X104980152Y-61520681D01*
X104987425Y-61533244D01*
X104991502Y-61536364D01*
X104994512Y-61540524D01*
X105006874Y-61548131D01*
X105018408Y-61556960D01*
X105023371Y-61558283D01*
X105027742Y-61560973D01*
X105042076Y-61563271D01*
X105056109Y-61567013D01*
X105061197Y-61566336D01*
X105066269Y-61567150D01*
X105080403Y-61563784D01*
X105094787Y-61561873D01*
X105099227Y-61559302D01*
X105104226Y-61558112D01*
X105115992Y-61549596D01*
X105128555Y-61542324D01*
X105131675Y-61538246D01*
X105135835Y-61535237D01*
X105143442Y-61522874D01*
X105152271Y-61511341D01*
X105154970Y-61504140D01*
X105156284Y-61502007D01*
X105156667Y-61499616D01*
X105159154Y-61492985D01*
X105253006Y-61141038D01*
X105346859Y-61492986D01*
X105349344Y-61499615D01*
X105349728Y-61502007D01*
X105351041Y-61504141D01*
X105353741Y-61511341D01*
X105362569Y-61522874D01*
X105370177Y-61535237D01*
X105374336Y-61538246D01*
X105377457Y-61542324D01*
X105390021Y-61549598D01*
X105401786Y-61558112D01*
X105406781Y-61559301D01*
X105411225Y-61561874D01*
X105425614Y-61563785D01*
X105439743Y-61567150D01*
X105444814Y-61566336D01*
X105449903Y-61567013D01*
X105463935Y-61563271D01*
X105478270Y-61560973D01*
X105482640Y-61558283D01*
X105487604Y-61556960D01*
X105499137Y-61548131D01*
X105511500Y-61540524D01*
X105514509Y-61536364D01*
X105518587Y-61533244D01*
X105525862Y-61520677D01*
X105534375Y-61508915D01*
X105536879Y-61501649D01*
X105538137Y-61499477D01*
X105538456Y-61497073D01*
X105540763Y-61490381D01*
X105778859Y-60490381D01*
X105781509Y-60470958D01*
X105780910Y-60467219D01*
X105962530Y-60467219D01*
X105962530Y-61467219D01*
X105964451Y-61486728D01*
X105979383Y-61522776D01*
X106006973Y-61550366D01*
X106043021Y-61565298D01*
X106082039Y-61565298D01*
X106118087Y-61550366D01*
X106145677Y-61522776D01*
X106160609Y-61486728D01*
X106162530Y-61467219D01*
X106162530Y-60917975D01*
X106305245Y-61223793D01*
X106309477Y-61230938D01*
X106310357Y-61233356D01*
X106311922Y-61235065D01*
X106315236Y-61240659D01*
X106326446Y-61250925D01*
X106336708Y-61262131D01*
X106340733Y-61264009D01*
X106344011Y-61267011D01*
X106358293Y-61272204D01*
X106372066Y-61278632D01*
X106376505Y-61278827D01*
X106380680Y-61280345D01*
X106395863Y-61279677D01*
X106411046Y-61280345D01*
X106415219Y-61278827D01*
X106419661Y-61278632D01*
X106433445Y-61272199D01*
X106447715Y-61267010D01*
X106450988Y-61264012D01*
X106455018Y-61262132D01*
X106465287Y-61250917D01*
X106476490Y-61240659D01*
X106479801Y-61235068D01*
X106481370Y-61233356D01*
X106482250Y-61230934D01*
X106486481Y-61223793D01*
X106629196Y-60917974D01*
X106629196Y-61467219D01*
X106631117Y-61486728D01*
X106646049Y-61522776D01*
X106673639Y-61550366D01*
X106709687Y-61565298D01*
X106748705Y-61565298D01*
X106784753Y-61550366D01*
X106812343Y-61522776D01*
X106827275Y-61486728D01*
X106829196Y-61467219D01*
X106829196Y-60740426D01*
X107058553Y-60740426D01*
X107061319Y-60779346D01*
X107078768Y-60814245D01*
X107108245Y-60839809D01*
X107145261Y-60852148D01*
X107184181Y-60849382D01*
X107202489Y-60842376D01*
X107297727Y-60794757D01*
X107306123Y-60789471D01*
X107308563Y-60788461D01*
X107311309Y-60786207D01*
X107314317Y-60784314D01*
X107316046Y-60782319D01*
X107323717Y-60776025D01*
X107343482Y-60756260D01*
X107343482Y-61367219D01*
X107157768Y-61367219D01*
X107138259Y-61369140D01*
X107102211Y-61384072D01*
X107074621Y-61411662D01*
X107059689Y-61447710D01*
X107059689Y-61486728D01*
X107074621Y-61522776D01*
X107102211Y-61550366D01*
X107138259Y-61565298D01*
X107157768Y-61567219D01*
X107729196Y-61567219D01*
X107748705Y-61565298D01*
X107784753Y-61550366D01*
X107812343Y-61522776D01*
X107827275Y-61486728D01*
X107827275Y-61447710D01*
X107812343Y-61411662D01*
X107784753Y-61384072D01*
X107748705Y-61369140D01*
X107729196Y-61367219D01*
X107543482Y-61367219D01*
X107543482Y-61066757D01*
X108059689Y-61066757D01*
X108059689Y-61105775D01*
X108074621Y-61141823D01*
X108102211Y-61169413D01*
X108138259Y-61184345D01*
X108157768Y-61186266D01*
X108919673Y-61186266D01*
X108939182Y-61184345D01*
X108975230Y-61169413D01*
X109002820Y-61141823D01*
X109017752Y-61105775D01*
X109017752Y-61066757D01*
X109002820Y-61030709D01*
X108975230Y-61003119D01*
X108939182Y-60988187D01*
X108919673Y-60986266D01*
X108157768Y-60986266D01*
X108138259Y-60988187D01*
X108102211Y-61003119D01*
X108074621Y-61030709D01*
X108059689Y-61066757D01*
X107543482Y-61066757D01*
X107543482Y-60467219D01*
X107543475Y-60467148D01*
X107543482Y-60467114D01*
X107543461Y-60467012D01*
X107541561Y-60447710D01*
X107537771Y-60438561D01*
X107535830Y-60428854D01*
X107530378Y-60420713D01*
X107526629Y-60411662D01*
X107519629Y-60404662D01*
X107514119Y-60396434D01*
X107505964Y-60390997D01*
X107499039Y-60384072D01*
X107489895Y-60380284D01*
X107481654Y-60374790D01*
X107472040Y-60372888D01*
X107462991Y-60369140D01*
X107453090Y-60369140D01*
X107443378Y-60367219D01*
X107433773Y-60369140D01*
X107423973Y-60369140D01*
X107414824Y-60372929D01*
X107405117Y-60374871D01*
X107396976Y-60380322D01*
X107387925Y-60384072D01*
X107380925Y-60391071D01*
X107372697Y-60396582D01*
X107360408Y-60411588D01*
X107360335Y-60411662D01*
X107360321Y-60411694D01*
X107360277Y-60411749D01*
X107270533Y-60546365D01*
X107193769Y-60623128D01*
X107113047Y-60663490D01*
X107096456Y-60673933D01*
X107070892Y-60703410D01*
X107058553Y-60740426D01*
X106829196Y-60740426D01*
X106829196Y-60467219D01*
X106827933Y-60454395D01*
X106828037Y-60452036D01*
X106827576Y-60450768D01*
X106827275Y-60447710D01*
X106820634Y-60431679D01*
X106814703Y-60415367D01*
X106813196Y-60413721D01*
X106812343Y-60411662D01*
X106800081Y-60399400D01*
X106788351Y-60386591D01*
X106786327Y-60385646D01*
X106784753Y-60384072D01*
X106768737Y-60377437D01*
X106752994Y-60370091D01*
X106750764Y-60369993D01*
X106748705Y-60369140D01*
X106731353Y-60369140D01*
X106714013Y-60368378D01*
X106711917Y-60369140D01*
X106709687Y-60369140D01*
X106693656Y-60375780D01*
X106677344Y-60381712D01*
X106675698Y-60383218D01*
X106673639Y-60384072D01*
X106661371Y-60396339D01*
X106648569Y-60408064D01*
X106647002Y-60410708D01*
X106646049Y-60411662D01*
X106645145Y-60413843D01*
X106638578Y-60424930D01*
X106395862Y-60945033D01*
X106153148Y-60424930D01*
X106146580Y-60413843D01*
X106145677Y-60411662D01*
X106144723Y-60410708D01*
X106143157Y-60408064D01*
X106130360Y-60396345D01*
X106118087Y-60384072D01*
X106116025Y-60383218D01*
X106114382Y-60381713D01*
X106098080Y-60375784D01*
X106082039Y-60369140D01*
X106079808Y-60369140D01*
X106077713Y-60368378D01*
X106060373Y-60369140D01*
X106043021Y-60369140D01*
X106040961Y-60369993D01*
X106038733Y-60370091D01*
X106023002Y-60377432D01*
X106006973Y-60384072D01*
X106005396Y-60385648D01*
X106003375Y-60386592D01*
X105991656Y-60399388D01*
X105979383Y-60411662D01*
X105978529Y-60413723D01*
X105977024Y-60415367D01*
X105971095Y-60431668D01*
X105964451Y-60447710D01*
X105964149Y-60450768D01*
X105963689Y-60452036D01*
X105963792Y-60454395D01*
X105962530Y-60467219D01*
X105780910Y-60467219D01*
X105775332Y-60432432D01*
X105754883Y-60399201D01*
X105723274Y-60376326D01*
X105685317Y-60367289D01*
X105646790Y-60373465D01*
X105613560Y-60393914D01*
X105590685Y-60425523D01*
X105584297Y-60444057D01*
X105437993Y-61058530D01*
X105349630Y-60727167D01*
X105347916Y-60722596D01*
X105347661Y-60720675D01*
X105346340Y-60718393D01*
X105342747Y-60708811D01*
X105334722Y-60698328D01*
X105328111Y-60686908D01*
X105322967Y-60682971D01*
X105319031Y-60677828D01*
X105307613Y-60671218D01*
X105297128Y-60663192D01*
X105290864Y-60661521D01*
X105285263Y-60658279D01*
X105272185Y-60656541D01*
X105259427Y-60653139D01*
X105253005Y-60653992D01*
X105246585Y-60653139D01*
X105233831Y-60656539D01*
X105220749Y-60658278D01*
X105215144Y-60661522D01*
X105208884Y-60663192D01*
X105198400Y-60671216D01*
X105186981Y-60677828D01*
X105183044Y-60682971D01*
X105177901Y-60686908D01*
X105171291Y-60698325D01*
X105163265Y-60708811D01*
X105159669Y-60718399D01*
X105158352Y-60720676D01*
X105158097Y-60722594D01*
X105156383Y-60727166D01*
X105068018Y-61058530D01*
X104921716Y-60444057D01*
X104915328Y-60425523D01*
X104892453Y-60393914D01*
X104859223Y-60373465D01*
X104820696Y-60367288D01*
X104782739Y-60376326D01*
X104751130Y-60399201D01*
X104730681Y-60432431D01*
X104724504Y-60470958D01*
X104493404Y-60470958D01*
X104466574Y-60444127D01*
X104458903Y-60437832D01*
X104457174Y-60435838D01*
X104454166Y-60433944D01*
X104451420Y-60431691D01*
X104448980Y-60430680D01*
X104440584Y-60425395D01*
X104345346Y-60377776D01*
X104327038Y-60370770D01*
X104323454Y-60370515D01*
X104320134Y-60369140D01*
X104300625Y-60367219D01*
X103919673Y-60367219D01*
X103900164Y-60369140D01*
X103864116Y-60384072D01*
X103836526Y-60411662D01*
X103821594Y-60447710D01*
X103819673Y-60467219D01*
X103708562Y-60467219D01*
X103708562Y-60256108D01*
X109128863Y-60256108D01*
X109128863Y-61678330D01*
G37*
G36*
X108106189Y-53128330D02*
G01*
X106161410Y-53128330D01*
X106161410Y-52403062D01*
X106272521Y-52403062D01*
X106273975Y-52407880D01*
X106273975Y-52412918D01*
X106279571Y-52426427D01*
X106283792Y-52440417D01*
X106286979Y-52444313D01*
X106288907Y-52448966D01*
X106299243Y-52459302D01*
X106308499Y-52470615D01*
X106312936Y-52472995D01*
X106316497Y-52476556D01*
X106330002Y-52482150D01*
X106342883Y-52489060D01*
X106347892Y-52489560D01*
X106352545Y-52491488D01*
X106367166Y-52491488D01*
X106381707Y-52492942D01*
X106386526Y-52491488D01*
X106391563Y-52491488D01*
X106405072Y-52485891D01*
X106419062Y-52481671D01*
X106422958Y-52478483D01*
X106427611Y-52476556D01*
X106442765Y-52464120D01*
X106478908Y-52427975D01*
X106538518Y-52398171D01*
X106729399Y-52398171D01*
X106789008Y-52427976D01*
X106813677Y-52452644D01*
X106843482Y-52512254D01*
X106843482Y-52703135D01*
X106813677Y-52762743D01*
X106789008Y-52787413D01*
X106729399Y-52817219D01*
X106538518Y-52817219D01*
X106478908Y-52787414D01*
X106442765Y-52751270D01*
X106427612Y-52738833D01*
X106391564Y-52723902D01*
X106352546Y-52723901D01*
X106316497Y-52738832D01*
X106288907Y-52766422D01*
X106273976Y-52802470D01*
X106273975Y-52841488D01*
X106288906Y-52877537D01*
X106301343Y-52892690D01*
X106348961Y-52940310D01*
X106356629Y-52946603D01*
X106358361Y-52948600D01*
X106361369Y-52950493D01*
X106364115Y-52952747D01*
X106366555Y-52953757D01*
X106374952Y-52959043D01*
X106470189Y-53006662D01*
X106488498Y-53013668D01*
X106492081Y-53013922D01*
X106495402Y-53015298D01*
X106514911Y-53017219D01*
X106753006Y-53017219D01*
X106772515Y-53015298D01*
X106775835Y-53013922D01*
X106779419Y-53013668D01*
X106797727Y-53006662D01*
X106892965Y-52959043D01*
X106901360Y-52953758D01*
X106903802Y-52952747D01*
X106906549Y-52950491D01*
X106909555Y-52948600D01*
X106911285Y-52946605D01*
X106918955Y-52940310D01*
X106966574Y-52892690D01*
X106972866Y-52885023D01*
X106974863Y-52883292D01*
X106976756Y-52880284D01*
X106979011Y-52877537D01*
X106980022Y-52875095D01*
X106985306Y-52866701D01*
X107032925Y-52771464D01*
X107039931Y-52753155D01*
X107040185Y-52749571D01*
X107041561Y-52746251D01*
X107043482Y-52726742D01*
X107043482Y-52488647D01*
X107041561Y-52469138D01*
X107040185Y-52465817D01*
X107039931Y-52462234D01*
X107032925Y-52443925D01*
X106985306Y-52348688D01*
X106980020Y-52340291D01*
X106979010Y-52337851D01*
X106976756Y-52335105D01*
X106974863Y-52332097D01*
X106972865Y-52330364D01*
X106966573Y-52322698D01*
X106918955Y-52275079D01*
X106911284Y-52268784D01*
X106909555Y-52266790D01*
X106906547Y-52264896D01*
X106903801Y-52262643D01*
X106901361Y-52261632D01*
X106892965Y-52256347D01*
X106797727Y-52208728D01*
X106779419Y-52201722D01*
X106775835Y-52201467D01*
X106772515Y-52200092D01*
X106753006Y-52198171D01*
X106514911Y-52198171D01*
X106495402Y-52200092D01*
X106492081Y-52201467D01*
X106491744Y-52201491D01*
X106510172Y-52017219D01*
X106895863Y-52017219D01*
X106915372Y-52015298D01*
X106951420Y-52000366D01*
X106979010Y-51972776D01*
X106993942Y-51936728D01*
X106993942Y-51929726D01*
X107129982Y-51929726D01*
X107134329Y-51948842D01*
X107467662Y-52948841D01*
X107475653Y-52966742D01*
X107480336Y-52972141D01*
X107483531Y-52978531D01*
X107493002Y-52986746D01*
X107501218Y-52996218D01*
X107507606Y-52999412D01*
X107513007Y-53004096D01*
X107524908Y-53008063D01*
X107536117Y-53013667D01*
X107543241Y-53014173D01*
X107550023Y-53016434D01*
X107562532Y-53015544D01*
X107575037Y-53016434D01*
X107581815Y-53014174D01*
X107588943Y-53013668D01*
X107600159Y-53008059D01*
X107612053Y-53004095D01*
X107617450Y-52999414D01*
X107623842Y-52996218D01*
X107632060Y-52986742D01*
X107641529Y-52978530D01*
X107644722Y-52972143D01*
X107649407Y-52966742D01*
X107657398Y-52948842D01*
X107990731Y-51948842D01*
X107995078Y-51929727D01*
X107992312Y-51890807D01*
X107974862Y-51855908D01*
X107945386Y-51830343D01*
X107908370Y-51818004D01*
X107869450Y-51820771D01*
X107834551Y-51838220D01*
X107808986Y-51867696D01*
X107800995Y-51885597D01*
X107562530Y-52600991D01*
X107324065Y-51885596D01*
X107316074Y-51867696D01*
X107290509Y-51838220D01*
X107255610Y-51820770D01*
X107216690Y-51818004D01*
X107179674Y-51830342D01*
X107150198Y-51855907D01*
X107132748Y-51890806D01*
X107129982Y-51929726D01*
X106993942Y-51929726D01*
X106993942Y-51897710D01*
X106979010Y-51861662D01*
X106951420Y-51834072D01*
X106915372Y-51819140D01*
X106895863Y-51817219D01*
X106419673Y-51817219D01*
X106412456Y-51817929D01*
X106410020Y-51817686D01*
X106407641Y-51818403D01*
X106400164Y-51819140D01*
X106386654Y-51824736D01*
X106372665Y-51828957D01*
X106368768Y-51832144D01*
X106364116Y-51834072D01*
X106353779Y-51844408D01*
X106342467Y-51853664D01*
X106340086Y-51858101D01*
X106336526Y-51861662D01*
X106330931Y-51875167D01*
X106324022Y-51888048D01*
X106322545Y-51895412D01*
X106321594Y-51897710D01*
X106321594Y-51900160D01*
X106320169Y-51907269D01*
X106272550Y-52383459D01*
X106272521Y-52403062D01*
X106161410Y-52403062D01*
X106161410Y-51706108D01*
X108106189Y-51706108D01*
X108106189Y-53128330D01*
G37*
G36*
X108786626Y-98497023D02*
G01*
X108850805Y-98561202D01*
X108888720Y-98712861D01*
X108888720Y-99021575D01*
X108850804Y-99173235D01*
X108786628Y-99237413D01*
X108727018Y-99267219D01*
X108583756Y-99267219D01*
X108524146Y-99237414D01*
X108459969Y-99173236D01*
X108422054Y-99021575D01*
X108422054Y-98712862D01*
X108459969Y-98561202D01*
X108524148Y-98497023D01*
X108583756Y-98467219D01*
X108727018Y-98467219D01*
X108786626Y-98497023D01*
G37*
G36*
X111959815Y-99578330D02*
G01*
X108110943Y-99578330D01*
X108110943Y-98700552D01*
X108222054Y-98700552D01*
X108222054Y-99033885D01*
X108222389Y-99037287D01*
X108222172Y-99038746D01*
X108223251Y-99046043D01*
X108223975Y-99053394D01*
X108224539Y-99054757D01*
X108225040Y-99058139D01*
X108272659Y-99248614D01*
X108279254Y-99267075D01*
X108283679Y-99273047D01*
X108286525Y-99279918D01*
X108298962Y-99295071D01*
X108394200Y-99390311D01*
X108401868Y-99396604D01*
X108403599Y-99398600D01*
X108406606Y-99400493D01*
X108409353Y-99402747D01*
X108411793Y-99403757D01*
X108420190Y-99409043D01*
X108515427Y-99456662D01*
X108533736Y-99463668D01*
X108537319Y-99463922D01*
X108540640Y-99465298D01*
X108560149Y-99467219D01*
X108750625Y-99467219D01*
X108770134Y-99465298D01*
X108773454Y-99463922D01*
X108777038Y-99463668D01*
X108795346Y-99456662D01*
X108890584Y-99409043D01*
X108898979Y-99403758D01*
X108901421Y-99402747D01*
X108904168Y-99400491D01*
X108907174Y-99398600D01*
X108908904Y-99396605D01*
X108916574Y-99390310D01*
X109011812Y-99295071D01*
X109024249Y-99279918D01*
X109027094Y-99273047D01*
X109031520Y-99267075D01*
X109038115Y-99248615D01*
X109085734Y-99058139D01*
X109086234Y-99054757D01*
X109086799Y-99053394D01*
X109087522Y-99046043D01*
X109088602Y-99038746D01*
X109088384Y-99037287D01*
X109088720Y-99033885D01*
X109088720Y-98700552D01*
X109088384Y-98697149D01*
X109088602Y-98695691D01*
X109087522Y-98688393D01*
X109086799Y-98681043D01*
X109086234Y-98679679D01*
X109085734Y-98676298D01*
X109038115Y-98485822D01*
X109031520Y-98467362D01*
X109027093Y-98461387D01*
X109024248Y-98454519D01*
X109011812Y-98439365D01*
X108939666Y-98367219D01*
X109317292Y-98367219D01*
X109317292Y-99176742D01*
X109319213Y-99196251D01*
X109320588Y-99199571D01*
X109320843Y-99203155D01*
X109327849Y-99221463D01*
X109375468Y-99316701D01*
X109380751Y-99325093D01*
X109381763Y-99327537D01*
X109384019Y-99330286D01*
X109385911Y-99333291D01*
X109387905Y-99335020D01*
X109394200Y-99342690D01*
X109441818Y-99390310D01*
X109449486Y-99396603D01*
X109451218Y-99398600D01*
X109454226Y-99400493D01*
X109456972Y-99402747D01*
X109459412Y-99403757D01*
X109467809Y-99409043D01*
X109563046Y-99456662D01*
X109581355Y-99463668D01*
X109584938Y-99463922D01*
X109588259Y-99465298D01*
X109607768Y-99467219D01*
X109798244Y-99467219D01*
X109817753Y-99465298D01*
X109821073Y-99463922D01*
X109824657Y-99463668D01*
X109842965Y-99456662D01*
X109938203Y-99409043D01*
X109946598Y-99403758D01*
X109949040Y-99402747D01*
X109951787Y-99400491D01*
X109954793Y-99398600D01*
X109956523Y-99396605D01*
X109964193Y-99390310D01*
X110011812Y-99342690D01*
X110018104Y-99335023D01*
X110020101Y-99333292D01*
X110021994Y-99330284D01*
X110024249Y-99327537D01*
X110025260Y-99325095D01*
X110030544Y-99316701D01*
X110078163Y-99221464D01*
X110085169Y-99203155D01*
X110085423Y-99199571D01*
X110086799Y-99196251D01*
X110088720Y-99176742D01*
X110088720Y-98367219D01*
X110086799Y-98347710D01*
X110223975Y-98347710D01*
X110223975Y-98386728D01*
X110238907Y-98422776D01*
X110266497Y-98450366D01*
X110302545Y-98465298D01*
X110322054Y-98467219D01*
X110507768Y-98467219D01*
X110507768Y-99367219D01*
X110509689Y-99386728D01*
X110524621Y-99422776D01*
X110552211Y-99450366D01*
X110588259Y-99465298D01*
X110627277Y-99465298D01*
X110663325Y-99450366D01*
X110690915Y-99422776D01*
X110705847Y-99386728D01*
X110707768Y-99367219D01*
X110707768Y-98640426D01*
X111079982Y-98640426D01*
X111082748Y-98679346D01*
X111100197Y-98714245D01*
X111129674Y-98739809D01*
X111166690Y-98752148D01*
X111205610Y-98749382D01*
X111223918Y-98742376D01*
X111319156Y-98694757D01*
X111327552Y-98689471D01*
X111329992Y-98688461D01*
X111332738Y-98686207D01*
X111335746Y-98684314D01*
X111337475Y-98682319D01*
X111345146Y-98676025D01*
X111364911Y-98656260D01*
X111364911Y-99267219D01*
X111179197Y-99267219D01*
X111159688Y-99269140D01*
X111123640Y-99284072D01*
X111096050Y-99311662D01*
X111081118Y-99347710D01*
X111081118Y-99386728D01*
X111096050Y-99422776D01*
X111123640Y-99450366D01*
X111159688Y-99465298D01*
X111179197Y-99467219D01*
X111750625Y-99467219D01*
X111770134Y-99465298D01*
X111806182Y-99450366D01*
X111833772Y-99422776D01*
X111848704Y-99386728D01*
X111848704Y-99347710D01*
X111833772Y-99311662D01*
X111806182Y-99284072D01*
X111770134Y-99269140D01*
X111750625Y-99267219D01*
X111564911Y-99267219D01*
X111564911Y-98367219D01*
X111564904Y-98367148D01*
X111564911Y-98367114D01*
X111564890Y-98367012D01*
X111562990Y-98347710D01*
X111559200Y-98338561D01*
X111557259Y-98328854D01*
X111551807Y-98320713D01*
X111548058Y-98311662D01*
X111541058Y-98304662D01*
X111535548Y-98296434D01*
X111527393Y-98290997D01*
X111520468Y-98284072D01*
X111511324Y-98280284D01*
X111503083Y-98274790D01*
X111493469Y-98272888D01*
X111484420Y-98269140D01*
X111474519Y-98269140D01*
X111464807Y-98267219D01*
X111455202Y-98269140D01*
X111445402Y-98269140D01*
X111436253Y-98272929D01*
X111426546Y-98274871D01*
X111418405Y-98280322D01*
X111409354Y-98284072D01*
X111402354Y-98291071D01*
X111394126Y-98296582D01*
X111381837Y-98311588D01*
X111381764Y-98311662D01*
X111381750Y-98311694D01*
X111381706Y-98311749D01*
X111291962Y-98446365D01*
X111215198Y-98523128D01*
X111134476Y-98563490D01*
X111117885Y-98573933D01*
X111092321Y-98603410D01*
X111079982Y-98640426D01*
X110707768Y-98640426D01*
X110707768Y-98467219D01*
X110893482Y-98467219D01*
X110912991Y-98465298D01*
X110949039Y-98450366D01*
X110976629Y-98422776D01*
X110991561Y-98386728D01*
X110991561Y-98347710D01*
X110976629Y-98311662D01*
X110949039Y-98284072D01*
X110912991Y-98269140D01*
X110893482Y-98267219D01*
X110322054Y-98267219D01*
X110302545Y-98269140D01*
X110266497Y-98284072D01*
X110238907Y-98311662D01*
X110223975Y-98347710D01*
X110086799Y-98347710D01*
X110071867Y-98311662D01*
X110044277Y-98284072D01*
X110008229Y-98269140D01*
X109969211Y-98269140D01*
X109933163Y-98284072D01*
X109905573Y-98311662D01*
X109890641Y-98347710D01*
X109888720Y-98367219D01*
X109888720Y-99153135D01*
X109858915Y-99212743D01*
X109834246Y-99237413D01*
X109774637Y-99267219D01*
X109631375Y-99267219D01*
X109571765Y-99237414D01*
X109547098Y-99212746D01*
X109517292Y-99153134D01*
X109517292Y-98367219D01*
X109515371Y-98347710D01*
X109500439Y-98311662D01*
X109472849Y-98284072D01*
X109436801Y-98269140D01*
X109397783Y-98269140D01*
X109361735Y-98284072D01*
X109334145Y-98311662D01*
X109319213Y-98347710D01*
X109317292Y-98367219D01*
X108939666Y-98367219D01*
X108916574Y-98344127D01*
X108908903Y-98337832D01*
X108907174Y-98335838D01*
X108904166Y-98333944D01*
X108901420Y-98331691D01*
X108898980Y-98330680D01*
X108890584Y-98325395D01*
X108795346Y-98277776D01*
X108777038Y-98270770D01*
X108773454Y-98270515D01*
X108770134Y-98269140D01*
X108750625Y-98267219D01*
X108560149Y-98267219D01*
X108540640Y-98269140D01*
X108537319Y-98270515D01*
X108533736Y-98270770D01*
X108515427Y-98277776D01*
X108420190Y-98325395D01*
X108411791Y-98330681D01*
X108409354Y-98331691D01*
X108406610Y-98333942D01*
X108403599Y-98335838D01*
X108401866Y-98337835D01*
X108394200Y-98344127D01*
X108298962Y-98439365D01*
X108286526Y-98454519D01*
X108283680Y-98461387D01*
X108279254Y-98467362D01*
X108272659Y-98485823D01*
X108225040Y-98676298D01*
X108224539Y-98679679D01*
X108223975Y-98681043D01*
X108223251Y-98688393D01*
X108222172Y-98695691D01*
X108222389Y-98697149D01*
X108222054Y-98700552D01*
X108110943Y-98700552D01*
X108110943Y-98156108D01*
X111959815Y-98156108D01*
X111959815Y-99578330D01*
G37*
G36*
X113486627Y-60597024D02*
G01*
X113511296Y-60621692D01*
X113541101Y-60681302D01*
X113541101Y-60776945D01*
X113511296Y-60836554D01*
X113486627Y-60861222D01*
X113427018Y-60891028D01*
X113169673Y-60891028D01*
X113169673Y-60567219D01*
X113427018Y-60567219D01*
X113486627Y-60597024D01*
G37*
G36*
X118278863Y-61678330D02*
G01*
X112858562Y-61678330D01*
X112858562Y-60467219D01*
X112969673Y-60467219D01*
X112969673Y-61467219D01*
X112971594Y-61486728D01*
X112986526Y-61522776D01*
X113014116Y-61550366D01*
X113050164Y-61565298D01*
X113089182Y-61565298D01*
X113125230Y-61550366D01*
X113152820Y-61522776D01*
X113167752Y-61486728D01*
X113169673Y-61467219D01*
X113169673Y-61091028D01*
X113450625Y-61091028D01*
X113470134Y-61089107D01*
X113473454Y-61087731D01*
X113477038Y-61087477D01*
X113495346Y-61080471D01*
X113590584Y-61032852D01*
X113598980Y-61027566D01*
X113601420Y-61026556D01*
X113604166Y-61024302D01*
X113607174Y-61022409D01*
X113608903Y-61020414D01*
X113616574Y-61014120D01*
X113664192Y-60966501D01*
X113670484Y-60958834D01*
X113672482Y-60957102D01*
X113674375Y-60954093D01*
X113676629Y-60951348D01*
X113677639Y-60948907D01*
X113682925Y-60940511D01*
X113730544Y-60845274D01*
X113737550Y-60826965D01*
X113737804Y-60823381D01*
X113739180Y-60820061D01*
X113741101Y-60800552D01*
X113741101Y-60657695D01*
X113739180Y-60638186D01*
X113737804Y-60634865D01*
X113737550Y-60631282D01*
X113730544Y-60612973D01*
X113682925Y-60517736D01*
X113677639Y-60509339D01*
X113676629Y-60506899D01*
X113674375Y-60504153D01*
X113672482Y-60501145D01*
X113670484Y-60499412D01*
X113664192Y-60491746D01*
X113643404Y-60470958D01*
X113874504Y-60470958D01*
X113877154Y-60490381D01*
X114115249Y-61490381D01*
X114117557Y-61497078D01*
X114117876Y-61499476D01*
X114119130Y-61501643D01*
X114121637Y-61508915D01*
X114130152Y-61520681D01*
X114137425Y-61533244D01*
X114141502Y-61536364D01*
X114144512Y-61540524D01*
X114156874Y-61548131D01*
X114168408Y-61556960D01*
X114173371Y-61558283D01*
X114177742Y-61560973D01*
X114192076Y-61563271D01*
X114206109Y-61567013D01*
X114211197Y-61566336D01*
X114216269Y-61567150D01*
X114230403Y-61563784D01*
X114244787Y-61561873D01*
X114249227Y-61559302D01*
X114254226Y-61558112D01*
X114265992Y-61549596D01*
X114278555Y-61542324D01*
X114281675Y-61538246D01*
X114285835Y-61535237D01*
X114293442Y-61522874D01*
X114302271Y-61511341D01*
X114304970Y-61504140D01*
X114306284Y-61502007D01*
X114306667Y-61499616D01*
X114309154Y-61492985D01*
X114403006Y-61141038D01*
X114496859Y-61492986D01*
X114499344Y-61499615D01*
X114499728Y-61502007D01*
X114501041Y-61504141D01*
X114503741Y-61511341D01*
X114512569Y-61522874D01*
X114520177Y-61535237D01*
X114524336Y-61538246D01*
X114527457Y-61542324D01*
X114540021Y-61549598D01*
X114551786Y-61558112D01*
X114556781Y-61559301D01*
X114561225Y-61561874D01*
X114575614Y-61563785D01*
X114589743Y-61567150D01*
X114594814Y-61566336D01*
X114599903Y-61567013D01*
X114613935Y-61563271D01*
X114628270Y-61560973D01*
X114632640Y-61558283D01*
X114637604Y-61556960D01*
X114649137Y-61548131D01*
X114661500Y-61540524D01*
X114664509Y-61536364D01*
X114668587Y-61533244D01*
X114675862Y-61520677D01*
X114684375Y-61508915D01*
X114686879Y-61501649D01*
X114688137Y-61499477D01*
X114688456Y-61497073D01*
X114690763Y-61490381D01*
X114928859Y-60490381D01*
X114931509Y-60470958D01*
X114930910Y-60467219D01*
X115112530Y-60467219D01*
X115112530Y-61467219D01*
X115114451Y-61486728D01*
X115129383Y-61522776D01*
X115156973Y-61550366D01*
X115193021Y-61565298D01*
X115232039Y-61565298D01*
X115268087Y-61550366D01*
X115295677Y-61522776D01*
X115310609Y-61486728D01*
X115312530Y-61467219D01*
X115312530Y-60917975D01*
X115455245Y-61223793D01*
X115459477Y-61230938D01*
X115460357Y-61233356D01*
X115461922Y-61235065D01*
X115465236Y-61240659D01*
X115476446Y-61250925D01*
X115486708Y-61262131D01*
X115490733Y-61264009D01*
X115494011Y-61267011D01*
X115508293Y-61272204D01*
X115522066Y-61278632D01*
X115526505Y-61278827D01*
X115530680Y-61280345D01*
X115545863Y-61279677D01*
X115561046Y-61280345D01*
X115565219Y-61278827D01*
X115569661Y-61278632D01*
X115583445Y-61272199D01*
X115597715Y-61267010D01*
X115600988Y-61264012D01*
X115605018Y-61262132D01*
X115615287Y-61250917D01*
X115626490Y-61240659D01*
X115629801Y-61235068D01*
X115631370Y-61233356D01*
X115632250Y-61230934D01*
X115636481Y-61223793D01*
X115779196Y-60917974D01*
X115779196Y-61467219D01*
X115781117Y-61486728D01*
X115796049Y-61522776D01*
X115823639Y-61550366D01*
X115859687Y-61565298D01*
X115898705Y-61565298D01*
X115934753Y-61550366D01*
X115962343Y-61522776D01*
X115977275Y-61486728D01*
X115979196Y-61467219D01*
X115979196Y-60740426D01*
X116208553Y-60740426D01*
X116211319Y-60779346D01*
X116228768Y-60814245D01*
X116258245Y-60839809D01*
X116295261Y-60852148D01*
X116334181Y-60849382D01*
X116352489Y-60842376D01*
X116447727Y-60794757D01*
X116456123Y-60789471D01*
X116458563Y-60788461D01*
X116461309Y-60786207D01*
X116464317Y-60784314D01*
X116466046Y-60782319D01*
X116473717Y-60776025D01*
X116493482Y-60756260D01*
X116493482Y-61367219D01*
X116307768Y-61367219D01*
X116288259Y-61369140D01*
X116252211Y-61384072D01*
X116224621Y-61411662D01*
X116209689Y-61447710D01*
X116209689Y-61486728D01*
X116224621Y-61522776D01*
X116252211Y-61550366D01*
X116288259Y-61565298D01*
X116307768Y-61567219D01*
X116879196Y-61567219D01*
X116898705Y-61565298D01*
X116934753Y-61550366D01*
X116962343Y-61522776D01*
X116977275Y-61486728D01*
X116977275Y-61447710D01*
X116962343Y-61411662D01*
X116934753Y-61384072D01*
X116898705Y-61369140D01*
X116879196Y-61367219D01*
X116693482Y-61367219D01*
X116693482Y-61066757D01*
X117209689Y-61066757D01*
X117209689Y-61105775D01*
X117224621Y-61141823D01*
X117252211Y-61169413D01*
X117288259Y-61184345D01*
X117307768Y-61186266D01*
X117588720Y-61186266D01*
X117588720Y-61467219D01*
X117590641Y-61486728D01*
X117605573Y-61522776D01*
X117633163Y-61550366D01*
X117669211Y-61565298D01*
X117708229Y-61565298D01*
X117744277Y-61550366D01*
X117771867Y-61522776D01*
X117786799Y-61486728D01*
X117788720Y-61467219D01*
X117788720Y-61186266D01*
X118069673Y-61186266D01*
X118089182Y-61184345D01*
X118125230Y-61169413D01*
X118152820Y-61141823D01*
X118167752Y-61105775D01*
X118167752Y-61066757D01*
X118152820Y-61030709D01*
X118125230Y-61003119D01*
X118089182Y-60988187D01*
X118069673Y-60986266D01*
X117788720Y-60986266D01*
X117788720Y-60705314D01*
X117786799Y-60685805D01*
X117771867Y-60649757D01*
X117744277Y-60622167D01*
X117708229Y-60607235D01*
X117669211Y-60607235D01*
X117633163Y-60622167D01*
X117605573Y-60649757D01*
X117590641Y-60685805D01*
X117588720Y-60705314D01*
X117588720Y-60986266D01*
X117307768Y-60986266D01*
X117288259Y-60988187D01*
X117252211Y-61003119D01*
X117224621Y-61030709D01*
X117209689Y-61066757D01*
X116693482Y-61066757D01*
X116693482Y-60467219D01*
X116693475Y-60467148D01*
X116693482Y-60467114D01*
X116693461Y-60467012D01*
X116691561Y-60447710D01*
X116687771Y-60438561D01*
X116685830Y-60428854D01*
X116680378Y-60420713D01*
X116676629Y-60411662D01*
X116669629Y-60404662D01*
X116664119Y-60396434D01*
X116655964Y-60390997D01*
X116649039Y-60384072D01*
X116639895Y-60380284D01*
X116631654Y-60374790D01*
X116622040Y-60372888D01*
X116612991Y-60369140D01*
X116603090Y-60369140D01*
X116593378Y-60367219D01*
X116583773Y-60369140D01*
X116573973Y-60369140D01*
X116564824Y-60372929D01*
X116555117Y-60374871D01*
X116546976Y-60380322D01*
X116537925Y-60384072D01*
X116530925Y-60391071D01*
X116522697Y-60396582D01*
X116510408Y-60411588D01*
X116510335Y-60411662D01*
X116510321Y-60411694D01*
X116510277Y-60411749D01*
X116420533Y-60546365D01*
X116343769Y-60623128D01*
X116263047Y-60663490D01*
X116246456Y-60673933D01*
X116220892Y-60703410D01*
X116208553Y-60740426D01*
X115979196Y-60740426D01*
X115979196Y-60467219D01*
X115977933Y-60454395D01*
X115978037Y-60452036D01*
X115977576Y-60450768D01*
X115977275Y-60447710D01*
X115970634Y-60431679D01*
X115964703Y-60415367D01*
X115963196Y-60413721D01*
X115962343Y-60411662D01*
X115950081Y-60399400D01*
X115938351Y-60386591D01*
X115936327Y-60385646D01*
X115934753Y-60384072D01*
X115918737Y-60377437D01*
X115902994Y-60370091D01*
X115900764Y-60369993D01*
X115898705Y-60369140D01*
X115881353Y-60369140D01*
X115864013Y-60368378D01*
X115861917Y-60369140D01*
X115859687Y-60369140D01*
X115843656Y-60375780D01*
X115827344Y-60381712D01*
X115825698Y-60383218D01*
X115823639Y-60384072D01*
X115811371Y-60396339D01*
X115798569Y-60408064D01*
X115797002Y-60410708D01*
X115796049Y-60411662D01*
X115795145Y-60413843D01*
X115788578Y-60424930D01*
X115545862Y-60945033D01*
X115303148Y-60424930D01*
X115296580Y-60413843D01*
X115295677Y-60411662D01*
X115294723Y-60410708D01*
X115293157Y-60408064D01*
X115280360Y-60396345D01*
X115268087Y-60384072D01*
X115266025Y-60383218D01*
X115264382Y-60381713D01*
X115248080Y-60375784D01*
X115232039Y-60369140D01*
X115229808Y-60369140D01*
X115227713Y-60368378D01*
X115210373Y-60369140D01*
X115193021Y-60369140D01*
X115190961Y-60369993D01*
X115188733Y-60370091D01*
X115173002Y-60377432D01*
X115156973Y-60384072D01*
X115155396Y-60385648D01*
X115153375Y-60386592D01*
X115141656Y-60399388D01*
X115129383Y-60411662D01*
X115128529Y-60413723D01*
X115127024Y-60415367D01*
X115121095Y-60431668D01*
X115114451Y-60447710D01*
X115114149Y-60450768D01*
X115113689Y-60452036D01*
X115113792Y-60454395D01*
X115112530Y-60467219D01*
X114930910Y-60467219D01*
X114925332Y-60432432D01*
X114904883Y-60399201D01*
X114873274Y-60376326D01*
X114835317Y-60367289D01*
X114796790Y-60373465D01*
X114763560Y-60393914D01*
X114740685Y-60425523D01*
X114734297Y-60444057D01*
X114587993Y-61058530D01*
X114499630Y-60727167D01*
X114497916Y-60722596D01*
X114497661Y-60720675D01*
X114496340Y-60718393D01*
X114492747Y-60708811D01*
X114484722Y-60698328D01*
X114478111Y-60686908D01*
X114472967Y-60682971D01*
X114469031Y-60677828D01*
X114457613Y-60671218D01*
X114447128Y-60663192D01*
X114440864Y-60661521D01*
X114435263Y-60658279D01*
X114422185Y-60656541D01*
X114409427Y-60653139D01*
X114403005Y-60653992D01*
X114396585Y-60653139D01*
X114383831Y-60656539D01*
X114370749Y-60658278D01*
X114365144Y-60661522D01*
X114358884Y-60663192D01*
X114348400Y-60671216D01*
X114336981Y-60677828D01*
X114333044Y-60682971D01*
X114327901Y-60686908D01*
X114321291Y-60698325D01*
X114313265Y-60708811D01*
X114309669Y-60718399D01*
X114308352Y-60720676D01*
X114308097Y-60722594D01*
X114306383Y-60727166D01*
X114218018Y-61058530D01*
X114071716Y-60444057D01*
X114065328Y-60425523D01*
X114042453Y-60393914D01*
X114009223Y-60373465D01*
X113970696Y-60367288D01*
X113932739Y-60376326D01*
X113901130Y-60399201D01*
X113880681Y-60432431D01*
X113874504Y-60470958D01*
X113643404Y-60470958D01*
X113616574Y-60444127D01*
X113608903Y-60437832D01*
X113607174Y-60435838D01*
X113604166Y-60433944D01*
X113601420Y-60431691D01*
X113598980Y-60430680D01*
X113590584Y-60425395D01*
X113495346Y-60377776D01*
X113477038Y-60370770D01*
X113473454Y-60370515D01*
X113470134Y-60369140D01*
X113450625Y-60367219D01*
X113069673Y-60367219D01*
X113050164Y-60369140D01*
X113014116Y-60384072D01*
X112986526Y-60411662D01*
X112971594Y-60447710D01*
X112969673Y-60467219D01*
X112858562Y-60467219D01*
X112858562Y-60256108D01*
X118278863Y-60256108D01*
X118278863Y-61678330D01*
G37*
G36*
X116276481Y-53128330D02*
G01*
X113808562Y-53128330D01*
X113808562Y-51917219D01*
X113919673Y-51917219D01*
X113919673Y-52917219D01*
X113921594Y-52936728D01*
X113936526Y-52972776D01*
X113964116Y-53000366D01*
X114000164Y-53015298D01*
X114039182Y-53015298D01*
X114075230Y-53000366D01*
X114102820Y-52972776D01*
X114117752Y-52936728D01*
X114119673Y-52917219D01*
X114119673Y-51917219D01*
X114395863Y-51917219D01*
X114395863Y-52917219D01*
X114397784Y-52936728D01*
X114412716Y-52972776D01*
X114440306Y-53000366D01*
X114476354Y-53015298D01*
X114515372Y-53015298D01*
X114551420Y-53000366D01*
X114579010Y-52972776D01*
X114593942Y-52936728D01*
X114595863Y-52917219D01*
X114595863Y-52293775D01*
X114980467Y-52966833D01*
X114983385Y-52970943D01*
X114984144Y-52972776D01*
X114986010Y-52974642D01*
X114991814Y-52982818D01*
X115002330Y-52990962D01*
X115011734Y-53000366D01*
X115017621Y-53002804D01*
X115022663Y-53006709D01*
X115035495Y-53010208D01*
X115047782Y-53015298D01*
X115054158Y-53015298D01*
X115060307Y-53016975D01*
X115073500Y-53015298D01*
X115086800Y-53015298D01*
X115092688Y-53012858D01*
X115099013Y-53012055D01*
X115110562Y-53005454D01*
X115122848Y-53000366D01*
X115127355Y-52995858D01*
X115132890Y-52992696D01*
X115141034Y-52982179D01*
X115150438Y-52972776D01*
X115152876Y-52966888D01*
X115156781Y-52961847D01*
X115160280Y-52949014D01*
X115165370Y-52936728D01*
X115166352Y-52926750D01*
X115167047Y-52924204D01*
X115166796Y-52922236D01*
X115167291Y-52917219D01*
X115167291Y-52190426D01*
X115396648Y-52190426D01*
X115399414Y-52229346D01*
X115416863Y-52264245D01*
X115446340Y-52289809D01*
X115483356Y-52302148D01*
X115522276Y-52299382D01*
X115540584Y-52292376D01*
X115635822Y-52244757D01*
X115644218Y-52239471D01*
X115646658Y-52238461D01*
X115649404Y-52236207D01*
X115652412Y-52234314D01*
X115654141Y-52232319D01*
X115661812Y-52226025D01*
X115681577Y-52206260D01*
X115681577Y-52817219D01*
X115495863Y-52817219D01*
X115476354Y-52819140D01*
X115440306Y-52834072D01*
X115412716Y-52861662D01*
X115397784Y-52897710D01*
X115397784Y-52936728D01*
X115412716Y-52972776D01*
X115440306Y-53000366D01*
X115476354Y-53015298D01*
X115495863Y-53017219D01*
X116067291Y-53017219D01*
X116086800Y-53015298D01*
X116122848Y-53000366D01*
X116150438Y-52972776D01*
X116165370Y-52936728D01*
X116165370Y-52897710D01*
X116150438Y-52861662D01*
X116122848Y-52834072D01*
X116086800Y-52819140D01*
X116067291Y-52817219D01*
X115881577Y-52817219D01*
X115881577Y-51917219D01*
X115881570Y-51917148D01*
X115881577Y-51917114D01*
X115881556Y-51917012D01*
X115879656Y-51897710D01*
X115875866Y-51888561D01*
X115873925Y-51878854D01*
X115868473Y-51870713D01*
X115864724Y-51861662D01*
X115857724Y-51854662D01*
X115852214Y-51846434D01*
X115844059Y-51840997D01*
X115837134Y-51834072D01*
X115827990Y-51830284D01*
X115819749Y-51824790D01*
X115810135Y-51822888D01*
X115801086Y-51819140D01*
X115791185Y-51819140D01*
X115781473Y-51817219D01*
X115771868Y-51819140D01*
X115762068Y-51819140D01*
X115752919Y-51822929D01*
X115743212Y-51824871D01*
X115735071Y-51830322D01*
X115726020Y-51834072D01*
X115719020Y-51841071D01*
X115710792Y-51846582D01*
X115698503Y-51861588D01*
X115698430Y-51861662D01*
X115698416Y-51861694D01*
X115698372Y-51861749D01*
X115608628Y-51996365D01*
X115531864Y-52073128D01*
X115451142Y-52113490D01*
X115434551Y-52123933D01*
X115408987Y-52153410D01*
X115396648Y-52190426D01*
X115167291Y-52190426D01*
X115167291Y-51917219D01*
X115165370Y-51897710D01*
X115150438Y-51861662D01*
X115122848Y-51834072D01*
X115086800Y-51819140D01*
X115047782Y-51819140D01*
X115011734Y-51834072D01*
X114984144Y-51861662D01*
X114969212Y-51897710D01*
X114967291Y-51917219D01*
X114967291Y-52540662D01*
X114582687Y-51867605D01*
X114579768Y-51863494D01*
X114579010Y-51861662D01*
X114577143Y-51859795D01*
X114571340Y-51851620D01*
X114560825Y-51843477D01*
X114551420Y-51834072D01*
X114545529Y-51831632D01*
X114540491Y-51827730D01*
X114527662Y-51824231D01*
X114515372Y-51819140D01*
X114508997Y-51819140D01*
X114502848Y-51817463D01*
X114489655Y-51819140D01*
X114476354Y-51819140D01*
X114470465Y-51821579D01*
X114464141Y-51822383D01*
X114452591Y-51828983D01*
X114440306Y-51834072D01*
X114435798Y-51838579D01*
X114430264Y-51841742D01*
X114422121Y-51852256D01*
X114412716Y-51861662D01*
X114410276Y-51867552D01*
X114406374Y-51872591D01*
X114402875Y-51885419D01*
X114397784Y-51897710D01*
X114396801Y-51907687D01*
X114396107Y-51910234D01*
X114396357Y-51912201D01*
X114395863Y-51917219D01*
X114119673Y-51917219D01*
X114117752Y-51897710D01*
X114102820Y-51861662D01*
X114075230Y-51834072D01*
X114039182Y-51819140D01*
X114000164Y-51819140D01*
X113964116Y-51834072D01*
X113936526Y-51861662D01*
X113921594Y-51897710D01*
X113919673Y-51917219D01*
X113808562Y-51917219D01*
X113808562Y-51706108D01*
X116276481Y-51706108D01*
X116276481Y-53128330D01*
G37*
G36*
X121157434Y-53128330D02*
G01*
X118166490Y-53128330D01*
X118166490Y-51929726D01*
X118277601Y-51929726D01*
X118281948Y-51948842D01*
X118615281Y-52948841D01*
X118623272Y-52966742D01*
X118627955Y-52972141D01*
X118631150Y-52978531D01*
X118640621Y-52986746D01*
X118648837Y-52996218D01*
X118655225Y-52999412D01*
X118660626Y-53004096D01*
X118672527Y-53008063D01*
X118683736Y-53013667D01*
X118690860Y-53014173D01*
X118697642Y-53016434D01*
X118710151Y-53015544D01*
X118722656Y-53016434D01*
X118729434Y-53014174D01*
X118736562Y-53013668D01*
X118747778Y-53008059D01*
X118759672Y-53004095D01*
X118765069Y-52999414D01*
X118771461Y-52996218D01*
X118779679Y-52986742D01*
X118789148Y-52978530D01*
X118792341Y-52972143D01*
X118797026Y-52966742D01*
X118805017Y-52948842D01*
X119006034Y-52345790D01*
X119229197Y-52345790D01*
X119229197Y-52488647D01*
X119229532Y-52492049D01*
X119229315Y-52493508D01*
X119230394Y-52500805D01*
X119231118Y-52508156D01*
X119231682Y-52509519D01*
X119232183Y-52512901D01*
X119279802Y-52703376D01*
X119280315Y-52704813D01*
X119280367Y-52705536D01*
X119283475Y-52713660D01*
X119286397Y-52721837D01*
X119286827Y-52722417D01*
X119287373Y-52723844D01*
X119334992Y-52819082D01*
X119340274Y-52827474D01*
X119341287Y-52829918D01*
X119343543Y-52832667D01*
X119345435Y-52835672D01*
X119347429Y-52837401D01*
X119353724Y-52845071D01*
X119448962Y-52940311D01*
X119464115Y-52952747D01*
X119467434Y-52954122D01*
X119470150Y-52956477D01*
X119488050Y-52964468D01*
X119630907Y-53012087D01*
X119640579Y-53014286D01*
X119643021Y-53015298D01*
X119646558Y-53015646D01*
X119650022Y-53016434D01*
X119652656Y-53016246D01*
X119662530Y-53017219D01*
X119757768Y-53017219D01*
X119767641Y-53016246D01*
X119770275Y-53016434D01*
X119773738Y-53015646D01*
X119777277Y-53015298D01*
X119779719Y-53014286D01*
X119789391Y-53012087D01*
X119932247Y-52964468D01*
X119950148Y-52956477D01*
X119952863Y-52954122D01*
X119956183Y-52952747D01*
X119971336Y-52940310D01*
X120018955Y-52892690D01*
X120031392Y-52877537D01*
X120046323Y-52841488D01*
X120046322Y-52802470D01*
X120031391Y-52766422D01*
X120003800Y-52738832D01*
X119967752Y-52723901D01*
X119928734Y-52723902D01*
X119892686Y-52738833D01*
X119877532Y-52751270D01*
X119846605Y-52782197D01*
X119741541Y-52817219D01*
X119678756Y-52817219D01*
X119573691Y-52782197D01*
X119506621Y-52715127D01*
X119471167Y-52644218D01*
X119429197Y-52476337D01*
X119429197Y-52358100D01*
X119432274Y-52345790D01*
X120229197Y-52345790D01*
X120229197Y-52488647D01*
X120229532Y-52492049D01*
X120229315Y-52493508D01*
X120230394Y-52500805D01*
X120231118Y-52508156D01*
X120231682Y-52509519D01*
X120232183Y-52512901D01*
X120279802Y-52703376D01*
X120280315Y-52704813D01*
X120280367Y-52705536D01*
X120283475Y-52713660D01*
X120286397Y-52721837D01*
X120286827Y-52722417D01*
X120287373Y-52723844D01*
X120334992Y-52819082D01*
X120340274Y-52827474D01*
X120341287Y-52829918D01*
X120343543Y-52832667D01*
X120345435Y-52835672D01*
X120347429Y-52837401D01*
X120353724Y-52845071D01*
X120448962Y-52940311D01*
X120464115Y-52952747D01*
X120467434Y-52954122D01*
X120470150Y-52956477D01*
X120488050Y-52964468D01*
X120630907Y-53012087D01*
X120640579Y-53014286D01*
X120643021Y-53015298D01*
X120646558Y-53015646D01*
X120650022Y-53016434D01*
X120652656Y-53016246D01*
X120662530Y-53017219D01*
X120757768Y-53017219D01*
X120767641Y-53016246D01*
X120770275Y-53016434D01*
X120773738Y-53015646D01*
X120777277Y-53015298D01*
X120779719Y-53014286D01*
X120789391Y-53012087D01*
X120932247Y-52964468D01*
X120950148Y-52956477D01*
X120952863Y-52954122D01*
X120956183Y-52952747D01*
X120971336Y-52940310D01*
X121018955Y-52892690D01*
X121031392Y-52877537D01*
X121046323Y-52841488D01*
X121046322Y-52802470D01*
X121031391Y-52766422D01*
X121003800Y-52738832D01*
X120967752Y-52723901D01*
X120928734Y-52723902D01*
X120892686Y-52738833D01*
X120877532Y-52751270D01*
X120846605Y-52782197D01*
X120741541Y-52817219D01*
X120678756Y-52817219D01*
X120573691Y-52782197D01*
X120506621Y-52715127D01*
X120471167Y-52644218D01*
X120429197Y-52476337D01*
X120429197Y-52358100D01*
X120471167Y-52190218D01*
X120506620Y-52119312D01*
X120573692Y-52052240D01*
X120678756Y-52017219D01*
X120741541Y-52017219D01*
X120846606Y-52052240D01*
X120877533Y-52083167D01*
X120892686Y-52095604D01*
X120928735Y-52110535D01*
X120967753Y-52110535D01*
X121003801Y-52095604D01*
X121031391Y-52068014D01*
X121046322Y-52031966D01*
X121046322Y-51992948D01*
X121031391Y-51956899D01*
X121018954Y-51941746D01*
X120971336Y-51894127D01*
X120956182Y-51881691D01*
X120952863Y-51880316D01*
X120950148Y-51877961D01*
X120932247Y-51869970D01*
X120789391Y-51822351D01*
X120779719Y-51820151D01*
X120777277Y-51819140D01*
X120773738Y-51818791D01*
X120770275Y-51818004D01*
X120767641Y-51818191D01*
X120757768Y-51817219D01*
X120662530Y-51817219D01*
X120652656Y-51818191D01*
X120650022Y-51818004D01*
X120646558Y-51818791D01*
X120643021Y-51819140D01*
X120640579Y-51820151D01*
X120630907Y-51822351D01*
X120488050Y-51869970D01*
X120470150Y-51877961D01*
X120467434Y-51880316D01*
X120464116Y-51881691D01*
X120448962Y-51894127D01*
X120353724Y-51989365D01*
X120347429Y-51997035D01*
X120345435Y-51998765D01*
X120343541Y-52001772D01*
X120341288Y-52004519D01*
X120340277Y-52006958D01*
X120334992Y-52015355D01*
X120287373Y-52110593D01*
X120286827Y-52112019D01*
X120286397Y-52112600D01*
X120283475Y-52120776D01*
X120280367Y-52128901D01*
X120280315Y-52129623D01*
X120279802Y-52131061D01*
X120232183Y-52321536D01*
X120231682Y-52324917D01*
X120231118Y-52326281D01*
X120230394Y-52333631D01*
X120229315Y-52340929D01*
X120229532Y-52342387D01*
X120229197Y-52345790D01*
X119432274Y-52345790D01*
X119471167Y-52190218D01*
X119506620Y-52119312D01*
X119573692Y-52052240D01*
X119678756Y-52017219D01*
X119741541Y-52017219D01*
X119846606Y-52052240D01*
X119877533Y-52083167D01*
X119892686Y-52095604D01*
X119928735Y-52110535D01*
X119967753Y-52110535D01*
X120003801Y-52095604D01*
X120031391Y-52068014D01*
X120046322Y-52031966D01*
X120046322Y-51992948D01*
X120031391Y-51956899D01*
X120018954Y-51941746D01*
X119971336Y-51894127D01*
X119956182Y-51881691D01*
X119952863Y-51880316D01*
X119950148Y-51877961D01*
X119932247Y-51869970D01*
X119789391Y-51822351D01*
X119779719Y-51820151D01*
X119777277Y-51819140D01*
X119773738Y-51818791D01*
X119770275Y-51818004D01*
X119767641Y-51818191D01*
X119757768Y-51817219D01*
X119662530Y-51817219D01*
X119652656Y-51818191D01*
X119650022Y-51818004D01*
X119646558Y-51818791D01*
X119643021Y-51819140D01*
X119640579Y-51820151D01*
X119630907Y-51822351D01*
X119488050Y-51869970D01*
X119470150Y-51877961D01*
X119467434Y-51880316D01*
X119464116Y-51881691D01*
X119448962Y-51894127D01*
X119353724Y-51989365D01*
X119347429Y-51997035D01*
X119345435Y-51998765D01*
X119343541Y-52001772D01*
X119341288Y-52004519D01*
X119340277Y-52006958D01*
X119334992Y-52015355D01*
X119287373Y-52110593D01*
X119286827Y-52112019D01*
X119286397Y-52112600D01*
X119283475Y-52120776D01*
X119280367Y-52128901D01*
X119280315Y-52129623D01*
X119279802Y-52131061D01*
X119232183Y-52321536D01*
X119231682Y-52324917D01*
X119231118Y-52326281D01*
X119230394Y-52333631D01*
X119229315Y-52340929D01*
X119229532Y-52342387D01*
X119229197Y-52345790D01*
X119006034Y-52345790D01*
X119138350Y-51948842D01*
X119142697Y-51929727D01*
X119139931Y-51890807D01*
X119122481Y-51855908D01*
X119093005Y-51830343D01*
X119055989Y-51818004D01*
X119017069Y-51820771D01*
X118982170Y-51838220D01*
X118956605Y-51867696D01*
X118948614Y-51885597D01*
X118710149Y-52600991D01*
X118471684Y-51885596D01*
X118463693Y-51867696D01*
X118438128Y-51838220D01*
X118403229Y-51820770D01*
X118364309Y-51818004D01*
X118327293Y-51830342D01*
X118297817Y-51855907D01*
X118280367Y-51890806D01*
X118277601Y-51929726D01*
X118166490Y-51929726D01*
X118166490Y-51706108D01*
X121157434Y-51706108D01*
X121157434Y-53128330D01*
G37*
G36*
X124547910Y-69378330D02*
G01*
X121460943Y-69378330D01*
X121460943Y-68357695D01*
X121572054Y-68357695D01*
X121572054Y-68452933D01*
X121573975Y-68472442D01*
X121575350Y-68475762D01*
X121575605Y-68479346D01*
X121582611Y-68497654D01*
X121630230Y-68592892D01*
X121635515Y-68601288D01*
X121636526Y-68603728D01*
X121638779Y-68606474D01*
X121640673Y-68609482D01*
X121642667Y-68611211D01*
X121648962Y-68618882D01*
X121696581Y-68666500D01*
X121704247Y-68672792D01*
X121705980Y-68674790D01*
X121708988Y-68676683D01*
X121711734Y-68678937D01*
X121714174Y-68679947D01*
X121722571Y-68685233D01*
X121817808Y-68732852D01*
X121819236Y-68733398D01*
X121819816Y-68733828D01*
X121827992Y-68736749D01*
X121836117Y-68739858D01*
X121836837Y-68739909D01*
X121838276Y-68740423D01*
X122018101Y-68785379D01*
X122089008Y-68820833D01*
X122113677Y-68845501D01*
X122143482Y-68905111D01*
X122143482Y-68953135D01*
X122113677Y-69012743D01*
X122089008Y-69037413D01*
X122029399Y-69067219D01*
X121831137Y-69067219D01*
X121703677Y-69024732D01*
X121684561Y-69020385D01*
X121645641Y-69023151D01*
X121610742Y-69040601D01*
X121585177Y-69070077D01*
X121572839Y-69107093D01*
X121575605Y-69146013D01*
X121593055Y-69180912D01*
X121622531Y-69206477D01*
X121640431Y-69214468D01*
X121783288Y-69262087D01*
X121792960Y-69264286D01*
X121795402Y-69265298D01*
X121798939Y-69265646D01*
X121802403Y-69266434D01*
X121805037Y-69266246D01*
X121814911Y-69267219D01*
X122053006Y-69267219D01*
X122072515Y-69265298D01*
X122075835Y-69263922D01*
X122079419Y-69263668D01*
X122097727Y-69256662D01*
X122192965Y-69209043D01*
X122201360Y-69203758D01*
X122203802Y-69202747D01*
X122206549Y-69200491D01*
X122209555Y-69198600D01*
X122211285Y-69196605D01*
X122218955Y-69190310D01*
X122266574Y-69142690D01*
X122272866Y-69135023D01*
X122274863Y-69133292D01*
X122276756Y-69130284D01*
X122279011Y-69127537D01*
X122280022Y-69125095D01*
X122285306Y-69116701D01*
X122332925Y-69021464D01*
X122339931Y-69003155D01*
X122340185Y-68999571D01*
X122341561Y-68996251D01*
X122343482Y-68976742D01*
X122343482Y-68881504D01*
X122341561Y-68861995D01*
X122340185Y-68858674D01*
X122339931Y-68855091D01*
X122332925Y-68836782D01*
X122285306Y-68741545D01*
X122280020Y-68733148D01*
X122279010Y-68730708D01*
X122276756Y-68727962D01*
X122274863Y-68724954D01*
X122272865Y-68723221D01*
X122266573Y-68715555D01*
X122218955Y-68667936D01*
X122211284Y-68661641D01*
X122209555Y-68659647D01*
X122206547Y-68657753D01*
X122203801Y-68655500D01*
X122201361Y-68654489D01*
X122192965Y-68649204D01*
X122097727Y-68601585D01*
X122096300Y-68601039D01*
X122095720Y-68600609D01*
X122087543Y-68597687D01*
X122079419Y-68594579D01*
X122078696Y-68594527D01*
X122077259Y-68594014D01*
X121897434Y-68549057D01*
X121826527Y-68513604D01*
X121801859Y-68488935D01*
X121772054Y-68429325D01*
X121772054Y-68381302D01*
X121801859Y-68321692D01*
X121826527Y-68297023D01*
X121886137Y-68267219D01*
X122084398Y-68267219D01*
X122211859Y-68309706D01*
X122230974Y-68314053D01*
X122269894Y-68311287D01*
X122304793Y-68293837D01*
X122330358Y-68264361D01*
X122342697Y-68227345D01*
X122339930Y-68188425D01*
X122331197Y-68170958D01*
X122476885Y-68170958D01*
X122479535Y-68190381D01*
X122717630Y-69190381D01*
X122719938Y-69197078D01*
X122720257Y-69199476D01*
X122721511Y-69201643D01*
X122724018Y-69208915D01*
X122732533Y-69220681D01*
X122739806Y-69233244D01*
X122743883Y-69236364D01*
X122746893Y-69240524D01*
X122759255Y-69248131D01*
X122770789Y-69256960D01*
X122775752Y-69258283D01*
X122780123Y-69260973D01*
X122794457Y-69263271D01*
X122808490Y-69267013D01*
X122813578Y-69266336D01*
X122818650Y-69267150D01*
X122832784Y-69263784D01*
X122847168Y-69261873D01*
X122851608Y-69259302D01*
X122856607Y-69258112D01*
X122868373Y-69249596D01*
X122880936Y-69242324D01*
X122884056Y-69238246D01*
X122888216Y-69235237D01*
X122895823Y-69222874D01*
X122904652Y-69211341D01*
X122907351Y-69204140D01*
X122908665Y-69202007D01*
X122909048Y-69199616D01*
X122911535Y-69192985D01*
X123005387Y-68841038D01*
X123099240Y-69192986D01*
X123101725Y-69199615D01*
X123102109Y-69202007D01*
X123103422Y-69204141D01*
X123106122Y-69211341D01*
X123114950Y-69222874D01*
X123122558Y-69235237D01*
X123126717Y-69238246D01*
X123129838Y-69242324D01*
X123142402Y-69249598D01*
X123154167Y-69258112D01*
X123159162Y-69259301D01*
X123163606Y-69261874D01*
X123177995Y-69263785D01*
X123192124Y-69267150D01*
X123197195Y-69266336D01*
X123202284Y-69267013D01*
X123216316Y-69263271D01*
X123230651Y-69260973D01*
X123235021Y-69258283D01*
X123239985Y-69256960D01*
X123251518Y-69248131D01*
X123263881Y-69240524D01*
X123266890Y-69236364D01*
X123270968Y-69233244D01*
X123278243Y-69220677D01*
X123286756Y-69208915D01*
X123289260Y-69201649D01*
X123290518Y-69199477D01*
X123290837Y-69197073D01*
X123293144Y-69190381D01*
X123471705Y-68440426D01*
X123668077Y-68440426D01*
X123670843Y-68479346D01*
X123688292Y-68514245D01*
X123717769Y-68539809D01*
X123754785Y-68552148D01*
X123793705Y-68549382D01*
X123812013Y-68542376D01*
X123907251Y-68494757D01*
X123915647Y-68489471D01*
X123918087Y-68488461D01*
X123920833Y-68486207D01*
X123923841Y-68484314D01*
X123925570Y-68482319D01*
X123933241Y-68476025D01*
X123953006Y-68456260D01*
X123953006Y-69067219D01*
X123767292Y-69067219D01*
X123747783Y-69069140D01*
X123711735Y-69084072D01*
X123684145Y-69111662D01*
X123669213Y-69147710D01*
X123669213Y-69186728D01*
X123684145Y-69222776D01*
X123711735Y-69250366D01*
X123747783Y-69265298D01*
X123767292Y-69267219D01*
X124338720Y-69267219D01*
X124358229Y-69265298D01*
X124394277Y-69250366D01*
X124421867Y-69222776D01*
X124436799Y-69186728D01*
X124436799Y-69147710D01*
X124421867Y-69111662D01*
X124394277Y-69084072D01*
X124358229Y-69069140D01*
X124338720Y-69067219D01*
X124153006Y-69067219D01*
X124153006Y-68167219D01*
X124152999Y-68167148D01*
X124153006Y-68167114D01*
X124152985Y-68167012D01*
X124151085Y-68147710D01*
X124147295Y-68138561D01*
X124145354Y-68128854D01*
X124139902Y-68120713D01*
X124136153Y-68111662D01*
X124129153Y-68104662D01*
X124123643Y-68096434D01*
X124115488Y-68090997D01*
X124108563Y-68084072D01*
X124099419Y-68080284D01*
X124091178Y-68074790D01*
X124081564Y-68072888D01*
X124072515Y-68069140D01*
X124062614Y-68069140D01*
X124052902Y-68067219D01*
X124043297Y-68069140D01*
X124033497Y-68069140D01*
X124024348Y-68072929D01*
X124014641Y-68074871D01*
X124006500Y-68080322D01*
X123997449Y-68084072D01*
X123990449Y-68091071D01*
X123982221Y-68096582D01*
X123969932Y-68111588D01*
X123969859Y-68111662D01*
X123969845Y-68111694D01*
X123969801Y-68111749D01*
X123880057Y-68246365D01*
X123803293Y-68323128D01*
X123722571Y-68363490D01*
X123705980Y-68373933D01*
X123680416Y-68403410D01*
X123668077Y-68440426D01*
X123471705Y-68440426D01*
X123531240Y-68190381D01*
X123533890Y-68170958D01*
X123527713Y-68132432D01*
X123507264Y-68099201D01*
X123475655Y-68076326D01*
X123437698Y-68067289D01*
X123399171Y-68073465D01*
X123365941Y-68093914D01*
X123343066Y-68125523D01*
X123336678Y-68144057D01*
X123190374Y-68758530D01*
X123102011Y-68427167D01*
X123100297Y-68422596D01*
X123100042Y-68420675D01*
X123098721Y-68418393D01*
X123095128Y-68408811D01*
X123087103Y-68398328D01*
X123080492Y-68386908D01*
X123075348Y-68382971D01*
X123071412Y-68377828D01*
X123059994Y-68371218D01*
X123049509Y-68363192D01*
X123043245Y-68361521D01*
X123037644Y-68358279D01*
X123024566Y-68356541D01*
X123011808Y-68353139D01*
X123005386Y-68353992D01*
X122998966Y-68353139D01*
X122986212Y-68356539D01*
X122973130Y-68358278D01*
X122967525Y-68361522D01*
X122961265Y-68363192D01*
X122950781Y-68371216D01*
X122939362Y-68377828D01*
X122935425Y-68382971D01*
X122930282Y-68386908D01*
X122923672Y-68398325D01*
X122915646Y-68408811D01*
X122912050Y-68418399D01*
X122910733Y-68420676D01*
X122910478Y-68422594D01*
X122908764Y-68427166D01*
X122820399Y-68758530D01*
X122674097Y-68144057D01*
X122667709Y-68125523D01*
X122644834Y-68093914D01*
X122611604Y-68073465D01*
X122573077Y-68067288D01*
X122535120Y-68076326D01*
X122503511Y-68099201D01*
X122483062Y-68132431D01*
X122476885Y-68170958D01*
X122331197Y-68170958D01*
X122322481Y-68153526D01*
X122293005Y-68127961D01*
X122275104Y-68119970D01*
X122132248Y-68072351D01*
X122122576Y-68070151D01*
X122120134Y-68069140D01*
X122116595Y-68068791D01*
X122113132Y-68068004D01*
X122110498Y-68068191D01*
X122100625Y-68067219D01*
X121862530Y-68067219D01*
X121843021Y-68069140D01*
X121839700Y-68070515D01*
X121836117Y-68070770D01*
X121817808Y-68077776D01*
X121722571Y-68125395D01*
X121714174Y-68130680D01*
X121711734Y-68131691D01*
X121708988Y-68133944D01*
X121705980Y-68135838D01*
X121704247Y-68137835D01*
X121696581Y-68144128D01*
X121648962Y-68191746D01*
X121642667Y-68199416D01*
X121640673Y-68201146D01*
X121638779Y-68204153D01*
X121636526Y-68206900D01*
X121635515Y-68209339D01*
X121630230Y-68217736D01*
X121582611Y-68312974D01*
X121575605Y-68331282D01*
X121575350Y-68334865D01*
X121573975Y-68338186D01*
X121572054Y-68357695D01*
X121460943Y-68357695D01*
X121460943Y-67956108D01*
X124547910Y-67956108D01*
X124547910Y-69378330D01*
G37*
G36*
X128549831Y-69378330D02*
G01*
X125460943Y-69378330D01*
X125460943Y-68357695D01*
X125572054Y-68357695D01*
X125572054Y-68452933D01*
X125573975Y-68472442D01*
X125575350Y-68475762D01*
X125575605Y-68479346D01*
X125582611Y-68497654D01*
X125630230Y-68592892D01*
X125635515Y-68601288D01*
X125636526Y-68603728D01*
X125638779Y-68606474D01*
X125640673Y-68609482D01*
X125642667Y-68611211D01*
X125648962Y-68618882D01*
X125696581Y-68666500D01*
X125704247Y-68672792D01*
X125705980Y-68674790D01*
X125708988Y-68676683D01*
X125711734Y-68678937D01*
X125714174Y-68679947D01*
X125722571Y-68685233D01*
X125817808Y-68732852D01*
X125819236Y-68733398D01*
X125819816Y-68733828D01*
X125827992Y-68736749D01*
X125836117Y-68739858D01*
X125836837Y-68739909D01*
X125838276Y-68740423D01*
X126018101Y-68785379D01*
X126089008Y-68820833D01*
X126113677Y-68845501D01*
X126143482Y-68905111D01*
X126143482Y-68953135D01*
X126113677Y-69012743D01*
X126089008Y-69037413D01*
X126029399Y-69067219D01*
X125831137Y-69067219D01*
X125703677Y-69024732D01*
X125684561Y-69020385D01*
X125645641Y-69023151D01*
X125610742Y-69040601D01*
X125585177Y-69070077D01*
X125572839Y-69107093D01*
X125575605Y-69146013D01*
X125593055Y-69180912D01*
X125622531Y-69206477D01*
X125640431Y-69214468D01*
X125783288Y-69262087D01*
X125792960Y-69264286D01*
X125795402Y-69265298D01*
X125798939Y-69265646D01*
X125802403Y-69266434D01*
X125805037Y-69266246D01*
X125814911Y-69267219D01*
X126053006Y-69267219D01*
X126072515Y-69265298D01*
X126075835Y-69263922D01*
X126079419Y-69263668D01*
X126097727Y-69256662D01*
X126192965Y-69209043D01*
X126201360Y-69203758D01*
X126203802Y-69202747D01*
X126206549Y-69200491D01*
X126209555Y-69198600D01*
X126211285Y-69196605D01*
X126218955Y-69190310D01*
X126266574Y-69142690D01*
X126272866Y-69135023D01*
X126274863Y-69133292D01*
X126276756Y-69130284D01*
X126279011Y-69127537D01*
X126280022Y-69125095D01*
X126285306Y-69116701D01*
X126332925Y-69021464D01*
X126339931Y-69003155D01*
X126340185Y-68999571D01*
X126341561Y-68996251D01*
X126343482Y-68976742D01*
X126343482Y-68881504D01*
X126341561Y-68861995D01*
X126340185Y-68858674D01*
X126339931Y-68855091D01*
X126332925Y-68836782D01*
X126285306Y-68741545D01*
X126280020Y-68733148D01*
X126279010Y-68730708D01*
X126276756Y-68727962D01*
X126274863Y-68724954D01*
X126272865Y-68723221D01*
X126266573Y-68715555D01*
X126218955Y-68667936D01*
X126211284Y-68661641D01*
X126209555Y-68659647D01*
X126206547Y-68657753D01*
X126203801Y-68655500D01*
X126201361Y-68654489D01*
X126192965Y-68649204D01*
X126097727Y-68601585D01*
X126096300Y-68601039D01*
X126095720Y-68600609D01*
X126087543Y-68597687D01*
X126079419Y-68594579D01*
X126078696Y-68594527D01*
X126077259Y-68594014D01*
X125897434Y-68549057D01*
X125826527Y-68513604D01*
X125801859Y-68488935D01*
X125772054Y-68429325D01*
X125772054Y-68381302D01*
X125801859Y-68321692D01*
X125826527Y-68297023D01*
X125886137Y-68267219D01*
X126084398Y-68267219D01*
X126211859Y-68309706D01*
X126230974Y-68314053D01*
X126269894Y-68311287D01*
X126304793Y-68293837D01*
X126330358Y-68264361D01*
X126342697Y-68227345D01*
X126339930Y-68188425D01*
X126331197Y-68170958D01*
X126476885Y-68170958D01*
X126479535Y-68190381D01*
X126717630Y-69190381D01*
X126719938Y-69197078D01*
X126720257Y-69199476D01*
X126721511Y-69201643D01*
X126724018Y-69208915D01*
X126732533Y-69220681D01*
X126739806Y-69233244D01*
X126743883Y-69236364D01*
X126746893Y-69240524D01*
X126759255Y-69248131D01*
X126770789Y-69256960D01*
X126775752Y-69258283D01*
X126780123Y-69260973D01*
X126794457Y-69263271D01*
X126808490Y-69267013D01*
X126813578Y-69266336D01*
X126818650Y-69267150D01*
X126832784Y-69263784D01*
X126847168Y-69261873D01*
X126851608Y-69259302D01*
X126856607Y-69258112D01*
X126868373Y-69249596D01*
X126880936Y-69242324D01*
X126884056Y-69238246D01*
X126888216Y-69235237D01*
X126895823Y-69222874D01*
X126904652Y-69211341D01*
X126907351Y-69204140D01*
X126908665Y-69202007D01*
X126909048Y-69199616D01*
X126911535Y-69192985D01*
X127005387Y-68841038D01*
X127099240Y-69192986D01*
X127101725Y-69199615D01*
X127102109Y-69202007D01*
X127103422Y-69204141D01*
X127106122Y-69211341D01*
X127114950Y-69222874D01*
X127122558Y-69235237D01*
X127126717Y-69238246D01*
X127129838Y-69242324D01*
X127142402Y-69249598D01*
X127154167Y-69258112D01*
X127159162Y-69259301D01*
X127163606Y-69261874D01*
X127177995Y-69263785D01*
X127192124Y-69267150D01*
X127197195Y-69266336D01*
X127202284Y-69267013D01*
X127216316Y-69263271D01*
X127230651Y-69260973D01*
X127235021Y-69258283D01*
X127239985Y-69256960D01*
X127251518Y-69248131D01*
X127263881Y-69240524D01*
X127266890Y-69236364D01*
X127270968Y-69233244D01*
X127278243Y-69220677D01*
X127286756Y-69208915D01*
X127289260Y-69201649D01*
X127290518Y-69199477D01*
X127290837Y-69197073D01*
X127293144Y-69190381D01*
X127303304Y-69147710D01*
X127621594Y-69147710D01*
X127621594Y-69186728D01*
X127636526Y-69222776D01*
X127664116Y-69250366D01*
X127700164Y-69265298D01*
X127719673Y-69267219D01*
X128338720Y-69267219D01*
X128358229Y-69265298D01*
X128394277Y-69250366D01*
X128421867Y-69222776D01*
X128436799Y-69186728D01*
X128436799Y-69147710D01*
X128421867Y-69111662D01*
X128394277Y-69084072D01*
X128358229Y-69069140D01*
X128338720Y-69067219D01*
X127961095Y-69067219D01*
X128361812Y-68666501D01*
X128374248Y-68651347D01*
X128375622Y-68648028D01*
X128377978Y-68645313D01*
X128385969Y-68627413D01*
X128433588Y-68484556D01*
X128435787Y-68474883D01*
X128436799Y-68472442D01*
X128437147Y-68468904D01*
X128437935Y-68465441D01*
X128437747Y-68462806D01*
X128438720Y-68452933D01*
X128438720Y-68357695D01*
X128436799Y-68338186D01*
X128435423Y-68334865D01*
X128435169Y-68331282D01*
X128428163Y-68312973D01*
X128380544Y-68217736D01*
X128375258Y-68209339D01*
X128374248Y-68206899D01*
X128371994Y-68204153D01*
X128370101Y-68201145D01*
X128368103Y-68199412D01*
X128361811Y-68191746D01*
X128314193Y-68144127D01*
X128306522Y-68137832D01*
X128304793Y-68135838D01*
X128301785Y-68133944D01*
X128299039Y-68131691D01*
X128296599Y-68130680D01*
X128288203Y-68125395D01*
X128192965Y-68077776D01*
X128174657Y-68070770D01*
X128171073Y-68070515D01*
X128167753Y-68069140D01*
X128148244Y-68067219D01*
X127910149Y-68067219D01*
X127890640Y-68069140D01*
X127887319Y-68070515D01*
X127883736Y-68070770D01*
X127865427Y-68077776D01*
X127770190Y-68125395D01*
X127761793Y-68130680D01*
X127759353Y-68131691D01*
X127756607Y-68133944D01*
X127753599Y-68135838D01*
X127751866Y-68137835D01*
X127744200Y-68144128D01*
X127696581Y-68191746D01*
X127684145Y-68206900D01*
X127669213Y-68242948D01*
X127669213Y-68281966D01*
X127684145Y-68318014D01*
X127711735Y-68345604D01*
X127747783Y-68360536D01*
X127786801Y-68360536D01*
X127822849Y-68345604D01*
X127838003Y-68333168D01*
X127874146Y-68297023D01*
X127933756Y-68267219D01*
X128124637Y-68267219D01*
X128184246Y-68297024D01*
X128208915Y-68321692D01*
X128238720Y-68381302D01*
X128238720Y-68436706D01*
X128203698Y-68541770D01*
X127648962Y-69096508D01*
X127636526Y-69111662D01*
X127621594Y-69147710D01*
X127303304Y-69147710D01*
X127531240Y-68190381D01*
X127533890Y-68170958D01*
X127527713Y-68132432D01*
X127507264Y-68099201D01*
X127475655Y-68076326D01*
X127437698Y-68067289D01*
X127399171Y-68073465D01*
X127365941Y-68093914D01*
X127343066Y-68125523D01*
X127336678Y-68144057D01*
X127190374Y-68758530D01*
X127102011Y-68427167D01*
X127100297Y-68422596D01*
X127100042Y-68420675D01*
X127098721Y-68418393D01*
X127095128Y-68408811D01*
X127087103Y-68398328D01*
X127080492Y-68386908D01*
X127075348Y-68382971D01*
X127071412Y-68377828D01*
X127059994Y-68371218D01*
X127049509Y-68363192D01*
X127043245Y-68361521D01*
X127037644Y-68358279D01*
X127024566Y-68356541D01*
X127011808Y-68353139D01*
X127005386Y-68353992D01*
X126998966Y-68353139D01*
X126986212Y-68356539D01*
X126973130Y-68358278D01*
X126967525Y-68361522D01*
X126961265Y-68363192D01*
X126950781Y-68371216D01*
X126939362Y-68377828D01*
X126935425Y-68382971D01*
X126930282Y-68386908D01*
X126923672Y-68398325D01*
X126915646Y-68408811D01*
X126912050Y-68418399D01*
X126910733Y-68420676D01*
X126910478Y-68422594D01*
X126908764Y-68427166D01*
X126820399Y-68758530D01*
X126674097Y-68144057D01*
X126667709Y-68125523D01*
X126644834Y-68093914D01*
X126611604Y-68073465D01*
X126573077Y-68067288D01*
X126535120Y-68076326D01*
X126503511Y-68099201D01*
X126483062Y-68132431D01*
X126476885Y-68170958D01*
X126331197Y-68170958D01*
X126322481Y-68153526D01*
X126293005Y-68127961D01*
X126275104Y-68119970D01*
X126132248Y-68072351D01*
X126122576Y-68070151D01*
X126120134Y-68069140D01*
X126116595Y-68068791D01*
X126113132Y-68068004D01*
X126110498Y-68068191D01*
X126100625Y-68067219D01*
X125862530Y-68067219D01*
X125843021Y-68069140D01*
X125839700Y-68070515D01*
X125836117Y-68070770D01*
X125817808Y-68077776D01*
X125722571Y-68125395D01*
X125714174Y-68130680D01*
X125711734Y-68131691D01*
X125708988Y-68133944D01*
X125705980Y-68135838D01*
X125704247Y-68137835D01*
X125696581Y-68144128D01*
X125648962Y-68191746D01*
X125642667Y-68199416D01*
X125640673Y-68201146D01*
X125638779Y-68204153D01*
X125636526Y-68206900D01*
X125635515Y-68209339D01*
X125630230Y-68217736D01*
X125582611Y-68312974D01*
X125575605Y-68331282D01*
X125575350Y-68334865D01*
X125573975Y-68338186D01*
X125572054Y-68357695D01*
X125460943Y-68357695D01*
X125460943Y-67956108D01*
X128549831Y-67956108D01*
X128549831Y-69378330D01*
G37*
G36*
X131444224Y-52052240D02*
G01*
X131511297Y-52119313D01*
X131546749Y-52190218D01*
X131588720Y-52358099D01*
X131588720Y-52476337D01*
X131546749Y-52644218D01*
X131511296Y-52715124D01*
X131444225Y-52782197D01*
X131339160Y-52817219D01*
X131217292Y-52817219D01*
X131217292Y-52017219D01*
X131339160Y-52017219D01*
X131444224Y-52052240D01*
G37*
G36*
X131899831Y-53128330D02*
G01*
X128810943Y-53128330D01*
X128810943Y-52345790D01*
X128922054Y-52345790D01*
X128922054Y-52488647D01*
X128922389Y-52492049D01*
X128922172Y-52493508D01*
X128923251Y-52500805D01*
X128923975Y-52508156D01*
X128924539Y-52509519D01*
X128925040Y-52512901D01*
X128972659Y-52703376D01*
X128973172Y-52704813D01*
X128973224Y-52705536D01*
X128976332Y-52713660D01*
X128979254Y-52721837D01*
X128979684Y-52722417D01*
X128980230Y-52723844D01*
X129027849Y-52819082D01*
X129033131Y-52827474D01*
X129034144Y-52829918D01*
X129036400Y-52832667D01*
X129038292Y-52835672D01*
X129040286Y-52837401D01*
X129046581Y-52845071D01*
X129141819Y-52940311D01*
X129156972Y-52952747D01*
X129160291Y-52954122D01*
X129163007Y-52956477D01*
X129180907Y-52964468D01*
X129323764Y-53012087D01*
X129333436Y-53014286D01*
X129335878Y-53015298D01*
X129339415Y-53015646D01*
X129342879Y-53016434D01*
X129345513Y-53016246D01*
X129355387Y-53017219D01*
X129450625Y-53017219D01*
X129460498Y-53016246D01*
X129463132Y-53016434D01*
X129466595Y-53015646D01*
X129470134Y-53015298D01*
X129472576Y-53014286D01*
X129482248Y-53012087D01*
X129625104Y-52964468D01*
X129643005Y-52956477D01*
X129645720Y-52954122D01*
X129649040Y-52952747D01*
X129664193Y-52940310D01*
X129711812Y-52892690D01*
X129724249Y-52877537D01*
X129739180Y-52841488D01*
X129741101Y-52821980D01*
X129741101Y-52488647D01*
X129739180Y-52469138D01*
X129724248Y-52433090D01*
X129696658Y-52405500D01*
X129660610Y-52390568D01*
X129641101Y-52388647D01*
X129450625Y-52388647D01*
X129431116Y-52390568D01*
X129395068Y-52405500D01*
X129367478Y-52433090D01*
X129352546Y-52469138D01*
X129352546Y-52508156D01*
X129367478Y-52544204D01*
X129395068Y-52571794D01*
X129431116Y-52586726D01*
X129450625Y-52588647D01*
X129541101Y-52588647D01*
X129541101Y-52780559D01*
X129539462Y-52782197D01*
X129434398Y-52817219D01*
X129371613Y-52817219D01*
X129266548Y-52782197D01*
X129199478Y-52715127D01*
X129164024Y-52644218D01*
X129122054Y-52476337D01*
X129122054Y-52358100D01*
X129164024Y-52190218D01*
X129199477Y-52119312D01*
X129266549Y-52052240D01*
X129371613Y-52017219D01*
X129474637Y-52017219D01*
X129548760Y-52054281D01*
X129567069Y-52061287D01*
X129605989Y-52064053D01*
X129643005Y-52051714D01*
X129672482Y-52026149D01*
X129689931Y-51991251D01*
X129692696Y-51952331D01*
X129680993Y-51917219D01*
X129969673Y-51917219D01*
X129969673Y-52917219D01*
X129971594Y-52936728D01*
X129986526Y-52972776D01*
X130014116Y-53000366D01*
X130050164Y-53015298D01*
X130089182Y-53015298D01*
X130125230Y-53000366D01*
X130152820Y-52972776D01*
X130167752Y-52936728D01*
X130169673Y-52917219D01*
X130169673Y-52293775D01*
X130554277Y-52966833D01*
X130557195Y-52970943D01*
X130557954Y-52972776D01*
X130559820Y-52974642D01*
X130565624Y-52982818D01*
X130576140Y-52990962D01*
X130585544Y-53000366D01*
X130591431Y-53002804D01*
X130596473Y-53006709D01*
X130609305Y-53010208D01*
X130621592Y-53015298D01*
X130627968Y-53015298D01*
X130634117Y-53016975D01*
X130647310Y-53015298D01*
X130660610Y-53015298D01*
X130666498Y-53012858D01*
X130672823Y-53012055D01*
X130684372Y-53005454D01*
X130696658Y-53000366D01*
X130701165Y-52995858D01*
X130706700Y-52992696D01*
X130714844Y-52982179D01*
X130724248Y-52972776D01*
X130726686Y-52966888D01*
X130730591Y-52961847D01*
X130734090Y-52949014D01*
X130739180Y-52936728D01*
X130740162Y-52926750D01*
X130740857Y-52924204D01*
X130740606Y-52922236D01*
X130741101Y-52917219D01*
X130741101Y-51917219D01*
X131017292Y-51917219D01*
X131017292Y-52917219D01*
X131019213Y-52936728D01*
X131034145Y-52972776D01*
X131061735Y-53000366D01*
X131097783Y-53015298D01*
X131117292Y-53017219D01*
X131355387Y-53017219D01*
X131365260Y-53016246D01*
X131367894Y-53016434D01*
X131371357Y-53015646D01*
X131374896Y-53015298D01*
X131377338Y-53014286D01*
X131387010Y-53012087D01*
X131529866Y-52964468D01*
X131547767Y-52956477D01*
X131550482Y-52954122D01*
X131553802Y-52952747D01*
X131568955Y-52940310D01*
X131664193Y-52845071D01*
X131670485Y-52837404D01*
X131672482Y-52835673D01*
X131674375Y-52832665D01*
X131676630Y-52829918D01*
X131677641Y-52827476D01*
X131682925Y-52819082D01*
X131730544Y-52723845D01*
X131731090Y-52722416D01*
X131731520Y-52721837D01*
X131734441Y-52713660D01*
X131737550Y-52705536D01*
X131737601Y-52704815D01*
X131738115Y-52703377D01*
X131785734Y-52512901D01*
X131786234Y-52509519D01*
X131786799Y-52508156D01*
X131787522Y-52500805D01*
X131788602Y-52493508D01*
X131788384Y-52492049D01*
X131788720Y-52488647D01*
X131788720Y-52345790D01*
X131788384Y-52342387D01*
X131788602Y-52340929D01*
X131787522Y-52333631D01*
X131786799Y-52326281D01*
X131786234Y-52324917D01*
X131785734Y-52321536D01*
X131738115Y-52131060D01*
X131737601Y-52129621D01*
X131737550Y-52128901D01*
X131734441Y-52120776D01*
X131731520Y-52112600D01*
X131731090Y-52112020D01*
X131730544Y-52110592D01*
X131682925Y-52015355D01*
X131677638Y-52006956D01*
X131676629Y-52004519D01*
X131674377Y-52001775D01*
X131672482Y-51998764D01*
X131670484Y-51997031D01*
X131664193Y-51989365D01*
X131568955Y-51894127D01*
X131553801Y-51881691D01*
X131550482Y-51880316D01*
X131547767Y-51877961D01*
X131529866Y-51869970D01*
X131387010Y-51822351D01*
X131377338Y-51820151D01*
X131374896Y-51819140D01*
X131371357Y-51818791D01*
X131367894Y-51818004D01*
X131365260Y-51818191D01*
X131355387Y-51817219D01*
X131117292Y-51817219D01*
X131097783Y-51819140D01*
X131061735Y-51834072D01*
X131034145Y-51861662D01*
X131019213Y-51897710D01*
X131017292Y-51917219D01*
X130741101Y-51917219D01*
X130739180Y-51897710D01*
X130724248Y-51861662D01*
X130696658Y-51834072D01*
X130660610Y-51819140D01*
X130621592Y-51819140D01*
X130585544Y-51834072D01*
X130557954Y-51861662D01*
X130543022Y-51897710D01*
X130541101Y-51917219D01*
X130541101Y-52540662D01*
X130156497Y-51867605D01*
X130153578Y-51863494D01*
X130152820Y-51861662D01*
X130150953Y-51859795D01*
X130145150Y-51851620D01*
X130134635Y-51843477D01*
X130125230Y-51834072D01*
X130119339Y-51831632D01*
X130114301Y-51827730D01*
X130101472Y-51824231D01*
X130089182Y-51819140D01*
X130082807Y-51819140D01*
X130076658Y-51817463D01*
X130063465Y-51819140D01*
X130050164Y-51819140D01*
X130044275Y-51821579D01*
X130037951Y-51822383D01*
X130026401Y-51828983D01*
X130014116Y-51834072D01*
X130009608Y-51838579D01*
X130004074Y-51841742D01*
X129995931Y-51852256D01*
X129986526Y-51861662D01*
X129984086Y-51867552D01*
X129980184Y-51872591D01*
X129976685Y-51885419D01*
X129971594Y-51897710D01*
X129970611Y-51907687D01*
X129969917Y-51910234D01*
X129970167Y-51912201D01*
X129969673Y-51917219D01*
X129680993Y-51917219D01*
X129680358Y-51915315D01*
X129654793Y-51885838D01*
X129638203Y-51875395D01*
X129542965Y-51827776D01*
X129524657Y-51820770D01*
X129521073Y-51820515D01*
X129517753Y-51819140D01*
X129498244Y-51817219D01*
X129355387Y-51817219D01*
X129345513Y-51818191D01*
X129342879Y-51818004D01*
X129339415Y-51818791D01*
X129335878Y-51819140D01*
X129333436Y-51820151D01*
X129323764Y-51822351D01*
X129180907Y-51869970D01*
X129163007Y-51877961D01*
X129160291Y-51880316D01*
X129156973Y-51881691D01*
X129141819Y-51894127D01*
X129046581Y-51989365D01*
X129040286Y-51997035D01*
X129038292Y-51998765D01*
X129036398Y-52001772D01*
X129034145Y-52004519D01*
X129033134Y-52006958D01*
X129027849Y-52015355D01*
X128980230Y-52110593D01*
X128979684Y-52112019D01*
X128979254Y-52112600D01*
X128976332Y-52120776D01*
X128973224Y-52128901D01*
X128973172Y-52129623D01*
X128972659Y-52131061D01*
X128925040Y-52321536D01*
X128924539Y-52324917D01*
X128923975Y-52326281D01*
X128923251Y-52333631D01*
X128922172Y-52340929D01*
X128922389Y-52342387D01*
X128922054Y-52345790D01*
X128810943Y-52345790D01*
X128810943Y-51706108D01*
X131899831Y-51706108D01*
X131899831Y-53128330D01*
G37*
G36*
X132236627Y-60647024D02*
G01*
X132261296Y-60671692D01*
X132291101Y-60731302D01*
X132291101Y-60826945D01*
X132261296Y-60886554D01*
X132236627Y-60911222D01*
X132177018Y-60941028D01*
X131919673Y-60941028D01*
X131919673Y-60617219D01*
X132177018Y-60617219D01*
X132236627Y-60647024D01*
G37*
G36*
X137028863Y-61728330D02*
G01*
X131608562Y-61728330D01*
X131608562Y-60517219D01*
X131719673Y-60517219D01*
X131719673Y-61517219D01*
X131721594Y-61536728D01*
X131736526Y-61572776D01*
X131764116Y-61600366D01*
X131800164Y-61615298D01*
X131839182Y-61615298D01*
X131875230Y-61600366D01*
X131902820Y-61572776D01*
X131917752Y-61536728D01*
X131919673Y-61517219D01*
X131919673Y-61141028D01*
X132200625Y-61141028D01*
X132220134Y-61139107D01*
X132223454Y-61137731D01*
X132227038Y-61137477D01*
X132245346Y-61130471D01*
X132340584Y-61082852D01*
X132348980Y-61077566D01*
X132351420Y-61076556D01*
X132354166Y-61074302D01*
X132357174Y-61072409D01*
X132358903Y-61070414D01*
X132366574Y-61064120D01*
X132414192Y-61016501D01*
X132420484Y-61008834D01*
X132422482Y-61007102D01*
X132424375Y-61004093D01*
X132426629Y-61001348D01*
X132427639Y-60998907D01*
X132432925Y-60990511D01*
X132480544Y-60895274D01*
X132487550Y-60876965D01*
X132487804Y-60873381D01*
X132489180Y-60870061D01*
X132491101Y-60850552D01*
X132491101Y-60707695D01*
X132489180Y-60688186D01*
X132487804Y-60684865D01*
X132487550Y-60681282D01*
X132480544Y-60662973D01*
X132432925Y-60567736D01*
X132427639Y-60559339D01*
X132426629Y-60556899D01*
X132424375Y-60554153D01*
X132422482Y-60551145D01*
X132420484Y-60549412D01*
X132414192Y-60541746D01*
X132393404Y-60520958D01*
X132624504Y-60520958D01*
X132627154Y-60540381D01*
X132865249Y-61540381D01*
X132867557Y-61547078D01*
X132867876Y-61549476D01*
X132869130Y-61551643D01*
X132871637Y-61558915D01*
X132880152Y-61570681D01*
X132887425Y-61583244D01*
X132891502Y-61586364D01*
X132894512Y-61590524D01*
X132906874Y-61598131D01*
X132918408Y-61606960D01*
X132923371Y-61608283D01*
X132927742Y-61610973D01*
X132942076Y-61613271D01*
X132956109Y-61617013D01*
X132961197Y-61616336D01*
X132966269Y-61617150D01*
X132980403Y-61613784D01*
X132994787Y-61611873D01*
X132999227Y-61609302D01*
X133004226Y-61608112D01*
X133015992Y-61599596D01*
X133028555Y-61592324D01*
X133031675Y-61588246D01*
X133035835Y-61585237D01*
X133043442Y-61572874D01*
X133052271Y-61561341D01*
X133054970Y-61554140D01*
X133056284Y-61552007D01*
X133056667Y-61549616D01*
X133059154Y-61542985D01*
X133153006Y-61191038D01*
X133246859Y-61542986D01*
X133249344Y-61549615D01*
X133249728Y-61552007D01*
X133251041Y-61554141D01*
X133253741Y-61561341D01*
X133262569Y-61572874D01*
X133270177Y-61585237D01*
X133274336Y-61588246D01*
X133277457Y-61592324D01*
X133290021Y-61599598D01*
X133301786Y-61608112D01*
X133306781Y-61609301D01*
X133311225Y-61611874D01*
X133325614Y-61613785D01*
X133339743Y-61617150D01*
X133344814Y-61616336D01*
X133349903Y-61617013D01*
X133363935Y-61613271D01*
X133378270Y-61610973D01*
X133382640Y-61608283D01*
X133387604Y-61606960D01*
X133399137Y-61598131D01*
X133411500Y-61590524D01*
X133414509Y-61586364D01*
X133418587Y-61583244D01*
X133425862Y-61570677D01*
X133434375Y-61558915D01*
X133436879Y-61551649D01*
X133438137Y-61549477D01*
X133438456Y-61547073D01*
X133440763Y-61540381D01*
X133678859Y-60540381D01*
X133681509Y-60520958D01*
X133680910Y-60517219D01*
X133862530Y-60517219D01*
X133862530Y-61517219D01*
X133864451Y-61536728D01*
X133879383Y-61572776D01*
X133906973Y-61600366D01*
X133943021Y-61615298D01*
X133982039Y-61615298D01*
X134018087Y-61600366D01*
X134045677Y-61572776D01*
X134060609Y-61536728D01*
X134062530Y-61517219D01*
X134062530Y-60967975D01*
X134205245Y-61273793D01*
X134209477Y-61280938D01*
X134210357Y-61283356D01*
X134211922Y-61285065D01*
X134215236Y-61290659D01*
X134226446Y-61300925D01*
X134236708Y-61312131D01*
X134240733Y-61314009D01*
X134244011Y-61317011D01*
X134258293Y-61322204D01*
X134272066Y-61328632D01*
X134276505Y-61328827D01*
X134280680Y-61330345D01*
X134295863Y-61329677D01*
X134311046Y-61330345D01*
X134315219Y-61328827D01*
X134319661Y-61328632D01*
X134333445Y-61322199D01*
X134347715Y-61317010D01*
X134350988Y-61314012D01*
X134355018Y-61312132D01*
X134365287Y-61300917D01*
X134376490Y-61290659D01*
X134379801Y-61285068D01*
X134381370Y-61283356D01*
X134382250Y-61280934D01*
X134386481Y-61273793D01*
X134529196Y-60967974D01*
X134529196Y-61517219D01*
X134531117Y-61536728D01*
X134546049Y-61572776D01*
X134573639Y-61600366D01*
X134609687Y-61615298D01*
X134648705Y-61615298D01*
X134684753Y-61600366D01*
X134712343Y-61572776D01*
X134727275Y-61536728D01*
X134729196Y-61517219D01*
X134729196Y-61497710D01*
X134912070Y-61497710D01*
X134912070Y-61536728D01*
X134927002Y-61572776D01*
X134954592Y-61600366D01*
X134990640Y-61615298D01*
X135010149Y-61617219D01*
X135629196Y-61617219D01*
X135648705Y-61615298D01*
X135684753Y-61600366D01*
X135712343Y-61572776D01*
X135727275Y-61536728D01*
X135727275Y-61497710D01*
X135712343Y-61461662D01*
X135684753Y-61434072D01*
X135648705Y-61419140D01*
X135629196Y-61417219D01*
X135251571Y-61417219D01*
X135552032Y-61116757D01*
X135959689Y-61116757D01*
X135959689Y-61155775D01*
X135974621Y-61191823D01*
X136002211Y-61219413D01*
X136038259Y-61234345D01*
X136057768Y-61236266D01*
X136819673Y-61236266D01*
X136839182Y-61234345D01*
X136875230Y-61219413D01*
X136902820Y-61191823D01*
X136917752Y-61155775D01*
X136917752Y-61116757D01*
X136902820Y-61080709D01*
X136875230Y-61053119D01*
X136839182Y-61038187D01*
X136819673Y-61036266D01*
X136057768Y-61036266D01*
X136038259Y-61038187D01*
X136002211Y-61053119D01*
X135974621Y-61080709D01*
X135959689Y-61116757D01*
X135552032Y-61116757D01*
X135652288Y-61016501D01*
X135664724Y-61001347D01*
X135666098Y-60998028D01*
X135668454Y-60995313D01*
X135676445Y-60977413D01*
X135724064Y-60834556D01*
X135726263Y-60824883D01*
X135727275Y-60822442D01*
X135727623Y-60818904D01*
X135728411Y-60815441D01*
X135728223Y-60812806D01*
X135729196Y-60802933D01*
X135729196Y-60707695D01*
X135727275Y-60688186D01*
X135725899Y-60684865D01*
X135725645Y-60681282D01*
X135718639Y-60662973D01*
X135671020Y-60567736D01*
X135665734Y-60559339D01*
X135664724Y-60556899D01*
X135662470Y-60554153D01*
X135660577Y-60551145D01*
X135658579Y-60549412D01*
X135652287Y-60541746D01*
X135604669Y-60494127D01*
X135596998Y-60487832D01*
X135595269Y-60485838D01*
X135592261Y-60483944D01*
X135589515Y-60481691D01*
X135587075Y-60480680D01*
X135578679Y-60475395D01*
X135483441Y-60427776D01*
X135465133Y-60420770D01*
X135461549Y-60420515D01*
X135458229Y-60419140D01*
X135438720Y-60417219D01*
X135200625Y-60417219D01*
X135181116Y-60419140D01*
X135177795Y-60420515D01*
X135174212Y-60420770D01*
X135155903Y-60427776D01*
X135060666Y-60475395D01*
X135052269Y-60480680D01*
X135049829Y-60481691D01*
X135047083Y-60483944D01*
X135044075Y-60485838D01*
X135042342Y-60487835D01*
X135034676Y-60494128D01*
X134987057Y-60541746D01*
X134974621Y-60556900D01*
X134959689Y-60592948D01*
X134959689Y-60631966D01*
X134974621Y-60668014D01*
X135002211Y-60695604D01*
X135038259Y-60710536D01*
X135077277Y-60710536D01*
X135113325Y-60695604D01*
X135128479Y-60683168D01*
X135164622Y-60647023D01*
X135224232Y-60617219D01*
X135415113Y-60617219D01*
X135474722Y-60647024D01*
X135499391Y-60671692D01*
X135529196Y-60731302D01*
X135529196Y-60786706D01*
X135494174Y-60891770D01*
X134939438Y-61446508D01*
X134927002Y-61461662D01*
X134912070Y-61497710D01*
X134729196Y-61497710D01*
X134729196Y-60517219D01*
X134727933Y-60504395D01*
X134728037Y-60502036D01*
X134727576Y-60500768D01*
X134727275Y-60497710D01*
X134720634Y-60481679D01*
X134714703Y-60465367D01*
X134713196Y-60463721D01*
X134712343Y-60461662D01*
X134700081Y-60449400D01*
X134688351Y-60436591D01*
X134686327Y-60435646D01*
X134684753Y-60434072D01*
X134668737Y-60427437D01*
X134652994Y-60420091D01*
X134650764Y-60419993D01*
X134648705Y-60419140D01*
X134631353Y-60419140D01*
X134614013Y-60418378D01*
X134611917Y-60419140D01*
X134609687Y-60419140D01*
X134593656Y-60425780D01*
X134577344Y-60431712D01*
X134575698Y-60433218D01*
X134573639Y-60434072D01*
X134561371Y-60446339D01*
X134548569Y-60458064D01*
X134547002Y-60460708D01*
X134546049Y-60461662D01*
X134545145Y-60463843D01*
X134538578Y-60474930D01*
X134295862Y-60995033D01*
X134053148Y-60474930D01*
X134046580Y-60463843D01*
X134045677Y-60461662D01*
X134044723Y-60460708D01*
X134043157Y-60458064D01*
X134030360Y-60446345D01*
X134018087Y-60434072D01*
X134016025Y-60433218D01*
X134014382Y-60431713D01*
X133998080Y-60425784D01*
X133982039Y-60419140D01*
X133979808Y-60419140D01*
X133977713Y-60418378D01*
X133960373Y-60419140D01*
X133943021Y-60419140D01*
X133940961Y-60419993D01*
X133938733Y-60420091D01*
X133923002Y-60427432D01*
X133906973Y-60434072D01*
X133905396Y-60435648D01*
X133903375Y-60436592D01*
X133891656Y-60449388D01*
X133879383Y-60461662D01*
X133878529Y-60463723D01*
X133877024Y-60465367D01*
X133871095Y-60481668D01*
X133864451Y-60497710D01*
X133864149Y-60500768D01*
X133863689Y-60502036D01*
X133863792Y-60504395D01*
X133862530Y-60517219D01*
X133680910Y-60517219D01*
X133675332Y-60482432D01*
X133654883Y-60449201D01*
X133623274Y-60426326D01*
X133585317Y-60417289D01*
X133546790Y-60423465D01*
X133513560Y-60443914D01*
X133490685Y-60475523D01*
X133484297Y-60494057D01*
X133337993Y-61108530D01*
X133249630Y-60777167D01*
X133247916Y-60772596D01*
X133247661Y-60770675D01*
X133246340Y-60768393D01*
X133242747Y-60758811D01*
X133234722Y-60748328D01*
X133228111Y-60736908D01*
X133222967Y-60732971D01*
X133219031Y-60727828D01*
X133207613Y-60721218D01*
X133197128Y-60713192D01*
X133190864Y-60711521D01*
X133185263Y-60708279D01*
X133172185Y-60706541D01*
X133159427Y-60703139D01*
X133153005Y-60703992D01*
X133146585Y-60703139D01*
X133133831Y-60706539D01*
X133120749Y-60708278D01*
X133115144Y-60711522D01*
X133108884Y-60713192D01*
X133098400Y-60721216D01*
X133086981Y-60727828D01*
X133083044Y-60732971D01*
X133077901Y-60736908D01*
X133071291Y-60748325D01*
X133063265Y-60758811D01*
X133059669Y-60768399D01*
X133058352Y-60770676D01*
X133058097Y-60772594D01*
X133056383Y-60777166D01*
X132968018Y-61108530D01*
X132821716Y-60494057D01*
X132815328Y-60475523D01*
X132792453Y-60443914D01*
X132759223Y-60423465D01*
X132720696Y-60417288D01*
X132682739Y-60426326D01*
X132651130Y-60449201D01*
X132630681Y-60482431D01*
X132624504Y-60520958D01*
X132393404Y-60520958D01*
X132366574Y-60494127D01*
X132358903Y-60487832D01*
X132357174Y-60485838D01*
X132354166Y-60483944D01*
X132351420Y-60481691D01*
X132348980Y-60480680D01*
X132340584Y-60475395D01*
X132245346Y-60427776D01*
X132227038Y-60420770D01*
X132223454Y-60420515D01*
X132220134Y-60419140D01*
X132200625Y-60417219D01*
X131819673Y-60417219D01*
X131800164Y-60419140D01*
X131764116Y-60434072D01*
X131736526Y-60461662D01*
X131721594Y-60497710D01*
X131719673Y-60517219D01*
X131608562Y-60517219D01*
X131608562Y-60306108D01*
X137028863Y-60306108D01*
X137028863Y-61728330D01*
G37*
G36*
X138786626Y-98497023D02*
G01*
X138850805Y-98561202D01*
X138888720Y-98712861D01*
X138888720Y-99021575D01*
X138850804Y-99173235D01*
X138786628Y-99237413D01*
X138727018Y-99267219D01*
X138583756Y-99267219D01*
X138524146Y-99237414D01*
X138459969Y-99173236D01*
X138422054Y-99021575D01*
X138422054Y-98712862D01*
X138459969Y-98561202D01*
X138524148Y-98497023D01*
X138583756Y-98467219D01*
X138727018Y-98467219D01*
X138786626Y-98497023D01*
G37*
G36*
X141961736Y-99578330D02*
G01*
X138110943Y-99578330D01*
X138110943Y-98700552D01*
X138222054Y-98700552D01*
X138222054Y-99033885D01*
X138222389Y-99037287D01*
X138222172Y-99038746D01*
X138223251Y-99046043D01*
X138223975Y-99053394D01*
X138224539Y-99054757D01*
X138225040Y-99058139D01*
X138272659Y-99248614D01*
X138279254Y-99267075D01*
X138283679Y-99273047D01*
X138286525Y-99279918D01*
X138298962Y-99295071D01*
X138394200Y-99390311D01*
X138401868Y-99396604D01*
X138403599Y-99398600D01*
X138406606Y-99400493D01*
X138409353Y-99402747D01*
X138411793Y-99403757D01*
X138420190Y-99409043D01*
X138515427Y-99456662D01*
X138533736Y-99463668D01*
X138537319Y-99463922D01*
X138540640Y-99465298D01*
X138560149Y-99467219D01*
X138750625Y-99467219D01*
X138770134Y-99465298D01*
X138773454Y-99463922D01*
X138777038Y-99463668D01*
X138795346Y-99456662D01*
X138890584Y-99409043D01*
X138898979Y-99403758D01*
X138901421Y-99402747D01*
X138904168Y-99400491D01*
X138907174Y-99398600D01*
X138908904Y-99396605D01*
X138916574Y-99390310D01*
X139011812Y-99295071D01*
X139024249Y-99279918D01*
X139027094Y-99273047D01*
X139031520Y-99267075D01*
X139038115Y-99248615D01*
X139085734Y-99058139D01*
X139086234Y-99054757D01*
X139086799Y-99053394D01*
X139087522Y-99046043D01*
X139088602Y-99038746D01*
X139088384Y-99037287D01*
X139088720Y-99033885D01*
X139088720Y-98700552D01*
X139088384Y-98697149D01*
X139088602Y-98695691D01*
X139087522Y-98688393D01*
X139086799Y-98681043D01*
X139086234Y-98679679D01*
X139085734Y-98676298D01*
X139038115Y-98485822D01*
X139031520Y-98467362D01*
X139027093Y-98461387D01*
X139024248Y-98454519D01*
X139011812Y-98439365D01*
X138939666Y-98367219D01*
X139317292Y-98367219D01*
X139317292Y-99176742D01*
X139319213Y-99196251D01*
X139320588Y-99199571D01*
X139320843Y-99203155D01*
X139327849Y-99221463D01*
X139375468Y-99316701D01*
X139380751Y-99325093D01*
X139381763Y-99327537D01*
X139384019Y-99330286D01*
X139385911Y-99333291D01*
X139387905Y-99335020D01*
X139394200Y-99342690D01*
X139441818Y-99390310D01*
X139449486Y-99396603D01*
X139451218Y-99398600D01*
X139454226Y-99400493D01*
X139456972Y-99402747D01*
X139459412Y-99403757D01*
X139467809Y-99409043D01*
X139563046Y-99456662D01*
X139581355Y-99463668D01*
X139584938Y-99463922D01*
X139588259Y-99465298D01*
X139607768Y-99467219D01*
X139798244Y-99467219D01*
X139817753Y-99465298D01*
X139821073Y-99463922D01*
X139824657Y-99463668D01*
X139842965Y-99456662D01*
X139938203Y-99409043D01*
X139946598Y-99403758D01*
X139949040Y-99402747D01*
X139951787Y-99400491D01*
X139954793Y-99398600D01*
X139956523Y-99396605D01*
X139964193Y-99390310D01*
X140011812Y-99342690D01*
X140018104Y-99335023D01*
X140020101Y-99333292D01*
X140021994Y-99330284D01*
X140024249Y-99327537D01*
X140025260Y-99325095D01*
X140030544Y-99316701D01*
X140078163Y-99221464D01*
X140085169Y-99203155D01*
X140085423Y-99199571D01*
X140086799Y-99196251D01*
X140088720Y-99176742D01*
X140088720Y-98367219D01*
X140086799Y-98347710D01*
X140223975Y-98347710D01*
X140223975Y-98386728D01*
X140238907Y-98422776D01*
X140266497Y-98450366D01*
X140302545Y-98465298D01*
X140322054Y-98467219D01*
X140507768Y-98467219D01*
X140507768Y-99367219D01*
X140509689Y-99386728D01*
X140524621Y-99422776D01*
X140552211Y-99450366D01*
X140588259Y-99465298D01*
X140627277Y-99465298D01*
X140663325Y-99450366D01*
X140690915Y-99422776D01*
X140705847Y-99386728D01*
X140707768Y-99367219D01*
X140707768Y-99347710D01*
X141033499Y-99347710D01*
X141033499Y-99386728D01*
X141048431Y-99422776D01*
X141076021Y-99450366D01*
X141112069Y-99465298D01*
X141131578Y-99467219D01*
X141750625Y-99467219D01*
X141770134Y-99465298D01*
X141806182Y-99450366D01*
X141833772Y-99422776D01*
X141848704Y-99386728D01*
X141848704Y-99347710D01*
X141833772Y-99311662D01*
X141806182Y-99284072D01*
X141770134Y-99269140D01*
X141750625Y-99267219D01*
X141373000Y-99267219D01*
X141773717Y-98866501D01*
X141786153Y-98851347D01*
X141787527Y-98848028D01*
X141789883Y-98845313D01*
X141797874Y-98827413D01*
X141845493Y-98684556D01*
X141847692Y-98674883D01*
X141848704Y-98672442D01*
X141849052Y-98668904D01*
X141849840Y-98665441D01*
X141849652Y-98662806D01*
X141850625Y-98652933D01*
X141850625Y-98557695D01*
X141848704Y-98538186D01*
X141847328Y-98534865D01*
X141847074Y-98531282D01*
X141840068Y-98512973D01*
X141792449Y-98417736D01*
X141787163Y-98409339D01*
X141786153Y-98406899D01*
X141783899Y-98404153D01*
X141782006Y-98401145D01*
X141780008Y-98399412D01*
X141773716Y-98391746D01*
X141726098Y-98344127D01*
X141718427Y-98337832D01*
X141716698Y-98335838D01*
X141713690Y-98333944D01*
X141710944Y-98331691D01*
X141708504Y-98330680D01*
X141700108Y-98325395D01*
X141604870Y-98277776D01*
X141586562Y-98270770D01*
X141582978Y-98270515D01*
X141579658Y-98269140D01*
X141560149Y-98267219D01*
X141322054Y-98267219D01*
X141302545Y-98269140D01*
X141299224Y-98270515D01*
X141295641Y-98270770D01*
X141277332Y-98277776D01*
X141182095Y-98325395D01*
X141173698Y-98330680D01*
X141171258Y-98331691D01*
X141168512Y-98333944D01*
X141165504Y-98335838D01*
X141163771Y-98337835D01*
X141156105Y-98344128D01*
X141108486Y-98391746D01*
X141096050Y-98406900D01*
X141081118Y-98442948D01*
X141081118Y-98481966D01*
X141096050Y-98518014D01*
X141123640Y-98545604D01*
X141159688Y-98560536D01*
X141198706Y-98560536D01*
X141234754Y-98545604D01*
X141249908Y-98533168D01*
X141286051Y-98497023D01*
X141345661Y-98467219D01*
X141536542Y-98467219D01*
X141596151Y-98497024D01*
X141620820Y-98521692D01*
X141650625Y-98581302D01*
X141650625Y-98636706D01*
X141615603Y-98741770D01*
X141060867Y-99296508D01*
X141048431Y-99311662D01*
X141033499Y-99347710D01*
X140707768Y-99347710D01*
X140707768Y-98467219D01*
X140893482Y-98467219D01*
X140912991Y-98465298D01*
X140949039Y-98450366D01*
X140976629Y-98422776D01*
X140991561Y-98386728D01*
X140991561Y-98347710D01*
X140976629Y-98311662D01*
X140949039Y-98284072D01*
X140912991Y-98269140D01*
X140893482Y-98267219D01*
X140322054Y-98267219D01*
X140302545Y-98269140D01*
X140266497Y-98284072D01*
X140238907Y-98311662D01*
X140223975Y-98347710D01*
X140086799Y-98347710D01*
X140071867Y-98311662D01*
X140044277Y-98284072D01*
X140008229Y-98269140D01*
X139969211Y-98269140D01*
X139933163Y-98284072D01*
X139905573Y-98311662D01*
X139890641Y-98347710D01*
X139888720Y-98367219D01*
X139888720Y-99153135D01*
X139858915Y-99212743D01*
X139834246Y-99237413D01*
X139774637Y-99267219D01*
X139631375Y-99267219D01*
X139571765Y-99237414D01*
X139547098Y-99212746D01*
X139517292Y-99153134D01*
X139517292Y-98367219D01*
X139515371Y-98347710D01*
X139500439Y-98311662D01*
X139472849Y-98284072D01*
X139436801Y-98269140D01*
X139397783Y-98269140D01*
X139361735Y-98284072D01*
X139334145Y-98311662D01*
X139319213Y-98347710D01*
X139317292Y-98367219D01*
X138939666Y-98367219D01*
X138916574Y-98344127D01*
X138908903Y-98337832D01*
X138907174Y-98335838D01*
X138904166Y-98333944D01*
X138901420Y-98331691D01*
X138898980Y-98330680D01*
X138890584Y-98325395D01*
X138795346Y-98277776D01*
X138777038Y-98270770D01*
X138773454Y-98270515D01*
X138770134Y-98269140D01*
X138750625Y-98267219D01*
X138560149Y-98267219D01*
X138540640Y-98269140D01*
X138537319Y-98270515D01*
X138533736Y-98270770D01*
X138515427Y-98277776D01*
X138420190Y-98325395D01*
X138411791Y-98330681D01*
X138409354Y-98331691D01*
X138406610Y-98333942D01*
X138403599Y-98335838D01*
X138401866Y-98337835D01*
X138394200Y-98344127D01*
X138298962Y-98439365D01*
X138286526Y-98454519D01*
X138283680Y-98461387D01*
X138279254Y-98467362D01*
X138272659Y-98485823D01*
X138225040Y-98676298D01*
X138224539Y-98679679D01*
X138223975Y-98681043D01*
X138223251Y-98688393D01*
X138222172Y-98695691D01*
X138222389Y-98697149D01*
X138222054Y-98700552D01*
X138110943Y-98700552D01*
X138110943Y-98156108D01*
X141961736Y-98156108D01*
X141961736Y-99578330D01*
G37*
G36*
X141386627Y-60647024D02*
G01*
X141411296Y-60671692D01*
X141441101Y-60731302D01*
X141441101Y-60826945D01*
X141411296Y-60886554D01*
X141386627Y-60911222D01*
X141327018Y-60941028D01*
X141069673Y-60941028D01*
X141069673Y-60617219D01*
X141327018Y-60617219D01*
X141386627Y-60647024D01*
G37*
G36*
X146178863Y-61728330D02*
G01*
X140758562Y-61728330D01*
X140758562Y-60517219D01*
X140869673Y-60517219D01*
X140869673Y-61517219D01*
X140871594Y-61536728D01*
X140886526Y-61572776D01*
X140914116Y-61600366D01*
X140950164Y-61615298D01*
X140989182Y-61615298D01*
X141025230Y-61600366D01*
X141052820Y-61572776D01*
X141067752Y-61536728D01*
X141069673Y-61517219D01*
X141069673Y-61141028D01*
X141350625Y-61141028D01*
X141370134Y-61139107D01*
X141373454Y-61137731D01*
X141377038Y-61137477D01*
X141395346Y-61130471D01*
X141490584Y-61082852D01*
X141498980Y-61077566D01*
X141501420Y-61076556D01*
X141504166Y-61074302D01*
X141507174Y-61072409D01*
X141508903Y-61070414D01*
X141516574Y-61064120D01*
X141564192Y-61016501D01*
X141570484Y-61008834D01*
X141572482Y-61007102D01*
X141574375Y-61004093D01*
X141576629Y-61001348D01*
X141577639Y-60998907D01*
X141582925Y-60990511D01*
X141630544Y-60895274D01*
X141637550Y-60876965D01*
X141637804Y-60873381D01*
X141639180Y-60870061D01*
X141641101Y-60850552D01*
X141641101Y-60707695D01*
X141639180Y-60688186D01*
X141637804Y-60684865D01*
X141637550Y-60681282D01*
X141630544Y-60662973D01*
X141582925Y-60567736D01*
X141577639Y-60559339D01*
X141576629Y-60556899D01*
X141574375Y-60554153D01*
X141572482Y-60551145D01*
X141570484Y-60549412D01*
X141564192Y-60541746D01*
X141543404Y-60520958D01*
X141774504Y-60520958D01*
X141777154Y-60540381D01*
X142015249Y-61540381D01*
X142017557Y-61547078D01*
X142017876Y-61549476D01*
X142019130Y-61551643D01*
X142021637Y-61558915D01*
X142030152Y-61570681D01*
X142037425Y-61583244D01*
X142041502Y-61586364D01*
X142044512Y-61590524D01*
X142056874Y-61598131D01*
X142068408Y-61606960D01*
X142073371Y-61608283D01*
X142077742Y-61610973D01*
X142092076Y-61613271D01*
X142106109Y-61617013D01*
X142111197Y-61616336D01*
X142116269Y-61617150D01*
X142130403Y-61613784D01*
X142144787Y-61611873D01*
X142149227Y-61609302D01*
X142154226Y-61608112D01*
X142165992Y-61599596D01*
X142178555Y-61592324D01*
X142181675Y-61588246D01*
X142185835Y-61585237D01*
X142193442Y-61572874D01*
X142202271Y-61561341D01*
X142204970Y-61554140D01*
X142206284Y-61552007D01*
X142206667Y-61549616D01*
X142209154Y-61542985D01*
X142303006Y-61191038D01*
X142396859Y-61542986D01*
X142399344Y-61549615D01*
X142399728Y-61552007D01*
X142401041Y-61554141D01*
X142403741Y-61561341D01*
X142412569Y-61572874D01*
X142420177Y-61585237D01*
X142424336Y-61588246D01*
X142427457Y-61592324D01*
X142440021Y-61599598D01*
X142451786Y-61608112D01*
X142456781Y-61609301D01*
X142461225Y-61611874D01*
X142475614Y-61613785D01*
X142489743Y-61617150D01*
X142494814Y-61616336D01*
X142499903Y-61617013D01*
X142513935Y-61613271D01*
X142528270Y-61610973D01*
X142532640Y-61608283D01*
X142537604Y-61606960D01*
X142549137Y-61598131D01*
X142561500Y-61590524D01*
X142564509Y-61586364D01*
X142568587Y-61583244D01*
X142575862Y-61570677D01*
X142584375Y-61558915D01*
X142586879Y-61551649D01*
X142588137Y-61549477D01*
X142588456Y-61547073D01*
X142590763Y-61540381D01*
X142828859Y-60540381D01*
X142831509Y-60520958D01*
X142830910Y-60517219D01*
X143012530Y-60517219D01*
X143012530Y-61517219D01*
X143014451Y-61536728D01*
X143029383Y-61572776D01*
X143056973Y-61600366D01*
X143093021Y-61615298D01*
X143132039Y-61615298D01*
X143168087Y-61600366D01*
X143195677Y-61572776D01*
X143210609Y-61536728D01*
X143212530Y-61517219D01*
X143212530Y-60967975D01*
X143355245Y-61273793D01*
X143359477Y-61280938D01*
X143360357Y-61283356D01*
X143361922Y-61285065D01*
X143365236Y-61290659D01*
X143376446Y-61300925D01*
X143386708Y-61312131D01*
X143390733Y-61314009D01*
X143394011Y-61317011D01*
X143408293Y-61322204D01*
X143422066Y-61328632D01*
X143426505Y-61328827D01*
X143430680Y-61330345D01*
X143445863Y-61329677D01*
X143461046Y-61330345D01*
X143465219Y-61328827D01*
X143469661Y-61328632D01*
X143483445Y-61322199D01*
X143497715Y-61317010D01*
X143500988Y-61314012D01*
X143505018Y-61312132D01*
X143515287Y-61300917D01*
X143526490Y-61290659D01*
X143529801Y-61285068D01*
X143531370Y-61283356D01*
X143532250Y-61280934D01*
X143536481Y-61273793D01*
X143679196Y-60967974D01*
X143679196Y-61517219D01*
X143681117Y-61536728D01*
X143696049Y-61572776D01*
X143723639Y-61600366D01*
X143759687Y-61615298D01*
X143798705Y-61615298D01*
X143834753Y-61600366D01*
X143862343Y-61572776D01*
X143877275Y-61536728D01*
X143879196Y-61517219D01*
X143879196Y-61497710D01*
X144062070Y-61497710D01*
X144062070Y-61536728D01*
X144077002Y-61572776D01*
X144104592Y-61600366D01*
X144140640Y-61615298D01*
X144160149Y-61617219D01*
X144779196Y-61617219D01*
X144798705Y-61615298D01*
X144834753Y-61600366D01*
X144862343Y-61572776D01*
X144877275Y-61536728D01*
X144877275Y-61497710D01*
X144862343Y-61461662D01*
X144834753Y-61434072D01*
X144798705Y-61419140D01*
X144779196Y-61417219D01*
X144401571Y-61417219D01*
X144702032Y-61116757D01*
X145109689Y-61116757D01*
X145109689Y-61155775D01*
X145124621Y-61191823D01*
X145152211Y-61219413D01*
X145188259Y-61234345D01*
X145207768Y-61236266D01*
X145488720Y-61236266D01*
X145488720Y-61517219D01*
X145490641Y-61536728D01*
X145505573Y-61572776D01*
X145533163Y-61600366D01*
X145569211Y-61615298D01*
X145608229Y-61615298D01*
X145644277Y-61600366D01*
X145671867Y-61572776D01*
X145686799Y-61536728D01*
X145688720Y-61517219D01*
X145688720Y-61236266D01*
X145969673Y-61236266D01*
X145989182Y-61234345D01*
X146025230Y-61219413D01*
X146052820Y-61191823D01*
X146067752Y-61155775D01*
X146067752Y-61116757D01*
X146052820Y-61080709D01*
X146025230Y-61053119D01*
X145989182Y-61038187D01*
X145969673Y-61036266D01*
X145688720Y-61036266D01*
X145688720Y-60755314D01*
X145686799Y-60735805D01*
X145671867Y-60699757D01*
X145644277Y-60672167D01*
X145608229Y-60657235D01*
X145569211Y-60657235D01*
X145533163Y-60672167D01*
X145505573Y-60699757D01*
X145490641Y-60735805D01*
X145488720Y-60755314D01*
X145488720Y-61036266D01*
X145207768Y-61036266D01*
X145188259Y-61038187D01*
X145152211Y-61053119D01*
X145124621Y-61080709D01*
X145109689Y-61116757D01*
X144702032Y-61116757D01*
X144802288Y-61016501D01*
X144814724Y-61001347D01*
X144816098Y-60998028D01*
X144818454Y-60995313D01*
X144826445Y-60977413D01*
X144874064Y-60834556D01*
X144876263Y-60824883D01*
X144877275Y-60822442D01*
X144877623Y-60818904D01*
X144878411Y-60815441D01*
X144878223Y-60812806D01*
X144879196Y-60802933D01*
X144879196Y-60707695D01*
X144877275Y-60688186D01*
X144875899Y-60684865D01*
X144875645Y-60681282D01*
X144868639Y-60662973D01*
X144821020Y-60567736D01*
X144815734Y-60559339D01*
X144814724Y-60556899D01*
X144812470Y-60554153D01*
X144810577Y-60551145D01*
X144808579Y-60549412D01*
X144802287Y-60541746D01*
X144754669Y-60494127D01*
X144746998Y-60487832D01*
X144745269Y-60485838D01*
X144742261Y-60483944D01*
X144739515Y-60481691D01*
X144737075Y-60480680D01*
X144728679Y-60475395D01*
X144633441Y-60427776D01*
X144615133Y-60420770D01*
X144611549Y-60420515D01*
X144608229Y-60419140D01*
X144588720Y-60417219D01*
X144350625Y-60417219D01*
X144331116Y-60419140D01*
X144327795Y-60420515D01*
X144324212Y-60420770D01*
X144305903Y-60427776D01*
X144210666Y-60475395D01*
X144202269Y-60480680D01*
X144199829Y-60481691D01*
X144197083Y-60483944D01*
X144194075Y-60485838D01*
X144192342Y-60487835D01*
X144184676Y-60494128D01*
X144137057Y-60541746D01*
X144124621Y-60556900D01*
X144109689Y-60592948D01*
X144109689Y-60631966D01*
X144124621Y-60668014D01*
X144152211Y-60695604D01*
X144188259Y-60710536D01*
X144227277Y-60710536D01*
X144263325Y-60695604D01*
X144278479Y-60683168D01*
X144314622Y-60647023D01*
X144374232Y-60617219D01*
X144565113Y-60617219D01*
X144624722Y-60647024D01*
X144649391Y-60671692D01*
X144679196Y-60731302D01*
X144679196Y-60786706D01*
X144644174Y-60891770D01*
X144089438Y-61446508D01*
X144077002Y-61461662D01*
X144062070Y-61497710D01*
X143879196Y-61497710D01*
X143879196Y-60517219D01*
X143877933Y-60504395D01*
X143878037Y-60502036D01*
X143877576Y-60500768D01*
X143877275Y-60497710D01*
X143870634Y-60481679D01*
X143864703Y-60465367D01*
X143863196Y-60463721D01*
X143862343Y-60461662D01*
X143850081Y-60449400D01*
X143838351Y-60436591D01*
X143836327Y-60435646D01*
X143834753Y-60434072D01*
X143818737Y-60427437D01*
X143802994Y-60420091D01*
X143800764Y-60419993D01*
X143798705Y-60419140D01*
X143781353Y-60419140D01*
X143764013Y-60418378D01*
X143761917Y-60419140D01*
X143759687Y-60419140D01*
X143743656Y-60425780D01*
X143727344Y-60431712D01*
X143725698Y-60433218D01*
X143723639Y-60434072D01*
X143711371Y-60446339D01*
X143698569Y-60458064D01*
X143697002Y-60460708D01*
X143696049Y-60461662D01*
X143695145Y-60463843D01*
X143688578Y-60474930D01*
X143445862Y-60995033D01*
X143203148Y-60474930D01*
X143196580Y-60463843D01*
X143195677Y-60461662D01*
X143194723Y-60460708D01*
X143193157Y-60458064D01*
X143180360Y-60446345D01*
X143168087Y-60434072D01*
X143166025Y-60433218D01*
X143164382Y-60431713D01*
X143148080Y-60425784D01*
X143132039Y-60419140D01*
X143129808Y-60419140D01*
X143127713Y-60418378D01*
X143110373Y-60419140D01*
X143093021Y-60419140D01*
X143090961Y-60419993D01*
X143088733Y-60420091D01*
X143073002Y-60427432D01*
X143056973Y-60434072D01*
X143055396Y-60435648D01*
X143053375Y-60436592D01*
X143041656Y-60449388D01*
X143029383Y-60461662D01*
X143028529Y-60463723D01*
X143027024Y-60465367D01*
X143021095Y-60481668D01*
X143014451Y-60497710D01*
X143014149Y-60500768D01*
X143013689Y-60502036D01*
X143013792Y-60504395D01*
X143012530Y-60517219D01*
X142830910Y-60517219D01*
X142825332Y-60482432D01*
X142804883Y-60449201D01*
X142773274Y-60426326D01*
X142735317Y-60417289D01*
X142696790Y-60423465D01*
X142663560Y-60443914D01*
X142640685Y-60475523D01*
X142634297Y-60494057D01*
X142487993Y-61108530D01*
X142399630Y-60777167D01*
X142397916Y-60772596D01*
X142397661Y-60770675D01*
X142396340Y-60768393D01*
X142392747Y-60758811D01*
X142384722Y-60748328D01*
X142378111Y-60736908D01*
X142372967Y-60732971D01*
X142369031Y-60727828D01*
X142357613Y-60721218D01*
X142347128Y-60713192D01*
X142340864Y-60711521D01*
X142335263Y-60708279D01*
X142322185Y-60706541D01*
X142309427Y-60703139D01*
X142303005Y-60703992D01*
X142296585Y-60703139D01*
X142283831Y-60706539D01*
X142270749Y-60708278D01*
X142265144Y-60711522D01*
X142258884Y-60713192D01*
X142248400Y-60721216D01*
X142236981Y-60727828D01*
X142233044Y-60732971D01*
X142227901Y-60736908D01*
X142221291Y-60748325D01*
X142213265Y-60758811D01*
X142209669Y-60768399D01*
X142208352Y-60770676D01*
X142208097Y-60772594D01*
X142206383Y-60777166D01*
X142118018Y-61108530D01*
X141971716Y-60494057D01*
X141965328Y-60475523D01*
X141942453Y-60443914D01*
X141909223Y-60423465D01*
X141870696Y-60417288D01*
X141832739Y-60426326D01*
X141801130Y-60449201D01*
X141780681Y-60482431D01*
X141774504Y-60520958D01*
X141543404Y-60520958D01*
X141516574Y-60494127D01*
X141508903Y-60487832D01*
X141507174Y-60485838D01*
X141504166Y-60483944D01*
X141501420Y-60481691D01*
X141498980Y-60480680D01*
X141490584Y-60475395D01*
X141395346Y-60427776D01*
X141377038Y-60420770D01*
X141373454Y-60420515D01*
X141370134Y-60419140D01*
X141350625Y-60417219D01*
X140969673Y-60417219D01*
X140950164Y-60419140D01*
X140914116Y-60434072D01*
X140886526Y-60461662D01*
X140871594Y-60497710D01*
X140869673Y-60517219D01*
X140758562Y-60517219D01*
X140758562Y-60306108D01*
X146178863Y-60306108D01*
X146178863Y-61728330D01*
G37*
G36*
X144180539Y-53133074D02*
G01*
X141710699Y-53133074D01*
X141710699Y-51921963D01*
X141821810Y-51921963D01*
X141821810Y-52921963D01*
X141823731Y-52941472D01*
X141838663Y-52977520D01*
X141866253Y-53005110D01*
X141902301Y-53020042D01*
X141941319Y-53020042D01*
X141977367Y-53005110D01*
X142004957Y-52977520D01*
X142019889Y-52941472D01*
X142021810Y-52921963D01*
X142021810Y-51921963D01*
X142298000Y-51921963D01*
X142298000Y-52921963D01*
X142299921Y-52941472D01*
X142314853Y-52977520D01*
X142342443Y-53005110D01*
X142378491Y-53020042D01*
X142417509Y-53020042D01*
X142453557Y-53005110D01*
X142481147Y-52977520D01*
X142496079Y-52941472D01*
X142498000Y-52921963D01*
X142498000Y-52298519D01*
X142882604Y-52971577D01*
X142885522Y-52975687D01*
X142886281Y-52977520D01*
X142888147Y-52979386D01*
X142893951Y-52987562D01*
X142904467Y-52995706D01*
X142913871Y-53005110D01*
X142919758Y-53007548D01*
X142924800Y-53011453D01*
X142937632Y-53014952D01*
X142949919Y-53020042D01*
X142956295Y-53020042D01*
X142962444Y-53021719D01*
X142975637Y-53020042D01*
X142988937Y-53020042D01*
X142994825Y-53017602D01*
X143001150Y-53016799D01*
X143012699Y-53010198D01*
X143024985Y-53005110D01*
X143029492Y-53000602D01*
X143035027Y-52997440D01*
X143043171Y-52986923D01*
X143052575Y-52977520D01*
X143055013Y-52971632D01*
X143058918Y-52966591D01*
X143062417Y-52953758D01*
X143067507Y-52941472D01*
X143068489Y-52931494D01*
X143069184Y-52928948D01*
X143068933Y-52926980D01*
X143069428Y-52921963D01*
X143069428Y-52902454D01*
X143252302Y-52902454D01*
X143252302Y-52941472D01*
X143267234Y-52977520D01*
X143294824Y-53005110D01*
X143330872Y-53020042D01*
X143350381Y-53021963D01*
X143969428Y-53021963D01*
X143988937Y-53020042D01*
X144024985Y-53005110D01*
X144052575Y-52977520D01*
X144067507Y-52941472D01*
X144067507Y-52902454D01*
X144052575Y-52866406D01*
X144024985Y-52838816D01*
X143988937Y-52823884D01*
X143969428Y-52821963D01*
X143591803Y-52821963D01*
X143992520Y-52421245D01*
X144004956Y-52406091D01*
X144006330Y-52402772D01*
X144008686Y-52400057D01*
X144016677Y-52382157D01*
X144064296Y-52239300D01*
X144066495Y-52229627D01*
X144067507Y-52227186D01*
X144067855Y-52223648D01*
X144068643Y-52220185D01*
X144068455Y-52217550D01*
X144069428Y-52207677D01*
X144069428Y-52112439D01*
X144067507Y-52092930D01*
X144066131Y-52089609D01*
X144065877Y-52086026D01*
X144058871Y-52067717D01*
X144011252Y-51972480D01*
X144005966Y-51964083D01*
X144004956Y-51961643D01*
X144002702Y-51958897D01*
X144000809Y-51955889D01*
X143998811Y-51954156D01*
X143992519Y-51946490D01*
X143944901Y-51898871D01*
X143937230Y-51892576D01*
X143935501Y-51890582D01*
X143932493Y-51888688D01*
X143929747Y-51886435D01*
X143927307Y-51885424D01*
X143918911Y-51880139D01*
X143823673Y-51832520D01*
X143805365Y-51825514D01*
X143801781Y-51825259D01*
X143798461Y-51823884D01*
X143778952Y-51821963D01*
X143540857Y-51821963D01*
X143521348Y-51823884D01*
X143518027Y-51825259D01*
X143514444Y-51825514D01*
X143496135Y-51832520D01*
X143400898Y-51880139D01*
X143392501Y-51885424D01*
X143390061Y-51886435D01*
X143387315Y-51888688D01*
X143384307Y-51890582D01*
X143382574Y-51892579D01*
X143374908Y-51898872D01*
X143327289Y-51946490D01*
X143314853Y-51961644D01*
X143299921Y-51997692D01*
X143299921Y-52036710D01*
X143314853Y-52072758D01*
X143342443Y-52100348D01*
X143378491Y-52115280D01*
X143417509Y-52115280D01*
X143453557Y-52100348D01*
X143468711Y-52087912D01*
X143504854Y-52051767D01*
X143564464Y-52021963D01*
X143755345Y-52021963D01*
X143814954Y-52051768D01*
X143839623Y-52076436D01*
X143869428Y-52136046D01*
X143869428Y-52191450D01*
X143834406Y-52296514D01*
X143279670Y-52851252D01*
X143267234Y-52866406D01*
X143252302Y-52902454D01*
X143069428Y-52902454D01*
X143069428Y-51921963D01*
X143067507Y-51902454D01*
X143052575Y-51866406D01*
X143024985Y-51838816D01*
X142988937Y-51823884D01*
X142949919Y-51823884D01*
X142913871Y-51838816D01*
X142886281Y-51866406D01*
X142871349Y-51902454D01*
X142869428Y-51921963D01*
X142869428Y-52545406D01*
X142484824Y-51872349D01*
X142481905Y-51868238D01*
X142481147Y-51866406D01*
X142479280Y-51864539D01*
X142473477Y-51856364D01*
X142462962Y-51848221D01*
X142453557Y-51838816D01*
X142447666Y-51836376D01*
X142442628Y-51832474D01*
X142429799Y-51828975D01*
X142417509Y-51823884D01*
X142411134Y-51823884D01*
X142404985Y-51822207D01*
X142391792Y-51823884D01*
X142378491Y-51823884D01*
X142372602Y-51826323D01*
X142366278Y-51827127D01*
X142354728Y-51833727D01*
X142342443Y-51838816D01*
X142337935Y-51843323D01*
X142332401Y-51846486D01*
X142324258Y-51857000D01*
X142314853Y-51866406D01*
X142312413Y-51872296D01*
X142308511Y-51877335D01*
X142305012Y-51890163D01*
X142299921Y-51902454D01*
X142298938Y-51912431D01*
X142298244Y-51914978D01*
X142298494Y-51916945D01*
X142298000Y-51921963D01*
X142021810Y-51921963D01*
X142019889Y-51902454D01*
X142004957Y-51866406D01*
X141977367Y-51838816D01*
X141941319Y-51823884D01*
X141902301Y-51823884D01*
X141866253Y-51838816D01*
X141838663Y-51866406D01*
X141823731Y-51902454D01*
X141821810Y-51921963D01*
X141710699Y-51921963D01*
X141710699Y-51710852D01*
X144180539Y-51710852D01*
X144180539Y-53133074D01*
G37*
G36*
X145416666Y-82388703D02*
G01*
X145441335Y-82413371D01*
X145471140Y-82472981D01*
X145471140Y-82730326D01*
X145147331Y-82730326D01*
X145147331Y-82472981D01*
X145177136Y-82413371D01*
X145201804Y-82388702D01*
X145261414Y-82358898D01*
X145357057Y-82358898D01*
X145416666Y-82388703D01*
G37*
G36*
X147026610Y-82388703D02*
G01*
X147051279Y-82413371D01*
X147081084Y-82472981D01*
X147081084Y-82730326D01*
X146757275Y-82730326D01*
X146757275Y-82472981D01*
X146787080Y-82413371D01*
X146811748Y-82388702D01*
X146871358Y-82358898D01*
X146967001Y-82358898D01*
X147026610Y-82388703D01*
G37*
G36*
X148881504Y-81786821D02*
G01*
X148583446Y-81687469D01*
X148881504Y-81588116D01*
X148881504Y-81786821D01*
G37*
G36*
X145853348Y-81349194D02*
G01*
X145917526Y-81413371D01*
X145947331Y-81472981D01*
X145947331Y-81616243D01*
X145917526Y-81675852D01*
X145853348Y-81740029D01*
X145701687Y-81777945D01*
X145392973Y-81777945D01*
X145241314Y-81740030D01*
X145177135Y-81675851D01*
X145147331Y-81616242D01*
X145147331Y-81472981D01*
X145177135Y-81413372D01*
X145241314Y-81349193D01*
X145392973Y-81311279D01*
X145701687Y-81311279D01*
X145853348Y-81349194D01*
G37*
G36*
X147271560Y-79215392D02*
G01*
X146973502Y-79116040D01*
X147271560Y-79016687D01*
X147271560Y-79215392D01*
G37*
G36*
X145416666Y-78293465D02*
G01*
X145441335Y-78318133D01*
X145471140Y-78377743D01*
X145471140Y-78635088D01*
X145147331Y-78635088D01*
X145147331Y-78377743D01*
X145177136Y-78318133D01*
X145201804Y-78293464D01*
X145261414Y-78263660D01*
X145357057Y-78263660D01*
X145416666Y-78293465D01*
G37*
G36*
X148588935Y-77007750D02*
G01*
X148613604Y-77032418D01*
X148643409Y-77092028D01*
X148643409Y-77301754D01*
X148367219Y-77301754D01*
X148367219Y-77092028D01*
X148397024Y-77032418D01*
X148421692Y-77007749D01*
X148481302Y-76977945D01*
X148529326Y-76977945D01*
X148588935Y-77007750D01*
G37*
G36*
X149112746Y-76960132D02*
G01*
X149137414Y-76984799D01*
X149167219Y-77044409D01*
X149167219Y-77301754D01*
X148843409Y-77301754D01*
X148843409Y-77084648D01*
X148878430Y-76979582D01*
X148897882Y-76960130D01*
X148957492Y-76930326D01*
X149053135Y-76930326D01*
X149112746Y-76960132D01*
G37*
G36*
X145661616Y-75167773D02*
G01*
X145363558Y-75068421D01*
X145661616Y-74969068D01*
X145661616Y-75167773D01*
G37*
G36*
X149478330Y-83089056D02*
G01*
X144836220Y-83089056D01*
X144836220Y-82449374D01*
X144947331Y-82449374D01*
X144947331Y-82830326D01*
X144949252Y-82849835D01*
X144964184Y-82885883D01*
X144991774Y-82913473D01*
X145027822Y-82928405D01*
X145047331Y-82930326D01*
X146047331Y-82930326D01*
X146066840Y-82928405D01*
X146102888Y-82913473D01*
X146130478Y-82885883D01*
X146145410Y-82849835D01*
X146145410Y-82810817D01*
X146130478Y-82774769D01*
X146102888Y-82747179D01*
X146066840Y-82732247D01*
X146047331Y-82730326D01*
X145671140Y-82730326D01*
X145671140Y-82449374D01*
X146557275Y-82449374D01*
X146557275Y-82830326D01*
X146559196Y-82849835D01*
X146574128Y-82885883D01*
X146601718Y-82913473D01*
X146637766Y-82928405D01*
X146657275Y-82930326D01*
X147657275Y-82930326D01*
X147676784Y-82928405D01*
X147712832Y-82913473D01*
X147740422Y-82885883D01*
X147755354Y-82849835D01*
X147755354Y-82810817D01*
X147740422Y-82774769D01*
X147712832Y-82747179D01*
X147676784Y-82732247D01*
X147657275Y-82730326D01*
X147281084Y-82730326D01*
X147281084Y-82644296D01*
X147559545Y-82449374D01*
X148167219Y-82449374D01*
X148167219Y-82687469D01*
X148169140Y-82706978D01*
X148170515Y-82710298D01*
X148170770Y-82713882D01*
X148177776Y-82732190D01*
X148225395Y-82827428D01*
X148230680Y-82835824D01*
X148231691Y-82838264D01*
X148233944Y-82841010D01*
X148235838Y-82844018D01*
X148237832Y-82845747D01*
X148244127Y-82853418D01*
X148291746Y-82901036D01*
X148299412Y-82907328D01*
X148301145Y-82909326D01*
X148304153Y-82911219D01*
X148306899Y-82913473D01*
X148309339Y-82914483D01*
X148317736Y-82919769D01*
X148412973Y-82967388D01*
X148431282Y-82974394D01*
X148434865Y-82974648D01*
X148438186Y-82976024D01*
X148457695Y-82977945D01*
X148552933Y-82977945D01*
X148572442Y-82976024D01*
X148575762Y-82974648D01*
X148579346Y-82974394D01*
X148597654Y-82967388D01*
X148692892Y-82919769D01*
X148701288Y-82914483D01*
X148703728Y-82913473D01*
X148706474Y-82911219D01*
X148709482Y-82909326D01*
X148711211Y-82907331D01*
X148718882Y-82901037D01*
X148766500Y-82853418D01*
X148772792Y-82845751D01*
X148774790Y-82844019D01*
X148776683Y-82841010D01*
X148778937Y-82838265D01*
X148779947Y-82835824D01*
X148785233Y-82827428D01*
X148832852Y-82732191D01*
X148833398Y-82730762D01*
X148833828Y-82730183D01*
X148836749Y-82722006D01*
X148839858Y-82713882D01*
X148839909Y-82713161D01*
X148840423Y-82711723D01*
X148885379Y-82531897D01*
X148920833Y-82460990D01*
X148945501Y-82436321D01*
X149005111Y-82406517D01*
X149053135Y-82406517D01*
X149112746Y-82436323D01*
X149137414Y-82460990D01*
X149167219Y-82520600D01*
X149167219Y-82718861D01*
X149124732Y-82846322D01*
X149120385Y-82865438D01*
X149123151Y-82904358D01*
X149140601Y-82939257D01*
X149170077Y-82964822D01*
X149207093Y-82977160D01*
X149246013Y-82974394D01*
X149280912Y-82956944D01*
X149306477Y-82927468D01*
X149314468Y-82909568D01*
X149362087Y-82766711D01*
X149364286Y-82757038D01*
X149365298Y-82754597D01*
X149365646Y-82751059D01*
X149366434Y-82747596D01*
X149366246Y-82744961D01*
X149367219Y-82735088D01*
X149367219Y-82496993D01*
X149365298Y-82477484D01*
X149363922Y-82474163D01*
X149363668Y-82470580D01*
X149356662Y-82452271D01*
X149309043Y-82357034D01*
X149303757Y-82348637D01*
X149302747Y-82346197D01*
X149300493Y-82343451D01*
X149298600Y-82340443D01*
X149296603Y-82338711D01*
X149290310Y-82331043D01*
X149242690Y-82283425D01*
X149235020Y-82277130D01*
X149233291Y-82275136D01*
X149230286Y-82273244D01*
X149227537Y-82270988D01*
X149225093Y-82269976D01*
X149216701Y-82264693D01*
X149121463Y-82217074D01*
X149103155Y-82210068D01*
X149099571Y-82209813D01*
X149096251Y-82208438D01*
X149076742Y-82206517D01*
X148981504Y-82206517D01*
X148961995Y-82208438D01*
X148958674Y-82209813D01*
X148955091Y-82210068D01*
X148936782Y-82217074D01*
X148841545Y-82264693D01*
X148833148Y-82269978D01*
X148830708Y-82270989D01*
X148827962Y-82273242D01*
X148824954Y-82275136D01*
X148823221Y-82277133D01*
X148815555Y-82283426D01*
X148767936Y-82331044D01*
X148761641Y-82338714D01*
X148759647Y-82340444D01*
X148757753Y-82343451D01*
X148755500Y-82346198D01*
X148754489Y-82348637D01*
X148749204Y-82357034D01*
X148701585Y-82452272D01*
X148701039Y-82453698D01*
X148700609Y-82454279D01*
X148697687Y-82462455D01*
X148694579Y-82470580D01*
X148694527Y-82471302D01*
X148694014Y-82472740D01*
X148649057Y-82652564D01*
X148613604Y-82723471D01*
X148588935Y-82748139D01*
X148529326Y-82777945D01*
X148481302Y-82777945D01*
X148421692Y-82748140D01*
X148397024Y-82723471D01*
X148367219Y-82663861D01*
X148367219Y-82465601D01*
X148409706Y-82338140D01*
X148414053Y-82319025D01*
X148411287Y-82280105D01*
X148393837Y-82245206D01*
X148364361Y-82219641D01*
X148327345Y-82207302D01*
X148288425Y-82210069D01*
X148253526Y-82227518D01*
X148227961Y-82256994D01*
X148219970Y-82274895D01*
X148172351Y-82417751D01*
X148170151Y-82427422D01*
X148169140Y-82429865D01*
X148168791Y-82433403D01*
X148168004Y-82436867D01*
X148168191Y-82439500D01*
X148167219Y-82449374D01*
X147559545Y-82449374D01*
X147714621Y-82340821D01*
X147729502Y-82328060D01*
X147750471Y-82295155D01*
X147757252Y-82256730D01*
X147748812Y-82218636D01*
X147726437Y-82186671D01*
X147693532Y-82165702D01*
X147655108Y-82158921D01*
X147617013Y-82167361D01*
X147599929Y-82176975D01*
X147271403Y-82406942D01*
X147270527Y-82404652D01*
X147222908Y-82309415D01*
X147217622Y-82301018D01*
X147216612Y-82298578D01*
X147214358Y-82295832D01*
X147212465Y-82292824D01*
X147210467Y-82291091D01*
X147204175Y-82283425D01*
X147156557Y-82235806D01*
X147148886Y-82229511D01*
X147147157Y-82227517D01*
X147144149Y-82225623D01*
X147141403Y-82223370D01*
X147138963Y-82222359D01*
X147130567Y-82217074D01*
X147035329Y-82169455D01*
X147017021Y-82162449D01*
X147013437Y-82162194D01*
X147010117Y-82160819D01*
X146990608Y-82158898D01*
X146847751Y-82158898D01*
X146828242Y-82160819D01*
X146824921Y-82162194D01*
X146821338Y-82162449D01*
X146803029Y-82169455D01*
X146707792Y-82217074D01*
X146699395Y-82222359D01*
X146696955Y-82223370D01*
X146694209Y-82225623D01*
X146691201Y-82227517D01*
X146689468Y-82229514D01*
X146681802Y-82235807D01*
X146634183Y-82283425D01*
X146627888Y-82291095D01*
X146625894Y-82292825D01*
X146624000Y-82295832D01*
X146621747Y-82298579D01*
X146620736Y-82301018D01*
X146615451Y-82309415D01*
X146567832Y-82404653D01*
X146560826Y-82422961D01*
X146560571Y-82426544D01*
X146559196Y-82429865D01*
X146557275Y-82449374D01*
X145671140Y-82449374D01*
X145669219Y-82429865D01*
X145667843Y-82426544D01*
X145667589Y-82422961D01*
X145660583Y-82404652D01*
X145612964Y-82309415D01*
X145607678Y-82301018D01*
X145606668Y-82298578D01*
X145604414Y-82295832D01*
X145602521Y-82292824D01*
X145600523Y-82291091D01*
X145594231Y-82283425D01*
X145546613Y-82235806D01*
X145538942Y-82229511D01*
X145537213Y-82227517D01*
X145534205Y-82225623D01*
X145531459Y-82223370D01*
X145529019Y-82222359D01*
X145520623Y-82217074D01*
X145425385Y-82169455D01*
X145407077Y-82162449D01*
X145403493Y-82162194D01*
X145400173Y-82160819D01*
X145380664Y-82158898D01*
X145237807Y-82158898D01*
X145218298Y-82160819D01*
X145214977Y-82162194D01*
X145211394Y-82162449D01*
X145193085Y-82169455D01*
X145097848Y-82217074D01*
X145089451Y-82222359D01*
X145087011Y-82223370D01*
X145084265Y-82225623D01*
X145081257Y-82227517D01*
X145079524Y-82229514D01*
X145071858Y-82235807D01*
X145024239Y-82283425D01*
X145017944Y-82291095D01*
X145015950Y-82292825D01*
X145014056Y-82295832D01*
X145011803Y-82298579D01*
X145010792Y-82301018D01*
X145005507Y-82309415D01*
X144957888Y-82404653D01*
X144950882Y-82422961D01*
X144950627Y-82426544D01*
X144949252Y-82429865D01*
X144947331Y-82449374D01*
X144836220Y-82449374D01*
X144836220Y-81449374D01*
X144947331Y-81449374D01*
X144947331Y-81639850D01*
X144949252Y-81659359D01*
X144950627Y-81662679D01*
X144950882Y-81666263D01*
X144957888Y-81684571D01*
X145005507Y-81779809D01*
X145010792Y-81788205D01*
X145011803Y-81790645D01*
X145014056Y-81793391D01*
X145015950Y-81796399D01*
X145017944Y-81798128D01*
X145024239Y-81805799D01*
X145119477Y-81901037D01*
X145134631Y-81913473D01*
X145141499Y-81916318D01*
X145147474Y-81920745D01*
X145165934Y-81927340D01*
X145356410Y-81974959D01*
X145359791Y-81975459D01*
X145361155Y-81976024D01*
X145368505Y-81976747D01*
X145375803Y-81977827D01*
X145377261Y-81977609D01*
X145380664Y-81977945D01*
X145713997Y-81977945D01*
X145717399Y-81977609D01*
X145718858Y-81977827D01*
X145726155Y-81976747D01*
X145733506Y-81976024D01*
X145734869Y-81975459D01*
X145738251Y-81974959D01*
X145928726Y-81927340D01*
X145947187Y-81920745D01*
X145953159Y-81916319D01*
X145960030Y-81913474D01*
X145975183Y-81901037D01*
X146070423Y-81805799D01*
X146076716Y-81798130D01*
X146078712Y-81796400D01*
X146080605Y-81793392D01*
X146082859Y-81790646D01*
X146083869Y-81788205D01*
X146089155Y-81779809D01*
X146136774Y-81684572D01*
X146143780Y-81666263D01*
X146144034Y-81662679D01*
X146145410Y-81659359D01*
X146147331Y-81639850D01*
X146147331Y-81449374D01*
X146145410Y-81429865D01*
X146144034Y-81426544D01*
X146143780Y-81422961D01*
X146136774Y-81404652D01*
X146111516Y-81354136D01*
X146557275Y-81354136D01*
X146557275Y-81830326D01*
X146559196Y-81849835D01*
X146574128Y-81885883D01*
X146601718Y-81913473D01*
X146637766Y-81928405D01*
X146657275Y-81930326D01*
X147657275Y-81930326D01*
X147676784Y-81928405D01*
X147712832Y-81913473D01*
X147740422Y-81885883D01*
X147755354Y-81849835D01*
X147757275Y-81830326D01*
X147757275Y-81674962D01*
X148168004Y-81674962D01*
X148168892Y-81687469D01*
X148168004Y-81699976D01*
X148170263Y-81706754D01*
X148170770Y-81713882D01*
X148176376Y-81725094D01*
X148180342Y-81736992D01*
X148185025Y-81742391D01*
X148188220Y-81748781D01*
X148197691Y-81756996D01*
X148205907Y-81766468D01*
X148212296Y-81769662D01*
X148217696Y-81774346D01*
X148235596Y-81782337D01*
X149235596Y-82115670D01*
X149254711Y-82120017D01*
X149293631Y-82117251D01*
X149328530Y-82099801D01*
X149354095Y-82070325D01*
X149366434Y-82033309D01*
X149363667Y-81994389D01*
X149346218Y-81959490D01*
X149316742Y-81933925D01*
X149298841Y-81925934D01*
X149081504Y-81853488D01*
X149081504Y-81521449D01*
X149298841Y-81449004D01*
X149316742Y-81441013D01*
X149346218Y-81415448D01*
X149363667Y-81380549D01*
X149366434Y-81341629D01*
X149354095Y-81304613D01*
X149328530Y-81275137D01*
X149293631Y-81257687D01*
X149254711Y-81254921D01*
X149235596Y-81259268D01*
X148235596Y-81592601D01*
X148217696Y-81600592D01*
X148212296Y-81605275D01*
X148205907Y-81608470D01*
X148197691Y-81617941D01*
X148188220Y-81626157D01*
X148185025Y-81632546D01*
X148180342Y-81637946D01*
X148176376Y-81649843D01*
X148170770Y-81661056D01*
X148170263Y-81668183D01*
X148168004Y-81674962D01*
X147757275Y-81674962D01*
X147757275Y-81354136D01*
X147755354Y-81334627D01*
X147740422Y-81298579D01*
X147712832Y-81270989D01*
X147676784Y-81256057D01*
X147637766Y-81256057D01*
X147601718Y-81270989D01*
X147574128Y-81298579D01*
X147559196Y-81334627D01*
X147557275Y-81354136D01*
X147557275Y-81730326D01*
X147233465Y-81730326D01*
X147233465Y-81496993D01*
X147231544Y-81477484D01*
X147216612Y-81441436D01*
X147189022Y-81413846D01*
X147152974Y-81398914D01*
X147113956Y-81398914D01*
X147077908Y-81413846D01*
X147050318Y-81441436D01*
X147035386Y-81477484D01*
X147033465Y-81496993D01*
X147033465Y-81730326D01*
X146757275Y-81730326D01*
X146757275Y-81354136D01*
X146755354Y-81334627D01*
X146740422Y-81298579D01*
X146712832Y-81270989D01*
X146676784Y-81256057D01*
X146637766Y-81256057D01*
X146601718Y-81270989D01*
X146574128Y-81298579D01*
X146559196Y-81334627D01*
X146557275Y-81354136D01*
X146111516Y-81354136D01*
X146089155Y-81309415D01*
X146083869Y-81301018D01*
X146082859Y-81298578D01*
X146080605Y-81295831D01*
X146078712Y-81292824D01*
X146076716Y-81291093D01*
X146070423Y-81283425D01*
X145975183Y-81188187D01*
X145960030Y-81175750D01*
X145953159Y-81172904D01*
X145947187Y-81168479D01*
X145928726Y-81161884D01*
X145738251Y-81114265D01*
X145734869Y-81113764D01*
X145733506Y-81113200D01*
X145726155Y-81112476D01*
X145718858Y-81111397D01*
X145717399Y-81111614D01*
X145713997Y-81111279D01*
X145380664Y-81111279D01*
X145377261Y-81111614D01*
X145375803Y-81111397D01*
X145368505Y-81112476D01*
X145361155Y-81113200D01*
X145359791Y-81113764D01*
X145356410Y-81114265D01*
X145165934Y-81161884D01*
X145147474Y-81168479D01*
X145141499Y-81172905D01*
X145134631Y-81175751D01*
X145119477Y-81188187D01*
X145024239Y-81283425D01*
X145017944Y-81291095D01*
X145015950Y-81292825D01*
X145014056Y-81295832D01*
X145011803Y-81298579D01*
X145010792Y-81301018D01*
X145005507Y-81309415D01*
X144957888Y-81404653D01*
X144950882Y-81422961D01*
X144950627Y-81426544D01*
X144949252Y-81429865D01*
X144947331Y-81449374D01*
X144836220Y-81449374D01*
X144836220Y-80017064D01*
X144947400Y-80017064D01*
X144953577Y-80055591D01*
X144974026Y-80088821D01*
X145005635Y-80111696D01*
X145024169Y-80118084D01*
X145638641Y-80264386D01*
X145307279Y-80352750D01*
X145302704Y-80354465D01*
X145300788Y-80354720D01*
X145298513Y-80356036D01*
X145288923Y-80359633D01*
X145278437Y-80367659D01*
X145267020Y-80374269D01*
X145263083Y-80379412D01*
X145257940Y-80383349D01*
X145251330Y-80394766D01*
X145243304Y-80405252D01*
X145241633Y-80411515D01*
X145238391Y-80417117D01*
X145236653Y-80430194D01*
X145233251Y-80442953D01*
X145234104Y-80449374D01*
X145233251Y-80455795D01*
X145236653Y-80468553D01*
X145238391Y-80481631D01*
X145241633Y-80487232D01*
X145243304Y-80493496D01*
X145251330Y-80503981D01*
X145257940Y-80515399D01*
X145263083Y-80519335D01*
X145267020Y-80524479D01*
X145278437Y-80531088D01*
X145288923Y-80539115D01*
X145298513Y-80542711D01*
X145300788Y-80544028D01*
X145302704Y-80544282D01*
X145307279Y-80545998D01*
X145638641Y-80634361D01*
X145024169Y-80780664D01*
X145005635Y-80787052D01*
X144974026Y-80809927D01*
X144953577Y-80843157D01*
X144947400Y-80881684D01*
X144956438Y-80919641D01*
X144979313Y-80951250D01*
X145012543Y-80971699D01*
X145051070Y-80977876D01*
X145070493Y-80975226D01*
X146070493Y-80737131D01*
X146077185Y-80734824D01*
X146079589Y-80734505D01*
X146081761Y-80733247D01*
X146089027Y-80730743D01*
X146100789Y-80722230D01*
X146113356Y-80714955D01*
X146116476Y-80710877D01*
X146120636Y-80707868D01*
X146128243Y-80695505D01*
X146137072Y-80683972D01*
X146138395Y-80679008D01*
X146141085Y-80674638D01*
X146143383Y-80660303D01*
X146147125Y-80646271D01*
X146146448Y-80641182D01*
X146147262Y-80636111D01*
X146143897Y-80621982D01*
X146141986Y-80607593D01*
X146139413Y-80603149D01*
X146138224Y-80598154D01*
X146129710Y-80586389D01*
X146122436Y-80573825D01*
X146118358Y-80570704D01*
X146115349Y-80566545D01*
X146102986Y-80558937D01*
X146091453Y-80550109D01*
X146084253Y-80547409D01*
X146082119Y-80546096D01*
X146079727Y-80545712D01*
X146073098Y-80543227D01*
X145721150Y-80449374D01*
X145946622Y-80389248D01*
X146558060Y-80389248D01*
X146560826Y-80428168D01*
X146578276Y-80463067D01*
X146607752Y-80488632D01*
X146625652Y-80496623D01*
X147341047Y-80735088D01*
X146625652Y-80973553D01*
X146607752Y-80981544D01*
X146578276Y-81007109D01*
X146560826Y-81042008D01*
X146558060Y-81080928D01*
X146570398Y-81117944D01*
X146595963Y-81147420D01*
X146630862Y-81164870D01*
X146669782Y-81167636D01*
X146688898Y-81163289D01*
X147174886Y-81001293D01*
X148169140Y-81001293D01*
X148169140Y-81040311D01*
X148184072Y-81076359D01*
X148211662Y-81103949D01*
X148247710Y-81118881D01*
X148267219Y-81120802D01*
X149267219Y-81120802D01*
X149286728Y-81118881D01*
X149322776Y-81103949D01*
X149350366Y-81076359D01*
X149365298Y-81040311D01*
X149367219Y-81020802D01*
X149367219Y-80544612D01*
X149365298Y-80525103D01*
X149350366Y-80489055D01*
X149322776Y-80461465D01*
X149286728Y-80446533D01*
X149247710Y-80446533D01*
X149211662Y-80461465D01*
X149184072Y-80489055D01*
X149169140Y-80525103D01*
X149167219Y-80544612D01*
X149167219Y-80920802D01*
X148267219Y-80920802D01*
X148247710Y-80922723D01*
X148211662Y-80937655D01*
X148184072Y-80965245D01*
X148169140Y-81001293D01*
X147174886Y-81001293D01*
X147688897Y-80829956D01*
X147706798Y-80821965D01*
X147712199Y-80817280D01*
X147718586Y-80814087D01*
X147726798Y-80804618D01*
X147736274Y-80796400D01*
X147739469Y-80790008D01*
X147744151Y-80784611D01*
X147748117Y-80772713D01*
X147753723Y-80761501D01*
X147754229Y-80754376D01*
X147756490Y-80747595D01*
X147755600Y-80735088D01*
X147756490Y-80722581D01*
X147754229Y-80715799D01*
X147753723Y-80708675D01*
X147748117Y-80697462D01*
X147744151Y-80685565D01*
X147739469Y-80680167D01*
X147736274Y-80673776D01*
X147726798Y-80665557D01*
X147718586Y-80656089D01*
X147712199Y-80652895D01*
X147706798Y-80648211D01*
X147688897Y-80640220D01*
X146688898Y-80306887D01*
X146669782Y-80302540D01*
X146630862Y-80305306D01*
X146595963Y-80322756D01*
X146570398Y-80352232D01*
X146558060Y-80389248D01*
X145946622Y-80389248D01*
X146073098Y-80355521D01*
X146079727Y-80353035D01*
X146082119Y-80352652D01*
X146084253Y-80351338D01*
X146091453Y-80348639D01*
X146102986Y-80339810D01*
X146115349Y-80332203D01*
X146118358Y-80328043D01*
X146122436Y-80324923D01*
X146129710Y-80312358D01*
X146138224Y-80300594D01*
X146139413Y-80295598D01*
X146141986Y-80291155D01*
X146143897Y-80276765D01*
X146147262Y-80262637D01*
X146146448Y-80257565D01*
X146147125Y-80252477D01*
X146143383Y-80238444D01*
X146141085Y-80224110D01*
X146138395Y-80219739D01*
X146137072Y-80214776D01*
X146128243Y-80203242D01*
X146120636Y-80190880D01*
X146116476Y-80187870D01*
X146113356Y-80183793D01*
X146100789Y-80176517D01*
X146089027Y-80168005D01*
X146081761Y-80165500D01*
X146079589Y-80164243D01*
X146077185Y-80163923D01*
X146070493Y-80161617D01*
X145070493Y-79923522D01*
X145051070Y-79920872D01*
X145012543Y-79927049D01*
X144979313Y-79947498D01*
X144956438Y-79979107D01*
X144947400Y-80017064D01*
X144836220Y-80017064D01*
X144836220Y-79163660D01*
X144947331Y-79163660D01*
X144947331Y-79639850D01*
X144949252Y-79659359D01*
X144964184Y-79695407D01*
X144991774Y-79722997D01*
X145027822Y-79737929D01*
X145047331Y-79739850D01*
X146047331Y-79739850D01*
X146066840Y-79737929D01*
X146073699Y-79735088D01*
X148167219Y-79735088D01*
X148167219Y-80211278D01*
X148169140Y-80230787D01*
X148184072Y-80266835D01*
X148211662Y-80294425D01*
X148247710Y-80309357D01*
X148267219Y-80311278D01*
X149267219Y-80311278D01*
X149286728Y-80309357D01*
X149322776Y-80294425D01*
X149350366Y-80266835D01*
X149365298Y-80230787D01*
X149367219Y-80211278D01*
X149367219Y-79735088D01*
X149365298Y-79715579D01*
X149350366Y-79679531D01*
X149322776Y-79651941D01*
X149286728Y-79637009D01*
X149247710Y-79637009D01*
X149211662Y-79651941D01*
X149184072Y-79679531D01*
X149169140Y-79715579D01*
X149167219Y-79735088D01*
X149167219Y-80111278D01*
X148843409Y-80111278D01*
X148843409Y-79877945D01*
X148841488Y-79858436D01*
X148826556Y-79822388D01*
X148798966Y-79794798D01*
X148762918Y-79779866D01*
X148723900Y-79779866D01*
X148687852Y-79794798D01*
X148660262Y-79822388D01*
X148645330Y-79858436D01*
X148643409Y-79877945D01*
X148643409Y-80111278D01*
X148367219Y-80111278D01*
X148367219Y-79735088D01*
X148365298Y-79715579D01*
X148350366Y-79679531D01*
X148322776Y-79651941D01*
X148286728Y-79637009D01*
X148247710Y-79637009D01*
X148211662Y-79651941D01*
X148184072Y-79679531D01*
X148169140Y-79715579D01*
X148167219Y-79735088D01*
X146073699Y-79735088D01*
X146102888Y-79722997D01*
X146130478Y-79695407D01*
X146145410Y-79659359D01*
X146147331Y-79639850D01*
X146147331Y-79163660D01*
X146145410Y-79144151D01*
X146130478Y-79108103D01*
X146125908Y-79103533D01*
X146558060Y-79103533D01*
X146558948Y-79116040D01*
X146558060Y-79128547D01*
X146560319Y-79135325D01*
X146560826Y-79142453D01*
X146566432Y-79153665D01*
X146570398Y-79165563D01*
X146575081Y-79170962D01*
X146578276Y-79177352D01*
X146587747Y-79185567D01*
X146595963Y-79195039D01*
X146602352Y-79198233D01*
X146607752Y-79202917D01*
X146625652Y-79210908D01*
X147625652Y-79544241D01*
X147644767Y-79548588D01*
X147683687Y-79545822D01*
X147718586Y-79528372D01*
X147744151Y-79498896D01*
X147756490Y-79461880D01*
X147753723Y-79422960D01*
X147736274Y-79388061D01*
X147706798Y-79362496D01*
X147688897Y-79354505D01*
X147471560Y-79282059D01*
X147471560Y-78950020D01*
X147688897Y-78877575D01*
X147706798Y-78869584D01*
X147736274Y-78844019D01*
X147753723Y-78809120D01*
X147756490Y-78770200D01*
X147744151Y-78733184D01*
X147718586Y-78703708D01*
X147683687Y-78686258D01*
X147644767Y-78683492D01*
X147625652Y-78687839D01*
X146625652Y-79021172D01*
X146607752Y-79029163D01*
X146602352Y-79033846D01*
X146595963Y-79037041D01*
X146587747Y-79046512D01*
X146578276Y-79054728D01*
X146575081Y-79061117D01*
X146570398Y-79066517D01*
X146566432Y-79078414D01*
X146560826Y-79089627D01*
X146560319Y-79096754D01*
X146558060Y-79103533D01*
X146125908Y-79103533D01*
X146102888Y-79080513D01*
X146066840Y-79065581D01*
X146027822Y-79065581D01*
X145991774Y-79080513D01*
X145964184Y-79108103D01*
X145949252Y-79144151D01*
X145947331Y-79163660D01*
X145947331Y-79539850D01*
X145623521Y-79539850D01*
X145623521Y-79306517D01*
X145621600Y-79287008D01*
X145606668Y-79250960D01*
X145579078Y-79223370D01*
X145543030Y-79208438D01*
X145504012Y-79208438D01*
X145467964Y-79223370D01*
X145440374Y-79250960D01*
X145425442Y-79287008D01*
X145423521Y-79306517D01*
X145423521Y-79539850D01*
X145147331Y-79539850D01*
X145147331Y-79163660D01*
X145145410Y-79144151D01*
X145130478Y-79108103D01*
X145102888Y-79080513D01*
X145066840Y-79065581D01*
X145027822Y-79065581D01*
X144991774Y-79080513D01*
X144964184Y-79108103D01*
X144949252Y-79144151D01*
X144947331Y-79163660D01*
X144836220Y-79163660D01*
X144836220Y-78354136D01*
X144947331Y-78354136D01*
X144947331Y-78735088D01*
X144949252Y-78754597D01*
X144964184Y-78790645D01*
X144991774Y-78818235D01*
X145027822Y-78833167D01*
X145047331Y-78835088D01*
X146047331Y-78835088D01*
X146066840Y-78833167D01*
X146102888Y-78818235D01*
X146130478Y-78790645D01*
X146145410Y-78754597D01*
X146145410Y-78715579D01*
X146130478Y-78679531D01*
X146105980Y-78655033D01*
X148168378Y-78655033D01*
X148169140Y-78657128D01*
X148169140Y-78659359D01*
X148175784Y-78675400D01*
X148181713Y-78691702D01*
X148183218Y-78693345D01*
X148184072Y-78695407D01*
X148196345Y-78707680D01*
X148208064Y-78720477D01*
X148210708Y-78722043D01*
X148211662Y-78722997D01*
X148213843Y-78723900D01*
X148224930Y-78730468D01*
X148745034Y-78973183D01*
X148224930Y-79215898D01*
X148213843Y-79222465D01*
X148211662Y-79223369D01*
X148210708Y-79224322D01*
X148208064Y-79225889D01*
X148196345Y-79238685D01*
X148184072Y-79250959D01*
X148183218Y-79253020D01*
X148181713Y-79254664D01*
X148175784Y-79270965D01*
X148169140Y-79287007D01*
X148169140Y-79289237D01*
X148168378Y-79291333D01*
X148169140Y-79308672D01*
X148169140Y-79326025D01*
X148169993Y-79328084D01*
X148170091Y-79330313D01*
X148177432Y-79346043D01*
X148184072Y-79362073D01*
X148185648Y-79363649D01*
X148186592Y-79365671D01*
X148199388Y-79377389D01*
X148211662Y-79389663D01*
X148213723Y-79390516D01*
X148215367Y-79392022D01*
X148231668Y-79397950D01*
X148247710Y-79404595D01*
X148250768Y-79404896D01*
X148252036Y-79405357D01*
X148254395Y-79405253D01*
X148267219Y-79406516D01*
X149267219Y-79406516D01*
X149286728Y-79404595D01*
X149322776Y-79389663D01*
X149350366Y-79362073D01*
X149365298Y-79326025D01*
X149365298Y-79287007D01*
X149350366Y-79250959D01*
X149322776Y-79223369D01*
X149286728Y-79208437D01*
X149267219Y-79206516D01*
X148717975Y-79206516D01*
X149023793Y-79063801D01*
X149030934Y-79059570D01*
X149033356Y-79058690D01*
X149035068Y-79057121D01*
X149040659Y-79053810D01*
X149050919Y-79042605D01*
X149062132Y-79032338D01*
X149064011Y-79028310D01*
X149067011Y-79025035D01*
X149072202Y-79010759D01*
X149078632Y-78996981D01*
X149078827Y-78992540D01*
X149080345Y-78988366D01*
X149079677Y-78973183D01*
X149080345Y-78958000D01*
X149078827Y-78953825D01*
X149078632Y-78949385D01*
X149072202Y-78935606D01*
X149067011Y-78921331D01*
X149064011Y-78918055D01*
X149062132Y-78914028D01*
X149050919Y-78903760D01*
X149040659Y-78892556D01*
X149035068Y-78889244D01*
X149033356Y-78887676D01*
X149030934Y-78886795D01*
X149023793Y-78882565D01*
X148717975Y-78739850D01*
X149267219Y-78739850D01*
X149286728Y-78737929D01*
X149322776Y-78722997D01*
X149350366Y-78695407D01*
X149365298Y-78659359D01*
X149365298Y-78620341D01*
X149350366Y-78584293D01*
X149322776Y-78556703D01*
X149286728Y-78541771D01*
X149267219Y-78539850D01*
X148267219Y-78539850D01*
X148254395Y-78541112D01*
X148252036Y-78541009D01*
X148250768Y-78541469D01*
X148247710Y-78541771D01*
X148231668Y-78548415D01*
X148215367Y-78554344D01*
X148213723Y-78555849D01*
X148211662Y-78556703D01*
X148199388Y-78568976D01*
X148186592Y-78580695D01*
X148185648Y-78582716D01*
X148184072Y-78584293D01*
X148177432Y-78600322D01*
X148170091Y-78616053D01*
X148169993Y-78618281D01*
X148169140Y-78620341D01*
X148169140Y-78637693D01*
X148168378Y-78655033D01*
X146105980Y-78655033D01*
X146102888Y-78651941D01*
X146066840Y-78637009D01*
X146047331Y-78635088D01*
X145671140Y-78635088D01*
X145671140Y-78549058D01*
X146104677Y-78245583D01*
X146119558Y-78232822D01*
X146140527Y-78199917D01*
X146147308Y-78161492D01*
X146138868Y-78123398D01*
X146116493Y-78091433D01*
X146083588Y-78070464D01*
X146045164Y-78063683D01*
X146007069Y-78072123D01*
X145989985Y-78081737D01*
X145661459Y-78311704D01*
X145660583Y-78309414D01*
X145612964Y-78214177D01*
X145607678Y-78205780D01*
X145606668Y-78203340D01*
X145604414Y-78200594D01*
X145602521Y-78197586D01*
X145600523Y-78195853D01*
X145594231Y-78188187D01*
X145546613Y-78140568D01*
X145538942Y-78134273D01*
X145537213Y-78132279D01*
X145534205Y-78130385D01*
X145531459Y-78128132D01*
X145529019Y-78127121D01*
X145520623Y-78121836D01*
X145425385Y-78074217D01*
X145407077Y-78067211D01*
X145403493Y-78066956D01*
X145400173Y-78065581D01*
X145380664Y-78063660D01*
X145237807Y-78063660D01*
X145218298Y-78065581D01*
X145214977Y-78066956D01*
X145211394Y-78067211D01*
X145193085Y-78074217D01*
X145097848Y-78121836D01*
X145089451Y-78127121D01*
X145087011Y-78128132D01*
X145084265Y-78130385D01*
X145081257Y-78132279D01*
X145079524Y-78134276D01*
X145071858Y-78140569D01*
X145024239Y-78188187D01*
X145017944Y-78195857D01*
X145015950Y-78197587D01*
X145014056Y-78200594D01*
X145011803Y-78203341D01*
X145010792Y-78205780D01*
X145005507Y-78214177D01*
X144957888Y-78309415D01*
X144950882Y-78327723D01*
X144950627Y-78331306D01*
X144949252Y-78334627D01*
X144947331Y-78354136D01*
X144836220Y-78354136D01*
X144836220Y-76592231D01*
X144947331Y-76592231D01*
X144947331Y-76830326D01*
X144949252Y-76849835D01*
X144950627Y-76853155D01*
X144950882Y-76856739D01*
X144957888Y-76875047D01*
X145005507Y-76970285D01*
X145010792Y-76978681D01*
X145011803Y-76981121D01*
X145014056Y-76983867D01*
X145015950Y-76986875D01*
X145017944Y-76988604D01*
X145024239Y-76996275D01*
X145071858Y-77043893D01*
X145079524Y-77050185D01*
X145081257Y-77052183D01*
X145084265Y-77054076D01*
X145087011Y-77056330D01*
X145089451Y-77057340D01*
X145097848Y-77062626D01*
X145193085Y-77110245D01*
X145211394Y-77117251D01*
X145214977Y-77117505D01*
X145218298Y-77118881D01*
X145237807Y-77120802D01*
X145333045Y-77120802D01*
X145352554Y-77118881D01*
X145355874Y-77117505D01*
X145359458Y-77117251D01*
X145377766Y-77110245D01*
X145473004Y-77062626D01*
X145481400Y-77057340D01*
X145483840Y-77056330D01*
X145486586Y-77054076D01*
X145489594Y-77052183D01*
X145491323Y-77050188D01*
X145498994Y-77043894D01*
X145546612Y-76996275D01*
X145552904Y-76988608D01*
X145554902Y-76986876D01*
X145556795Y-76983867D01*
X145559049Y-76981122D01*
X145560059Y-76978681D01*
X145565345Y-76970285D01*
X145612964Y-76875048D01*
X145613510Y-76873619D01*
X145613940Y-76873040D01*
X145616861Y-76864863D01*
X145619970Y-76856739D01*
X145620021Y-76856018D01*
X145620535Y-76854580D01*
X145665491Y-76674754D01*
X145700945Y-76603847D01*
X145725613Y-76579178D01*
X145785223Y-76549374D01*
X145833247Y-76549374D01*
X145892858Y-76579180D01*
X145917526Y-76603847D01*
X145947331Y-76663457D01*
X145947331Y-76861718D01*
X145904844Y-76989179D01*
X145900497Y-77008295D01*
X145903263Y-77047215D01*
X145920713Y-77082114D01*
X145950189Y-77107679D01*
X145987205Y-77120017D01*
X146026125Y-77117251D01*
X146061024Y-77099801D01*
X146086589Y-77070325D01*
X146087439Y-77068421D01*
X148167219Y-77068421D01*
X148167219Y-77401754D01*
X148169140Y-77421263D01*
X148184072Y-77457311D01*
X148211662Y-77484901D01*
X148247710Y-77499833D01*
X148267219Y-77501754D01*
X149267219Y-77501754D01*
X149286728Y-77499833D01*
X149322776Y-77484901D01*
X149350366Y-77457311D01*
X149365298Y-77421263D01*
X149367219Y-77401754D01*
X149367219Y-77020802D01*
X149365298Y-77001293D01*
X149363922Y-76997972D01*
X149363668Y-76994389D01*
X149356662Y-76976080D01*
X149309043Y-76880843D01*
X149303757Y-76872446D01*
X149302747Y-76870006D01*
X149300493Y-76867260D01*
X149298600Y-76864252D01*
X149296603Y-76862520D01*
X149290310Y-76854852D01*
X149242690Y-76807234D01*
X149235020Y-76800939D01*
X149233291Y-76798945D01*
X149230286Y-76797053D01*
X149227537Y-76794797D01*
X149225093Y-76793785D01*
X149216701Y-76788502D01*
X149121463Y-76740883D01*
X149103155Y-76733877D01*
X149099571Y-76733622D01*
X149096251Y-76732247D01*
X149076742Y-76730326D01*
X148933885Y-76730326D01*
X148914376Y-76732247D01*
X148911055Y-76733622D01*
X148907472Y-76733877D01*
X148889163Y-76740883D01*
X148793926Y-76788502D01*
X148785529Y-76793787D01*
X148783089Y-76794798D01*
X148780343Y-76797051D01*
X148777335Y-76798945D01*
X148775602Y-76800942D01*
X148767936Y-76807235D01*
X148720317Y-76854853D01*
X148719670Y-76855641D01*
X148718882Y-76854853D01*
X148711211Y-76848558D01*
X148709482Y-76846564D01*
X148706474Y-76844670D01*
X148703728Y-76842417D01*
X148701288Y-76841406D01*
X148692892Y-76836121D01*
X148597654Y-76788502D01*
X148579346Y-76781496D01*
X148575762Y-76781241D01*
X148572442Y-76779866D01*
X148552933Y-76777945D01*
X148457695Y-76777945D01*
X148438186Y-76779866D01*
X148434865Y-76781241D01*
X148431282Y-76781496D01*
X148412973Y-76788502D01*
X148317736Y-76836121D01*
X148309339Y-76841406D01*
X148306899Y-76842417D01*
X148304153Y-76844670D01*
X148301145Y-76846564D01*
X148299412Y-76848561D01*
X148291746Y-76854854D01*
X148244127Y-76902472D01*
X148237832Y-76910142D01*
X148235838Y-76911872D01*
X148233944Y-76914879D01*
X148231691Y-76917626D01*
X148230680Y-76920065D01*
X148225395Y-76928462D01*
X148177776Y-77023700D01*
X148170770Y-77042008D01*
X148170515Y-77045591D01*
X148169140Y-77048912D01*
X148167219Y-77068421D01*
X146087439Y-77068421D01*
X146094580Y-77052425D01*
X146142199Y-76909568D01*
X146144398Y-76899895D01*
X146145410Y-76897454D01*
X146145758Y-76893916D01*
X146146546Y-76890453D01*
X146146358Y-76887818D01*
X146147331Y-76877945D01*
X146147331Y-76639850D01*
X146145410Y-76620341D01*
X146144034Y-76617020D01*
X146143780Y-76613437D01*
X146136774Y-76595128D01*
X146089155Y-76499891D01*
X146083869Y-76491494D01*
X146082859Y-76489054D01*
X146080605Y-76486308D01*
X146078712Y-76483300D01*
X146076715Y-76481568D01*
X146070422Y-76473900D01*
X146022802Y-76426282D01*
X146015132Y-76419987D01*
X146013403Y-76417993D01*
X146010398Y-76416101D01*
X146007649Y-76413845D01*
X146005205Y-76412833D01*
X145996813Y-76407550D01*
X145901575Y-76359931D01*
X145883267Y-76352925D01*
X145879683Y-76352670D01*
X145876363Y-76351295D01*
X145856854Y-76349374D01*
X145761616Y-76349374D01*
X145742107Y-76351295D01*
X145738786Y-76352670D01*
X145735203Y-76352925D01*
X145716894Y-76359931D01*
X145621657Y-76407550D01*
X145613260Y-76412835D01*
X145610820Y-76413846D01*
X145608074Y-76416099D01*
X145605066Y-76417993D01*
X145603333Y-76419990D01*
X145595667Y-76426283D01*
X145548048Y-76473901D01*
X145541753Y-76481571D01*
X145539759Y-76483301D01*
X145537865Y-76486308D01*
X145535612Y-76489055D01*
X145534601Y-76491494D01*
X145529316Y-76499891D01*
X145481697Y-76595129D01*
X145481151Y-76596555D01*
X145480721Y-76597136D01*
X145477799Y-76605312D01*
X145474691Y-76613437D01*
X145474639Y-76614159D01*
X145474126Y-76615597D01*
X145429169Y-76795421D01*
X145393716Y-76866328D01*
X145369047Y-76890996D01*
X145309438Y-76920802D01*
X145261414Y-76920802D01*
X145201804Y-76890997D01*
X145177136Y-76866328D01*
X145147331Y-76806718D01*
X145147331Y-76608458D01*
X145189818Y-76480997D01*
X145194165Y-76461882D01*
X145191399Y-76422962D01*
X145173949Y-76388063D01*
X145144473Y-76362498D01*
X145107457Y-76350159D01*
X145068537Y-76352926D01*
X145033638Y-76370375D01*
X145008073Y-76399851D01*
X145000082Y-76417752D01*
X144952463Y-76560608D01*
X144950263Y-76570279D01*
X144949252Y-76572722D01*
X144948903Y-76576260D01*
X144948116Y-76579724D01*
X144948303Y-76582357D01*
X144947331Y-76592231D01*
X144836220Y-76592231D01*
X144836220Y-75592231D01*
X144947331Y-75592231D01*
X144947331Y-76163659D01*
X144949252Y-76183168D01*
X144964184Y-76219216D01*
X144991774Y-76246806D01*
X145027822Y-76261738D01*
X145066840Y-76261738D01*
X145102888Y-76246806D01*
X145130478Y-76219216D01*
X145145410Y-76183168D01*
X145147331Y-76163659D01*
X145147331Y-75977945D01*
X146047331Y-75977945D01*
X146066840Y-75976024D01*
X146102888Y-75961092D01*
X146130478Y-75933502D01*
X146133766Y-75925564D01*
X148167219Y-75925564D01*
X148167219Y-76401754D01*
X148169140Y-76421263D01*
X148184072Y-76457311D01*
X148211662Y-76484901D01*
X148247710Y-76499833D01*
X148267219Y-76501754D01*
X149267219Y-76501754D01*
X149286728Y-76499833D01*
X149322776Y-76484901D01*
X149350366Y-76457311D01*
X149365298Y-76421263D01*
X149367219Y-76401754D01*
X149367219Y-75925564D01*
X149365298Y-75906055D01*
X149350366Y-75870007D01*
X149322776Y-75842417D01*
X149286728Y-75827485D01*
X149247710Y-75827485D01*
X149211662Y-75842417D01*
X149184072Y-75870007D01*
X149169140Y-75906055D01*
X149167219Y-75925564D01*
X149167219Y-76301754D01*
X148843409Y-76301754D01*
X148843409Y-76068421D01*
X148841488Y-76048912D01*
X148826556Y-76012864D01*
X148798966Y-75985274D01*
X148762918Y-75970342D01*
X148723900Y-75970342D01*
X148687852Y-75985274D01*
X148660262Y-76012864D01*
X148645330Y-76048912D01*
X148643409Y-76068421D01*
X148643409Y-76301754D01*
X148367219Y-76301754D01*
X148367219Y-75925564D01*
X148365298Y-75906055D01*
X148350366Y-75870007D01*
X148322776Y-75842417D01*
X148286728Y-75827485D01*
X148247710Y-75827485D01*
X148211662Y-75842417D01*
X148184072Y-75870007D01*
X148169140Y-75906055D01*
X148167219Y-75925564D01*
X146133766Y-75925564D01*
X146145410Y-75897454D01*
X146145410Y-75858436D01*
X146130478Y-75822388D01*
X146102888Y-75794798D01*
X146066840Y-75779866D01*
X146047331Y-75777945D01*
X145147331Y-75777945D01*
X145147331Y-75592231D01*
X145145410Y-75572722D01*
X145130478Y-75536674D01*
X145102888Y-75509084D01*
X145066840Y-75494152D01*
X145027822Y-75494152D01*
X144991774Y-75509084D01*
X144964184Y-75536674D01*
X144949252Y-75572722D01*
X144947331Y-75592231D01*
X144836220Y-75592231D01*
X144836220Y-75055914D01*
X144948116Y-75055914D01*
X144949004Y-75068421D01*
X144948116Y-75080928D01*
X144950375Y-75087706D01*
X144950882Y-75094834D01*
X144956488Y-75106046D01*
X144960454Y-75117944D01*
X144965137Y-75123343D01*
X144968332Y-75129733D01*
X144977803Y-75137948D01*
X144986019Y-75147420D01*
X144992408Y-75150614D01*
X144997808Y-75155298D01*
X145015708Y-75163289D01*
X146015708Y-75496622D01*
X146034823Y-75500969D01*
X146073743Y-75498203D01*
X146108642Y-75480753D01*
X146134207Y-75451277D01*
X146146546Y-75414261D01*
X146143779Y-75375341D01*
X146126330Y-75340442D01*
X146096854Y-75314877D01*
X146078953Y-75306886D01*
X145861616Y-75234440D01*
X145861616Y-75068421D01*
X148167219Y-75068421D01*
X148167219Y-75211278D01*
X148168191Y-75221151D01*
X148168004Y-75223785D01*
X148168791Y-75227248D01*
X148169140Y-75230787D01*
X148170151Y-75233229D01*
X148172351Y-75242901D01*
X148219970Y-75385757D01*
X148227961Y-75403658D01*
X148230316Y-75406373D01*
X148231691Y-75409692D01*
X148244127Y-75424846D01*
X148339365Y-75520084D01*
X148347031Y-75526375D01*
X148348764Y-75528373D01*
X148351775Y-75530268D01*
X148354519Y-75532520D01*
X148356956Y-75533529D01*
X148365355Y-75538816D01*
X148460592Y-75586435D01*
X148462020Y-75586981D01*
X148462600Y-75587411D01*
X148470776Y-75590332D01*
X148478901Y-75593441D01*
X148479621Y-75593492D01*
X148481060Y-75594006D01*
X148671536Y-75641625D01*
X148674917Y-75642125D01*
X148676281Y-75642690D01*
X148683631Y-75643413D01*
X148690929Y-75644493D01*
X148692387Y-75644275D01*
X148695790Y-75644611D01*
X148838647Y-75644611D01*
X148842049Y-75644275D01*
X148843508Y-75644493D01*
X148850805Y-75643413D01*
X148858156Y-75642690D01*
X148859519Y-75642125D01*
X148862901Y-75641625D01*
X149053376Y-75594006D01*
X149054813Y-75593492D01*
X149055536Y-75593441D01*
X149063660Y-75590332D01*
X149071837Y-75587411D01*
X149072417Y-75586980D01*
X149073844Y-75586435D01*
X149169082Y-75538816D01*
X149177474Y-75533533D01*
X149179918Y-75532521D01*
X149182667Y-75530264D01*
X149185672Y-75528373D01*
X149187401Y-75526378D01*
X149195071Y-75520084D01*
X149290311Y-75424846D01*
X149302747Y-75409693D01*
X149304122Y-75406373D01*
X149306477Y-75403658D01*
X149314468Y-75385758D01*
X149362087Y-75242901D01*
X149364286Y-75233228D01*
X149365298Y-75230787D01*
X149365646Y-75227249D01*
X149366434Y-75223786D01*
X149366246Y-75221151D01*
X149367219Y-75211278D01*
X149367219Y-75116040D01*
X149366246Y-75106166D01*
X149366434Y-75103532D01*
X149365646Y-75100068D01*
X149365298Y-75096531D01*
X149364286Y-75094089D01*
X149362087Y-75084417D01*
X149314468Y-74941560D01*
X149306477Y-74923660D01*
X149304122Y-74920944D01*
X149302747Y-74917625D01*
X149290310Y-74902471D01*
X149242690Y-74854853D01*
X149227537Y-74842416D01*
X149202046Y-74831858D01*
X149191489Y-74827485D01*
X149171980Y-74825564D01*
X148838647Y-74825564D01*
X148819138Y-74827485D01*
X148783090Y-74842417D01*
X148755500Y-74870007D01*
X148740568Y-74906055D01*
X148738647Y-74925564D01*
X148738647Y-75116040D01*
X148740568Y-75135549D01*
X148755500Y-75171597D01*
X148783090Y-75199187D01*
X148819138Y-75214119D01*
X148858156Y-75214119D01*
X148894204Y-75199187D01*
X148921794Y-75171597D01*
X148936726Y-75135549D01*
X148938647Y-75116040D01*
X148938647Y-75025564D01*
X149130560Y-75025564D01*
X149132197Y-75027201D01*
X149167219Y-75132266D01*
X149167219Y-75195051D01*
X149132197Y-75300116D01*
X149065127Y-75367186D01*
X148994218Y-75402640D01*
X148826337Y-75444611D01*
X148708099Y-75444611D01*
X148540218Y-75402640D01*
X148469313Y-75367188D01*
X148402240Y-75300115D01*
X148367219Y-75195051D01*
X148367219Y-75092028D01*
X148404281Y-75017905D01*
X148411287Y-74999596D01*
X148414053Y-74960676D01*
X148401714Y-74923660D01*
X148376149Y-74894183D01*
X148341251Y-74876734D01*
X148302331Y-74873969D01*
X148265315Y-74886307D01*
X148235838Y-74911872D01*
X148225395Y-74928462D01*
X148177776Y-75023700D01*
X148170770Y-75042008D01*
X148170515Y-75045591D01*
X148169140Y-75048912D01*
X148167219Y-75068421D01*
X145861616Y-75068421D01*
X145861616Y-74902401D01*
X146078953Y-74829956D01*
X146096854Y-74821965D01*
X146126330Y-74796400D01*
X146143779Y-74761501D01*
X146146546Y-74722581D01*
X146134207Y-74685565D01*
X146108642Y-74656089D01*
X146073743Y-74638639D01*
X146034823Y-74635873D01*
X146015708Y-74640220D01*
X145015708Y-74973553D01*
X144997808Y-74981544D01*
X144992408Y-74986227D01*
X144986019Y-74989422D01*
X144977803Y-74998893D01*
X144968332Y-75007109D01*
X144965137Y-75013498D01*
X144960454Y-75018898D01*
X144956488Y-75030795D01*
X144950882Y-75042008D01*
X144950375Y-75049135D01*
X144948116Y-75055914D01*
X144836220Y-75055914D01*
X144836220Y-73973183D01*
X144947331Y-73973183D01*
X144947331Y-74116040D01*
X144948303Y-74125913D01*
X144948116Y-74128547D01*
X144948903Y-74132010D01*
X144949252Y-74135549D01*
X144950263Y-74137991D01*
X144952463Y-74147663D01*
X145000082Y-74290519D01*
X145008073Y-74308420D01*
X145010428Y-74311135D01*
X145011803Y-74314454D01*
X145024239Y-74329608D01*
X145119477Y-74424846D01*
X145127143Y-74431137D01*
X145128876Y-74433135D01*
X145131887Y-74435030D01*
X145134631Y-74437282D01*
X145137068Y-74438291D01*
X145145467Y-74443578D01*
X145240704Y-74491197D01*
X145242132Y-74491743D01*
X145242712Y-74492173D01*
X145250888Y-74495094D01*
X145259013Y-74498203D01*
X145259733Y-74498254D01*
X145261172Y-74498768D01*
X145451648Y-74546387D01*
X145455029Y-74546887D01*
X145456393Y-74547452D01*
X145463743Y-74548175D01*
X145471041Y-74549255D01*
X145472499Y-74549037D01*
X145475902Y-74549373D01*
X145618759Y-74549373D01*
X145622161Y-74549037D01*
X145623620Y-74549255D01*
X145630917Y-74548175D01*
X145638268Y-74547452D01*
X145639631Y-74546887D01*
X145643013Y-74546387D01*
X145833488Y-74498768D01*
X145834925Y-74498254D01*
X145835648Y-74498203D01*
X145843772Y-74495094D01*
X145851949Y-74492173D01*
X145852529Y-74491742D01*
X145853956Y-74491197D01*
X145881384Y-74477483D01*
X148169140Y-74477483D01*
X148169140Y-74516501D01*
X148184072Y-74552549D01*
X148211662Y-74580139D01*
X148247710Y-74595071D01*
X148267219Y-74596992D01*
X149267219Y-74596992D01*
X149286728Y-74595071D01*
X149322776Y-74580139D01*
X149350366Y-74552549D01*
X149365298Y-74516501D01*
X149365298Y-74477483D01*
X149350366Y-74441435D01*
X149322776Y-74413845D01*
X149286728Y-74398913D01*
X149267219Y-74396992D01*
X148267219Y-74396992D01*
X148247710Y-74398913D01*
X148211662Y-74413845D01*
X148184072Y-74441435D01*
X148169140Y-74477483D01*
X145881384Y-74477483D01*
X145949194Y-74443578D01*
X145957586Y-74438295D01*
X145960030Y-74437283D01*
X145962779Y-74435026D01*
X145965784Y-74433135D01*
X145967513Y-74431140D01*
X145975183Y-74424846D01*
X146070423Y-74329608D01*
X146082859Y-74314455D01*
X146084234Y-74311135D01*
X146086589Y-74308420D01*
X146094580Y-74290520D01*
X146142199Y-74147663D01*
X146144398Y-74137990D01*
X146145410Y-74135549D01*
X146145758Y-74132011D01*
X146146546Y-74128548D01*
X146146358Y-74125913D01*
X146147331Y-74116040D01*
X146147331Y-74020802D01*
X146146358Y-74010928D01*
X146146546Y-74008294D01*
X146145758Y-74004830D01*
X146145410Y-74001293D01*
X146144398Y-73998851D01*
X146142199Y-73989179D01*
X146094580Y-73846322D01*
X146086589Y-73828422D01*
X146084234Y-73825706D01*
X146082859Y-73822387D01*
X146070422Y-73807233D01*
X146022802Y-73759615D01*
X146007649Y-73747178D01*
X145981381Y-73736298D01*
X145971601Y-73732247D01*
X145952092Y-73730326D01*
X145618759Y-73730326D01*
X145599250Y-73732247D01*
X145563202Y-73747179D01*
X145535612Y-73774769D01*
X145520680Y-73810817D01*
X145518759Y-73830326D01*
X145518759Y-74020802D01*
X145520680Y-74040311D01*
X145535612Y-74076359D01*
X145563202Y-74103949D01*
X145599250Y-74118881D01*
X145638268Y-74118881D01*
X145674316Y-74103949D01*
X145701906Y-74076359D01*
X145716838Y-74040311D01*
X145718759Y-74020802D01*
X145718759Y-73930326D01*
X145910672Y-73930326D01*
X145912309Y-73931963D01*
X145947331Y-74037028D01*
X145947331Y-74099813D01*
X145912309Y-74204878D01*
X145845239Y-74271948D01*
X145774330Y-74307402D01*
X145606449Y-74349373D01*
X145488211Y-74349373D01*
X145320330Y-74307402D01*
X145249425Y-74271950D01*
X145182352Y-74204877D01*
X145147331Y-74099813D01*
X145147331Y-73996790D01*
X145184393Y-73922667D01*
X145191399Y-73904358D01*
X145194165Y-73865438D01*
X145181826Y-73828422D01*
X145156261Y-73798945D01*
X145121363Y-73781496D01*
X145082443Y-73778731D01*
X145045427Y-73791069D01*
X145015950Y-73816634D01*
X145005507Y-73833224D01*
X144957888Y-73928462D01*
X144950882Y-73946770D01*
X144950627Y-73950353D01*
X144949252Y-73953674D01*
X144947331Y-73973183D01*
X144836220Y-73973183D01*
X144836220Y-73639850D01*
X148167219Y-73639850D01*
X148167219Y-73735088D01*
X148168191Y-73744961D01*
X148168004Y-73747595D01*
X148168791Y-73751058D01*
X148169140Y-73754597D01*
X148170151Y-73757039D01*
X148172351Y-73766711D01*
X148219970Y-73909567D01*
X148227961Y-73927468D01*
X148230316Y-73930183D01*
X148231691Y-73933502D01*
X148244127Y-73948656D01*
X148339365Y-74043894D01*
X148347031Y-74050185D01*
X148348764Y-74052183D01*
X148351775Y-74054078D01*
X148354519Y-74056330D01*
X148356956Y-74057339D01*
X148365355Y-74062626D01*
X148460592Y-74110245D01*
X148462020Y-74110791D01*
X148462600Y-74111221D01*
X148470776Y-74114142D01*
X148478901Y-74117251D01*
X148479621Y-74117302D01*
X148481060Y-74117816D01*
X148671536Y-74165435D01*
X148674917Y-74165935D01*
X148676281Y-74166500D01*
X148683631Y-74167223D01*
X148690929Y-74168303D01*
X148692387Y-74168085D01*
X148695790Y-74168421D01*
X148838647Y-74168421D01*
X148842049Y-74168085D01*
X148843508Y-74168303D01*
X148850805Y-74167223D01*
X148858156Y-74166500D01*
X148859519Y-74165935D01*
X148862901Y-74165435D01*
X149053376Y-74117816D01*
X149054813Y-74117302D01*
X149055536Y-74117251D01*
X149063660Y-74114142D01*
X149071837Y-74111221D01*
X149072417Y-74110790D01*
X149073844Y-74110245D01*
X149169082Y-74062626D01*
X149177474Y-74057343D01*
X149179918Y-74056331D01*
X149182667Y-74054074D01*
X149185672Y-74052183D01*
X149187401Y-74050188D01*
X149195071Y-74043894D01*
X149290311Y-73948656D01*
X149302747Y-73933503D01*
X149304122Y-73930183D01*
X149306477Y-73927468D01*
X149314468Y-73909568D01*
X149362087Y-73766711D01*
X149364286Y-73757038D01*
X149365298Y-73754597D01*
X149365646Y-73751059D01*
X149366434Y-73747596D01*
X149366246Y-73744961D01*
X149367219Y-73735088D01*
X149367219Y-73639850D01*
X149366246Y-73629976D01*
X149366434Y-73627342D01*
X149365646Y-73623878D01*
X149365298Y-73620341D01*
X149364286Y-73617899D01*
X149362087Y-73608227D01*
X149314468Y-73465370D01*
X149306477Y-73447470D01*
X149304122Y-73444754D01*
X149302747Y-73441435D01*
X149290310Y-73426281D01*
X149242690Y-73378663D01*
X149227537Y-73366226D01*
X149191488Y-73351295D01*
X149152470Y-73351296D01*
X149116422Y-73366227D01*
X149088832Y-73393817D01*
X149073901Y-73429866D01*
X149073902Y-73468884D01*
X149088833Y-73504932D01*
X149101270Y-73520085D01*
X149132197Y-73551011D01*
X149167219Y-73656076D01*
X149167219Y-73718861D01*
X149132197Y-73823926D01*
X149065127Y-73890996D01*
X148994218Y-73926450D01*
X148826337Y-73968421D01*
X148708099Y-73968421D01*
X148540218Y-73926450D01*
X148469313Y-73890998D01*
X148402240Y-73823925D01*
X148367219Y-73718861D01*
X148367219Y-73656077D01*
X148402240Y-73551011D01*
X148433167Y-73520085D01*
X148445604Y-73504932D01*
X148460535Y-73468883D01*
X148460535Y-73429865D01*
X148445604Y-73393817D01*
X148418014Y-73366227D01*
X148381966Y-73351296D01*
X148342948Y-73351296D01*
X148306899Y-73366227D01*
X148291746Y-73378664D01*
X148244127Y-73426282D01*
X148231691Y-73441436D01*
X148230316Y-73444754D01*
X148227961Y-73447470D01*
X148219970Y-73465371D01*
X148172351Y-73608227D01*
X148170151Y-73617898D01*
X148169140Y-73620341D01*
X148168791Y-73623879D01*
X148168004Y-73627343D01*
X148168191Y-73629976D01*
X148167219Y-73639850D01*
X144836220Y-73639850D01*
X144836220Y-72925564D01*
X144947331Y-72925564D01*
X144947331Y-73401754D01*
X144949252Y-73421263D01*
X144964184Y-73457311D01*
X144991774Y-73484901D01*
X145027822Y-73499833D01*
X145047331Y-73501754D01*
X146047331Y-73501754D01*
X146066840Y-73499833D01*
X146102888Y-73484901D01*
X146130478Y-73457311D01*
X146145410Y-73421263D01*
X146147331Y-73401754D01*
X146147331Y-72925564D01*
X146145410Y-72906055D01*
X146130478Y-72870007D01*
X146102888Y-72842417D01*
X146066840Y-72827485D01*
X146027822Y-72827485D01*
X145991774Y-72842417D01*
X145964184Y-72870007D01*
X145949252Y-72906055D01*
X145947331Y-72925564D01*
X145947331Y-73301754D01*
X145623521Y-73301754D01*
X145623521Y-73068421D01*
X145621600Y-73048912D01*
X145606668Y-73012864D01*
X145579078Y-72985274D01*
X145543030Y-72970342D01*
X145504012Y-72970342D01*
X145467964Y-72985274D01*
X145440374Y-73012864D01*
X145425442Y-73048912D01*
X145423521Y-73068421D01*
X145423521Y-73301754D01*
X145147331Y-73301754D01*
X145147331Y-72925564D01*
X145145410Y-72906055D01*
X145130478Y-72870007D01*
X145102888Y-72842417D01*
X145066840Y-72827485D01*
X145027822Y-72827485D01*
X144991774Y-72842417D01*
X144964184Y-72870007D01*
X144949252Y-72906055D01*
X144947331Y-72925564D01*
X144836220Y-72925564D01*
X144836220Y-72716374D01*
X149478330Y-72716374D01*
X149478330Y-83089056D01*
G37*
%TO.C,C49*%
D11*
X131940000Y-67909420D02*
X131940000Y-68190580D01*
X132960000Y-67909420D02*
X132960000Y-68190580D01*
%TO.C,C53*%
X143440000Y-67909420D02*
X143440000Y-68190580D01*
X144460000Y-67909420D02*
X144460000Y-68190580D01*
%TO.C,TP2*%
X101300000Y-54100000D02*
X102700000Y-54100000D01*
X101300000Y-55500000D02*
X101300000Y-54100000D01*
X102700000Y-54100000D02*
X102700000Y-55500000D01*
X102700000Y-55500000D02*
X101300000Y-55500000D01*
%TO.C,C32*%
X144361252Y-85240000D02*
X142938748Y-85240000D01*
X144361252Y-87960000D02*
X142938748Y-87960000D01*
%TO.C,C51*%
X134940000Y-67909420D02*
X134940000Y-68190580D01*
X135960000Y-67909420D02*
X135960000Y-68190580D01*
%TO.C,J2*%
X100705000Y-51020000D02*
X100705000Y-53780000D01*
X103355000Y-51020000D02*
X100705000Y-51020000D01*
X103355000Y-51020000D02*
X103355000Y-53780000D01*
X103355000Y-53780000D02*
X100705000Y-53780000D01*
X104625000Y-51020000D02*
X106005000Y-51020000D01*
X106005000Y-51020000D02*
X106005000Y-52400000D01*
%TO.C,C85*%
X137640000Y-58240580D02*
X137640000Y-57959420D01*
X138660000Y-58240580D02*
X138660000Y-57959420D01*
%TO.C,C90*%
X102490000Y-92790580D02*
X102490000Y-92509420D01*
X103510000Y-92790580D02*
X103510000Y-92509420D01*
%TO.C,C57*%
X144940000Y-65190580D02*
X144940000Y-64909420D01*
X145960000Y-65190580D02*
X145960000Y-64909420D01*
%TO.C,R13*%
X134927500Y-65287258D02*
X134927500Y-64812742D01*
X135972500Y-65287258D02*
X135972500Y-64812742D01*
%TO.C,U1*%
D12*
X112569700Y-57534239D02*
X112569700Y-58665761D01*
X113535141Y-58849300D02*
X113864859Y-58849300D01*
X114830300Y-58665761D02*
X114830300Y-57534239D01*
%TO.C,C83*%
D11*
X133440000Y-65190580D02*
X133440000Y-64909420D01*
X134460000Y-65190580D02*
X134460000Y-64909420D01*
%TO.C,U3*%
D12*
X107069700Y-57534239D02*
X107069700Y-58665761D01*
X108035141Y-58849300D02*
X108364859Y-58849300D01*
X109330300Y-58665761D02*
X109330300Y-57534239D01*
%TO.C,C11*%
D11*
X115490000Y-67859420D02*
X115490000Y-68140580D01*
X116510000Y-67859420D02*
X116510000Y-68140580D01*
%TO.C,R5*%
X106977500Y-65237258D02*
X106977500Y-64762742D01*
X108022500Y-65237258D02*
X108022500Y-64762742D01*
%TO.C,C31*%
X109090580Y-62190000D02*
X108809420Y-62190000D01*
X109090580Y-63210000D02*
X108809420Y-63210000D01*
%TO.C,C42*%
X106534420Y-69740000D02*
X106815580Y-69740000D01*
X106534420Y-70760000D02*
X106815580Y-70760000D01*
%TO.C,C54*%
X144940000Y-67909420D02*
X144940000Y-68190580D01*
X145960000Y-67909420D02*
X145960000Y-68190580D01*
%TO.C,C82*%
X141140580Y-62240000D02*
X140859420Y-62240000D01*
X141140580Y-63260000D02*
X140859420Y-63260000D01*
%TO.C,R7*%
X113977500Y-65262258D02*
X113977500Y-64787742D01*
X115022500Y-65262258D02*
X115022500Y-64787742D01*
%TO.C,C7*%
X103990000Y-67859420D02*
X103990000Y-68140580D01*
X105010000Y-67859420D02*
X105010000Y-68140580D01*
%TO.C,C4*%
X103990000Y-65140580D02*
X103990000Y-64859420D01*
X105010000Y-65140580D02*
X105010000Y-64859420D01*
%TO.C,C81*%
X146440000Y-64961252D02*
X146440000Y-63538748D01*
X149160000Y-64961252D02*
X149160000Y-63538748D01*
%TO.C,C40*%
X113190580Y-62190000D02*
X112909420Y-62190000D01*
X113190580Y-63210000D02*
X112909420Y-63210000D01*
%TO.C,TP6*%
X139200000Y-60300000D02*
X140600000Y-60300000D01*
X139200000Y-61700000D02*
X139200000Y-60300000D01*
X140600000Y-60300000D02*
X140600000Y-61700000D01*
X140600000Y-61700000D02*
X139200000Y-61700000D01*
%TO.C,TP10*%
X145900000Y-94500000D02*
X147300000Y-94500000D01*
X145900000Y-95900000D02*
X145900000Y-94500000D01*
X147300000Y-94500000D02*
X147300000Y-95900000D01*
X147300000Y-95900000D02*
X145900000Y-95900000D01*
%TO.C,R17*%
X102477500Y-89912258D02*
X102477500Y-89437742D01*
X103522500Y-89912258D02*
X103522500Y-89437742D01*
%TO.C,C55*%
X146440000Y-67909420D02*
X146440000Y-68190580D01*
X147460000Y-67909420D02*
X147460000Y-68190580D01*
%TO.C,C74*%
X128740000Y-64961252D02*
X128740000Y-63538748D01*
X131460000Y-64961252D02*
X131460000Y-63538748D01*
%TO.C,C14*%
X119990000Y-67859420D02*
X119990000Y-68140580D01*
X121010000Y-67859420D02*
X121010000Y-68140580D01*
%TO.C,C41*%
X105490000Y-65140580D02*
X105490000Y-64859420D01*
X106510000Y-65140580D02*
X106510000Y-64859420D01*
%TO.C,C10*%
X113990000Y-67859420D02*
X113990000Y-68140580D01*
X115010000Y-67859420D02*
X115010000Y-68140580D01*
%TO.C,C6*%
X102490000Y-67859420D02*
X102490000Y-68140580D01*
X103510000Y-67859420D02*
X103510000Y-68140580D01*
%TO.C,TP3*%
X111300000Y-60250000D02*
X112700000Y-60250000D01*
X111300000Y-61650000D02*
X111300000Y-60250000D01*
X112700000Y-60250000D02*
X112700000Y-61650000D01*
X112700000Y-61650000D02*
X111300000Y-61650000D01*
%TO.C,R8*%
X118012742Y-69727500D02*
X118487258Y-69727500D01*
X118012742Y-70772500D02*
X118487258Y-70772500D01*
%TO.C,C48*%
X130440000Y-67909420D02*
X130440000Y-68190580D01*
X131460000Y-67909420D02*
X131460000Y-68190580D01*
%TO.C,C89*%
X135630000Y-71230000D02*
X144370000Y-71230000D01*
X135630000Y-97970000D02*
X135630000Y-71230000D01*
X144370000Y-71230000D02*
X144370000Y-97970000D01*
X144370000Y-97970000D02*
X135630000Y-97970000D01*
%TO.C,R15*%
X141927500Y-65287258D02*
X141927500Y-64812742D01*
X142972500Y-65287258D02*
X142972500Y-64812742D01*
%TO.C,C73*%
X137040580Y-62240000D02*
X136759420Y-62240000D01*
X137040580Y-63260000D02*
X136759420Y-63260000D01*
%TO.C,TP8*%
X126300000Y-69500000D02*
X127700000Y-69500000D01*
X126300000Y-70900000D02*
X126300000Y-69500000D01*
X127700000Y-69500000D02*
X127700000Y-70900000D01*
X127700000Y-70900000D02*
X126300000Y-70900000D01*
%TO.C,C32*%
X100790000Y-64911252D02*
X100790000Y-63488748D01*
X103510000Y-64911252D02*
X103510000Y-63488748D01*
%TO.C,C39*%
X118490000Y-64911252D02*
X118490000Y-63488748D01*
X121210000Y-64911252D02*
X121210000Y-63488748D01*
%TO.C,L1*%
D13*
X118000000Y-73250000D02*
X118000000Y-88750000D01*
X127000000Y-73250000D02*
X123000000Y-73250000D01*
X127000000Y-88750000D02*
X123000000Y-88750000D01*
X132000000Y-73250000D02*
X132000000Y-88750000D01*
D10*
X132600000Y-76300000D02*
X132600000Y-76300000D01*
X132600000Y-76500000D02*
X132600000Y-76500000D01*
X132600000Y-76300000D02*
G75*
G02*
X132600000Y-76500000I0J-100000D01*
G01*
X132600000Y-76500000D02*
G75*
G02*
X132600000Y-76300000I0J100000D01*
G01*
%TO.C,C3*%
D11*
X101640000Y-57288748D02*
X101640000Y-58711252D01*
X104360000Y-57288748D02*
X104360000Y-58711252D01*
%TO.C,J3*%
X108305000Y-51020000D02*
X108305000Y-53780000D01*
X110955000Y-51020000D02*
X108305000Y-51020000D01*
X110955000Y-51020000D02*
X110955000Y-53780000D01*
X110955000Y-53780000D02*
X108305000Y-53780000D01*
X112225000Y-51020000D02*
X113605000Y-51020000D01*
X113605000Y-51020000D02*
X113605000Y-52400000D01*
%TO.C,R6*%
X103462742Y-69727500D02*
X103937258Y-69727500D01*
X103462742Y-70772500D02*
X103937258Y-70772500D01*
%TO.C,C44*%
X115490000Y-65165580D02*
X115490000Y-64884420D01*
X116510000Y-65165580D02*
X116510000Y-64884420D01*
%TO.C,C47*%
X128940000Y-67909420D02*
X128940000Y-68190580D01*
X129960000Y-67909420D02*
X129960000Y-68190580D01*
%TO.C,J6*%
X114880000Y-91047500D02*
X135120000Y-91047500D01*
X114880000Y-93167500D02*
X135120000Y-93167500D01*
X114880000Y-97167500D02*
X135120000Y-97167500D01*
X114880000Y-99287500D02*
X114880000Y-91047500D01*
X117200000Y-99287500D02*
X114880000Y-99287500D01*
X135120000Y-91047500D02*
X135120000Y-99287500D01*
X135120000Y-99287500D02*
X117800000Y-99287500D01*
X117500000Y-99287500D02*
X117940000Y-99897500D01*
X117060000Y-99897500D01*
X117500000Y-99287500D01*
G36*
X117940000Y-99897500D02*
G01*
X117060000Y-99897500D01*
X117500000Y-99287500D01*
X117940000Y-99897500D01*
G37*
%TO.C,C72*%
X143140000Y-58240580D02*
X143140000Y-57959420D01*
X144160000Y-58240580D02*
X144160000Y-57959420D01*
%TO.C,R18*%
X146477500Y-89912258D02*
X146477500Y-89437742D01*
X147522500Y-89912258D02*
X147522500Y-89437742D01*
%TO.C,R14*%
X146437258Y-69777500D02*
X145962742Y-69777500D01*
X146437258Y-70822500D02*
X145962742Y-70822500D01*
%TO.C,C87*%
X134840580Y-69790000D02*
X134559420Y-69790000D01*
X134840580Y-70810000D02*
X134559420Y-70810000D01*
%TO.C,C15*%
X116990000Y-65165580D02*
X116990000Y-64884420D01*
X118010000Y-65165580D02*
X118010000Y-64884420D01*
%TO.C,C91*%
X146490000Y-92815580D02*
X146490000Y-92534420D01*
X147510000Y-92815580D02*
X147510000Y-92534420D01*
%TO.C,C9*%
X106990000Y-67859420D02*
X106990000Y-68140580D01*
X108010000Y-67859420D02*
X108010000Y-68140580D01*
%TO.C,C56*%
X147940000Y-67909420D02*
X147940000Y-68190580D01*
X148960000Y-67909420D02*
X148960000Y-68190580D01*
%TO.C,R16*%
X131937258Y-69777500D02*
X131462742Y-69777500D01*
X131937258Y-70822500D02*
X131462742Y-70822500D01*
%TO.C,C84*%
X143340580Y-69790000D02*
X143059420Y-69790000D01*
X143340580Y-70810000D02*
X143059420Y-70810000D01*
%TO.C,C43*%
X109690000Y-58240580D02*
X109690000Y-57959420D01*
X110710000Y-58240580D02*
X110710000Y-57959420D01*
%TO.C,C13*%
X118490000Y-67859420D02*
X118490000Y-68140580D01*
X119510000Y-67859420D02*
X119510000Y-68140580D01*
%TO.C,U6*%
D12*
X135019700Y-57534239D02*
X135019700Y-58665761D01*
X135985141Y-58849300D02*
X136314859Y-58849300D01*
X137280300Y-58665761D02*
X137280300Y-57534239D01*
%TO.C,C50*%
D11*
X133440000Y-67909420D02*
X133440000Y-68190580D01*
X134460000Y-67909420D02*
X134460000Y-68190580D01*
%TO.C,TP9*%
X102800000Y-94500000D02*
X104200000Y-94500000D01*
X102800000Y-95900000D02*
X102800000Y-94500000D01*
X104200000Y-94500000D02*
X104200000Y-95900000D01*
X104200000Y-95900000D02*
X102800000Y-95900000D01*
%TO.C,C5*%
X100990000Y-67859420D02*
X100990000Y-68140580D01*
X102010000Y-67859420D02*
X102010000Y-68140580D01*
%TO.C,U5*%
D12*
X136323000Y-63673000D02*
X136323000Y-64073000D01*
X136323000Y-70027000D02*
X136323000Y-70427000D01*
X136323000Y-70427000D02*
X136723000Y-70427000D01*
X136723000Y-63673000D02*
X136323000Y-63673000D01*
X141177000Y-70427000D02*
X141577000Y-70427000D01*
X141577000Y-63673000D02*
X141177000Y-63673000D01*
X141577000Y-64073000D02*
X141577000Y-63673000D01*
X141577000Y-70427000D02*
X141577000Y-70027000D01*
%TO.C,TP1*%
D11*
X103900000Y-54100000D02*
X105300000Y-54100000D01*
X103900000Y-55500000D02*
X103900000Y-54100000D01*
X105300000Y-54100000D02*
X105300000Y-55500000D01*
X105300000Y-55500000D02*
X103900000Y-55500000D01*
%TO.C,C88*%
X105530000Y-71230000D02*
X114270000Y-71230000D01*
X105530000Y-97970000D02*
X105530000Y-71230000D01*
X114270000Y-71230000D02*
X114270000Y-97970000D01*
X114270000Y-97970000D02*
X105530000Y-97970000D01*
%TO.C,U2*%
D12*
X108373000Y-63623000D02*
X108373000Y-64023000D01*
X108373000Y-69977000D02*
X108373000Y-70377000D01*
X108373000Y-70377000D02*
X108773000Y-70377000D01*
X108773000Y-63623000D02*
X108373000Y-63623000D01*
X113227000Y-70377000D02*
X113627000Y-70377000D01*
X113627000Y-63623000D02*
X113227000Y-63623000D01*
X113627000Y-64023000D02*
X113627000Y-63623000D01*
X113627000Y-70377000D02*
X113627000Y-69977000D01*
%TO.C,C46*%
D11*
X131940000Y-65190580D02*
X131940000Y-64909420D01*
X132960000Y-65190580D02*
X132960000Y-64909420D01*
%TO.C,J1*%
X121380000Y-50397500D02*
X128620000Y-50397500D01*
X121380000Y-55517500D02*
X128620000Y-55517500D01*
X121380000Y-57137500D02*
X121380000Y-50397500D01*
X122950000Y-57137500D02*
X121380000Y-57137500D01*
X128620000Y-50397500D02*
X128620000Y-57137500D01*
X128620000Y-57137500D02*
X123550000Y-57137500D01*
X123250000Y-57137500D02*
X123690000Y-57747500D01*
X122810000Y-57747500D01*
X123250000Y-57137500D01*
G36*
X123690000Y-57747500D02*
G01*
X122810000Y-57747500D01*
X123250000Y-57137500D01*
X123690000Y-57747500D01*
G37*
%TO.C,C8*%
X105490000Y-67859420D02*
X105490000Y-68140580D01*
X106510000Y-67859420D02*
X106510000Y-68140580D01*
%TO.C,C45*%
X115109420Y-69740000D02*
X115390580Y-69740000D01*
X115109420Y-70760000D02*
X115390580Y-70760000D01*
%TO.C,C86*%
X143440000Y-65190580D02*
X143440000Y-64909420D01*
X144460000Y-65190580D02*
X144460000Y-64909420D01*
%TO.C,TP7*%
X137200000Y-60300000D02*
X138600000Y-60300000D01*
X137200000Y-61700000D02*
X137200000Y-60300000D01*
X138600000Y-60300000D02*
X138600000Y-61700000D01*
X138600000Y-61700000D02*
X137200000Y-61700000D01*
%TO.C,C52*%
X141940000Y-67909420D02*
X141940000Y-68190580D01*
X142960000Y-67909420D02*
X142960000Y-68190580D01*
%TO.C,C30*%
X115190000Y-58240580D02*
X115190000Y-57959420D01*
X116210000Y-58240580D02*
X116210000Y-57959420D01*
%TO.C,U4*%
D12*
X140519700Y-57534239D02*
X140519700Y-58665761D01*
X141485141Y-58849300D02*
X141814859Y-58849300D01*
X142780300Y-58665761D02*
X142780300Y-57534239D01*
%TO.C,C32*%
D11*
X106961252Y-85240000D02*
X105538748Y-85240000D01*
X106961252Y-87960000D02*
X105538748Y-87960000D01*
%TO.C,J7*%
X145120000Y-96620000D02*
X146500000Y-96620000D01*
X145120000Y-98000000D02*
X145120000Y-96620000D01*
X145120000Y-99270000D02*
X145120000Y-99380000D01*
X145120000Y-99270000D02*
X147880000Y-99270000D01*
X145120000Y-99380000D02*
X147880000Y-99380000D01*
X147880000Y-99270000D02*
X147880000Y-99380000D01*
%TO.C,J4*%
X136225000Y-51020000D02*
X136225000Y-53780000D01*
X138875000Y-51020000D02*
X136225000Y-51020000D01*
X138875000Y-51020000D02*
X138875000Y-53780000D01*
X138875000Y-53780000D02*
X136225000Y-53780000D01*
X140145000Y-51020000D02*
X141525000Y-51020000D01*
X141525000Y-51020000D02*
X141525000Y-52400000D01*
%TO.C,TP4*%
X109300000Y-60250000D02*
X110700000Y-60250000D01*
X109300000Y-61650000D02*
X109300000Y-60250000D01*
X110700000Y-60250000D02*
X110700000Y-61650000D01*
X110700000Y-61650000D02*
X109300000Y-61650000D01*
%TO.C,C12*%
X116990000Y-67859420D02*
X116990000Y-68140580D01*
X118010000Y-67859420D02*
X118010000Y-68140580D01*
%TO.C,J5*%
X102120000Y-96620000D02*
X103500000Y-96620000D01*
X102120000Y-98000000D02*
X102120000Y-96620000D01*
X102120000Y-99270000D02*
X102120000Y-99380000D01*
X102120000Y-99270000D02*
X104880000Y-99270000D01*
X102120000Y-99380000D02*
X104880000Y-99380000D01*
X104880000Y-99270000D02*
X104880000Y-99380000D01*
%TO.C,TP5*%
X122300000Y-69500000D02*
X123700000Y-69500000D01*
X122300000Y-70900000D02*
X122300000Y-69500000D01*
X123700000Y-69500000D02*
X123700000Y-70900000D01*
X123700000Y-70900000D02*
X122300000Y-70900000D01*
%TD*%
M02*
