%TF.GenerationSoftware,KiCad,Pcbnew,10.0.2*%
%TF.CreationDate,2026-05-28T01:34:02+02:00*%
%TF.ProjectId,Power Stage,506f7765-7220-4537-9461-67652e6b6963,rev?*%
%TF.SameCoordinates,Original*%
%TF.FileFunction,Copper,L2,Inr*%
%TF.FilePolarity,Positive*%
%FSLAX46Y46*%
G04 Gerber Fmt 4.6, Leading zero omitted, Abs format (unit mm)*
G04 Created by KiCad (PCBNEW 10.0.2) date 2026-05-28 01:34:02*
%MOMM*%
%LPD*%
G01*
G04 APERTURE LIST*
%TA.AperFunction,ComponentPad*%
%ADD10C,1.700000*%
%TD*%
%TA.AperFunction,ComponentPad*%
%ADD11C,2.400000*%
%TD*%
%TA.AperFunction,ComponentPad*%
%ADD12C,2.500000*%
%TD*%
%TA.AperFunction,ComponentPad*%
%ADD13C,2.300000*%
%TD*%
%TA.AperFunction,ComponentPad*%
%ADD14R,1.700000X1.700000*%
%TD*%
%TA.AperFunction,ViaPad*%
%ADD15C,0.600000*%
%TD*%
%TA.AperFunction,ViaPad*%
%ADD16C,0.400000*%
%TD*%
G04 APERTURE END LIST*
D10*
%TO.N,GND*%
%TO.C,J2*%
X102085000Y-52400000D03*
%TD*%
D11*
%TO.N,GND*%
%TO.C,C89*%
X140000000Y-73350000D03*
%TD*%
D10*
%TO.N,GND*%
%TO.C,J3*%
X109685000Y-52400000D03*
%TD*%
D12*
%TO.N,GND*%
%TO.C,J6*%
X122500000Y-95167500D03*
X127500000Y-95167500D03*
%TD*%
D11*
%TO.N,GND*%
%TO.C,C88*%
X109900000Y-73350000D03*
%TD*%
D13*
%TO.N,GND*%
%TO.C,J1*%
X126750000Y-53317500D03*
%TD*%
D14*
%TO.N,Net-(J6-Pin_4)*%
%TO.C,J7*%
X146500000Y-98000000D03*
%TD*%
D10*
%TO.N,GND*%
%TO.C,J4*%
X137605000Y-52400000D03*
%TD*%
D14*
%TO.N,Net-(J5-Pin_1)*%
%TO.C,J5*%
X103500000Y-98000000D03*
%TD*%
D15*
%TO.N,GND*%
X102000000Y-87000000D03*
D16*
X130650000Y-68825000D03*
D15*
X149000000Y-64000000D03*
D16*
X141250000Y-68250000D03*
X142650000Y-68825000D03*
X113300000Y-68800000D03*
X119200000Y-68775000D03*
X119075000Y-70250000D03*
X132450000Y-64275000D03*
X110950000Y-68800000D03*
D15*
X120000000Y-51000000D03*
D16*
X148650000Y-68825000D03*
D15*
X138150000Y-57325000D03*
X138000000Y-51000000D03*
X145125000Y-86600000D03*
X141000000Y-55000000D03*
X144000000Y-78000000D03*
X116400000Y-89400000D03*
X117400000Y-53500000D03*
X118500000Y-55000000D03*
X148000000Y-88000000D03*
D16*
X143650000Y-57325000D03*
X110200000Y-68800000D03*
D15*
X147000000Y-64000000D03*
X136000000Y-53000000D03*
D16*
X111700000Y-68200000D03*
D15*
X131500000Y-55000000D03*
X106000000Y-84000000D03*
X135000000Y-55000000D03*
D16*
X147000000Y-88850000D03*
D15*
X144000000Y-84000000D03*
X131000000Y-64000000D03*
X120000000Y-59000000D03*
D16*
X108700000Y-68775000D03*
X141000001Y-57058600D03*
X133650000Y-68825000D03*
D15*
X119000000Y-64000000D03*
X106000000Y-72000000D03*
D16*
X104500000Y-64225000D03*
X129150000Y-68825000D03*
X133950000Y-64275000D03*
D15*
X106000000Y-91000000D03*
D16*
X115700000Y-57325000D03*
D15*
X102000000Y-58000000D03*
D16*
X140400000Y-68250000D03*
X139650000Y-68250000D03*
D15*
X148000000Y-57000000D03*
X136825000Y-64175000D03*
D16*
X136650000Y-68825000D03*
X102700000Y-68775000D03*
X145450000Y-64275000D03*
D15*
X139000000Y-55000000D03*
X101100000Y-55000000D03*
X130000000Y-59000000D03*
X113725000Y-59775000D03*
X141675000Y-59850000D03*
D16*
X109450000Y-68200000D03*
X138900000Y-68250000D03*
D15*
X133000000Y-57000000D03*
D16*
X137400000Y-68850000D03*
X103000000Y-59450000D03*
X130875000Y-70300000D03*
X144150000Y-68825000D03*
X107200000Y-68775000D03*
D15*
X115500000Y-55000000D03*
X148500000Y-55000000D03*
D16*
X114700000Y-68775000D03*
X110950000Y-68200000D03*
D15*
X106000000Y-51000000D03*
D16*
X101200000Y-68775000D03*
X145650000Y-68825000D03*
X108875000Y-64125000D03*
X102150000Y-59450000D03*
X103000000Y-88850000D03*
D15*
X111000000Y-55000000D03*
X105625000Y-59800000D03*
X146300000Y-52500000D03*
X108500000Y-55000000D03*
D16*
X103850000Y-59450000D03*
D15*
X115000000Y-51000000D03*
D16*
X136650000Y-68250000D03*
X117500000Y-64250000D03*
X109450000Y-68800000D03*
D15*
X146000000Y-59000000D03*
X113000000Y-55000000D03*
X139500000Y-59500000D03*
X148000000Y-81000000D03*
X146500000Y-55000000D03*
D16*
X108700000Y-68200000D03*
D15*
X129000000Y-64000000D03*
D16*
X135500001Y-57058600D03*
X138900000Y-68850000D03*
X113700000Y-57058600D03*
D15*
X104775000Y-86600000D03*
X115000000Y-87000000D03*
D16*
X105700000Y-68775000D03*
D15*
X148000000Y-51000000D03*
D16*
X110200000Y-68200000D03*
D15*
X133500000Y-89400000D03*
D16*
X104200000Y-68775000D03*
D15*
X101500000Y-98000000D03*
X111500000Y-59500000D03*
X118000000Y-87000000D03*
D16*
X147150000Y-68825000D03*
X110200000Y-57325000D03*
X139650000Y-68850000D03*
X111700000Y-68800000D03*
X117700000Y-68775000D03*
D15*
X132000000Y-87000000D03*
X133025000Y-53025000D03*
D16*
X120700000Y-68775000D03*
D15*
X102000000Y-81000000D03*
X130450000Y-55087500D03*
X101000000Y-64000000D03*
X125000000Y-69000000D03*
D16*
X143950000Y-64275000D03*
X138150000Y-68250000D03*
D15*
X103000000Y-64000000D03*
X104100000Y-55000000D03*
D16*
X116200000Y-68775000D03*
D15*
X136500000Y-55000000D03*
X117000000Y-57000000D03*
D16*
X140400000Y-68850000D03*
X141650000Y-57058600D03*
X112450000Y-68800000D03*
D15*
X135000000Y-87000000D03*
X119500000Y-55000000D03*
D16*
X112450000Y-68200000D03*
D15*
X148000000Y-75000000D03*
D16*
X138150000Y-68850000D03*
D15*
X106000000Y-78000000D03*
X144000000Y-92000000D03*
X102000000Y-75000000D03*
X110000000Y-51000000D03*
X133000000Y-51000000D03*
D16*
X113300000Y-68200000D03*
D15*
X144000000Y-72000000D03*
D16*
X141250000Y-68850000D03*
D15*
X148500000Y-98000000D03*
D16*
X113050001Y-57058600D03*
D15*
X121000000Y-64000000D03*
X143000000Y-51000000D03*
X106500000Y-55000000D03*
D16*
X116000000Y-64250000D03*
D15*
X133675000Y-59825000D03*
D16*
X137400000Y-68250000D03*
X107550001Y-57058600D03*
X135150000Y-68825000D03*
X106000000Y-64225000D03*
D15*
X102000000Y-51000000D03*
D16*
X132150000Y-68825000D03*
D15*
X143000000Y-55000000D03*
%TD*%
%TA.AperFunction,Conductor*%
%TO.N,GND*%
G36*
X148005312Y-50500880D02*
G01*
X148030112Y-50502653D01*
X148202774Y-50515002D01*
X148223803Y-50518025D01*
X148412044Y-50558974D01*
X148432440Y-50564963D01*
X148612933Y-50632283D01*
X148632271Y-50641115D01*
X148801343Y-50733436D01*
X148819207Y-50744915D01*
X148973439Y-50860371D01*
X148989499Y-50874288D01*
X149125711Y-51010500D01*
X149139629Y-51026561D01*
X149255082Y-51180789D01*
X149266568Y-51198663D01*
X149358884Y-51367728D01*
X149367716Y-51387066D01*
X149435036Y-51567559D01*
X149441025Y-51587957D01*
X149481972Y-51776188D01*
X149484997Y-51797230D01*
X149499120Y-51994686D01*
X149499500Y-52005316D01*
X149499500Y-97994683D01*
X149499120Y-98005313D01*
X149484997Y-98202769D01*
X149481972Y-98223811D01*
X149441025Y-98412042D01*
X149435036Y-98432440D01*
X149367716Y-98612933D01*
X149358884Y-98632271D01*
X149266568Y-98801336D01*
X149255075Y-98819221D01*
X149139633Y-98973433D01*
X149125711Y-98989499D01*
X148989499Y-99125711D01*
X148973433Y-99139633D01*
X148819216Y-99255077D01*
X148801336Y-99266568D01*
X148632271Y-99358884D01*
X148612933Y-99367716D01*
X148432440Y-99435036D01*
X148412042Y-99441025D01*
X148223811Y-99481972D01*
X148202769Y-99484997D01*
X148005313Y-99499120D01*
X147994683Y-99499500D01*
X102005317Y-99499500D01*
X101994687Y-99499120D01*
X101797230Y-99484997D01*
X101776188Y-99481972D01*
X101587957Y-99441025D01*
X101567559Y-99435036D01*
X101387066Y-99367716D01*
X101367728Y-99358884D01*
X101251547Y-99295444D01*
X101198659Y-99266565D01*
X101180789Y-99255082D01*
X101026561Y-99139629D01*
X101010500Y-99125711D01*
X100874288Y-98989499D01*
X100860371Y-98973439D01*
X100744915Y-98819207D01*
X100733436Y-98801343D01*
X100641115Y-98632271D01*
X100632283Y-98612933D01*
X100564963Y-98432440D01*
X100558974Y-98412042D01*
X100518025Y-98223803D01*
X100515002Y-98202774D01*
X100500880Y-98005312D01*
X100500500Y-97994683D01*
X100500500Y-97130251D01*
X102449500Y-97130251D01*
X102449500Y-98869748D01*
X102461132Y-98928230D01*
X102461133Y-98928231D01*
X102505448Y-98994552D01*
X102571769Y-99038867D01*
X102630252Y-99050500D01*
X104369748Y-99050500D01*
X104428231Y-99038867D01*
X104494552Y-98994552D01*
X104538867Y-98928231D01*
X104550500Y-98869748D01*
X104550500Y-97130252D01*
X104550500Y-97130251D01*
X145449500Y-97130251D01*
X145449500Y-98869748D01*
X145461132Y-98928230D01*
X145461133Y-98928231D01*
X145505448Y-98994552D01*
X145571769Y-99038867D01*
X145630252Y-99050500D01*
X147369748Y-99050500D01*
X147428231Y-99038867D01*
X147494552Y-98994552D01*
X147538867Y-98928231D01*
X147550500Y-98869748D01*
X147550500Y-97130252D01*
X147538867Y-97071769D01*
X147494552Y-97005448D01*
X147428231Y-96961133D01*
X147428230Y-96961132D01*
X147369748Y-96949500D01*
X145630252Y-96949500D01*
X145571769Y-96961132D01*
X145505448Y-97005448D01*
X145461132Y-97071769D01*
X145449500Y-97130251D01*
X104550500Y-97130251D01*
X104538867Y-97071769D01*
X104494552Y-97005448D01*
X104428231Y-96961133D01*
X104428230Y-96961132D01*
X104369748Y-96949500D01*
X102630252Y-96949500D01*
X102571769Y-96961132D01*
X102505448Y-97005448D01*
X102461132Y-97071769D01*
X102449500Y-97130251D01*
X100500500Y-97130251D01*
X100500500Y-95766232D01*
X109049500Y-95766232D01*
X109049500Y-95933767D01*
X109082183Y-96098079D01*
X109146294Y-96252858D01*
X109146301Y-96252870D01*
X109239371Y-96392158D01*
X109239374Y-96392162D01*
X109357838Y-96510626D01*
X109357841Y-96510628D01*
X109497129Y-96603698D01*
X109497133Y-96603700D01*
X109497137Y-96603703D01*
X109497138Y-96603703D01*
X109497141Y-96603705D01*
X109542472Y-96622481D01*
X109651918Y-96667816D01*
X109816233Y-96700500D01*
X109983767Y-96700500D01*
X110148082Y-96667816D01*
X110302863Y-96603703D01*
X110442162Y-96510626D01*
X110560626Y-96392162D01*
X110653703Y-96252863D01*
X110717816Y-96098082D01*
X110750500Y-95933767D01*
X110750500Y-95766233D01*
X110717816Y-95601918D01*
X110653703Y-95447137D01*
X110642363Y-95430166D01*
X110560628Y-95307841D01*
X110560626Y-95307838D01*
X110442162Y-95189374D01*
X110442160Y-95189372D01*
X110302870Y-95096301D01*
X110302858Y-95096294D01*
X110260643Y-95078808D01*
X116599500Y-95078808D01*
X116599500Y-95256191D01*
X116634105Y-95430163D01*
X116634106Y-95430167D01*
X116701986Y-95594046D01*
X116701987Y-95594048D01*
X116800533Y-95741531D01*
X116800536Y-95741535D01*
X116925965Y-95866964D01*
X116925968Y-95866966D01*
X117073451Y-95965512D01*
X117073453Y-95965513D01*
X117237334Y-96033394D01*
X117411309Y-96068000D01*
X117588691Y-96068000D01*
X117762666Y-96033394D01*
X117926547Y-95965513D01*
X118074035Y-95866964D01*
X118199464Y-95741535D01*
X118298013Y-95594047D01*
X118365894Y-95430166D01*
X118400500Y-95256191D01*
X118400500Y-95078809D01*
X118400500Y-95078808D01*
X131599500Y-95078808D01*
X131599500Y-95256191D01*
X131634105Y-95430163D01*
X131634106Y-95430167D01*
X131701986Y-95594046D01*
X131701987Y-95594048D01*
X131800533Y-95741531D01*
X131800536Y-95741535D01*
X131925965Y-95866964D01*
X131925968Y-95866966D01*
X132073451Y-95965512D01*
X132073453Y-95965513D01*
X132237334Y-96033394D01*
X132411309Y-96068000D01*
X132588691Y-96068000D01*
X132762666Y-96033394D01*
X132926547Y-95965513D01*
X133074035Y-95866964D01*
X133174767Y-95766232D01*
X139149500Y-95766232D01*
X139149500Y-95933767D01*
X139182183Y-96098079D01*
X139246294Y-96252858D01*
X139246301Y-96252870D01*
X139339371Y-96392158D01*
X139339374Y-96392162D01*
X139457838Y-96510626D01*
X139457841Y-96510628D01*
X139597129Y-96603698D01*
X139597133Y-96603700D01*
X139597137Y-96603703D01*
X139597138Y-96603703D01*
X139597141Y-96603705D01*
X139642472Y-96622481D01*
X139751918Y-96667816D01*
X139916233Y-96700500D01*
X140083767Y-96700500D01*
X140248082Y-96667816D01*
X140402863Y-96603703D01*
X140542162Y-96510626D01*
X140660626Y-96392162D01*
X140753703Y-96252863D01*
X140817816Y-96098082D01*
X140850500Y-95933767D01*
X140850500Y-95766233D01*
X140817816Y-95601918D01*
X140753703Y-95447137D01*
X140742363Y-95430166D01*
X140660628Y-95307841D01*
X140660626Y-95307838D01*
X140542162Y-95189374D01*
X140542158Y-95189371D01*
X140402870Y-95096301D01*
X140402858Y-95096294D01*
X140280136Y-95045461D01*
X140248082Y-95032184D01*
X140248080Y-95032183D01*
X140248079Y-95032183D01*
X140083767Y-94999500D01*
X139916233Y-94999500D01*
X139751920Y-95032183D01*
X139597141Y-95096294D01*
X139597129Y-95096301D01*
X139457841Y-95189371D01*
X139457834Y-95189377D01*
X139339377Y-95307834D01*
X139339371Y-95307841D01*
X139246301Y-95447129D01*
X139246294Y-95447141D01*
X139182183Y-95601920D01*
X139149500Y-95766232D01*
X133174767Y-95766232D01*
X133199464Y-95741535D01*
X133276482Y-95626269D01*
X133298012Y-95594049D01*
X133298013Y-95594046D01*
X133365894Y-95430166D01*
X133400500Y-95256191D01*
X133400500Y-95078809D01*
X133365894Y-94904834D01*
X133298013Y-94740953D01*
X133199464Y-94593465D01*
X133074035Y-94468036D01*
X133074031Y-94468033D01*
X132926548Y-94369487D01*
X132926546Y-94369486D01*
X132762667Y-94301606D01*
X132762663Y-94301605D01*
X132588691Y-94267000D01*
X132411309Y-94267000D01*
X132237336Y-94301605D01*
X132237332Y-94301606D01*
X132073453Y-94369486D01*
X132073451Y-94369487D01*
X131925968Y-94468033D01*
X131925963Y-94468037D01*
X131800537Y-94593463D01*
X131800533Y-94593468D01*
X131701987Y-94740951D01*
X131701986Y-94740953D01*
X131634106Y-94904832D01*
X131634105Y-94904836D01*
X131599500Y-95078808D01*
X118400500Y-95078808D01*
X118365894Y-94904834D01*
X118298013Y-94740953D01*
X118199464Y-94593465D01*
X118074035Y-94468036D01*
X118074031Y-94468033D01*
X117926548Y-94369487D01*
X117926546Y-94369486D01*
X117762667Y-94301606D01*
X117762663Y-94301605D01*
X117588691Y-94267000D01*
X117411309Y-94267000D01*
X117237336Y-94301605D01*
X117237332Y-94301606D01*
X117073453Y-94369486D01*
X117073451Y-94369487D01*
X116925968Y-94468033D01*
X116925963Y-94468037D01*
X116800537Y-94593463D01*
X116800533Y-94593468D01*
X116701987Y-94740951D01*
X116701986Y-94740953D01*
X116634106Y-94904832D01*
X116634105Y-94904836D01*
X116599500Y-95078808D01*
X110260643Y-95078808D01*
X110180136Y-95045461D01*
X110148082Y-95032184D01*
X110148080Y-95032183D01*
X110148079Y-95032183D01*
X109983767Y-94999500D01*
X109816233Y-94999500D01*
X109651920Y-95032183D01*
X109497141Y-95096294D01*
X109497129Y-95096301D01*
X109357841Y-95189371D01*
X109357834Y-95189377D01*
X109239377Y-95307834D01*
X109239371Y-95307841D01*
X109146301Y-95447129D01*
X109146294Y-95447141D01*
X109082183Y-95601920D01*
X109049500Y-95766232D01*
X100500500Y-95766232D01*
X100500500Y-70197271D01*
X102474500Y-70197271D01*
X102474500Y-70197273D01*
X102474500Y-70302727D01*
X102501793Y-70404587D01*
X102501794Y-70404588D01*
X102554518Y-70495911D01*
X102629088Y-70570481D01*
X102659529Y-70588055D01*
X102720413Y-70623207D01*
X102822273Y-70650500D01*
X102927727Y-70650500D01*
X103029587Y-70623207D01*
X103120913Y-70570480D01*
X103195480Y-70495913D01*
X103248207Y-70404587D01*
X103275500Y-70302727D01*
X103275500Y-70247271D01*
X146624500Y-70247271D01*
X146624500Y-70247273D01*
X146624500Y-70352727D01*
X146651793Y-70454587D01*
X146651794Y-70454588D01*
X146704518Y-70545911D01*
X146779088Y-70620481D01*
X146783810Y-70623207D01*
X146870413Y-70673207D01*
X146972273Y-70700500D01*
X147077727Y-70700500D01*
X147179587Y-70673207D01*
X147270913Y-70620480D01*
X147345480Y-70545913D01*
X147398207Y-70454587D01*
X147425500Y-70352727D01*
X147425500Y-70247273D01*
X147398207Y-70145413D01*
X147345480Y-70054087D01*
X147270913Y-69979520D01*
X147270911Y-69979518D01*
X147184310Y-69929520D01*
X147179587Y-69926793D01*
X147077727Y-69899500D01*
X146972273Y-69899500D01*
X146870413Y-69926793D01*
X146870411Y-69926793D01*
X146870411Y-69926794D01*
X146779088Y-69979518D01*
X146704518Y-70054088D01*
X146651794Y-70145411D01*
X146624500Y-70247271D01*
X103275500Y-70247271D01*
X103275500Y-70197273D01*
X103248207Y-70095413D01*
X103195480Y-70004087D01*
X103120913Y-69929520D01*
X103120911Y-69929518D01*
X103060029Y-69894368D01*
X103029587Y-69876793D01*
X102927727Y-69849500D01*
X102822273Y-69849500D01*
X102720413Y-69876793D01*
X102720411Y-69876793D01*
X102720411Y-69876794D01*
X102629088Y-69929518D01*
X102554518Y-70004088D01*
X102501794Y-70095411D01*
X102474500Y-70197271D01*
X100500500Y-70197271D01*
X100500500Y-67172271D01*
X100799500Y-67172271D01*
X100799500Y-67277728D01*
X100805467Y-67299998D01*
X100826793Y-67379587D01*
X100844359Y-67410013D01*
X100879518Y-67470911D01*
X100954088Y-67545481D01*
X100966644Y-67552730D01*
X101045413Y-67598207D01*
X101147273Y-67625500D01*
X101252727Y-67625500D01*
X101354587Y-67598207D01*
X101445913Y-67545480D01*
X101520480Y-67470913D01*
X101573207Y-67379587D01*
X101600500Y-67277727D01*
X101600500Y-67172273D01*
X101600499Y-67172271D01*
X102299500Y-67172271D01*
X102299500Y-67277728D01*
X102305467Y-67299998D01*
X102326793Y-67379587D01*
X102344359Y-67410013D01*
X102379518Y-67470911D01*
X102454088Y-67545481D01*
X102466644Y-67552730D01*
X102545413Y-67598207D01*
X102647273Y-67625500D01*
X102752727Y-67625500D01*
X102854587Y-67598207D01*
X102945913Y-67545480D01*
X103020480Y-67470913D01*
X103073207Y-67379587D01*
X103100500Y-67277727D01*
X103100500Y-67172273D01*
X103100499Y-67172271D01*
X103799500Y-67172271D01*
X103799500Y-67277728D01*
X103805467Y-67299998D01*
X103826793Y-67379587D01*
X103844359Y-67410013D01*
X103879518Y-67470911D01*
X103954088Y-67545481D01*
X103966644Y-67552730D01*
X104045413Y-67598207D01*
X104147273Y-67625500D01*
X104252727Y-67625500D01*
X104354587Y-67598207D01*
X104445913Y-67545480D01*
X104520480Y-67470913D01*
X104573207Y-67379587D01*
X104600500Y-67277727D01*
X104600500Y-67172273D01*
X104600499Y-67172271D01*
X105299500Y-67172271D01*
X105299500Y-67277728D01*
X105305467Y-67299998D01*
X105326793Y-67379587D01*
X105344359Y-67410013D01*
X105379518Y-67470911D01*
X105454088Y-67545481D01*
X105466644Y-67552730D01*
X105545413Y-67598207D01*
X105647273Y-67625500D01*
X105752727Y-67625500D01*
X105854587Y-67598207D01*
X105945913Y-67545480D01*
X106020480Y-67470913D01*
X106073207Y-67379587D01*
X106100500Y-67277727D01*
X106100500Y-67172273D01*
X106100499Y-67172271D01*
X106799500Y-67172271D01*
X106799500Y-67277728D01*
X106805467Y-67299998D01*
X106826793Y-67379587D01*
X106844359Y-67410013D01*
X106879518Y-67470911D01*
X106954088Y-67545481D01*
X106966644Y-67552730D01*
X107045413Y-67598207D01*
X107147273Y-67625500D01*
X107252727Y-67625500D01*
X107354587Y-67598207D01*
X107445913Y-67545480D01*
X107520480Y-67470913D01*
X107573207Y-67379587D01*
X107600500Y-67277727D01*
X107600500Y-67172273D01*
X107600499Y-67172271D01*
X108299500Y-67172271D01*
X108299500Y-67277728D01*
X108305467Y-67299998D01*
X108326793Y-67379587D01*
X108344359Y-67410013D01*
X108379518Y-67470911D01*
X108454088Y-67545481D01*
X108466644Y-67552730D01*
X108545413Y-67598207D01*
X108647273Y-67625500D01*
X108752727Y-67625500D01*
X108854587Y-67598207D01*
X108864907Y-67592248D01*
X108939405Y-67572287D01*
X109013906Y-67592249D01*
X109068444Y-67646787D01*
X109125674Y-67745914D01*
X109200244Y-67820484D01*
X109230685Y-67838058D01*
X109291569Y-67873210D01*
X109393429Y-67900503D01*
X109498883Y-67900503D01*
X109600743Y-67873210D01*
X109692069Y-67820483D01*
X109766636Y-67745916D01*
X109819363Y-67654590D01*
X109819364Y-67654588D01*
X109824246Y-67646132D01*
X109826868Y-67647646D01*
X109863731Y-67599574D01*
X109934978Y-67570035D01*
X110011450Y-67580077D01*
X110028974Y-67588716D01*
X110045413Y-67598207D01*
X110147273Y-67625500D01*
X110252727Y-67625500D01*
X110354587Y-67598207D01*
X110364907Y-67592248D01*
X110439405Y-67572287D01*
X110513906Y-67592249D01*
X110568444Y-67646787D01*
X110625674Y-67745914D01*
X110700244Y-67820484D01*
X110730685Y-67838058D01*
X110791569Y-67873210D01*
X110893429Y-67900503D01*
X110998883Y-67900503D01*
X111100743Y-67873210D01*
X111192069Y-67820483D01*
X111266636Y-67745916D01*
X111319363Y-67654590D01*
X111319364Y-67654588D01*
X111324246Y-67646132D01*
X111326868Y-67647646D01*
X111363731Y-67599574D01*
X111434978Y-67570035D01*
X111511450Y-67580077D01*
X111528974Y-67588716D01*
X111545413Y-67598207D01*
X111647273Y-67625500D01*
X111752727Y-67625500D01*
X111854587Y-67598207D01*
X111864905Y-67592249D01*
X111939404Y-67572286D01*
X112013904Y-67592247D01*
X112068443Y-67646783D01*
X112068445Y-67646786D01*
X112125674Y-67745911D01*
X112200244Y-67820481D01*
X112230685Y-67838055D01*
X112291569Y-67873207D01*
X112393429Y-67900500D01*
X112498883Y-67900500D01*
X112600743Y-67873207D01*
X112692069Y-67820480D01*
X112766636Y-67745913D01*
X112819363Y-67654587D01*
X112819363Y-67654586D01*
X112824246Y-67646129D01*
X112826867Y-67647642D01*
X112863738Y-67599568D01*
X112934988Y-67570034D01*
X113011459Y-67580081D01*
X113028973Y-67588716D01*
X113045410Y-67598205D01*
X113045413Y-67598207D01*
X113147273Y-67625500D01*
X113252727Y-67625500D01*
X113354587Y-67598207D01*
X113445913Y-67545480D01*
X113520480Y-67470913D01*
X113573207Y-67379587D01*
X113600500Y-67277727D01*
X113600500Y-67172273D01*
X113600499Y-67172271D01*
X114299500Y-67172271D01*
X114299500Y-67277728D01*
X114305467Y-67299998D01*
X114326793Y-67379587D01*
X114344359Y-67410013D01*
X114379518Y-67470911D01*
X114454088Y-67545481D01*
X114466644Y-67552730D01*
X114545413Y-67598207D01*
X114647273Y-67625500D01*
X114752727Y-67625500D01*
X114854587Y-67598207D01*
X114945913Y-67545480D01*
X115020480Y-67470913D01*
X115073207Y-67379587D01*
X115100500Y-67277727D01*
X115100500Y-67172273D01*
X115100499Y-67172271D01*
X115799500Y-67172271D01*
X115799500Y-67277728D01*
X115805467Y-67299998D01*
X115826793Y-67379587D01*
X115844359Y-67410013D01*
X115879518Y-67470911D01*
X115954088Y-67545481D01*
X115966644Y-67552730D01*
X116045413Y-67598207D01*
X116147273Y-67625500D01*
X116252727Y-67625500D01*
X116354587Y-67598207D01*
X116445913Y-67545480D01*
X116520480Y-67470913D01*
X116573207Y-67379587D01*
X116600500Y-67277727D01*
X116600500Y-67172273D01*
X116600499Y-67172271D01*
X117299500Y-67172271D01*
X117299500Y-67277728D01*
X117305467Y-67299998D01*
X117326793Y-67379587D01*
X117344359Y-67410013D01*
X117379518Y-67470911D01*
X117454088Y-67545481D01*
X117466644Y-67552730D01*
X117545413Y-67598207D01*
X117647273Y-67625500D01*
X117752727Y-67625500D01*
X117854587Y-67598207D01*
X117945913Y-67545480D01*
X118020480Y-67470913D01*
X118073207Y-67379587D01*
X118100500Y-67277727D01*
X118100500Y-67172273D01*
X118100499Y-67172271D01*
X118799500Y-67172271D01*
X118799500Y-67277728D01*
X118805467Y-67299998D01*
X118826793Y-67379587D01*
X118844359Y-67410013D01*
X118879518Y-67470911D01*
X118954088Y-67545481D01*
X118966644Y-67552730D01*
X119045413Y-67598207D01*
X119147273Y-67625500D01*
X119252727Y-67625500D01*
X119354587Y-67598207D01*
X119445913Y-67545480D01*
X119520480Y-67470913D01*
X119573207Y-67379587D01*
X119600500Y-67277727D01*
X119600500Y-67172273D01*
X119600499Y-67172271D01*
X120299500Y-67172271D01*
X120299500Y-67277728D01*
X120305467Y-67299998D01*
X120326793Y-67379587D01*
X120344359Y-67410013D01*
X120379518Y-67470911D01*
X120454088Y-67545481D01*
X120466644Y-67552730D01*
X120545413Y-67598207D01*
X120647273Y-67625500D01*
X120752727Y-67625500D01*
X120854587Y-67598207D01*
X120945913Y-67545480D01*
X121020480Y-67470913D01*
X121034130Y-67447271D01*
X122599500Y-67447271D01*
X122599500Y-67447273D01*
X122599500Y-67552727D01*
X122626793Y-67654587D01*
X122626794Y-67654588D01*
X122679518Y-67745911D01*
X122754088Y-67820481D01*
X122784529Y-67838055D01*
X122845413Y-67873207D01*
X122947273Y-67900500D01*
X123052727Y-67900500D01*
X123154587Y-67873207D01*
X123245913Y-67820480D01*
X123320480Y-67745913D01*
X123373207Y-67654587D01*
X123400500Y-67552727D01*
X123400500Y-67447273D01*
X123400499Y-67447271D01*
X124599500Y-67447271D01*
X124599500Y-67447273D01*
X124599500Y-67552727D01*
X124626793Y-67654587D01*
X124626794Y-67654588D01*
X124679518Y-67745911D01*
X124754088Y-67820481D01*
X124784529Y-67838055D01*
X124845413Y-67873207D01*
X124947273Y-67900500D01*
X125052727Y-67900500D01*
X125154587Y-67873207D01*
X125245913Y-67820480D01*
X125320480Y-67745913D01*
X125373207Y-67654587D01*
X125400500Y-67552727D01*
X125400500Y-67447273D01*
X125400499Y-67447271D01*
X126599500Y-67447271D01*
X126599500Y-67447273D01*
X126599500Y-67552727D01*
X126626793Y-67654587D01*
X126626794Y-67654588D01*
X126679518Y-67745911D01*
X126754088Y-67820481D01*
X126784529Y-67838055D01*
X126845413Y-67873207D01*
X126947273Y-67900500D01*
X127052727Y-67900500D01*
X127154587Y-67873207D01*
X127245913Y-67820480D01*
X127320480Y-67745913D01*
X127373207Y-67654587D01*
X127400500Y-67552727D01*
X127400500Y-67447273D01*
X127373207Y-67345413D01*
X127320480Y-67254087D01*
X127288664Y-67222271D01*
X128749500Y-67222271D01*
X128749500Y-67222273D01*
X128749500Y-67327727D01*
X128776793Y-67429587D01*
X128776794Y-67429588D01*
X128829518Y-67520911D01*
X128904088Y-67595481D01*
X128934529Y-67613055D01*
X128995413Y-67648207D01*
X129097273Y-67675500D01*
X129202727Y-67675500D01*
X129304587Y-67648207D01*
X129395913Y-67595480D01*
X129470480Y-67520913D01*
X129523207Y-67429587D01*
X129550500Y-67327727D01*
X129550500Y-67222273D01*
X129550499Y-67222271D01*
X130249500Y-67222271D01*
X130249500Y-67222273D01*
X130249500Y-67327727D01*
X130276793Y-67429587D01*
X130276794Y-67429588D01*
X130329518Y-67520911D01*
X130404088Y-67595481D01*
X130434529Y-67613055D01*
X130495413Y-67648207D01*
X130597273Y-67675500D01*
X130702727Y-67675500D01*
X130804587Y-67648207D01*
X130895913Y-67595480D01*
X130970480Y-67520913D01*
X131023207Y-67429587D01*
X131050500Y-67327727D01*
X131050500Y-67222273D01*
X131050499Y-67222271D01*
X131749500Y-67222271D01*
X131749500Y-67222273D01*
X131749500Y-67327727D01*
X131776793Y-67429587D01*
X131776794Y-67429588D01*
X131829518Y-67520911D01*
X131904088Y-67595481D01*
X131934529Y-67613055D01*
X131995413Y-67648207D01*
X132097273Y-67675500D01*
X132202727Y-67675500D01*
X132304587Y-67648207D01*
X132395913Y-67595480D01*
X132470480Y-67520913D01*
X132523207Y-67429587D01*
X132550500Y-67327727D01*
X132550500Y-67222273D01*
X132550499Y-67222271D01*
X133249500Y-67222271D01*
X133249500Y-67222273D01*
X133249500Y-67327727D01*
X133276793Y-67429587D01*
X133276794Y-67429588D01*
X133329518Y-67520911D01*
X133404088Y-67595481D01*
X133434529Y-67613055D01*
X133495413Y-67648207D01*
X133597273Y-67675500D01*
X133702727Y-67675500D01*
X133804587Y-67648207D01*
X133895913Y-67595480D01*
X133970480Y-67520913D01*
X134023207Y-67429587D01*
X134050500Y-67327727D01*
X134050500Y-67222273D01*
X134050499Y-67222271D01*
X134749500Y-67222271D01*
X134749500Y-67222273D01*
X134749500Y-67327727D01*
X134776793Y-67429587D01*
X134776794Y-67429588D01*
X134829518Y-67520911D01*
X134904088Y-67595481D01*
X134934529Y-67613055D01*
X134995413Y-67648207D01*
X135097273Y-67675500D01*
X135202727Y-67675500D01*
X135304587Y-67648207D01*
X135395913Y-67595480D01*
X135470480Y-67520913D01*
X135523207Y-67429587D01*
X135550500Y-67327727D01*
X135550500Y-67222273D01*
X135550499Y-67222271D01*
X136249500Y-67222271D01*
X136249500Y-67222273D01*
X136249500Y-67327727D01*
X136276793Y-67429587D01*
X136276794Y-67429588D01*
X136329518Y-67520911D01*
X136404088Y-67595481D01*
X136434529Y-67613055D01*
X136495413Y-67648207D01*
X136597273Y-67675500D01*
X136702727Y-67675500D01*
X136804587Y-67648207D01*
X136804590Y-67648205D01*
X136804591Y-67648205D01*
X136813612Y-67644469D01*
X136814152Y-67645773D01*
X136878667Y-67628484D01*
X136953168Y-67648444D01*
X137007707Y-67702980D01*
X137022594Y-67738917D01*
X137026792Y-67754586D01*
X137079518Y-67845911D01*
X137154088Y-67920481D01*
X137184529Y-67938055D01*
X137245413Y-67973207D01*
X137347273Y-68000500D01*
X137452727Y-68000500D01*
X137554587Y-67973207D01*
X137645913Y-67920480D01*
X137720480Y-67845913D01*
X137773207Y-67754587D01*
X137777406Y-67738917D01*
X137815966Y-67672127D01*
X137882760Y-67633562D01*
X137959888Y-67633560D01*
X137986364Y-67644526D01*
X137986388Y-67644469D01*
X137995408Y-67648205D01*
X137995410Y-67648205D01*
X137995413Y-67648207D01*
X138097273Y-67675500D01*
X138202727Y-67675500D01*
X138304587Y-67648207D01*
X138304590Y-67648205D01*
X138304591Y-67648205D01*
X138313612Y-67644469D01*
X138314152Y-67645773D01*
X138378667Y-67628484D01*
X138453168Y-67648444D01*
X138507707Y-67702980D01*
X138522594Y-67738917D01*
X138526792Y-67754586D01*
X138579518Y-67845911D01*
X138654088Y-67920481D01*
X138684529Y-67938055D01*
X138745413Y-67973207D01*
X138847273Y-68000500D01*
X138952727Y-68000500D01*
X139054587Y-67973207D01*
X139145913Y-67920480D01*
X139220480Y-67845913D01*
X139273207Y-67754587D01*
X139277406Y-67738917D01*
X139315966Y-67672127D01*
X139382760Y-67633562D01*
X139459888Y-67633560D01*
X139486364Y-67644526D01*
X139486388Y-67644469D01*
X139495408Y-67648205D01*
X139495410Y-67648205D01*
X139495413Y-67648207D01*
X139597273Y-67675500D01*
X139702727Y-67675500D01*
X139804587Y-67648207D01*
X139804590Y-67648205D01*
X139804591Y-67648205D01*
X139813612Y-67644469D01*
X139814152Y-67645773D01*
X139878667Y-67628484D01*
X139953168Y-67648444D01*
X140007707Y-67702980D01*
X140022594Y-67738917D01*
X140026792Y-67754586D01*
X140079518Y-67845911D01*
X140154088Y-67920481D01*
X140184529Y-67938055D01*
X140245413Y-67973207D01*
X140347273Y-68000500D01*
X140452727Y-68000500D01*
X140554587Y-67973207D01*
X140645913Y-67920480D01*
X140720480Y-67845913D01*
X140773207Y-67754587D01*
X140777406Y-67738917D01*
X140815966Y-67672127D01*
X140882760Y-67633562D01*
X140959888Y-67633560D01*
X140986364Y-67644526D01*
X140986388Y-67644469D01*
X140995408Y-67648205D01*
X140995410Y-67648205D01*
X140995413Y-67648207D01*
X141097273Y-67675500D01*
X141202727Y-67675500D01*
X141304587Y-67648207D01*
X141395913Y-67595480D01*
X141470480Y-67520913D01*
X141523207Y-67429587D01*
X141550500Y-67327727D01*
X141550500Y-67222273D01*
X141550499Y-67222271D01*
X142249500Y-67222271D01*
X142249500Y-67222273D01*
X142249500Y-67327727D01*
X142276793Y-67429587D01*
X142276794Y-67429588D01*
X142329518Y-67520911D01*
X142404088Y-67595481D01*
X142434529Y-67613055D01*
X142495413Y-67648207D01*
X142597273Y-67675500D01*
X142702727Y-67675500D01*
X142804587Y-67648207D01*
X142895913Y-67595480D01*
X142970480Y-67520913D01*
X143023207Y-67429587D01*
X143050500Y-67327727D01*
X143050500Y-67222273D01*
X143050499Y-67222271D01*
X143749500Y-67222271D01*
X143749500Y-67222273D01*
X143749500Y-67327727D01*
X143776793Y-67429587D01*
X143776794Y-67429588D01*
X143829518Y-67520911D01*
X143904088Y-67595481D01*
X143934529Y-67613055D01*
X143995413Y-67648207D01*
X144097273Y-67675500D01*
X144202727Y-67675500D01*
X144304587Y-67648207D01*
X144395913Y-67595480D01*
X144470480Y-67520913D01*
X144523207Y-67429587D01*
X144550500Y-67327727D01*
X144550500Y-67222273D01*
X144550499Y-67222271D01*
X145249500Y-67222271D01*
X145249500Y-67222273D01*
X145249500Y-67327727D01*
X145276793Y-67429587D01*
X145276794Y-67429588D01*
X145329518Y-67520911D01*
X145404088Y-67595481D01*
X145434529Y-67613055D01*
X145495413Y-67648207D01*
X145597273Y-67675500D01*
X145702727Y-67675500D01*
X145804587Y-67648207D01*
X145895913Y-67595480D01*
X145970480Y-67520913D01*
X146023207Y-67429587D01*
X146050500Y-67327727D01*
X146050500Y-67222273D01*
X146050499Y-67222271D01*
X146749500Y-67222271D01*
X146749500Y-67222273D01*
X146749500Y-67327727D01*
X146776793Y-67429587D01*
X146776794Y-67429588D01*
X146829518Y-67520911D01*
X146904088Y-67595481D01*
X146934529Y-67613055D01*
X146995413Y-67648207D01*
X147097273Y-67675500D01*
X147202727Y-67675500D01*
X147304587Y-67648207D01*
X147395913Y-67595480D01*
X147470480Y-67520913D01*
X147523207Y-67429587D01*
X147550500Y-67327727D01*
X147550500Y-67222273D01*
X147550499Y-67222271D01*
X148249500Y-67222271D01*
X148249500Y-67222273D01*
X148249500Y-67327727D01*
X148276793Y-67429587D01*
X148276794Y-67429588D01*
X148329518Y-67520911D01*
X148404088Y-67595481D01*
X148434529Y-67613055D01*
X148495413Y-67648207D01*
X148597273Y-67675500D01*
X148702727Y-67675500D01*
X148804587Y-67648207D01*
X148895913Y-67595480D01*
X148970480Y-67520913D01*
X149023207Y-67429587D01*
X149050500Y-67327727D01*
X149050500Y-67222273D01*
X149023207Y-67120413D01*
X148970480Y-67029087D01*
X148895913Y-66954520D01*
X148895911Y-66954518D01*
X148809310Y-66904520D01*
X148804587Y-66901793D01*
X148702727Y-66874500D01*
X148597273Y-66874500D01*
X148495413Y-66901793D01*
X148495411Y-66901793D01*
X148495411Y-66901794D01*
X148404088Y-66954518D01*
X148329518Y-67029088D01*
X148305660Y-67070413D01*
X148276793Y-67120413D01*
X148264126Y-67167685D01*
X148249500Y-67222271D01*
X147550499Y-67222271D01*
X147523207Y-67120413D01*
X147470480Y-67029087D01*
X147395913Y-66954520D01*
X147395911Y-66954518D01*
X147309310Y-66904520D01*
X147304587Y-66901793D01*
X147202727Y-66874500D01*
X147097273Y-66874500D01*
X146995413Y-66901793D01*
X146995411Y-66901793D01*
X146995411Y-66901794D01*
X146904088Y-66954518D01*
X146829518Y-67029088D01*
X146805660Y-67070413D01*
X146776793Y-67120413D01*
X146764126Y-67167685D01*
X146749500Y-67222271D01*
X146050499Y-67222271D01*
X146023207Y-67120413D01*
X145970480Y-67029087D01*
X145895913Y-66954520D01*
X145895911Y-66954518D01*
X145809310Y-66904520D01*
X145804587Y-66901793D01*
X145702727Y-66874500D01*
X145597273Y-66874500D01*
X145495413Y-66901793D01*
X145495411Y-66901793D01*
X145495411Y-66901794D01*
X145404088Y-66954518D01*
X145329518Y-67029088D01*
X145305660Y-67070413D01*
X145276793Y-67120413D01*
X145264126Y-67167685D01*
X145249500Y-67222271D01*
X144550499Y-67222271D01*
X144523207Y-67120413D01*
X144470480Y-67029087D01*
X144395913Y-66954520D01*
X144395911Y-66954518D01*
X144309310Y-66904520D01*
X144304587Y-66901793D01*
X144202727Y-66874500D01*
X144097273Y-66874500D01*
X143995413Y-66901793D01*
X143995411Y-66901793D01*
X143995411Y-66901794D01*
X143904088Y-66954518D01*
X143829518Y-67029088D01*
X143805660Y-67070413D01*
X143776793Y-67120413D01*
X143764126Y-67167685D01*
X143749500Y-67222271D01*
X143050499Y-67222271D01*
X143023207Y-67120413D01*
X142970480Y-67029087D01*
X142895913Y-66954520D01*
X142895911Y-66954518D01*
X142809310Y-66904520D01*
X142804587Y-66901793D01*
X142702727Y-66874500D01*
X142597273Y-66874500D01*
X142495413Y-66901793D01*
X142495411Y-66901793D01*
X142495411Y-66901794D01*
X142404088Y-66954518D01*
X142329518Y-67029088D01*
X142305660Y-67070413D01*
X142276793Y-67120413D01*
X142264126Y-67167685D01*
X142249500Y-67222271D01*
X141550499Y-67222271D01*
X141523207Y-67120413D01*
X141470480Y-67029087D01*
X141395913Y-66954520D01*
X141389182Y-66947789D01*
X141350618Y-66880994D01*
X141350618Y-66803866D01*
X141365504Y-66767929D01*
X141370246Y-66759715D01*
X141373207Y-66754587D01*
X141400500Y-66652727D01*
X141400500Y-66547273D01*
X141373207Y-66445413D01*
X141338055Y-66384529D01*
X141320481Y-66354088D01*
X141245911Y-66279518D01*
X141185029Y-66244368D01*
X141154587Y-66226793D01*
X141052727Y-66199500D01*
X140947273Y-66199500D01*
X140845413Y-66226793D01*
X140845411Y-66226793D01*
X140845411Y-66226794D01*
X140754088Y-66279518D01*
X140679518Y-66354088D01*
X140626794Y-66445410D01*
X140626793Y-66445412D01*
X140626793Y-66445413D01*
X140617650Y-66479538D01*
X140614801Y-66490169D01*
X140603111Y-66510415D01*
X140595906Y-66532653D01*
X140584150Y-66543254D01*
X140576236Y-66556963D01*
X140555990Y-66568651D01*
X140538630Y-66584308D01*
X140524719Y-66586704D01*
X140509440Y-66595526D01*
X140463201Y-66600405D01*
X140454412Y-66599951D01*
X140452727Y-66599500D01*
X140445661Y-66599500D01*
X140441823Y-66599302D01*
X140408667Y-66588559D01*
X140375000Y-66579538D01*
X140372207Y-66576745D01*
X140368450Y-66575528D01*
X140345108Y-66549646D01*
X140320462Y-66525000D01*
X140319439Y-66521184D01*
X140316795Y-66518252D01*
X140309521Y-66484168D01*
X140300500Y-66450500D01*
X140300500Y-66347273D01*
X140300499Y-66347271D01*
X140273207Y-66245413D01*
X140231518Y-66173205D01*
X140220481Y-66154088D01*
X140215903Y-66149510D01*
X140177339Y-66082715D01*
X140177339Y-66005587D01*
X140215903Y-65938792D01*
X140220480Y-65934215D01*
X140273207Y-65842889D01*
X140292129Y-65772271D01*
X145049500Y-65772271D01*
X145049500Y-65877728D01*
X145055602Y-65900499D01*
X145076793Y-65979587D01*
X145087579Y-65998269D01*
X145129518Y-66070911D01*
X145204088Y-66145481D01*
X145219949Y-66154638D01*
X145295413Y-66198207D01*
X145397273Y-66225500D01*
X145502727Y-66225500D01*
X145604587Y-66198207D01*
X145695913Y-66145480D01*
X145770480Y-66070913D01*
X145823207Y-65979587D01*
X145850500Y-65877727D01*
X145850500Y-65772273D01*
X145850499Y-65772269D01*
X145831422Y-65701071D01*
X145831422Y-65701069D01*
X145823705Y-65672271D01*
X146499500Y-65672271D01*
X146499500Y-65672273D01*
X146499500Y-65777727D01*
X146526793Y-65879587D01*
X146526794Y-65879588D01*
X146579518Y-65970911D01*
X146654088Y-66045481D01*
X146677882Y-66059218D01*
X146745413Y-66098207D01*
X146847273Y-66125500D01*
X146952727Y-66125500D01*
X147054587Y-66098207D01*
X147145913Y-66045480D01*
X147220480Y-65970913D01*
X147273207Y-65879587D01*
X147300500Y-65777727D01*
X147300500Y-65672273D01*
X147300499Y-65672271D01*
X148099500Y-65672271D01*
X148099500Y-65672273D01*
X148099500Y-65777727D01*
X148126793Y-65879587D01*
X148126794Y-65879588D01*
X148179518Y-65970911D01*
X148254088Y-66045481D01*
X148277882Y-66059218D01*
X148345413Y-66098207D01*
X148447273Y-66125500D01*
X148552727Y-66125500D01*
X148654587Y-66098207D01*
X148745913Y-66045480D01*
X148820480Y-65970913D01*
X148873207Y-65879587D01*
X148900500Y-65777727D01*
X148900500Y-65672273D01*
X148873207Y-65570413D01*
X148820480Y-65479087D01*
X148745913Y-65404520D01*
X148745911Y-65404518D01*
X148664141Y-65357309D01*
X148654587Y-65351793D01*
X148552727Y-65324500D01*
X148447273Y-65324500D01*
X148345413Y-65351793D01*
X148345411Y-65351793D01*
X148345411Y-65351794D01*
X148254088Y-65404518D01*
X148179518Y-65479088D01*
X148126794Y-65570411D01*
X148099500Y-65672271D01*
X147300499Y-65672271D01*
X147273207Y-65570413D01*
X147220480Y-65479087D01*
X147145913Y-65404520D01*
X147145911Y-65404518D01*
X147064141Y-65357309D01*
X147054587Y-65351793D01*
X146952727Y-65324500D01*
X146847273Y-65324500D01*
X146745413Y-65351793D01*
X146745411Y-65351793D01*
X146745411Y-65351794D01*
X146654088Y-65404518D01*
X146579518Y-65479088D01*
X146526794Y-65570411D01*
X146499500Y-65672271D01*
X145823705Y-65672271D01*
X145823207Y-65670414D01*
X145823207Y-65670413D01*
X145770480Y-65579087D01*
X145695913Y-65504520D01*
X145695911Y-65504518D01*
X145609310Y-65454520D01*
X145604587Y-65451793D01*
X145502727Y-65424500D01*
X145397273Y-65424500D01*
X145295413Y-65451793D01*
X145295411Y-65451793D01*
X145295411Y-65451794D01*
X145204088Y-65504518D01*
X145129518Y-65579088D01*
X145076794Y-65670411D01*
X145076793Y-65670413D01*
X145076295Y-65672273D01*
X145049500Y-65772271D01*
X140292129Y-65772271D01*
X140300500Y-65741029D01*
X140300500Y-65635575D01*
X140273207Y-65533715D01*
X140230195Y-65459216D01*
X140220482Y-65442392D01*
X140214704Y-65434863D01*
X140185185Y-65363607D01*
X140195248Y-65287138D01*
X140214704Y-65253439D01*
X140220475Y-65245917D01*
X140220480Y-65245913D01*
X140273207Y-65154587D01*
X140300500Y-65052727D01*
X140300500Y-64947273D01*
X140273207Y-64845413D01*
X140238055Y-64784529D01*
X140220481Y-64754088D01*
X140145911Y-64679518D01*
X140085029Y-64644368D01*
X140054587Y-64626793D01*
X139952727Y-64599500D01*
X139847273Y-64599500D01*
X139745413Y-64626793D01*
X139745411Y-64626793D01*
X139745411Y-64626794D01*
X139654088Y-64679518D01*
X139579518Y-64754088D01*
X139529038Y-64841524D01*
X139474500Y-64896062D01*
X139400000Y-64916024D01*
X139325500Y-64896062D01*
X139270962Y-64841524D01*
X139220481Y-64754088D01*
X139145911Y-64679518D01*
X139085029Y-64644368D01*
X139054587Y-64626793D01*
X138952727Y-64599500D01*
X138847273Y-64599500D01*
X138745413Y-64626793D01*
X138745411Y-64626793D01*
X138745411Y-64626794D01*
X138654088Y-64679518D01*
X138579518Y-64754088D01*
X138529038Y-64841524D01*
X138474500Y-64896062D01*
X138400000Y-64916024D01*
X138325500Y-64896062D01*
X138270962Y-64841524D01*
X138220481Y-64754088D01*
X138145911Y-64679518D01*
X138085029Y-64644368D01*
X138054587Y-64626793D01*
X137952727Y-64599500D01*
X137847273Y-64599500D01*
X137745413Y-64626793D01*
X137745411Y-64626793D01*
X137745411Y-64626794D01*
X137654088Y-64679518D01*
X137579518Y-64754088D01*
X137526794Y-64845411D01*
X137499500Y-64947271D01*
X137499500Y-64947273D01*
X137499500Y-65052727D01*
X137526793Y-65154587D01*
X137541187Y-65179518D01*
X137579518Y-65245911D01*
X137585464Y-65253659D01*
X137584071Y-65254727D01*
X137616812Y-65311436D01*
X137616812Y-65388564D01*
X137584071Y-65445272D01*
X137585464Y-65446341D01*
X137579518Y-65454088D01*
X137536218Y-65529088D01*
X137526793Y-65545413D01*
X137517770Y-65579087D01*
X137499500Y-65647271D01*
X137499500Y-65647273D01*
X137499500Y-65752727D01*
X137526793Y-65854587D01*
X137541227Y-65879587D01*
X137579518Y-65945911D01*
X137585464Y-65953659D01*
X137584071Y-65954727D01*
X137616812Y-66011436D01*
X137616812Y-66088564D01*
X137584071Y-66145272D01*
X137585464Y-66146341D01*
X137579518Y-66154088D01*
X137526794Y-66245411D01*
X137499500Y-66347271D01*
X137499500Y-66450497D01*
X137479538Y-66524997D01*
X137425000Y-66579535D01*
X137381783Y-66596176D01*
X137366318Y-66599497D01*
X137347273Y-66599497D01*
X137270406Y-66620093D01*
X137266728Y-66620883D01*
X137231830Y-66619127D01*
X137196880Y-66619127D01*
X137193543Y-66617200D01*
X137189698Y-66617007D01*
X137160353Y-66598037D01*
X137130085Y-66580562D01*
X137128159Y-66577226D01*
X137124925Y-66575136D01*
X137108996Y-66544035D01*
X137091522Y-66513768D01*
X137087699Y-66499500D01*
X137073207Y-66445413D01*
X137046843Y-66399750D01*
X137020481Y-66354088D01*
X136945911Y-66279518D01*
X136885029Y-66244368D01*
X136854587Y-66226793D01*
X136752727Y-66199500D01*
X136647273Y-66199500D01*
X136545413Y-66226793D01*
X136545411Y-66226793D01*
X136545411Y-66226794D01*
X136454088Y-66279518D01*
X136379518Y-66354088D01*
X136326795Y-66445410D01*
X136326793Y-66445413D01*
X136320269Y-66469761D01*
X136299500Y-66547271D01*
X136299500Y-66547273D01*
X136299500Y-66652727D01*
X136326793Y-66754587D01*
X136367157Y-66824500D01*
X136371099Y-66831327D01*
X136391061Y-66905827D01*
X136371099Y-66980327D01*
X136347422Y-67011184D01*
X136329518Y-67029088D01*
X136305660Y-67070413D01*
X136276793Y-67120413D01*
X136264126Y-67167685D01*
X136249500Y-67222271D01*
X135550499Y-67222271D01*
X135523207Y-67120413D01*
X135470480Y-67029087D01*
X135395913Y-66954520D01*
X135395911Y-66954518D01*
X135309310Y-66904520D01*
X135304587Y-66901793D01*
X135202727Y-66874500D01*
X135097273Y-66874500D01*
X134995413Y-66901793D01*
X134995411Y-66901793D01*
X134995411Y-66901794D01*
X134904088Y-66954518D01*
X134829518Y-67029088D01*
X134805660Y-67070413D01*
X134776793Y-67120413D01*
X134764126Y-67167685D01*
X134749500Y-67222271D01*
X134050499Y-67222271D01*
X134023207Y-67120413D01*
X133970480Y-67029087D01*
X133895913Y-66954520D01*
X133895911Y-66954518D01*
X133809310Y-66904520D01*
X133804587Y-66901793D01*
X133702727Y-66874500D01*
X133597273Y-66874500D01*
X133495413Y-66901793D01*
X133495411Y-66901793D01*
X133495411Y-66901794D01*
X133404088Y-66954518D01*
X133329518Y-67029088D01*
X133305660Y-67070413D01*
X133276793Y-67120413D01*
X133264126Y-67167685D01*
X133249500Y-67222271D01*
X132550499Y-67222271D01*
X132523207Y-67120413D01*
X132470480Y-67029087D01*
X132395913Y-66954520D01*
X132395911Y-66954518D01*
X132309310Y-66904520D01*
X132304587Y-66901793D01*
X132202727Y-66874500D01*
X132097273Y-66874500D01*
X131995413Y-66901793D01*
X131995411Y-66901793D01*
X131995411Y-66901794D01*
X131904088Y-66954518D01*
X131829518Y-67029088D01*
X131805660Y-67070413D01*
X131776793Y-67120413D01*
X131764126Y-67167685D01*
X131749500Y-67222271D01*
X131050499Y-67222271D01*
X131023207Y-67120413D01*
X130970480Y-67029087D01*
X130895913Y-66954520D01*
X130895911Y-66954518D01*
X130809310Y-66904520D01*
X130804587Y-66901793D01*
X130702727Y-66874500D01*
X130597273Y-66874500D01*
X130495413Y-66901793D01*
X130495411Y-66901793D01*
X130495411Y-66901794D01*
X130404088Y-66954518D01*
X130329518Y-67029088D01*
X130305660Y-67070413D01*
X130276793Y-67120413D01*
X130264126Y-67167685D01*
X130249500Y-67222271D01*
X129550499Y-67222271D01*
X129523207Y-67120413D01*
X129470480Y-67029087D01*
X129395913Y-66954520D01*
X129395911Y-66954518D01*
X129309310Y-66904520D01*
X129304587Y-66901793D01*
X129202727Y-66874500D01*
X129097273Y-66874500D01*
X128995413Y-66901793D01*
X128995411Y-66901793D01*
X128995411Y-66901794D01*
X128904088Y-66954518D01*
X128829518Y-67029088D01*
X128805660Y-67070413D01*
X128776793Y-67120413D01*
X128764126Y-67167685D01*
X128749500Y-67222271D01*
X127288664Y-67222271D01*
X127245913Y-67179520D01*
X127245911Y-67179518D01*
X127185029Y-67144368D01*
X127154587Y-67126793D01*
X127052727Y-67099500D01*
X126947273Y-67099500D01*
X126845413Y-67126793D01*
X126845411Y-67126793D01*
X126845411Y-67126794D01*
X126754088Y-67179518D01*
X126679518Y-67254088D01*
X126626794Y-67345411D01*
X126599500Y-67447271D01*
X125400499Y-67447271D01*
X125373207Y-67345413D01*
X125320480Y-67254087D01*
X125245913Y-67179520D01*
X125245911Y-67179518D01*
X125185029Y-67144368D01*
X125154587Y-67126793D01*
X125052727Y-67099500D01*
X124947273Y-67099500D01*
X124845413Y-67126793D01*
X124845411Y-67126793D01*
X124845411Y-67126794D01*
X124754088Y-67179518D01*
X124679518Y-67254088D01*
X124626794Y-67345411D01*
X124599500Y-67447271D01*
X123400499Y-67447271D01*
X123373207Y-67345413D01*
X123320480Y-67254087D01*
X123245913Y-67179520D01*
X123245911Y-67179518D01*
X123185029Y-67144368D01*
X123154587Y-67126793D01*
X123052727Y-67099500D01*
X122947273Y-67099500D01*
X122845413Y-67126793D01*
X122845411Y-67126793D01*
X122845411Y-67126794D01*
X122754088Y-67179518D01*
X122679518Y-67254088D01*
X122626794Y-67345411D01*
X122599500Y-67447271D01*
X121034130Y-67447271D01*
X121073207Y-67379587D01*
X121100500Y-67277727D01*
X121100500Y-67172273D01*
X121073207Y-67070413D01*
X121020480Y-66979087D01*
X120945913Y-66904520D01*
X120945911Y-66904518D01*
X120861747Y-66855927D01*
X120854587Y-66851793D01*
X120752727Y-66824500D01*
X120647273Y-66824500D01*
X120545413Y-66851793D01*
X120545411Y-66851793D01*
X120545411Y-66851794D01*
X120454088Y-66904518D01*
X120379518Y-66979088D01*
X120326794Y-67070411D01*
X120299500Y-67172271D01*
X119600499Y-67172271D01*
X119573207Y-67070413D01*
X119520480Y-66979087D01*
X119445913Y-66904520D01*
X119445911Y-66904518D01*
X119361747Y-66855927D01*
X119354587Y-66851793D01*
X119252727Y-66824500D01*
X119147273Y-66824500D01*
X119045413Y-66851793D01*
X119045411Y-66851793D01*
X119045411Y-66851794D01*
X118954088Y-66904518D01*
X118879518Y-66979088D01*
X118826794Y-67070411D01*
X118799500Y-67172271D01*
X118100499Y-67172271D01*
X118073207Y-67070413D01*
X118020480Y-66979087D01*
X117945913Y-66904520D01*
X117945911Y-66904518D01*
X117861747Y-66855927D01*
X117854587Y-66851793D01*
X117752727Y-66824500D01*
X117647273Y-66824500D01*
X117545413Y-66851793D01*
X117545411Y-66851793D01*
X117545411Y-66851794D01*
X117454088Y-66904518D01*
X117379518Y-66979088D01*
X117326794Y-67070411D01*
X117299500Y-67172271D01*
X116600499Y-67172271D01*
X116573207Y-67070413D01*
X116520480Y-66979087D01*
X116445913Y-66904520D01*
X116445911Y-66904518D01*
X116361747Y-66855927D01*
X116354587Y-66851793D01*
X116252727Y-66824500D01*
X116147273Y-66824500D01*
X116045413Y-66851793D01*
X116045411Y-66851793D01*
X116045411Y-66851794D01*
X115954088Y-66904518D01*
X115879518Y-66979088D01*
X115826794Y-67070411D01*
X115799500Y-67172271D01*
X115100499Y-67172271D01*
X115073207Y-67070413D01*
X115020480Y-66979087D01*
X114945913Y-66904520D01*
X114945911Y-66904518D01*
X114861747Y-66855927D01*
X114854587Y-66851793D01*
X114752727Y-66824500D01*
X114647273Y-66824500D01*
X114545413Y-66851793D01*
X114545411Y-66851793D01*
X114545411Y-66851794D01*
X114454088Y-66904518D01*
X114379518Y-66979088D01*
X114326794Y-67070411D01*
X114299500Y-67172271D01*
X113600499Y-67172271D01*
X113573207Y-67070413D01*
X113520480Y-66979087D01*
X113455125Y-66913732D01*
X113416561Y-66846937D01*
X113416561Y-66769809D01*
X113417018Y-66768460D01*
X113419359Y-66759720D01*
X113419363Y-66759715D01*
X113446656Y-66657855D01*
X113446656Y-66552401D01*
X113419363Y-66450541D01*
X113368156Y-66361847D01*
X113366637Y-66359216D01*
X113292067Y-66284646D01*
X113224108Y-66245411D01*
X113200743Y-66231921D01*
X113098883Y-66204628D01*
X112993429Y-66204628D01*
X112891569Y-66231921D01*
X112891567Y-66231921D01*
X112891567Y-66231922D01*
X112800244Y-66284646D01*
X112725676Y-66359214D01*
X112725674Y-66359217D01*
X112682315Y-66434318D01*
X112673736Y-66442896D01*
X112668767Y-66453962D01*
X112646871Y-66469761D01*
X112627777Y-66488856D01*
X112616058Y-66491995D01*
X112606222Y-66499094D01*
X112585673Y-66500137D01*
X112553277Y-66508818D01*
X112529491Y-66506907D01*
X112522014Y-66505697D01*
X112498883Y-66499500D01*
X112483687Y-66499500D01*
X112471870Y-66497589D01*
X112447239Y-66486526D01*
X112421156Y-66479538D01*
X112412577Y-66470959D01*
X112401512Y-66465990D01*
X112385712Y-66444094D01*
X112366618Y-66425000D01*
X112363478Y-66413281D01*
X112356380Y-66403445D01*
X112353644Y-66376582D01*
X112349696Y-66361847D01*
X112347930Y-66362080D01*
X112346656Y-66352406D01*
X112346656Y-66352401D01*
X112319363Y-66250541D01*
X112266636Y-66159215D01*
X112262059Y-66154638D01*
X112223495Y-66087843D01*
X112223495Y-66010715D01*
X112262059Y-65943920D01*
X112266636Y-65939343D01*
X112319363Y-65848017D01*
X112346358Y-65747271D01*
X117099500Y-65747271D01*
X117099500Y-65852728D01*
X117106198Y-65877726D01*
X117126793Y-65954587D01*
X117136218Y-65970911D01*
X117179518Y-66045911D01*
X117254088Y-66120481D01*
X117284529Y-66138055D01*
X117345413Y-66173207D01*
X117447273Y-66200500D01*
X117552727Y-66200500D01*
X117654587Y-66173207D01*
X117745913Y-66120480D01*
X117820480Y-66045913D01*
X117873207Y-65954587D01*
X117900500Y-65852727D01*
X117900500Y-65747273D01*
X117900499Y-65747269D01*
X117874723Y-65651071D01*
X117874723Y-65651070D01*
X117873207Y-65645413D01*
X117859846Y-65622271D01*
X118549500Y-65622271D01*
X118549500Y-65727728D01*
X118554736Y-65747269D01*
X118576793Y-65829587D01*
X118591227Y-65854587D01*
X118629518Y-65920911D01*
X118704088Y-65995481D01*
X118721593Y-66005587D01*
X118795413Y-66048207D01*
X118897273Y-66075500D01*
X119002727Y-66075500D01*
X119104587Y-66048207D01*
X119195913Y-65995480D01*
X119270480Y-65920913D01*
X119323207Y-65829587D01*
X119350500Y-65727727D01*
X119350500Y-65622273D01*
X119350499Y-65622271D01*
X119345526Y-65603710D01*
X120153590Y-65603710D01*
X120153590Y-65603712D01*
X120153590Y-65709166D01*
X120180883Y-65811026D01*
X120193210Y-65832377D01*
X120233608Y-65902350D01*
X120308178Y-65976920D01*
X120338619Y-65994494D01*
X120399503Y-66029646D01*
X120501363Y-66056939D01*
X120606817Y-66056939D01*
X120708677Y-66029646D01*
X120800003Y-65976919D01*
X120874570Y-65902352D01*
X120927297Y-65811026D01*
X120954590Y-65709166D01*
X120954590Y-65603712D01*
X120927297Y-65501852D01*
X120895785Y-65447271D01*
X122599500Y-65447271D01*
X122599500Y-65552728D01*
X122604238Y-65570411D01*
X122626793Y-65654587D01*
X122626794Y-65654588D01*
X122679518Y-65745911D01*
X122754088Y-65820481D01*
X122774693Y-65832377D01*
X122845413Y-65873207D01*
X122947273Y-65900500D01*
X123052727Y-65900500D01*
X123154587Y-65873207D01*
X123245913Y-65820480D01*
X123320480Y-65745913D01*
X123373207Y-65654587D01*
X123400500Y-65552727D01*
X123400500Y-65447273D01*
X123400499Y-65447271D01*
X124599500Y-65447271D01*
X124599500Y-65552728D01*
X124604238Y-65570411D01*
X124626793Y-65654587D01*
X124626794Y-65654588D01*
X124679518Y-65745911D01*
X124754088Y-65820481D01*
X124774693Y-65832377D01*
X124845413Y-65873207D01*
X124947273Y-65900500D01*
X125052727Y-65900500D01*
X125154587Y-65873207D01*
X125245913Y-65820480D01*
X125320480Y-65745913D01*
X125373207Y-65654587D01*
X125400500Y-65552727D01*
X125400500Y-65447273D01*
X125400499Y-65447271D01*
X126599500Y-65447271D01*
X126599500Y-65552728D01*
X126604238Y-65570411D01*
X126626793Y-65654587D01*
X126626794Y-65654588D01*
X126679518Y-65745911D01*
X126754088Y-65820481D01*
X126774693Y-65832377D01*
X126845413Y-65873207D01*
X126947273Y-65900500D01*
X127052727Y-65900500D01*
X127154587Y-65873207D01*
X127245913Y-65820480D01*
X127320480Y-65745913D01*
X127362997Y-65672271D01*
X128899500Y-65672271D01*
X128899500Y-65672273D01*
X128899500Y-65777727D01*
X128926793Y-65879587D01*
X128926794Y-65879588D01*
X128979518Y-65970911D01*
X129054088Y-66045481D01*
X129077882Y-66059218D01*
X129145413Y-66098207D01*
X129247273Y-66125500D01*
X129352727Y-66125500D01*
X129454587Y-66098207D01*
X129545913Y-66045480D01*
X129620480Y-65970913D01*
X129673207Y-65879587D01*
X129700500Y-65777727D01*
X129700500Y-65672273D01*
X129700499Y-65672271D01*
X130499500Y-65672271D01*
X130499500Y-65672273D01*
X130499500Y-65777727D01*
X130526793Y-65879587D01*
X130526794Y-65879588D01*
X130579518Y-65970911D01*
X130654088Y-66045481D01*
X130677882Y-66059218D01*
X130745413Y-66098207D01*
X130847273Y-66125500D01*
X130952727Y-66125500D01*
X131054587Y-66098207D01*
X131145913Y-66045480D01*
X131220480Y-65970913D01*
X131273207Y-65879587D01*
X131300500Y-65777727D01*
X131300500Y-65772271D01*
X132049500Y-65772271D01*
X132049500Y-65877728D01*
X132055602Y-65900499D01*
X132076793Y-65979587D01*
X132087579Y-65998269D01*
X132129518Y-66070911D01*
X132204088Y-66145481D01*
X132219949Y-66154638D01*
X132295413Y-66198207D01*
X132397273Y-66225500D01*
X132502727Y-66225500D01*
X132604587Y-66198207D01*
X132695913Y-66145480D01*
X132770480Y-66070913D01*
X132823207Y-65979587D01*
X132850500Y-65877727D01*
X132850500Y-65772273D01*
X132823207Y-65670413D01*
X132770480Y-65579087D01*
X132695913Y-65504520D01*
X132695911Y-65504518D01*
X132609310Y-65454520D01*
X132604587Y-65451793D01*
X132502727Y-65424500D01*
X132397273Y-65424500D01*
X132295413Y-65451793D01*
X132295411Y-65451793D01*
X132295411Y-65451794D01*
X132204088Y-65504518D01*
X132129518Y-65579088D01*
X132076794Y-65670411D01*
X132076793Y-65670413D01*
X132076295Y-65672273D01*
X132049500Y-65772271D01*
X131300500Y-65772271D01*
X131300500Y-65672273D01*
X131273207Y-65570413D01*
X131220480Y-65479087D01*
X131145913Y-65404520D01*
X131145911Y-65404518D01*
X131064141Y-65357309D01*
X131054587Y-65351793D01*
X130952727Y-65324500D01*
X130847273Y-65324500D01*
X130745413Y-65351793D01*
X130745411Y-65351793D01*
X130745411Y-65351794D01*
X130654088Y-65404518D01*
X130579518Y-65479088D01*
X130526794Y-65570411D01*
X130499500Y-65672271D01*
X129700499Y-65672271D01*
X129673207Y-65570413D01*
X129620480Y-65479087D01*
X129545913Y-65404520D01*
X129545911Y-65404518D01*
X129464141Y-65357309D01*
X129454587Y-65351793D01*
X129352727Y-65324500D01*
X129247273Y-65324500D01*
X129145413Y-65351793D01*
X129145411Y-65351793D01*
X129145411Y-65351794D01*
X129054088Y-65404518D01*
X128979518Y-65479088D01*
X128926794Y-65570411D01*
X128899500Y-65672271D01*
X127362997Y-65672271D01*
X127373207Y-65654587D01*
X127400500Y-65552727D01*
X127400500Y-65447273D01*
X127373207Y-65345413D01*
X127333876Y-65277289D01*
X127320481Y-65254088D01*
X127245911Y-65179518D01*
X127185029Y-65144368D01*
X127154587Y-65126793D01*
X127052727Y-65099500D01*
X126947273Y-65099500D01*
X126845413Y-65126793D01*
X126845411Y-65126793D01*
X126845411Y-65126794D01*
X126754088Y-65179518D01*
X126679518Y-65254088D01*
X126626794Y-65345411D01*
X126626793Y-65345413D01*
X126624353Y-65354520D01*
X126599500Y-65447271D01*
X125400499Y-65447271D01*
X125373207Y-65345413D01*
X125333876Y-65277289D01*
X125320481Y-65254088D01*
X125245911Y-65179518D01*
X125185029Y-65144368D01*
X125154587Y-65126793D01*
X125052727Y-65099500D01*
X124947273Y-65099500D01*
X124845413Y-65126793D01*
X124845411Y-65126793D01*
X124845411Y-65126794D01*
X124754088Y-65179518D01*
X124679518Y-65254088D01*
X124626794Y-65345411D01*
X124626793Y-65345413D01*
X124624353Y-65354520D01*
X124599500Y-65447271D01*
X123400499Y-65447271D01*
X123373207Y-65345413D01*
X123333876Y-65277289D01*
X123320481Y-65254088D01*
X123245911Y-65179518D01*
X123185029Y-65144368D01*
X123154587Y-65126793D01*
X123052727Y-65099500D01*
X122947273Y-65099500D01*
X122845413Y-65126793D01*
X122845411Y-65126793D01*
X122845411Y-65126794D01*
X122754088Y-65179518D01*
X122679518Y-65254088D01*
X122626794Y-65345411D01*
X122626793Y-65345413D01*
X122624353Y-65354520D01*
X122599500Y-65447271D01*
X120895785Y-65447271D01*
X120886897Y-65431877D01*
X120874571Y-65410527D01*
X120800001Y-65335957D01*
X120715442Y-65287138D01*
X120708677Y-65283232D01*
X120606817Y-65255939D01*
X120501363Y-65255939D01*
X120399503Y-65283232D01*
X120399501Y-65283232D01*
X120399501Y-65283233D01*
X120308178Y-65335957D01*
X120233608Y-65410527D01*
X120193776Y-65479520D01*
X120180883Y-65501852D01*
X120169212Y-65545411D01*
X120153590Y-65603710D01*
X119345526Y-65603710D01*
X119323207Y-65520413D01*
X119280442Y-65446341D01*
X119270481Y-65429088D01*
X119195911Y-65354518D01*
X119109419Y-65304583D01*
X119104587Y-65301793D01*
X119002727Y-65274500D01*
X118897273Y-65274500D01*
X118795413Y-65301793D01*
X118795411Y-65301793D01*
X118795411Y-65301794D01*
X118704088Y-65354518D01*
X118629518Y-65429088D01*
X118576794Y-65520411D01*
X118576793Y-65520413D01*
X118568721Y-65550539D01*
X118549500Y-65622271D01*
X117859846Y-65622271D01*
X117820481Y-65554088D01*
X117745911Y-65479518D01*
X117681600Y-65442389D01*
X117654587Y-65426793D01*
X117552727Y-65399500D01*
X117447273Y-65399500D01*
X117345413Y-65426793D01*
X117345411Y-65426793D01*
X117345411Y-65426794D01*
X117254088Y-65479518D01*
X117179518Y-65554088D01*
X117132474Y-65635573D01*
X117126793Y-65645413D01*
X117120094Y-65670414D01*
X117099500Y-65747271D01*
X112346358Y-65747271D01*
X112346656Y-65746157D01*
X112346656Y-65640703D01*
X112319363Y-65538843D01*
X112279328Y-65469500D01*
X112266638Y-65447520D01*
X112260860Y-65439991D01*
X112231341Y-65368735D01*
X112241404Y-65292266D01*
X112260860Y-65258567D01*
X112266631Y-65251045D01*
X112266636Y-65251041D01*
X112319363Y-65159715D01*
X112346656Y-65057855D01*
X112346656Y-64952401D01*
X112319363Y-64850541D01*
X112266636Y-64759215D01*
X112192069Y-64684648D01*
X112192067Y-64684646D01*
X112131185Y-64649496D01*
X112100743Y-64631921D01*
X111998883Y-64604628D01*
X111893429Y-64604628D01*
X111791569Y-64631921D01*
X111791567Y-64631921D01*
X111791567Y-64631922D01*
X111700244Y-64684646D01*
X111625674Y-64759216D01*
X111575194Y-64846652D01*
X111520656Y-64901190D01*
X111446156Y-64921152D01*
X111371656Y-64901190D01*
X111317118Y-64846652D01*
X111266637Y-64759216D01*
X111192067Y-64684646D01*
X111131185Y-64649496D01*
X111100743Y-64631921D01*
X110998883Y-64604628D01*
X110893429Y-64604628D01*
X110791569Y-64631921D01*
X110791567Y-64631921D01*
X110791567Y-64631922D01*
X110700244Y-64684646D01*
X110625674Y-64759216D01*
X110575194Y-64846652D01*
X110520656Y-64901190D01*
X110446156Y-64921152D01*
X110371656Y-64901190D01*
X110317118Y-64846652D01*
X110266637Y-64759216D01*
X110192067Y-64684646D01*
X110131185Y-64649496D01*
X110100743Y-64631921D01*
X109998883Y-64604628D01*
X109893429Y-64604628D01*
X109791569Y-64631921D01*
X109791567Y-64631921D01*
X109791567Y-64631922D01*
X109700244Y-64684646D01*
X109625674Y-64759216D01*
X109572950Y-64850539D01*
X109545656Y-64952399D01*
X109545656Y-64952401D01*
X109545656Y-65057855D01*
X109572949Y-65159715D01*
X109590524Y-65190157D01*
X109625674Y-65251039D01*
X109631620Y-65258787D01*
X109630227Y-65259855D01*
X109662968Y-65316564D01*
X109662968Y-65393692D01*
X109630227Y-65450400D01*
X109631620Y-65451469D01*
X109625674Y-65459216D01*
X109572950Y-65550539D01*
X109572949Y-65550541D01*
X109565300Y-65579087D01*
X109545656Y-65652399D01*
X109545656Y-65652401D01*
X109545656Y-65757855D01*
X109572949Y-65859715D01*
X109580739Y-65873207D01*
X109625674Y-65951039D01*
X109631620Y-65958787D01*
X109630227Y-65959855D01*
X109662968Y-66016564D01*
X109662968Y-66093692D01*
X109630227Y-66150400D01*
X109631620Y-66151469D01*
X109625674Y-66159216D01*
X109572950Y-66250539D01*
X109545656Y-66352399D01*
X109544382Y-66362080D01*
X109542615Y-66361847D01*
X109525694Y-66425000D01*
X109471156Y-66479538D01*
X109429433Y-66495850D01*
X109413247Y-66499500D01*
X109393429Y-66499500D01*
X109291569Y-66526793D01*
X109291154Y-66527032D01*
X109285209Y-66528373D01*
X109249561Y-66526946D01*
X109213867Y-66526946D01*
X109211207Y-66525410D01*
X109208143Y-66525288D01*
X109177990Y-66506232D01*
X109147073Y-66488382D01*
X109144557Y-66485103D01*
X109142944Y-66484084D01*
X109141141Y-66480652D01*
X109123394Y-66457523D01*
X109066637Y-66359216D01*
X108992067Y-66284646D01*
X108924108Y-66245411D01*
X108900743Y-66231921D01*
X108798883Y-66204628D01*
X108693429Y-66204628D01*
X108591569Y-66231921D01*
X108591567Y-66231921D01*
X108591567Y-66231922D01*
X108500244Y-66284646D01*
X108425674Y-66359216D01*
X108372974Y-66450497D01*
X108372949Y-66450541D01*
X108364881Y-66480652D01*
X108345656Y-66552399D01*
X108345656Y-66552401D01*
X108345656Y-66657855D01*
X108371575Y-66754588D01*
X108372950Y-66759717D01*
X108398483Y-66803941D01*
X108418446Y-66878441D01*
X108398484Y-66952941D01*
X108384774Y-66970812D01*
X108385464Y-66971341D01*
X108379518Y-66979088D01*
X108326794Y-67070411D01*
X108299500Y-67172271D01*
X107600499Y-67172271D01*
X107573207Y-67070413D01*
X107520480Y-66979087D01*
X107445913Y-66904520D01*
X107445911Y-66904518D01*
X107361747Y-66855927D01*
X107354587Y-66851793D01*
X107252727Y-66824500D01*
X107147273Y-66824500D01*
X107045413Y-66851793D01*
X107045411Y-66851793D01*
X107045411Y-66851794D01*
X106954088Y-66904518D01*
X106879518Y-66979088D01*
X106826794Y-67070411D01*
X106799500Y-67172271D01*
X106100499Y-67172271D01*
X106073207Y-67070413D01*
X106020480Y-66979087D01*
X105945913Y-66904520D01*
X105945911Y-66904518D01*
X105861747Y-66855927D01*
X105854587Y-66851793D01*
X105752727Y-66824500D01*
X105647273Y-66824500D01*
X105545413Y-66851793D01*
X105545411Y-66851793D01*
X105545411Y-66851794D01*
X105454088Y-66904518D01*
X105379518Y-66979088D01*
X105326794Y-67070411D01*
X105299500Y-67172271D01*
X104600499Y-67172271D01*
X104573207Y-67070413D01*
X104520480Y-66979087D01*
X104445913Y-66904520D01*
X104445911Y-66904518D01*
X104361747Y-66855927D01*
X104354587Y-66851793D01*
X104252727Y-66824500D01*
X104147273Y-66824500D01*
X104045413Y-66851793D01*
X104045411Y-66851793D01*
X104045411Y-66851794D01*
X103954088Y-66904518D01*
X103879518Y-66979088D01*
X103826794Y-67070411D01*
X103799500Y-67172271D01*
X103100499Y-67172271D01*
X103073207Y-67070413D01*
X103020480Y-66979087D01*
X102945913Y-66904520D01*
X102945911Y-66904518D01*
X102861747Y-66855927D01*
X102854587Y-66851793D01*
X102752727Y-66824500D01*
X102647273Y-66824500D01*
X102545413Y-66851793D01*
X102545411Y-66851793D01*
X102545411Y-66851794D01*
X102454088Y-66904518D01*
X102379518Y-66979088D01*
X102326794Y-67070411D01*
X102299500Y-67172271D01*
X101600499Y-67172271D01*
X101573207Y-67070413D01*
X101520480Y-66979087D01*
X101445913Y-66904520D01*
X101445911Y-66904518D01*
X101361747Y-66855927D01*
X101354587Y-66851793D01*
X101252727Y-66824500D01*
X101147273Y-66824500D01*
X101045413Y-66851793D01*
X101045411Y-66851793D01*
X101045411Y-66851794D01*
X100954088Y-66904518D01*
X100879518Y-66979088D01*
X100826794Y-67070411D01*
X100799500Y-67172271D01*
X100500500Y-67172271D01*
X100500500Y-65625060D01*
X100959267Y-65625060D01*
X100959267Y-65730517D01*
X100963458Y-65746156D01*
X100986560Y-65832376D01*
X100995591Y-65848018D01*
X101039285Y-65923700D01*
X101113855Y-65998270D01*
X101126529Y-66005587D01*
X101205180Y-66050996D01*
X101307040Y-66078289D01*
X101412494Y-66078289D01*
X101514354Y-66050996D01*
X101605680Y-65998269D01*
X101680247Y-65923702D01*
X101732974Y-65832376D01*
X101760267Y-65730516D01*
X101760267Y-65625062D01*
X101759519Y-65622271D01*
X102549500Y-65622271D01*
X102549500Y-65727728D01*
X102554736Y-65747269D01*
X102576793Y-65829587D01*
X102591227Y-65854587D01*
X102629518Y-65920911D01*
X102704088Y-65995481D01*
X102721593Y-66005587D01*
X102795413Y-66048207D01*
X102897273Y-66075500D01*
X103002727Y-66075500D01*
X103104587Y-66048207D01*
X103195913Y-65995480D01*
X103270480Y-65920913D01*
X103323207Y-65829587D01*
X103350500Y-65727727D01*
X103350500Y-65722271D01*
X104099500Y-65722271D01*
X104099500Y-65827728D01*
X104103563Y-65842890D01*
X104126793Y-65929587D01*
X104140691Y-65953659D01*
X104179518Y-66020911D01*
X104254088Y-66095481D01*
X104258810Y-66098207D01*
X104345413Y-66148207D01*
X104447273Y-66175500D01*
X104552727Y-66175500D01*
X104654587Y-66148207D01*
X104745913Y-66095480D01*
X104820480Y-66020913D01*
X104873207Y-65929587D01*
X104900500Y-65827727D01*
X104900500Y-65722273D01*
X104873207Y-65620413D01*
X104834128Y-65552726D01*
X104820481Y-65529088D01*
X104745911Y-65454518D01*
X104685029Y-65419368D01*
X104654587Y-65401793D01*
X104552727Y-65374500D01*
X104447273Y-65374500D01*
X104345413Y-65401793D01*
X104345411Y-65401793D01*
X104345411Y-65401794D01*
X104254088Y-65454518D01*
X104179518Y-65529088D01*
X104136436Y-65603710D01*
X104126793Y-65620413D01*
X104118222Y-65652401D01*
X104099500Y-65722271D01*
X103350500Y-65722271D01*
X103350500Y-65622273D01*
X103323207Y-65520413D01*
X103280442Y-65446341D01*
X103270481Y-65429088D01*
X103195911Y-65354518D01*
X103109419Y-65304583D01*
X103104587Y-65301793D01*
X103002727Y-65274500D01*
X102897273Y-65274500D01*
X102795413Y-65301793D01*
X102795411Y-65301793D01*
X102795411Y-65301794D01*
X102704088Y-65354518D01*
X102629518Y-65429088D01*
X102576794Y-65520411D01*
X102576793Y-65520413D01*
X102568721Y-65550539D01*
X102549500Y-65622271D01*
X101759519Y-65622271D01*
X101732974Y-65523202D01*
X101696031Y-65459215D01*
X101680248Y-65431877D01*
X101605678Y-65357307D01*
X101526225Y-65311436D01*
X101514354Y-65304582D01*
X101412494Y-65277289D01*
X101307040Y-65277289D01*
X101205180Y-65304582D01*
X101205178Y-65304582D01*
X101205178Y-65304583D01*
X101113855Y-65357307D01*
X101039285Y-65431877D01*
X100998886Y-65501852D01*
X100986560Y-65523202D01*
X100978284Y-65554088D01*
X100959267Y-65625060D01*
X100500500Y-65625060D01*
X100500500Y-63447271D01*
X122599500Y-63447271D01*
X122599500Y-63447273D01*
X122599500Y-63552727D01*
X122626793Y-63654587D01*
X122626794Y-63654588D01*
X122679518Y-63745911D01*
X122754088Y-63820481D01*
X122784529Y-63838055D01*
X122845413Y-63873207D01*
X122947273Y-63900500D01*
X123052727Y-63900500D01*
X123154587Y-63873207D01*
X123245913Y-63820480D01*
X123320480Y-63745913D01*
X123373207Y-63654587D01*
X123400500Y-63552727D01*
X123400500Y-63447273D01*
X123400499Y-63447271D01*
X124599500Y-63447271D01*
X124599500Y-63447273D01*
X124599500Y-63552727D01*
X124626793Y-63654587D01*
X124626794Y-63654588D01*
X124679518Y-63745911D01*
X124754088Y-63820481D01*
X124784529Y-63838055D01*
X124845413Y-63873207D01*
X124947273Y-63900500D01*
X125052727Y-63900500D01*
X125154587Y-63873207D01*
X125245913Y-63820480D01*
X125320480Y-63745913D01*
X125373207Y-63654587D01*
X125400500Y-63552727D01*
X125400500Y-63447273D01*
X125400499Y-63447271D01*
X126599500Y-63447271D01*
X126599500Y-63447273D01*
X126599500Y-63552727D01*
X126626793Y-63654587D01*
X126626794Y-63654588D01*
X126679518Y-63745911D01*
X126754088Y-63820481D01*
X126784529Y-63838055D01*
X126845413Y-63873207D01*
X126947273Y-63900500D01*
X127052727Y-63900500D01*
X127154587Y-63873207D01*
X127245913Y-63820480D01*
X127320480Y-63745913D01*
X127373207Y-63654587D01*
X127400500Y-63552727D01*
X127400500Y-63447273D01*
X127373207Y-63345413D01*
X127320480Y-63254087D01*
X127245913Y-63179520D01*
X127245911Y-63179518D01*
X127185029Y-63144368D01*
X127154587Y-63126793D01*
X127052727Y-63099500D01*
X126947273Y-63099500D01*
X126845413Y-63126793D01*
X126845411Y-63126793D01*
X126845411Y-63126794D01*
X126754088Y-63179518D01*
X126679518Y-63254088D01*
X126626794Y-63345411D01*
X126599500Y-63447271D01*
X125400499Y-63447271D01*
X125373207Y-63345413D01*
X125320480Y-63254087D01*
X125245913Y-63179520D01*
X125245911Y-63179518D01*
X125185029Y-63144368D01*
X125154587Y-63126793D01*
X125052727Y-63099500D01*
X124947273Y-63099500D01*
X124845413Y-63126793D01*
X124845411Y-63126793D01*
X124845411Y-63126794D01*
X124754088Y-63179518D01*
X124679518Y-63254088D01*
X124626794Y-63345411D01*
X124599500Y-63447271D01*
X123400499Y-63447271D01*
X123373207Y-63345413D01*
X123320480Y-63254087D01*
X123245913Y-63179520D01*
X123245911Y-63179518D01*
X123185029Y-63144368D01*
X123154587Y-63126793D01*
X123052727Y-63099500D01*
X122947273Y-63099500D01*
X122845413Y-63126793D01*
X122845411Y-63126793D01*
X122845411Y-63126794D01*
X122754088Y-63179518D01*
X122679518Y-63254088D01*
X122626794Y-63345411D01*
X122599500Y-63447271D01*
X100500500Y-63447271D01*
X100500500Y-62697271D01*
X101099500Y-62697271D01*
X101099500Y-62697273D01*
X101099500Y-62802727D01*
X101126793Y-62904587D01*
X101144368Y-62935029D01*
X101179518Y-62995911D01*
X101254088Y-63070481D01*
X101284529Y-63088055D01*
X101345413Y-63123207D01*
X101447273Y-63150500D01*
X101552727Y-63150500D01*
X101654587Y-63123207D01*
X101745913Y-63070480D01*
X101820480Y-62995913D01*
X101870962Y-62908476D01*
X101925499Y-62853938D01*
X101999999Y-62833975D01*
X102074499Y-62853937D01*
X102129037Y-62908474D01*
X102129038Y-62908476D01*
X102179516Y-62995908D01*
X102179520Y-62995913D01*
X102254088Y-63070481D01*
X102284529Y-63088055D01*
X102345413Y-63123207D01*
X102447273Y-63150500D01*
X102552727Y-63150500D01*
X102654587Y-63123207D01*
X102745913Y-63070480D01*
X102820480Y-62995913D01*
X102870962Y-62908476D01*
X102925499Y-62853938D01*
X102999999Y-62833975D01*
X103074499Y-62853937D01*
X103129037Y-62908474D01*
X103129038Y-62908476D01*
X103179516Y-62995908D01*
X103179520Y-62995913D01*
X103254088Y-63070481D01*
X103284529Y-63088055D01*
X103345413Y-63123207D01*
X103447273Y-63150500D01*
X103552727Y-63150500D01*
X103654587Y-63123207D01*
X103745913Y-63070480D01*
X103820480Y-62995913D01*
X103873207Y-62904587D01*
X103900500Y-62802727D01*
X103900500Y-62697273D01*
X103900499Y-62697271D01*
X117849500Y-62697271D01*
X117849500Y-62697273D01*
X117849500Y-62802727D01*
X117876793Y-62904587D01*
X117894368Y-62935029D01*
X117929518Y-62995911D01*
X118004088Y-63070481D01*
X118034529Y-63088055D01*
X118095413Y-63123207D01*
X118197273Y-63150500D01*
X118302727Y-63150500D01*
X118404587Y-63123207D01*
X118495913Y-63070480D01*
X118570480Y-62995913D01*
X118620962Y-62908476D01*
X118675499Y-62853938D01*
X118749999Y-62833975D01*
X118824499Y-62853937D01*
X118879037Y-62908474D01*
X118879038Y-62908476D01*
X118929516Y-62995908D01*
X118929520Y-62995913D01*
X119004088Y-63070481D01*
X119034529Y-63088055D01*
X119095413Y-63123207D01*
X119197273Y-63150500D01*
X119302727Y-63150500D01*
X119404587Y-63123207D01*
X119495913Y-63070480D01*
X119570480Y-62995913D01*
X119623207Y-62904587D01*
X119650500Y-62802727D01*
X119650500Y-62697273D01*
X119650499Y-62697271D01*
X120099500Y-62697271D01*
X120099500Y-62697273D01*
X120099500Y-62802727D01*
X120126793Y-62904587D01*
X120144368Y-62935029D01*
X120179518Y-62995911D01*
X120254088Y-63070481D01*
X120284529Y-63088055D01*
X120345413Y-63123207D01*
X120447273Y-63150500D01*
X120552727Y-63150500D01*
X120654587Y-63123207D01*
X120745913Y-63070480D01*
X120820480Y-62995913D01*
X120873207Y-62904587D01*
X120900500Y-62802727D01*
X120900500Y-62697273D01*
X120900499Y-62697271D01*
X129099500Y-62697271D01*
X129099500Y-62697273D01*
X129099500Y-62802727D01*
X129126793Y-62904587D01*
X129144368Y-62935029D01*
X129179518Y-62995911D01*
X129254088Y-63070481D01*
X129284529Y-63088055D01*
X129345413Y-63123207D01*
X129447273Y-63150500D01*
X129552727Y-63150500D01*
X129654587Y-63123207D01*
X129745913Y-63070480D01*
X129820480Y-62995913D01*
X129870962Y-62908476D01*
X129925499Y-62853938D01*
X129999999Y-62833975D01*
X130074499Y-62853937D01*
X130129037Y-62908474D01*
X130129038Y-62908476D01*
X130179516Y-62995908D01*
X130179520Y-62995913D01*
X130254088Y-63070481D01*
X130284529Y-63088055D01*
X130345413Y-63123207D01*
X130447273Y-63150500D01*
X130552727Y-63150500D01*
X130654587Y-63123207D01*
X130745913Y-63070480D01*
X130820480Y-62995913D01*
X130870962Y-62908476D01*
X130925499Y-62853938D01*
X130999999Y-62833975D01*
X131074499Y-62853937D01*
X131129037Y-62908474D01*
X131129038Y-62908476D01*
X131179516Y-62995908D01*
X131179520Y-62995913D01*
X131254088Y-63070481D01*
X131284529Y-63088055D01*
X131345413Y-63123207D01*
X131447273Y-63150500D01*
X131552727Y-63150500D01*
X131654587Y-63123207D01*
X131745913Y-63070480D01*
X131820480Y-62995913D01*
X131873207Y-62904587D01*
X131900500Y-62802727D01*
X131900500Y-62697273D01*
X131900499Y-62697271D01*
X145849500Y-62697271D01*
X145849500Y-62697273D01*
X145849500Y-62802727D01*
X145876793Y-62904587D01*
X145894368Y-62935029D01*
X145929518Y-62995911D01*
X146004088Y-63070481D01*
X146034529Y-63088055D01*
X146095413Y-63123207D01*
X146197273Y-63150500D01*
X146302727Y-63150500D01*
X146404587Y-63123207D01*
X146495913Y-63070480D01*
X146570480Y-62995913D01*
X146623207Y-62904587D01*
X146650500Y-62802727D01*
X146650500Y-62697273D01*
X146650499Y-62697271D01*
X147099500Y-62697271D01*
X147099500Y-62697273D01*
X147099500Y-62802727D01*
X147126793Y-62904587D01*
X147144368Y-62935029D01*
X147179518Y-62995911D01*
X147254088Y-63070481D01*
X147284529Y-63088055D01*
X147345413Y-63123207D01*
X147447273Y-63150500D01*
X147552727Y-63150500D01*
X147654587Y-63123207D01*
X147745913Y-63070480D01*
X147820480Y-62995913D01*
X147870962Y-62908476D01*
X147925499Y-62853938D01*
X147999999Y-62833975D01*
X148074499Y-62853937D01*
X148129037Y-62908474D01*
X148129038Y-62908476D01*
X148179516Y-62995908D01*
X148179520Y-62995913D01*
X148254088Y-63070481D01*
X148284529Y-63088055D01*
X148345413Y-63123207D01*
X148447273Y-63150500D01*
X148552727Y-63150500D01*
X148654587Y-63123207D01*
X148745913Y-63070480D01*
X148820480Y-62995913D01*
X148873207Y-62904587D01*
X148900500Y-62802727D01*
X148900500Y-62697273D01*
X148873207Y-62595413D01*
X148820480Y-62504087D01*
X148745913Y-62429520D01*
X148745911Y-62429518D01*
X148685029Y-62394368D01*
X148654587Y-62376793D01*
X148552727Y-62349500D01*
X148447273Y-62349500D01*
X148345413Y-62376793D01*
X148345411Y-62376793D01*
X148345411Y-62376794D01*
X148254088Y-62429518D01*
X148179518Y-62504088D01*
X148129038Y-62591524D01*
X148074500Y-62646062D01*
X148000000Y-62666024D01*
X147925500Y-62646062D01*
X147870962Y-62591524D01*
X147820481Y-62504088D01*
X147745911Y-62429518D01*
X147685029Y-62394368D01*
X147654587Y-62376793D01*
X147552727Y-62349500D01*
X147447273Y-62349500D01*
X147345413Y-62376793D01*
X147345411Y-62376793D01*
X147345411Y-62376794D01*
X147254088Y-62429518D01*
X147179518Y-62504088D01*
X147126794Y-62595411D01*
X147099500Y-62697271D01*
X146650499Y-62697271D01*
X146623207Y-62595413D01*
X146570480Y-62504087D01*
X146495913Y-62429520D01*
X146495911Y-62429518D01*
X146435029Y-62394368D01*
X146404587Y-62376793D01*
X146302727Y-62349500D01*
X146197273Y-62349500D01*
X146095413Y-62376793D01*
X146095411Y-62376793D01*
X146095411Y-62376794D01*
X146004088Y-62429518D01*
X145929518Y-62504088D01*
X145876794Y-62595411D01*
X145849500Y-62697271D01*
X131900499Y-62697271D01*
X131873207Y-62595413D01*
X131820480Y-62504087D01*
X131745913Y-62429520D01*
X131745911Y-62429518D01*
X131685029Y-62394368D01*
X131654587Y-62376793D01*
X131552727Y-62349500D01*
X131447273Y-62349500D01*
X131345413Y-62376793D01*
X131345411Y-62376793D01*
X131345411Y-62376794D01*
X131254088Y-62429518D01*
X131179518Y-62504088D01*
X131129038Y-62591524D01*
X131074500Y-62646062D01*
X131000000Y-62666024D01*
X130925500Y-62646062D01*
X130870962Y-62591524D01*
X130820481Y-62504088D01*
X130745911Y-62429518D01*
X130685029Y-62394368D01*
X130654587Y-62376793D01*
X130552727Y-62349500D01*
X130447273Y-62349500D01*
X130345413Y-62376793D01*
X130345411Y-62376793D01*
X130345411Y-62376794D01*
X130254088Y-62429518D01*
X130179518Y-62504088D01*
X130129038Y-62591524D01*
X130074500Y-62646062D01*
X130000000Y-62666024D01*
X129925500Y-62646062D01*
X129870962Y-62591524D01*
X129820481Y-62504088D01*
X129745911Y-62429518D01*
X129685029Y-62394368D01*
X129654587Y-62376793D01*
X129552727Y-62349500D01*
X129447273Y-62349500D01*
X129345413Y-62376793D01*
X129345411Y-62376793D01*
X129345411Y-62376794D01*
X129254088Y-62429518D01*
X129179518Y-62504088D01*
X129126794Y-62595411D01*
X129099500Y-62697271D01*
X120900499Y-62697271D01*
X120873207Y-62595413D01*
X120820480Y-62504087D01*
X120745913Y-62429520D01*
X120745911Y-62429518D01*
X120685029Y-62394368D01*
X120654587Y-62376793D01*
X120552727Y-62349500D01*
X120447273Y-62349500D01*
X120345413Y-62376793D01*
X120345411Y-62376793D01*
X120345411Y-62376794D01*
X120254088Y-62429518D01*
X120179518Y-62504088D01*
X120126794Y-62595411D01*
X120099500Y-62697271D01*
X119650499Y-62697271D01*
X119623207Y-62595413D01*
X119570480Y-62504087D01*
X119495913Y-62429520D01*
X119495911Y-62429518D01*
X119435029Y-62394368D01*
X119404587Y-62376793D01*
X119302727Y-62349500D01*
X119197273Y-62349500D01*
X119095413Y-62376793D01*
X119095411Y-62376793D01*
X119095411Y-62376794D01*
X119004088Y-62429518D01*
X118929518Y-62504088D01*
X118879038Y-62591524D01*
X118824500Y-62646062D01*
X118750000Y-62666024D01*
X118675500Y-62646062D01*
X118620962Y-62591524D01*
X118570481Y-62504088D01*
X118495911Y-62429518D01*
X118435029Y-62394368D01*
X118404587Y-62376793D01*
X118302727Y-62349500D01*
X118197273Y-62349500D01*
X118095413Y-62376793D01*
X118095411Y-62376793D01*
X118095411Y-62376794D01*
X118004088Y-62429518D01*
X117929518Y-62504088D01*
X117876794Y-62595411D01*
X117849500Y-62697271D01*
X103900499Y-62697271D01*
X103873207Y-62595413D01*
X103820480Y-62504087D01*
X103745913Y-62429520D01*
X103745911Y-62429518D01*
X103685029Y-62394368D01*
X103654587Y-62376793D01*
X103552727Y-62349500D01*
X103447273Y-62349500D01*
X103345413Y-62376793D01*
X103345411Y-62376793D01*
X103345411Y-62376794D01*
X103254088Y-62429518D01*
X103179518Y-62504088D01*
X103129038Y-62591524D01*
X103074500Y-62646062D01*
X103000000Y-62666024D01*
X102925500Y-62646062D01*
X102870962Y-62591524D01*
X102820481Y-62504088D01*
X102745911Y-62429518D01*
X102685029Y-62394368D01*
X102654587Y-62376793D01*
X102552727Y-62349500D01*
X102447273Y-62349500D01*
X102345413Y-62376793D01*
X102345411Y-62376793D01*
X102345411Y-62376794D01*
X102254088Y-62429518D01*
X102179518Y-62504088D01*
X102129038Y-62591524D01*
X102074500Y-62646062D01*
X102000000Y-62666024D01*
X101925500Y-62646062D01*
X101870962Y-62591524D01*
X101820481Y-62504088D01*
X101745911Y-62429518D01*
X101685029Y-62394368D01*
X101654587Y-62376793D01*
X101552727Y-62349500D01*
X101447273Y-62349500D01*
X101345413Y-62376793D01*
X101345411Y-62376793D01*
X101345411Y-62376794D01*
X101254088Y-62429518D01*
X101179518Y-62504088D01*
X101126794Y-62595411D01*
X101099500Y-62697271D01*
X100500500Y-62697271D01*
X100500500Y-61447271D01*
X122599500Y-61447271D01*
X122599500Y-61447273D01*
X122599500Y-61552727D01*
X122626793Y-61654587D01*
X122626794Y-61654588D01*
X122679518Y-61745911D01*
X122754088Y-61820481D01*
X122784529Y-61838055D01*
X122845413Y-61873207D01*
X122947273Y-61900500D01*
X123052727Y-61900500D01*
X123154587Y-61873207D01*
X123245913Y-61820480D01*
X123320480Y-61745913D01*
X123373207Y-61654587D01*
X123400500Y-61552727D01*
X123400500Y-61447273D01*
X123400499Y-61447271D01*
X124599500Y-61447271D01*
X124599500Y-61447273D01*
X124599500Y-61552727D01*
X124626793Y-61654587D01*
X124626794Y-61654588D01*
X124679518Y-61745911D01*
X124754088Y-61820481D01*
X124784529Y-61838055D01*
X124845413Y-61873207D01*
X124947273Y-61900500D01*
X125052727Y-61900500D01*
X125154587Y-61873207D01*
X125245913Y-61820480D01*
X125320480Y-61745913D01*
X125373207Y-61654587D01*
X125400500Y-61552727D01*
X125400500Y-61447273D01*
X125400499Y-61447271D01*
X126599500Y-61447271D01*
X126599500Y-61447273D01*
X126599500Y-61552727D01*
X126626793Y-61654587D01*
X126626794Y-61654588D01*
X126679518Y-61745911D01*
X126754088Y-61820481D01*
X126784529Y-61838055D01*
X126845413Y-61873207D01*
X126947273Y-61900500D01*
X127052727Y-61900500D01*
X127154587Y-61873207D01*
X127245913Y-61820480D01*
X127320480Y-61745913D01*
X127373207Y-61654587D01*
X127400500Y-61552727D01*
X127400500Y-61447273D01*
X127373207Y-61345413D01*
X127320480Y-61254087D01*
X127245913Y-61179520D01*
X127245911Y-61179518D01*
X127185029Y-61144368D01*
X127154587Y-61126793D01*
X127052727Y-61099500D01*
X126947273Y-61099500D01*
X126845413Y-61126793D01*
X126845411Y-61126793D01*
X126845411Y-61126794D01*
X126754088Y-61179518D01*
X126679518Y-61254088D01*
X126626794Y-61345411D01*
X126599500Y-61447271D01*
X125400499Y-61447271D01*
X125373207Y-61345413D01*
X125320480Y-61254087D01*
X125245913Y-61179520D01*
X125245911Y-61179518D01*
X125185029Y-61144368D01*
X125154587Y-61126793D01*
X125052727Y-61099500D01*
X124947273Y-61099500D01*
X124845413Y-61126793D01*
X124845411Y-61126793D01*
X124845411Y-61126794D01*
X124754088Y-61179518D01*
X124679518Y-61254088D01*
X124626794Y-61345411D01*
X124599500Y-61447271D01*
X123400499Y-61447271D01*
X123373207Y-61345413D01*
X123320480Y-61254087D01*
X123245913Y-61179520D01*
X123245911Y-61179518D01*
X123185029Y-61144368D01*
X123154587Y-61126793D01*
X123052727Y-61099500D01*
X122947273Y-61099500D01*
X122845413Y-61126793D01*
X122845411Y-61126793D01*
X122845411Y-61126794D01*
X122754088Y-61179518D01*
X122679518Y-61254088D01*
X122626794Y-61345411D01*
X122599500Y-61447271D01*
X100500500Y-61447271D01*
X100500500Y-59447271D01*
X122599500Y-59447271D01*
X122599500Y-59447273D01*
X122599500Y-59552727D01*
X122626793Y-59654587D01*
X122626794Y-59654588D01*
X122679518Y-59745911D01*
X122754088Y-59820481D01*
X122784529Y-59838055D01*
X122845413Y-59873207D01*
X122947273Y-59900500D01*
X123052727Y-59900500D01*
X123154587Y-59873207D01*
X123245913Y-59820480D01*
X123320480Y-59745913D01*
X123373207Y-59654587D01*
X123400500Y-59552727D01*
X123400500Y-59447273D01*
X123400499Y-59447271D01*
X124599500Y-59447271D01*
X124599500Y-59447273D01*
X124599500Y-59552727D01*
X124626793Y-59654587D01*
X124626794Y-59654588D01*
X124679518Y-59745911D01*
X124754088Y-59820481D01*
X124784529Y-59838055D01*
X124845413Y-59873207D01*
X124947273Y-59900500D01*
X125052727Y-59900500D01*
X125154587Y-59873207D01*
X125245913Y-59820480D01*
X125320480Y-59745913D01*
X125373207Y-59654587D01*
X125400500Y-59552727D01*
X125400500Y-59447273D01*
X125400499Y-59447271D01*
X126599500Y-59447271D01*
X126599500Y-59447273D01*
X126599500Y-59552727D01*
X126626793Y-59654587D01*
X126626794Y-59654588D01*
X126679518Y-59745911D01*
X126754088Y-59820481D01*
X126784529Y-59838055D01*
X126845413Y-59873207D01*
X126947273Y-59900500D01*
X127052727Y-59900500D01*
X127154587Y-59873207D01*
X127245913Y-59820480D01*
X127320480Y-59745913D01*
X127373207Y-59654587D01*
X127400500Y-59552727D01*
X127400500Y-59447273D01*
X127373207Y-59345413D01*
X127320480Y-59254087D01*
X127245913Y-59179520D01*
X127245911Y-59179518D01*
X127185029Y-59144368D01*
X127154587Y-59126793D01*
X127052727Y-59099500D01*
X126947273Y-59099500D01*
X126845413Y-59126793D01*
X126845411Y-59126793D01*
X126845411Y-59126794D01*
X126754088Y-59179518D01*
X126679518Y-59254088D01*
X126626794Y-59345411D01*
X126599500Y-59447271D01*
X125400499Y-59447271D01*
X125373207Y-59345413D01*
X125320480Y-59254087D01*
X125245913Y-59179520D01*
X125245911Y-59179518D01*
X125185029Y-59144368D01*
X125154587Y-59126793D01*
X125052727Y-59099500D01*
X124947273Y-59099500D01*
X124845413Y-59126793D01*
X124845411Y-59126793D01*
X124845411Y-59126794D01*
X124754088Y-59179518D01*
X124679518Y-59254088D01*
X124626794Y-59345411D01*
X124599500Y-59447271D01*
X123400499Y-59447271D01*
X123373207Y-59345413D01*
X123320480Y-59254087D01*
X123245913Y-59179520D01*
X123245911Y-59179518D01*
X123185029Y-59144368D01*
X123154587Y-59126793D01*
X123052727Y-59099500D01*
X122947273Y-59099500D01*
X122845413Y-59126793D01*
X122845411Y-59126793D01*
X122845411Y-59126794D01*
X122754088Y-59179518D01*
X122679518Y-59254088D01*
X122626794Y-59345411D01*
X122599500Y-59447271D01*
X100500500Y-59447271D01*
X100500500Y-57447271D01*
X122599500Y-57447271D01*
X122599500Y-57447273D01*
X122599500Y-57552727D01*
X122626793Y-57654587D01*
X122626794Y-57654588D01*
X122679518Y-57745911D01*
X122754088Y-57820481D01*
X122784529Y-57838055D01*
X122845413Y-57873207D01*
X122947273Y-57900500D01*
X123052727Y-57900500D01*
X123154587Y-57873207D01*
X123245913Y-57820480D01*
X123320480Y-57745913D01*
X123373207Y-57654587D01*
X123400500Y-57552727D01*
X123400500Y-57447273D01*
X123400499Y-57447271D01*
X124599500Y-57447271D01*
X124599500Y-57447273D01*
X124599500Y-57552727D01*
X124626793Y-57654587D01*
X124626794Y-57654588D01*
X124679518Y-57745911D01*
X124754088Y-57820481D01*
X124784529Y-57838055D01*
X124845413Y-57873207D01*
X124947273Y-57900500D01*
X125052727Y-57900500D01*
X125154587Y-57873207D01*
X125245913Y-57820480D01*
X125320480Y-57745913D01*
X125373207Y-57654587D01*
X125400500Y-57552727D01*
X125400500Y-57447273D01*
X125400499Y-57447271D01*
X126599500Y-57447271D01*
X126599500Y-57447273D01*
X126599500Y-57552727D01*
X126626793Y-57654587D01*
X126626794Y-57654588D01*
X126679518Y-57745911D01*
X126754088Y-57820481D01*
X126784529Y-57838055D01*
X126845413Y-57873207D01*
X126947273Y-57900500D01*
X127052727Y-57900500D01*
X127154587Y-57873207D01*
X127245913Y-57820480D01*
X127320480Y-57745913D01*
X127373207Y-57654587D01*
X127400500Y-57552727D01*
X127400500Y-57447273D01*
X127373207Y-57345413D01*
X127320480Y-57254087D01*
X127245913Y-57179520D01*
X127245911Y-57179518D01*
X127185029Y-57144368D01*
X127154587Y-57126793D01*
X127052727Y-57099500D01*
X126947273Y-57099500D01*
X126845413Y-57126793D01*
X126845411Y-57126793D01*
X126845411Y-57126794D01*
X126754088Y-57179518D01*
X126679518Y-57254088D01*
X126626794Y-57345411D01*
X126599500Y-57447271D01*
X125400499Y-57447271D01*
X125373207Y-57345413D01*
X125320480Y-57254087D01*
X125245913Y-57179520D01*
X125245911Y-57179518D01*
X125185029Y-57144368D01*
X125154587Y-57126793D01*
X125052727Y-57099500D01*
X124947273Y-57099500D01*
X124845413Y-57126793D01*
X124845411Y-57126793D01*
X124845411Y-57126794D01*
X124754088Y-57179518D01*
X124679518Y-57254088D01*
X124626794Y-57345411D01*
X124599500Y-57447271D01*
X123400499Y-57447271D01*
X123373207Y-57345413D01*
X123320480Y-57254087D01*
X123245913Y-57179520D01*
X123245911Y-57179518D01*
X123185029Y-57144368D01*
X123154587Y-57126793D01*
X123052727Y-57099500D01*
X122947273Y-57099500D01*
X122845413Y-57126793D01*
X122845411Y-57126793D01*
X122845411Y-57126794D01*
X122754088Y-57179518D01*
X122679518Y-57254088D01*
X122626794Y-57345411D01*
X122599500Y-57447271D01*
X100500500Y-57447271D01*
X100500500Y-55447271D01*
X122599500Y-55447271D01*
X122599500Y-55447273D01*
X122599500Y-55552727D01*
X122626793Y-55654587D01*
X122626794Y-55654588D01*
X122679518Y-55745911D01*
X122754088Y-55820481D01*
X122784529Y-55838055D01*
X122845413Y-55873207D01*
X122947273Y-55900500D01*
X123052727Y-55900500D01*
X123154587Y-55873207D01*
X123245913Y-55820480D01*
X123320480Y-55745913D01*
X123373207Y-55654587D01*
X123400500Y-55552727D01*
X123400500Y-55447273D01*
X123400499Y-55447271D01*
X124599500Y-55447271D01*
X124599500Y-55447273D01*
X124599500Y-55552727D01*
X124626793Y-55654587D01*
X124626794Y-55654588D01*
X124679518Y-55745911D01*
X124754088Y-55820481D01*
X124784529Y-55838055D01*
X124845413Y-55873207D01*
X124947273Y-55900500D01*
X125052727Y-55900500D01*
X125154587Y-55873207D01*
X125245913Y-55820480D01*
X125320480Y-55745913D01*
X125373207Y-55654587D01*
X125400500Y-55552727D01*
X125400500Y-55447273D01*
X125400499Y-55447271D01*
X126599500Y-55447271D01*
X126599500Y-55447273D01*
X126599500Y-55552727D01*
X126626793Y-55654587D01*
X126626794Y-55654588D01*
X126679518Y-55745911D01*
X126754088Y-55820481D01*
X126784529Y-55838055D01*
X126845413Y-55873207D01*
X126947273Y-55900500D01*
X127052727Y-55900500D01*
X127154587Y-55873207D01*
X127245913Y-55820480D01*
X127320480Y-55745913D01*
X127373207Y-55654587D01*
X127400500Y-55552727D01*
X127400500Y-55447273D01*
X127373207Y-55345413D01*
X127320480Y-55254087D01*
X127245913Y-55179520D01*
X127245911Y-55179518D01*
X127185029Y-55144368D01*
X127154587Y-55126793D01*
X127052727Y-55099500D01*
X126947273Y-55099500D01*
X126845413Y-55126793D01*
X126845411Y-55126793D01*
X126845411Y-55126794D01*
X126754088Y-55179518D01*
X126679518Y-55254088D01*
X126626794Y-55345411D01*
X126599500Y-55447271D01*
X125400499Y-55447271D01*
X125373207Y-55345413D01*
X125320480Y-55254087D01*
X125245913Y-55179520D01*
X125245911Y-55179518D01*
X125185029Y-55144368D01*
X125154587Y-55126793D01*
X125052727Y-55099500D01*
X124947273Y-55099500D01*
X124845413Y-55126793D01*
X124845411Y-55126793D01*
X124845411Y-55126794D01*
X124754088Y-55179518D01*
X124679518Y-55254088D01*
X124626794Y-55345411D01*
X124599500Y-55447271D01*
X123400499Y-55447271D01*
X123373207Y-55345413D01*
X123320480Y-55254087D01*
X123245913Y-55179520D01*
X123245911Y-55179518D01*
X123185029Y-55144368D01*
X123154587Y-55126793D01*
X123052727Y-55099500D01*
X122947273Y-55099500D01*
X122845413Y-55126793D01*
X122845411Y-55126793D01*
X122845411Y-55126794D01*
X122754088Y-55179518D01*
X122679518Y-55254088D01*
X122626794Y-55345411D01*
X122599500Y-55447271D01*
X100500500Y-55447271D01*
X100500500Y-53233732D01*
X122399500Y-53233732D01*
X122399500Y-53401267D01*
X122432183Y-53565579D01*
X122496294Y-53720358D01*
X122496301Y-53720370D01*
X122589371Y-53859658D01*
X122589374Y-53859662D01*
X122707838Y-53978126D01*
X122707841Y-53978128D01*
X122847129Y-54071198D01*
X122847133Y-54071200D01*
X122847137Y-54071203D01*
X122847138Y-54071203D01*
X122847141Y-54071205D01*
X122892472Y-54089981D01*
X123001918Y-54135316D01*
X123166233Y-54168000D01*
X123333767Y-54168000D01*
X123498082Y-54135316D01*
X123652863Y-54071203D01*
X123792162Y-53978126D01*
X123910626Y-53859662D01*
X124003703Y-53720363D01*
X124067816Y-53565582D01*
X124100500Y-53401267D01*
X124100500Y-53233733D01*
X124067816Y-53069418D01*
X124003703Y-52914637D01*
X123979499Y-52878414D01*
X123910628Y-52775341D01*
X123910626Y-52775338D01*
X123792162Y-52656874D01*
X123735347Y-52618911D01*
X123652870Y-52563801D01*
X123652858Y-52563794D01*
X123530136Y-52512961D01*
X123498082Y-52499684D01*
X123498080Y-52499683D01*
X123498079Y-52499683D01*
X123333767Y-52467000D01*
X123166233Y-52467000D01*
X123001920Y-52499683D01*
X122847141Y-52563794D01*
X122847129Y-52563801D01*
X122707841Y-52656871D01*
X122707834Y-52656877D01*
X122589377Y-52775334D01*
X122589371Y-52775341D01*
X122496301Y-52914629D01*
X122496294Y-52914641D01*
X122432183Y-53069420D01*
X122399500Y-53233732D01*
X100500500Y-53233732D01*
X100500500Y-52326078D01*
X103874500Y-52326078D01*
X103874500Y-52473921D01*
X103903341Y-52618911D01*
X103959916Y-52755497D01*
X104025532Y-52853697D01*
X104042049Y-52878416D01*
X104146584Y-52982951D01*
X104195685Y-53015759D01*
X104269502Y-53065083D01*
X104279968Y-53069418D01*
X104406087Y-53121658D01*
X104551082Y-53150500D01*
X104551086Y-53150500D01*
X104698914Y-53150500D01*
X104698918Y-53150500D01*
X104843913Y-53121658D01*
X104980495Y-53065084D01*
X104980495Y-53065083D01*
X104980497Y-53065083D01*
X105005213Y-53048567D01*
X105103416Y-52982951D01*
X105207951Y-52878416D01*
X105290084Y-52755495D01*
X105346658Y-52618913D01*
X105375500Y-52473918D01*
X105375500Y-52326082D01*
X105375499Y-52326078D01*
X111474500Y-52326078D01*
X111474500Y-52473921D01*
X111503341Y-52618911D01*
X111559916Y-52755497D01*
X111625532Y-52853697D01*
X111642049Y-52878416D01*
X111746584Y-52982951D01*
X111795685Y-53015759D01*
X111869502Y-53065083D01*
X111879968Y-53069418D01*
X112006087Y-53121658D01*
X112151082Y-53150500D01*
X112151086Y-53150500D01*
X112298914Y-53150500D01*
X112298918Y-53150500D01*
X112443913Y-53121658D01*
X112580495Y-53065084D01*
X112580495Y-53065083D01*
X112580497Y-53065083D01*
X112605213Y-53048567D01*
X112703416Y-52982951D01*
X112807951Y-52878416D01*
X112890084Y-52755495D01*
X112946658Y-52618913D01*
X112975500Y-52473918D01*
X112975500Y-52326082D01*
X112975499Y-52326078D01*
X139394500Y-52326078D01*
X139394500Y-52473921D01*
X139423341Y-52618911D01*
X139479916Y-52755497D01*
X139545532Y-52853697D01*
X139562049Y-52878416D01*
X139666584Y-52982951D01*
X139715685Y-53015759D01*
X139789502Y-53065083D01*
X139799968Y-53069418D01*
X139926087Y-53121658D01*
X140071082Y-53150500D01*
X140071086Y-53150500D01*
X140218914Y-53150500D01*
X140218918Y-53150500D01*
X140363913Y-53121658D01*
X140500495Y-53065084D01*
X140500495Y-53065083D01*
X140500497Y-53065083D01*
X140525213Y-53048567D01*
X140623416Y-52982951D01*
X140727951Y-52878416D01*
X140810084Y-52755495D01*
X140866658Y-52618913D01*
X140895500Y-52473918D01*
X140895500Y-52326082D01*
X140866658Y-52181087D01*
X140810084Y-52044505D01*
X140810083Y-52044502D01*
X140736319Y-51934108D01*
X140727951Y-51921584D01*
X140623416Y-51817049D01*
X140593755Y-51797230D01*
X140500497Y-51734916D01*
X140394852Y-51691157D01*
X140363913Y-51678342D01*
X140363911Y-51678341D01*
X140363912Y-51678341D01*
X140218921Y-51649500D01*
X140218918Y-51649500D01*
X140071082Y-51649500D01*
X140071078Y-51649500D01*
X139926088Y-51678341D01*
X139789502Y-51734916D01*
X139666585Y-51817048D01*
X139666580Y-51817052D01*
X139562052Y-51921580D01*
X139562048Y-51921585D01*
X139479916Y-52044502D01*
X139423341Y-52181088D01*
X139394500Y-52326078D01*
X112975499Y-52326078D01*
X112946658Y-52181087D01*
X112890084Y-52044505D01*
X112890083Y-52044502D01*
X112816319Y-51934108D01*
X112807951Y-51921584D01*
X112703416Y-51817049D01*
X112673755Y-51797230D01*
X112580497Y-51734916D01*
X112474852Y-51691157D01*
X112443913Y-51678342D01*
X112443911Y-51678341D01*
X112443912Y-51678341D01*
X112298921Y-51649500D01*
X112298918Y-51649500D01*
X112151082Y-51649500D01*
X112151078Y-51649500D01*
X112006088Y-51678341D01*
X111869502Y-51734916D01*
X111746585Y-51817048D01*
X111746580Y-51817052D01*
X111642052Y-51921580D01*
X111642048Y-51921585D01*
X111559916Y-52044502D01*
X111503341Y-52181088D01*
X111474500Y-52326078D01*
X105375499Y-52326078D01*
X105346658Y-52181087D01*
X105290084Y-52044505D01*
X105290083Y-52044502D01*
X105216319Y-51934108D01*
X105207951Y-51921584D01*
X105103416Y-51817049D01*
X105073755Y-51797230D01*
X104980497Y-51734916D01*
X104874852Y-51691157D01*
X104843913Y-51678342D01*
X104843911Y-51678341D01*
X104843912Y-51678341D01*
X104698921Y-51649500D01*
X104698918Y-51649500D01*
X104551082Y-51649500D01*
X104551078Y-51649500D01*
X104406088Y-51678341D01*
X104269502Y-51734916D01*
X104146585Y-51817048D01*
X104146580Y-51817052D01*
X104042052Y-51921580D01*
X104042048Y-51921585D01*
X103959916Y-52044502D01*
X103903341Y-52181088D01*
X103874500Y-52326078D01*
X100500500Y-52326078D01*
X100500500Y-52005316D01*
X100500880Y-51994687D01*
X100506108Y-51921585D01*
X100515003Y-51797221D01*
X100518025Y-51776198D01*
X100558975Y-51587951D01*
X100564963Y-51567559D01*
X100632283Y-51387066D01*
X100641115Y-51367728D01*
X100733439Y-51198649D01*
X100744910Y-51180798D01*
X100860377Y-51026552D01*
X100874281Y-51010507D01*
X101010507Y-50874281D01*
X101026552Y-50860377D01*
X101180798Y-50744910D01*
X101198649Y-50733439D01*
X101367731Y-50641113D01*
X101387062Y-50632284D01*
X101567564Y-50564961D01*
X101587951Y-50558975D01*
X101776198Y-50518025D01*
X101797223Y-50515003D01*
X101972644Y-50502456D01*
X101994688Y-50500880D01*
X102005317Y-50500500D01*
X102065892Y-50500500D01*
X147934108Y-50500500D01*
X147994683Y-50500500D01*
X148005312Y-50500880D01*
G37*
%TD.AperFunction*%
%TD*%
M02*
