%TF.GenerationSoftware,KiCad,Pcbnew,10.0.2*%
%TF.CreationDate,2026-05-28T01:34:03+02:00*%
%TF.ProjectId,Power Stage,506f7765-7220-4537-9461-67652e6b6963,rev?*%
%TF.SameCoordinates,Original*%
%TF.FileFunction,Soldermask,Bot*%
%TF.FilePolarity,Negative*%
%FSLAX46Y46*%
G04 Gerber Fmt 4.6, Leading zero omitted, Abs format (unit mm)*
G04 Created by KiCad (PCBNEW 10.0.2) date 2026-05-28 01:34:03*
%MOMM*%
%LPD*%
G01*
G04 APERTURE LIST*
G04 Aperture macros list*
%AMRoundRect*
0 Rectangle with rounded corners*
0 $1 Rounding radius*
0 $2 $3 $4 $5 $6 $7 $8 $9 X,Y pos of 4 corners*
0 Add a 4 corners polygon primitive as box body*
4,1,4,$2,$3,$4,$5,$6,$7,$8,$9,$2,$3,0*
0 Add four circle primitives for the rounded corners*
1,1,$1+$1,$2,$3*
1,1,$1+$1,$4,$5*
1,1,$1+$1,$6,$7*
1,1,$1+$1,$8,$9*
0 Add four rect primitives between the rounded corners*
20,1,$1+$1,$2,$3,$4,$5,0*
20,1,$1+$1,$4,$5,$6,$7,0*
20,1,$1+$1,$6,$7,$8,$9,0*
20,1,$1+$1,$8,$9,$2,$3,0*%
G04 Aperture macros list end*
%ADD10R,1.700000X1.700000*%
%ADD11C,1.700000*%
%ADD12C,2.400000*%
%ADD13RoundRect,0.250000X-1.000000X-1.000000X1.000000X-1.000000X1.000000X1.000000X-1.000000X1.000000X0*%
%ADD14C,2.500000*%
%ADD15RoundRect,0.250001X-0.899999X-0.899999X0.899999X-0.899999X0.899999X0.899999X-0.899999X0.899999X0*%
%ADD16C,2.300000*%
%ADD17RoundRect,0.225000X-0.250000X0.225000X-0.250000X-0.225000X0.250000X-0.225000X0.250000X0.225000X0*%
%ADD18RoundRect,0.250000X1.425000X-0.362500X1.425000X0.362500X-1.425000X0.362500X-1.425000X-0.362500X0*%
%ADD19RoundRect,0.250000X1.100000X-0.325000X1.100000X0.325000X-1.100000X0.325000X-1.100000X-0.325000X0*%
%ADD20RoundRect,0.249998X-4.550002X3.650002X-4.550002X-3.650002X4.550002X-3.650002X4.550002X3.650002X0*%
G04 APERTURE END LIST*
D10*
%TO.C,J2*%
X104625000Y-52400000D03*
D11*
X102085000Y-52400000D03*
%TD*%
D12*
%TO.C,C89*%
X140000000Y-95850000D03*
X140000000Y-73350000D03*
%TD*%
D10*
%TO.C,J3*%
X112225000Y-52400000D03*
D11*
X109685000Y-52400000D03*
%TD*%
D13*
%TO.C,J6*%
X117500000Y-95167500D03*
D14*
X122500000Y-95167500D03*
X127500000Y-95167500D03*
X132500000Y-95167500D03*
%TD*%
D12*
%TO.C,C88*%
X109900000Y-95850000D03*
X109900000Y-73350000D03*
%TD*%
D15*
%TO.C,J1*%
X123250000Y-53317500D03*
D16*
X126750000Y-53317500D03*
%TD*%
D10*
%TO.C,J7*%
X146500000Y-98000000D03*
%TD*%
%TO.C,J4*%
X140145000Y-52400000D03*
D11*
X137605000Y-52400000D03*
%TD*%
D10*
%TO.C,J5*%
X103500000Y-98000000D03*
%TD*%
D17*
%TO.C,C64*%
X138150000Y-67275000D03*
X138150000Y-68825000D03*
%TD*%
%TO.C,C20*%
X107200000Y-67225000D03*
X107200000Y-68775000D03*
%TD*%
%TO.C,C25*%
X114700000Y-67225000D03*
X114700000Y-68775000D03*
%TD*%
D18*
%TO.C,R10*%
X135700000Y-61012500D03*
X135700000Y-55087500D03*
%TD*%
D19*
%TO.C,C79*%
X143700000Y-65725000D03*
X143700000Y-62775000D03*
%TD*%
D17*
%TO.C,C28*%
X119200000Y-67225000D03*
X119200000Y-68775000D03*
%TD*%
D18*
%TO.C,R1*%
X102500000Y-60962500D03*
X102500000Y-55037500D03*
%TD*%
D17*
%TO.C,C65*%
X139650000Y-67275000D03*
X139650000Y-68825000D03*
%TD*%
D19*
%TO.C,C34*%
X109350000Y-65675000D03*
X109350000Y-62725000D03*
%TD*%
D17*
%TO.C,C26*%
X116200000Y-67225000D03*
X116200000Y-68775000D03*
%TD*%
D19*
%TO.C,C75*%
X130900000Y-65725000D03*
X130900000Y-62775000D03*
%TD*%
D20*
%TO.C,C1*%
X133500000Y-76900000D03*
X133500000Y-89400000D03*
%TD*%
D19*
%TO.C,C38*%
X118950000Y-65675000D03*
X118950000Y-62725000D03*
%TD*%
D17*
%TO.C,C16*%
X101200000Y-67225000D03*
X101200000Y-68775000D03*
%TD*%
%TO.C,C59*%
X130650000Y-67275000D03*
X130650000Y-68825000D03*
%TD*%
%TO.C,C70*%
X147150000Y-67275000D03*
X147150000Y-68825000D03*
%TD*%
D18*
%TO.C,R12*%
X147450000Y-61012500D03*
X147450000Y-55087500D03*
%TD*%
D17*
%TO.C,C69*%
X145650000Y-67275000D03*
X145650000Y-68825000D03*
%TD*%
D18*
%TO.C,R11*%
X142100000Y-61012500D03*
X142100000Y-55087500D03*
%TD*%
D17*
%TO.C,C19*%
X105700000Y-67225000D03*
X105700000Y-68775000D03*
%TD*%
D18*
%TO.C,R4*%
X119500000Y-61012500D03*
X119500000Y-55087500D03*
%TD*%
D17*
%TO.C,C71*%
X148650000Y-67275000D03*
X148650000Y-68825000D03*
%TD*%
%TO.C,C61*%
X133650000Y-67275000D03*
X133650000Y-68825000D03*
%TD*%
%TO.C,C63*%
X136650000Y-67275000D03*
X136650000Y-68825000D03*
%TD*%
%TO.C,C58*%
X129150000Y-67275000D03*
X129150000Y-68825000D03*
%TD*%
D19*
%TO.C,C36*%
X115750000Y-65675000D03*
X115750000Y-62725000D03*
%TD*%
%TO.C,C33*%
X102950000Y-65675000D03*
X102950000Y-62725000D03*
%TD*%
D17*
%TO.C,C24*%
X113200000Y-67225000D03*
X113200000Y-68775000D03*
%TD*%
%TO.C,C29*%
X120700000Y-67225000D03*
X120700000Y-68775000D03*
%TD*%
D19*
%TO.C,C80*%
X146900000Y-65725000D03*
X146900000Y-62775000D03*
%TD*%
D20*
%TO.C,C2*%
X116400000Y-76900000D03*
X116400000Y-89400000D03*
%TD*%
D17*
%TO.C,C22*%
X110200000Y-67225000D03*
X110200000Y-68775000D03*
%TD*%
%TO.C,C67*%
X142650000Y-67275000D03*
X142650000Y-68825000D03*
%TD*%
%TO.C,C18*%
X104200000Y-67225000D03*
X104200000Y-68775000D03*
%TD*%
%TO.C,C68*%
X144150000Y-67275000D03*
X144150000Y-68825000D03*
%TD*%
%TO.C,C27*%
X117700000Y-67225000D03*
X117700000Y-68775000D03*
%TD*%
D19*
%TO.C,C35*%
X106150000Y-65675000D03*
X106150000Y-62725000D03*
%TD*%
D17*
%TO.C,C21*%
X108700000Y-67225000D03*
X108700000Y-68775000D03*
%TD*%
%TO.C,C62*%
X135150000Y-67275000D03*
X135150000Y-68825000D03*
%TD*%
D18*
%TO.C,R2*%
X107750000Y-61012500D03*
X107750000Y-55087500D03*
%TD*%
D19*
%TO.C,C37*%
X112550000Y-65675000D03*
X112550000Y-62725000D03*
%TD*%
D17*
%TO.C,C23*%
X111700000Y-67225000D03*
X111700000Y-68775000D03*
%TD*%
%TO.C,C66*%
X141150000Y-67275000D03*
X141150000Y-68825000D03*
%TD*%
%TO.C,C60*%
X132150000Y-67275000D03*
X132150000Y-68825000D03*
%TD*%
D19*
%TO.C,C77*%
X137300000Y-65725000D03*
X137300000Y-62775000D03*
%TD*%
D18*
%TO.C,R3*%
X114150000Y-61012500D03*
X114150000Y-55087500D03*
%TD*%
D17*
%TO.C,C17*%
X102700000Y-67225000D03*
X102700000Y-68775000D03*
%TD*%
D18*
%TO.C,R9*%
X130450000Y-61012500D03*
X130450000Y-55087500D03*
%TD*%
D19*
%TO.C,C78*%
X140500000Y-65725000D03*
X140500000Y-62775000D03*
%TD*%
%TO.C,C76*%
X134100000Y-65725000D03*
X134100000Y-62775000D03*
%TD*%
M02*
