%TF.GenerationSoftware,KiCad,Pcbnew,10.0.3*%
%TF.CreationDate,2026-05-31T00:14:14+02:00*%
%TF.ProjectId,Power Stage,506f7765-7220-4537-9461-67652e6b6963,rev?*%
%TF.SameCoordinates,Original*%
%TF.FileFunction,Paste,Top*%
%TF.FilePolarity,Positive*%
%FSLAX46Y46*%
G04 Gerber Fmt 4.6, Leading zero omitted, Abs format (unit mm)*
G04 Created by KiCad (PCBNEW 10.0.3) date 2026-05-31 00:14:14*
%MOMM*%
%LPD*%
G01*
G04 APERTURE LIST*
G04 Aperture macros list*
%AMRoundRect*
0 Rectangle with rounded corners*
0 $1 Rounding radius*
0 $2 $3 $4 $5 $6 $7 $8 $9 X,Y pos of 4 corners*
0 Add a 4 corners polygon primitive as box body*
4,1,4,$2,$3,$4,$5,$6,$7,$8,$9,$2,$3,0*
0 Add four circle primitives for the rounded corners*
1,1,$1+$1,$2,$3*
1,1,$1+$1,$4,$5*
1,1,$1+$1,$6,$7*
1,1,$1+$1,$8,$9*
0 Add four rect primitives between the rounded corners*
20,1,$1+$1,$2,$3,$4,$5,0*
20,1,$1+$1,$4,$5,$6,$7,0*
20,1,$1+$1,$6,$7,$8,$9,0*
20,1,$1+$1,$8,$9,$2,$3,0*%
%AMOutline5P*
0 Free polygon, 5 corners , with rotation*
0 The origin of the aperture is its center*
0 number of corners: always 5*
0 $1 to $10 corner X, Y*
0 $11 Rotation angle, in degrees counterclockwise*
0 create outline with 5 corners*
4,1,5,$1,$2,$3,$4,$5,$6,$7,$8,$9,$10,$1,$2,$11*%
%AMOutline6P*
0 Free polygon, 6 corners , with rotation*
0 The origin of the aperture is its center*
0 number of corners: always 6*
0 $1 to $12 corner X, Y*
0 $13 Rotation angle, in degrees counterclockwise*
0 create outline with 6 corners*
4,1,6,$1,$2,$3,$4,$5,$6,$7,$8,$9,$10,$11,$12,$1,$2,$13*%
%AMOutline7P*
0 Free polygon, 7 corners , with rotation*
0 The origin of the aperture is its center*
0 number of corners: always 7*
0 $1 to $14 corner X, Y*
0 $15 Rotation angle, in degrees counterclockwise*
0 create outline with 7 corners*
4,1,7,$1,$2,$3,$4,$5,$6,$7,$8,$9,$10,$11,$12,$13,$14,$1,$2,$15*%
%AMOutline8P*
0 Free polygon, 8 corners , with rotation*
0 The origin of the aperture is its center*
0 number of corners: always 8*
0 $1 to $16 corner X, Y*
0 $17 Rotation angle, in degrees counterclockwise*
0 create outline with 8 corners*
4,1,8,$1,$2,$3,$4,$5,$6,$7,$8,$9,$10,$11,$12,$13,$14,$15,$16,$1,$2,$17*%
G04 Aperture macros list end*
%ADD10RoundRect,0.225000X-0.250000X0.225000X-0.250000X-0.225000X0.250000X-0.225000X0.250000X0.225000X0*%
%ADD11RoundRect,0.250000X0.325000X1.100000X-0.325000X1.100000X-0.325000X-1.100000X0.325000X-1.100000X0*%
%ADD12RoundRect,0.225000X0.250000X-0.225000X0.250000X0.225000X-0.250000X0.225000X-0.250000X-0.225000X0*%
%ADD13RoundRect,0.200000X0.275000X-0.200000X0.275000X0.200000X-0.275000X0.200000X-0.275000X-0.200000X0*%
%ADD14R,0.304800X0.838200*%
%ADD15RoundRect,0.225000X0.225000X0.250000X-0.225000X0.250000X-0.225000X-0.250000X0.225000X-0.250000X0*%
%ADD16RoundRect,0.225000X-0.225000X-0.250000X0.225000X-0.250000X0.225000X0.250000X-0.225000X0.250000X0*%
%ADD17RoundRect,0.250000X1.100000X-0.325000X1.100000X0.325000X-1.100000X0.325000X-1.100000X-0.325000X0*%
%ADD18RoundRect,0.200000X-0.200000X-0.275000X0.200000X-0.275000X0.200000X0.275000X-0.200000X0.275000X0*%
%ADD19R,3.400000X7.700000*%
%ADD20R,3.400000X3.200000*%
%ADD21RoundRect,0.250000X-1.100000X0.325000X-1.100000X-0.325000X1.100000X-0.325000X1.100000X0.325000X0*%
%ADD22RoundRect,0.200000X0.200000X0.275000X-0.200000X0.275000X-0.200000X-0.275000X0.200000X-0.275000X0*%
%ADD23Outline5P,-0.175000X0.300000X0.175000X0.300000X0.175000X-0.300000X-0.017500X-0.300000X-0.175000X-0.142500X90.000000*%
%ADD24R,0.600000X0.350000*%
%ADD25R,0.400000X0.200000*%
%ADD26Outline8P,-0.412500X2.258750X-0.371250X2.300000X0.371250X2.300000X0.412500X2.258750X0.412500X-2.258750X0.371250X-2.300000X-0.371250X-2.300000X-0.412500X-2.258750X90.000000*%
%ADD27Outline8P,-0.550000X2.245000X-0.495000X2.300000X0.495000X2.300000X0.550000X2.245000X0.550000X-2.245000X0.495000X-2.300000X-0.495000X-2.300000X-0.550000X-2.245000X90.000000*%
%ADD28R,0.250000X0.400000*%
%ADD29Outline6P,-0.250000X2.375000X0.200000X2.375000X0.250000X2.325000X0.250000X-2.325000X0.200000X-2.375000X-0.250000X-2.375000X90.000000*%
%ADD30R,0.350000X0.600000*%
G04 APERTURE END LIST*
D10*
%TO.C,C49*%
X132450000Y-67275000D03*
X132450000Y-68825000D03*
%TD*%
%TO.C,C53*%
X143950000Y-67275000D03*
X143950000Y-68825000D03*
%TD*%
D11*
%TO.C,C32*%
X145125000Y-86600000D03*
X142175000Y-86600000D03*
%TD*%
D10*
%TO.C,C51*%
X135450000Y-67275000D03*
X135450000Y-68825000D03*
%TD*%
D12*
%TO.C,C85*%
X138150000Y-58875000D03*
X138150000Y-57325000D03*
%TD*%
%TO.C,C90*%
X103000000Y-93425000D03*
X103000000Y-91875000D03*
%TD*%
%TO.C,C57*%
X145450000Y-65825000D03*
X145450000Y-64275000D03*
%TD*%
D13*
%TO.C,R13*%
X135450000Y-65875000D03*
X135450000Y-64225000D03*
%TD*%
D14*
%TO.C,U1*%
X114349999Y-57058600D03*
X113700000Y-57058600D03*
X113050001Y-57058600D03*
X113050001Y-59141400D03*
X114349999Y-59141400D03*
%TD*%
D12*
%TO.C,C83*%
X133950000Y-65825000D03*
X133950000Y-64275000D03*
%TD*%
D14*
%TO.C,U3*%
X108849999Y-57058600D03*
X108200000Y-57058600D03*
X107550001Y-57058600D03*
X107550001Y-59141400D03*
X108849999Y-59141400D03*
%TD*%
D10*
%TO.C,C11*%
X116000000Y-67225000D03*
X116000000Y-68775000D03*
%TD*%
D13*
%TO.C,R5*%
X107500000Y-65825000D03*
X107500000Y-64175000D03*
%TD*%
D15*
%TO.C,C31*%
X109725000Y-62700000D03*
X108175000Y-62700000D03*
%TD*%
D16*
%TO.C,C42*%
X105900000Y-70250000D03*
X107450000Y-70250000D03*
%TD*%
D10*
%TO.C,C54*%
X145450000Y-67275000D03*
X145450000Y-68825000D03*
%TD*%
D15*
%TO.C,C82*%
X141775000Y-62750000D03*
X140225000Y-62750000D03*
%TD*%
D13*
%TO.C,R7*%
X114500000Y-65850000D03*
X114500000Y-64200000D03*
%TD*%
D10*
%TO.C,C7*%
X104500000Y-67225000D03*
X104500000Y-68775000D03*
%TD*%
D12*
%TO.C,C4*%
X104500000Y-65775000D03*
X104500000Y-64225000D03*
%TD*%
D17*
%TO.C,C81*%
X147800000Y-65725000D03*
X147800000Y-62775000D03*
%TD*%
D15*
%TO.C,C40*%
X113825000Y-62700000D03*
X112275000Y-62700000D03*
%TD*%
D13*
%TO.C,R17*%
X103000000Y-90500000D03*
X103000000Y-88850000D03*
%TD*%
D10*
%TO.C,C55*%
X146950000Y-67275000D03*
X146950000Y-68825000D03*
%TD*%
D17*
%TO.C,C74*%
X130100000Y-65725000D03*
X130100000Y-62775000D03*
%TD*%
D10*
%TO.C,C14*%
X120500000Y-67225000D03*
X120500000Y-68775000D03*
%TD*%
D12*
%TO.C,C41*%
X106000000Y-65775000D03*
X106000000Y-64225000D03*
%TD*%
D10*
%TO.C,C10*%
X114500000Y-67225000D03*
X114500000Y-68775000D03*
%TD*%
%TO.C,C6*%
X103000000Y-67225000D03*
X103000000Y-68775000D03*
%TD*%
D18*
%TO.C,R8*%
X117425000Y-70250000D03*
X119075000Y-70250000D03*
%TD*%
D10*
%TO.C,C48*%
X130950000Y-67275000D03*
X130950000Y-68825000D03*
%TD*%
D13*
%TO.C,R15*%
X142450000Y-65875000D03*
X142450000Y-64225000D03*
%TD*%
D15*
%TO.C,C73*%
X137675000Y-62750000D03*
X136125000Y-62750000D03*
%TD*%
D17*
%TO.C,C32*%
X102150000Y-65675000D03*
X102150000Y-62725000D03*
%TD*%
%TO.C,C39*%
X119850000Y-65675000D03*
X119850000Y-62725000D03*
%TD*%
D19*
%TO.C,L1*%
X129300000Y-76350000D03*
X120700000Y-85650000D03*
D20*
X120700000Y-74100000D03*
X129300000Y-87900000D03*
%TD*%
D21*
%TO.C,C3*%
X103000000Y-56525000D03*
X103000000Y-59475000D03*
%TD*%
D18*
%TO.C,R6*%
X102875000Y-70250000D03*
X104525000Y-70250000D03*
%TD*%
D12*
%TO.C,C44*%
X116000000Y-65800000D03*
X116000000Y-64250000D03*
%TD*%
D10*
%TO.C,C47*%
X129450000Y-67275000D03*
X129450000Y-68825000D03*
%TD*%
D12*
%TO.C,C72*%
X143650000Y-58875000D03*
X143650000Y-57325000D03*
%TD*%
D13*
%TO.C,R18*%
X147000000Y-90500000D03*
X147000000Y-88850000D03*
%TD*%
D22*
%TO.C,R14*%
X147025000Y-70300000D03*
X145375000Y-70300000D03*
%TD*%
D15*
%TO.C,C87*%
X135475000Y-70300000D03*
X133925000Y-70300000D03*
%TD*%
D12*
%TO.C,C15*%
X117500000Y-65800000D03*
X117500000Y-64250000D03*
%TD*%
%TO.C,C91*%
X147000000Y-93450000D03*
X147000000Y-91900000D03*
%TD*%
D10*
%TO.C,C9*%
X107500000Y-67225000D03*
X107500000Y-68775000D03*
%TD*%
%TO.C,C56*%
X148450000Y-67275000D03*
X148450000Y-68825000D03*
%TD*%
D22*
%TO.C,R16*%
X132525000Y-70300000D03*
X130875000Y-70300000D03*
%TD*%
D15*
%TO.C,C84*%
X143975000Y-70300000D03*
X142425000Y-70300000D03*
%TD*%
D12*
%TO.C,C43*%
X110200000Y-58875000D03*
X110200000Y-57325000D03*
%TD*%
D10*
%TO.C,C13*%
X119000000Y-67225000D03*
X119000000Y-68775000D03*
%TD*%
D14*
%TO.C,U6*%
X136799999Y-57058600D03*
X136150000Y-57058600D03*
X135500001Y-57058600D03*
X135500001Y-59141400D03*
X136799999Y-59141400D03*
%TD*%
D10*
%TO.C,C50*%
X133950000Y-67275000D03*
X133950000Y-68825000D03*
%TD*%
%TO.C,C5*%
X101500000Y-67225000D03*
X101500000Y-68775000D03*
%TD*%
D23*
%TO.C,U5*%
X136825000Y-65150000D03*
D24*
X136825000Y-66000000D03*
D25*
X136725000Y-66887500D03*
D26*
X138950000Y-67050000D03*
D25*
X136725000Y-67287500D03*
X136725000Y-68150000D03*
D27*
X138950000Y-68550000D03*
D25*
X136725000Y-68550000D03*
X136725000Y-68950000D03*
D28*
X136700000Y-70025000D03*
D29*
X138950000Y-69850000D03*
D28*
X137200000Y-70025000D03*
X137700000Y-70025000D03*
X138200000Y-70025000D03*
X138700000Y-70025000D03*
X139200000Y-70025000D03*
X139700000Y-70025000D03*
X140200000Y-70025000D03*
X140700000Y-70025000D03*
X141200000Y-70025000D03*
D25*
X141175000Y-68950000D03*
X141175000Y-68550000D03*
X141175000Y-68150000D03*
X141175000Y-67287500D03*
X141175000Y-66887500D03*
D24*
X141075000Y-66000000D03*
X141075000Y-65150000D03*
D30*
X141075000Y-64175000D03*
X140225000Y-64175000D03*
X139375000Y-64175000D03*
X138525000Y-64175000D03*
X137675000Y-64175000D03*
X136825000Y-64175000D03*
%TD*%
D23*
%TO.C,U2*%
X108875000Y-65100000D03*
D24*
X108875000Y-65950000D03*
D25*
X108775000Y-66837500D03*
D26*
X111000000Y-67000000D03*
D25*
X108775000Y-67237500D03*
X108775000Y-68100000D03*
D27*
X111000000Y-68500000D03*
D25*
X108775000Y-68500000D03*
X108775000Y-68900000D03*
D28*
X108750000Y-69975000D03*
D29*
X111000000Y-69800000D03*
D28*
X109250000Y-69975000D03*
X109750000Y-69975000D03*
X110250000Y-69975000D03*
X110750000Y-69975000D03*
X111250000Y-69975000D03*
X111750000Y-69975000D03*
X112250000Y-69975000D03*
X112750000Y-69975000D03*
X113250000Y-69975000D03*
D25*
X113225000Y-68900000D03*
X113225000Y-68500000D03*
X113225000Y-68100000D03*
X113225000Y-67237500D03*
X113225000Y-66837500D03*
D24*
X113125000Y-65950000D03*
X113125000Y-65100000D03*
D30*
X113125000Y-64125000D03*
X112275000Y-64125000D03*
X111425000Y-64125000D03*
X110575000Y-64125000D03*
X109725000Y-64125000D03*
X108875000Y-64125000D03*
%TD*%
D12*
%TO.C,C46*%
X132450000Y-65825000D03*
X132450000Y-64275000D03*
%TD*%
D10*
%TO.C,C8*%
X106000000Y-67225000D03*
X106000000Y-68775000D03*
%TD*%
D16*
%TO.C,C45*%
X114475000Y-70250000D03*
X116025000Y-70250000D03*
%TD*%
D12*
%TO.C,C86*%
X143950000Y-65825000D03*
X143950000Y-64275000D03*
%TD*%
D10*
%TO.C,C52*%
X142450000Y-67275000D03*
X142450000Y-68825000D03*
%TD*%
D12*
%TO.C,C30*%
X115700000Y-58875000D03*
X115700000Y-57325000D03*
%TD*%
D14*
%TO.C,U4*%
X142299999Y-57058600D03*
X141650000Y-57058600D03*
X141000001Y-57058600D03*
X141000001Y-59141400D03*
X142299999Y-59141400D03*
%TD*%
D11*
%TO.C,C32*%
X107725000Y-86600000D03*
X104775000Y-86600000D03*
%TD*%
D10*
%TO.C,C12*%
X117500000Y-67225000D03*
X117500000Y-68775000D03*
%TD*%
M02*
