M48
; DRILL file KiCad 10.0.2 date 2026-05-28T01:34:07
; FORMAT={-:-/ absolute / metric / decimal}
; #@! TF.CreationDate,2026-05-28T01:34:07+02:00
; #@! TF.GenerationSoftware,Kicad,Pcbnew,10.0.2
; #@! TF.FileFunction,Plated,1,4,PTH
FMAT,2
METRIC
; #@! TA.AperFunction,Plated,PTH,ViaDrill
T1C0.300
; #@! TA.AperFunction,Plated,PTH,ComponentDrill
T2C1.000
; #@! TA.AperFunction,Plated,PTH,ComponentDrill
T3C1.200
; #@! TA.AperFunction,Plated,PTH,ComponentDrill
T4C1.300
%
G90
G05
T1
X101.0Y-64.0
X101.1Y-55.0
X101.2Y-67.225
X101.2Y-68.775
X101.36Y-65.678
X101.5Y-62.75
X101.5Y-98.0
X102.0Y-51.0
X102.0Y-58.0
X102.0Y-75.0
X102.0Y-81.0
X102.0Y-87.0
X102.15Y-59.45
X102.5Y-62.75
X102.7Y-67.225
X102.7Y-68.775
X102.875Y-70.25
X102.95Y-65.675
X103.0Y-59.45
X103.0Y-64.0
X103.0Y-88.85
X103.5Y-62.75
X103.85Y-59.45
X104.1Y-55.0
X104.2Y-67.225
X104.2Y-68.775
X104.5Y-64.225
X104.5Y-65.775
X104.775Y-86.6
X105.625Y-59.8
X105.7Y-67.225
X105.7Y-68.775
X106.0Y-51.0
X106.0Y-64.225
X106.0Y-72.0
X106.0Y-78.0
X106.0Y-84.0
X106.0Y-91.0
X106.5Y-55.0
X107.2Y-67.225
X107.2Y-68.775
X107.55Y-57.059
X108.5Y-55.0
X108.7Y-67.225
X108.7Y-68.2
X108.7Y-68.775
X108.746Y-66.605
X108.875Y-64.125
X109.446Y-66.9
X109.446Y-67.5
X109.45Y-68.2
X109.45Y-68.8
X109.946Y-65.005
X109.946Y-65.705
X109.946Y-66.405
X110.0Y-51.0
X110.2Y-57.325
X110.2Y-67.225
X110.2Y-68.2
X110.2Y-68.8
X110.946Y-65.005
X110.946Y-65.705
X110.946Y-66.305
X110.946Y-66.9
X110.946Y-67.5
X110.95Y-68.2
X110.95Y-68.8
X111.0Y-55.0
X111.5Y-59.5
X111.7Y-67.225
X111.7Y-68.2
X111.7Y-68.8
X111.946Y-65.005
X111.946Y-65.693
X111.946Y-66.405
X112.446Y-66.9
X112.446Y-67.5
X112.45Y-68.2
X112.45Y-68.8
X113.0Y-55.0
X113.046Y-66.605
X113.05Y-57.059
X113.2Y-67.225
X113.3Y-68.2
X113.3Y-68.8
X113.7Y-57.059
X113.725Y-59.775
X114.7Y-67.225
X114.7Y-68.775
X115.0Y-51.0
X115.0Y-87.0
X115.5Y-55.0
X115.7Y-57.325
X116.0Y-64.25
X116.2Y-67.225
X116.2Y-68.775
X116.4Y-89.4
X117.0Y-57.0
X117.4Y-53.5
X117.5Y-64.25
X117.5Y-65.8
X117.7Y-67.225
X117.7Y-68.775
X118.0Y-87.0
X118.25Y-62.75
X118.5Y-55.0
X118.95Y-65.675
X119.0Y-64.0
X119.075Y-70.25
X119.2Y-67.225
X119.2Y-68.775
X119.25Y-62.75
X119.5Y-55.0
X120.0Y-51.0
X120.0Y-59.0
X120.5Y-62.75
X120.554Y-65.656
X120.7Y-67.225
X120.7Y-68.775
X121.0Y-64.0
X123.0Y-55.5
X123.0Y-57.5
X123.0Y-59.5
X123.0Y-61.5
X123.0Y-63.5
X123.0Y-65.5
X123.0Y-67.5
X125.0Y-55.5
X125.0Y-57.5
X125.0Y-59.5
X125.0Y-61.5
X125.0Y-63.5
X125.0Y-65.5
X125.0Y-67.5
X125.0Y-69.0
X127.0Y-55.5
X127.0Y-57.5
X127.0Y-59.5
X127.0Y-61.5
X127.0Y-63.5
X127.0Y-65.5
X127.0Y-67.5
X129.0Y-64.0
X129.15Y-67.275
X129.15Y-68.825
X129.3Y-65.725
X129.5Y-62.75
X130.0Y-59.0
X130.45Y-55.087
X130.5Y-62.75
X130.65Y-67.275
X130.65Y-68.825
X130.875Y-70.3
X130.9Y-65.725
X131.0Y-64.0
X131.5Y-55.0
X131.5Y-62.75
X132.0Y-87.0
X132.15Y-67.275
X132.15Y-68.825
X132.45Y-64.275
X132.45Y-65.825
X133.0Y-51.0
X133.0Y-57.0
X133.025Y-53.025
X133.5Y-89.4
X133.65Y-67.275
X133.65Y-68.825
X133.675Y-59.825
X133.95Y-64.275
X135.0Y-55.0
X135.0Y-87.0
X135.15Y-67.275
X135.15Y-68.825
X135.5Y-57.059
X136.0Y-53.0
X136.5Y-55.0
X136.65Y-67.275
X136.65Y-68.25
X136.65Y-68.825
X136.7Y-66.6
X136.825Y-64.175
X137.4Y-67.0
X137.4Y-67.6
X137.4Y-68.25
X137.4Y-68.85
X137.9Y-65.0
X137.9Y-65.7
X137.9Y-66.4
X138.0Y-51.0
X138.15Y-57.325
X138.15Y-67.275
X138.15Y-68.25
X138.15Y-68.85
X138.9Y-65.0
X138.9Y-65.7
X138.9Y-66.4
X138.9Y-67.0
X138.9Y-67.6
X138.9Y-68.25
X138.9Y-68.85
X139.0Y-55.0
X139.5Y-59.5
X139.65Y-67.275
X139.65Y-68.25
X139.65Y-68.85
X139.9Y-65.0
X139.9Y-65.688
X139.9Y-66.4
X140.4Y-67.0
X140.4Y-67.6
X140.4Y-68.25
X140.4Y-68.85
X141.0Y-55.0
X141.0Y-66.6
X141.0Y-57.059
X141.15Y-67.275
X141.25Y-68.25
X141.25Y-68.85
X141.65Y-57.059
X141.675Y-59.85
X142.65Y-67.275
X142.65Y-68.825
X143.0Y-51.0
X143.0Y-55.0
X143.65Y-57.325
X143.95Y-64.275
X144.0Y-72.0
X144.0Y-78.0
X144.0Y-84.0
X144.0Y-92.0
X144.15Y-67.275
X144.15Y-68.825
X145.125Y-86.6
X145.45Y-64.275
X145.45Y-65.825
X145.65Y-67.275
X145.65Y-68.825
X146.0Y-59.0
X146.25Y-62.75
X146.3Y-52.5
X146.5Y-55.0
X146.9Y-65.725
X147.0Y-64.0
X147.0Y-88.85
X147.025Y-70.3
X147.15Y-67.275
X147.15Y-68.825
X147.5Y-62.75
X148.0Y-51.0
X148.0Y-57.0
X148.0Y-75.0
X148.0Y-81.0
X148.0Y-88.0
X148.5Y-55.0
X148.5Y-62.75
X148.5Y-65.725
X148.5Y-98.0
X148.65Y-67.275
X148.65Y-68.825
X149.0Y-64.0
T2
X102.085Y-52.4
X103.5Y-98.0
X104.625Y-52.4
X109.685Y-52.4
X112.225Y-52.4
X137.605Y-52.4
X140.145Y-52.4
X146.5Y-98.0
T3
X109.9Y-73.35
X109.9Y-95.85
X123.25Y-53.317
X126.75Y-53.317
X140.0Y-73.35
X140.0Y-95.85
T4
X117.5Y-95.167
X122.5Y-95.167
X127.5Y-95.167
X132.5Y-95.167
M30
