%TF.GenerationSoftware,KiCad,Pcbnew,10.0.3*%
%TF.CreationDate,2026-05-31T00:14:14+02:00*%
%TF.ProjectId,Power Stage,506f7765-7220-4537-9461-67652e6b6963,rev?*%
%TF.SameCoordinates,Original*%
%TF.FileFunction,Legend,Bot*%
%TF.FilePolarity,Positive*%
%FSLAX46Y46*%
G04 Gerber Fmt 4.6, Leading zero omitted, Abs format (unit mm)*
G04 Created by KiCad (PCBNEW 10.0.3) date 2026-05-31 00:14:14*
%MOMM*%
%LPD*%
G01*
G04 APERTURE LIST*
%ADD10C,0.120000*%
G04 APERTURE END LIST*
%TO.C,C64*%
D10*
X137640000Y-67909420D02*
X137640000Y-68190580D01*
X138660000Y-67909420D02*
X138660000Y-68190580D01*
%TO.C,C20*%
X106690000Y-67859420D02*
X106690000Y-68140580D01*
X107710000Y-67859420D02*
X107710000Y-68140580D01*
%TO.C,C25*%
X114190000Y-67859420D02*
X114190000Y-68140580D01*
X115210000Y-67859420D02*
X115210000Y-68140580D01*
%TO.C,R10*%
X133990000Y-60227064D02*
X133990000Y-55872936D01*
X137410000Y-60227064D02*
X137410000Y-55872936D01*
%TO.C,C79*%
X142340000Y-64961252D02*
X142340000Y-63538748D01*
X145060000Y-64961252D02*
X145060000Y-63538748D01*
%TO.C,C28*%
X118690000Y-67859420D02*
X118690000Y-68140580D01*
X119710000Y-67859420D02*
X119710000Y-68140580D01*
%TO.C,R1*%
X100790000Y-60177064D02*
X100790000Y-55822936D01*
X104210000Y-60177064D02*
X104210000Y-55822936D01*
%TO.C,C65*%
X139140000Y-67909420D02*
X139140000Y-68190580D01*
X140160000Y-67909420D02*
X140160000Y-68190580D01*
%TO.C,C34*%
X107990000Y-64911252D02*
X107990000Y-63488748D01*
X110710000Y-64911252D02*
X110710000Y-63488748D01*
%TO.C,C26*%
X115690000Y-67859420D02*
X115690000Y-68140580D01*
X116710000Y-67859420D02*
X116710000Y-68140580D01*
%TO.C,C75*%
X129540000Y-64961252D02*
X129540000Y-63538748D01*
X132260000Y-64961252D02*
X132260000Y-63538748D01*
%TO.C,C1*%
X125090000Y-75804437D02*
X125090000Y-91560000D01*
X125090000Y-91560000D02*
X128440000Y-91560000D01*
X126154437Y-74740000D02*
X125090000Y-75804437D01*
X126154437Y-74740000D02*
X128440000Y-74740000D01*
X140845563Y-74740000D02*
X138560000Y-74740000D01*
X140845563Y-74740000D02*
X141910000Y-75804437D01*
X141910000Y-75804437D02*
X141910000Y-91560000D01*
X141910000Y-91560000D02*
X138560000Y-91560000D01*
%TO.C,C38*%
X117590000Y-64911252D02*
X117590000Y-63488748D01*
X120310000Y-64911252D02*
X120310000Y-63488748D01*
%TO.C,C16*%
X100690000Y-67859420D02*
X100690000Y-68140580D01*
X101710000Y-67859420D02*
X101710000Y-68140580D01*
%TO.C,C59*%
X130140000Y-67909420D02*
X130140000Y-68190580D01*
X131160000Y-67909420D02*
X131160000Y-68190580D01*
%TO.C,C70*%
X146640000Y-67909420D02*
X146640000Y-68190580D01*
X147660000Y-67909420D02*
X147660000Y-68190580D01*
%TO.C,R12*%
X145740000Y-60227064D02*
X145740000Y-55872936D01*
X149160000Y-60227064D02*
X149160000Y-55872936D01*
%TO.C,C69*%
X145140000Y-67909420D02*
X145140000Y-68190580D01*
X146160000Y-67909420D02*
X146160000Y-68190580D01*
%TO.C,R11*%
X140390000Y-60227064D02*
X140390000Y-55872936D01*
X143810000Y-60227064D02*
X143810000Y-55872936D01*
%TO.C,C19*%
X105190000Y-67859420D02*
X105190000Y-68140580D01*
X106210000Y-67859420D02*
X106210000Y-68140580D01*
%TO.C,R4*%
X117790000Y-60227064D02*
X117790000Y-55872936D01*
X121210000Y-60227064D02*
X121210000Y-55872936D01*
%TO.C,C71*%
X148140000Y-67909420D02*
X148140000Y-68190580D01*
X149160000Y-67909420D02*
X149160000Y-68190580D01*
%TO.C,C61*%
X133140000Y-67909420D02*
X133140000Y-68190580D01*
X134160000Y-67909420D02*
X134160000Y-68190580D01*
%TO.C,C63*%
X136140000Y-67909420D02*
X136140000Y-68190580D01*
X137160000Y-67909420D02*
X137160000Y-68190580D01*
%TO.C,C58*%
X128640000Y-67909420D02*
X128640000Y-68190580D01*
X129660000Y-67909420D02*
X129660000Y-68190580D01*
%TO.C,C36*%
X114390000Y-64911252D02*
X114390000Y-63488748D01*
X117110000Y-64911252D02*
X117110000Y-63488748D01*
%TO.C,C33*%
X101590000Y-64911252D02*
X101590000Y-63488748D01*
X104310000Y-64911252D02*
X104310000Y-63488748D01*
%TO.C,C24*%
X112690000Y-67859420D02*
X112690000Y-68140580D01*
X113710000Y-67859420D02*
X113710000Y-68140580D01*
%TO.C,C29*%
X120190000Y-67859420D02*
X120190000Y-68140580D01*
X121210000Y-67859420D02*
X121210000Y-68140580D01*
%TO.C,C80*%
X145540000Y-64961252D02*
X145540000Y-63538748D01*
X148260000Y-64961252D02*
X148260000Y-63538748D01*
%TO.C,C2*%
X107990000Y-75804437D02*
X107990000Y-91560000D01*
X107990000Y-91560000D02*
X111340000Y-91560000D01*
X109054437Y-74740000D02*
X107990000Y-75804437D01*
X109054437Y-74740000D02*
X111340000Y-74740000D01*
X123745563Y-74740000D02*
X121460000Y-74740000D01*
X123745563Y-74740000D02*
X124810000Y-75804437D01*
X124810000Y-75804437D02*
X124810000Y-91560000D01*
X124810000Y-91560000D02*
X121460000Y-91560000D01*
%TO.C,C22*%
X109690000Y-67859420D02*
X109690000Y-68140580D01*
X110710000Y-67859420D02*
X110710000Y-68140580D01*
%TO.C,C67*%
X142140000Y-67909420D02*
X142140000Y-68190580D01*
X143160000Y-67909420D02*
X143160000Y-68190580D01*
%TO.C,C18*%
X103690000Y-67859420D02*
X103690000Y-68140580D01*
X104710000Y-67859420D02*
X104710000Y-68140580D01*
%TO.C,C68*%
X143640000Y-67909420D02*
X143640000Y-68190580D01*
X144660000Y-67909420D02*
X144660000Y-68190580D01*
%TO.C,C27*%
X117190000Y-67859420D02*
X117190000Y-68140580D01*
X118210000Y-67859420D02*
X118210000Y-68140580D01*
%TO.C,C35*%
X104790000Y-64911252D02*
X104790000Y-63488748D01*
X107510000Y-64911252D02*
X107510000Y-63488748D01*
%TO.C,C21*%
X108190000Y-67859420D02*
X108190000Y-68140580D01*
X109210000Y-67859420D02*
X109210000Y-68140580D01*
%TO.C,C62*%
X134640000Y-67909420D02*
X134640000Y-68190580D01*
X135660000Y-67909420D02*
X135660000Y-68190580D01*
%TO.C,R2*%
X106040000Y-60227064D02*
X106040000Y-55872936D01*
X109460000Y-60227064D02*
X109460000Y-55872936D01*
%TO.C,C37*%
X111190000Y-64911252D02*
X111190000Y-63488748D01*
X113910000Y-64911252D02*
X113910000Y-63488748D01*
%TO.C,C23*%
X111190000Y-67859420D02*
X111190000Y-68140580D01*
X112210000Y-67859420D02*
X112210000Y-68140580D01*
%TO.C,C66*%
X140640000Y-67909420D02*
X140640000Y-68190580D01*
X141660000Y-67909420D02*
X141660000Y-68190580D01*
%TO.C,C60*%
X131640000Y-67909420D02*
X131640000Y-68190580D01*
X132660000Y-67909420D02*
X132660000Y-68190580D01*
%TO.C,C77*%
X135940000Y-64961252D02*
X135940000Y-63538748D01*
X138660000Y-64961252D02*
X138660000Y-63538748D01*
%TO.C,R3*%
X112440000Y-60227064D02*
X112440000Y-55872936D01*
X115860000Y-60227064D02*
X115860000Y-55872936D01*
%TO.C,C17*%
X102190000Y-67859420D02*
X102190000Y-68140580D01*
X103210000Y-67859420D02*
X103210000Y-68140580D01*
%TO.C,R9*%
X128740000Y-60227064D02*
X128740000Y-55872936D01*
X132160000Y-60227064D02*
X132160000Y-55872936D01*
%TO.C,C78*%
X139140000Y-64961252D02*
X139140000Y-63538748D01*
X141860000Y-64961252D02*
X141860000Y-63538748D01*
%TO.C,C76*%
X132740000Y-64961252D02*
X132740000Y-63538748D01*
X135460000Y-64961252D02*
X135460000Y-63538748D01*
%TD*%
M02*
